<svg width="24" height="24" viewBox="0 0 24 24" fill="none" xmlns="http://www.w3.org/2000/svg">
<path d="M21.9971 21.9847V14.6395C21.9971 11.0537 21.2259 8.2958 17.0325 8.2958C15.0158 8.30593 13.6803 9.411 13.1194 10.456H13.0627V8.6398H9.08618V21.9947H13.2262V15.3773C13.2262 13.6378 13.5601 11.9551 15.7103 11.9551C17.8604 11.9551 17.8637 13.9417 17.8637 15.4876V21.9847H21.9971Z" fill="#9D9896"/>
<path d="M2.34924 8.64507H6.49261V22H2.34924V8.64507Z" fill="#9D9896"/>
<path d="M4.42057 2.00002C3.94294 1.99803 3.47551 2.13798 3.07756 2.40208C2.67962 2.66621 2.3691 3.04258 2.18541 3.48347C2.00172 3.92434 1.95314 4.40985 2.04583 4.87844C2.13853 5.34693 2.36831 5.77741 2.70604 6.11503C3.04376 6.45278 3.47421 6.68265 3.94273 6.77527C4.41127 6.86802 4.89678 6.81939 5.33766 6.63565C5.77854 6.45202 6.15491 6.14154 6.41903 5.74354C6.68314 5.34555 6.82309 4.87819 6.8211 4.40055C6.8211 3.7639 6.5682 3.15331 6.11801 2.70311C5.66781 2.25292 5.05722 2.00002 4.42057 2.00002Z" fill="#9D9896"/>
</svg>
