<svg width="106" height="39" viewBox="0 0 106 39" fill="none" xmlns="http://www.w3.org/2000/svg">
<g clip-path="url(#clip0_299_119212)">
<path d="M96.2369 21.2961L105.998 7.6441H96.5176L91.4953 14.6641L96.2369 21.2961ZM91.4963 31.2586L96.5176 38.2786H105.999L96.2379 24.6306L91.4973 31.2586H91.4963ZM58.813 6.76855C51.447 6.76855 46.6348 10.5681 46.6348 10.5681L49.5596 16.0564C49.5596 16.0564 53.6023 13.1051 58.0465 13.1051C61.6289 13.1051 64.3211 14.9615 64.3211 17.6076V18.2667H63.2297C57.9179 18.2667 43.9062 19.6181 43.9062 29.4012C43.9062 35.5574 49.1523 38.9972 54.9744 38.9972C62.3974 38.9972 64.9561 33.5664 64.8913 33.5664H65.0189C64.9345 34.284 64.8913 35.0055 64.8913 35.728V38.263H72.3771V19.0194C72.3771 11.235 67.3813 6.76758 58.813 6.76758V6.76855ZM64.3809 24.2406C64.3809 27.9836 61.3089 33.0234 57.0149 33.0234C53.6877 33.0234 52.0879 31.0909 52.0879 29.0405C52.1046 24.7544 58.813 23.5083 62.9725 23.5083H64.3809V24.2406Z" fill="#592C82"/>
<path d="M95.0428 22.9637L84.0895 7.64453H74.6094L85.5627 22.9637L74.6094 38.279H84.0905L95.0438 22.9637H95.0428Z" fill="#F4BE49"/>
<path d="M4.22332 15.3026H0V7.644H4.41372V0H12.347V7.644H20.2833V15.3026H12.347V26.0247C12.347 31.0937 16.5704 31.8172 18.8101 31.8172C19.3029 31.8229 19.7952 31.7824 20.2804 31.6963V38.3945C19.4559 38.5252 18.6197 38.5856 17.7844 38.5759C13.2422 38.5759 4.22037 37.3084 4.22037 26.986L4.22332 15.3026ZM24.7628 7.644H32.5675V12.5083C32.5646 13.2298 32.5214 13.9513 32.4399 14.6699H32.5675C34.0388 10.2628 37.9421 7.0551 42.9349 7.0551C43.4274 7.05885 43.9189 7.09959 44.4052 7.17698V15.3319C43.7718 15.2502 43.1338 15.2095 42.4952 15.21C39.0414 15.21 35.1292 17.0801 33.602 21.6684C33.0968 23.2896 32.8591 24.9813 32.8983 26.6779V38.2736H24.7628V7.644Z" fill="#592C82"/>
</g>
<defs>
<clipPath id="clip0_299_119212">
<rect width="106" height="39" fill="white"/>
</clipPath>
</defs>
</svg>
