<svg width="201" height="57" viewBox="0 0 201 57" fill="none" xmlns="http://www.w3.org/2000/svg">
<path d="M186.569 33.359C185.865 33.8884 182.328 36.0943 184.457 30.1824C185.601 27.0059 190.74 12.5703 186.921 9.5349C185.056 8.05252 181.184 7.01132 179.354 8.829C177.506 10.682 178.122 14.5291 178.122 17.4763C178.122 23.4764 175.904 29.653 174.778 32.6531C172.156 34.859 170.396 36.0943 169.499 36.359C169.499 36.359 171.012 30.7118 166.859 30.8883C161.79 31.1001 160.506 36.6414 159.115 36.5355C157.267 36.3943 159.397 32.6531 158.939 31.5942C158.711 31.0648 157.179 30.8177 154.716 30.8883C148.908 31.0648 148.908 35.8296 148.908 36.5355C148.908 38.6532 147.764 43.3651 147.148 46.9828C145.617 48.5005 141.165 52.4182 136.765 52.4182C133.949 52.4182 129.585 50.3887 129.198 46.0651C129.11 45.0063 129.726 44.6533 130.078 44.6533C130.606 44.6533 134.072 44.8651 138.173 42.8886C141.517 41.265 143.453 38.8297 143.453 35.4766C143.453 33.5354 143.294 29.8295 136.061 29.8295C128.67 29.8295 122.405 33.1825 120.222 39.712C116.439 36.1825 115.735 33.959 115.471 33.1825C115.119 32.1236 115.207 30.1824 111.775 30.1824C111.599 30.1824 107.375 30.1824 107.375 34.0649C107.375 35.4767 110.895 37.4179 110.191 39.0061C109.346 40.9474 106.302 50.8299 100.16 50.8299C94.7396 50.8299 98.4001 40.4179 99.104 38.1238C99.632 36.712 101.005 31.7707 100.336 31.0648C100.002 30.7118 98.928 30.5354 97.3442 30.5354C92.5925 30.5354 89.4248 36.1825 88.0169 46.5945C84.022 50.6005 80.4495 52.5947 77.2817 52.5947C74.9939 52.5947 71.1574 52.1535 69.7671 47.7769C69.4503 46.771 84.1452 43.5415 84.1452 35.6531C84.1452 33.359 84.1452 30.0059 76.7538 30.0059C72.1781 30.0059 67.9545 31.4177 64.9627 33.8884C63.4668 35.1237 59.5071 39.1826 60.0351 47.4769C59.6479 47.8299 57.7297 48.8887 54.4035 48.8887C49.1239 48.8887 46.1322 39.0061 45.7802 37.4179C44.5307 31.5942 40.2542 30.1295 41.2046 29.4765C43.1052 28.0824 45.569 28.4177 52.2917 23.4764C56.1634 20.2998 58.2752 16.2409 58.2752 11.8291C58.2752 9.35843 57.4129 3.94066 51.2358 1.77002C47.49 0.533441 43.5636 -0.0631148 39.6207 0.00527947C36.8049 0.00527947 27.3016 0.181754 18.1504 3.18182C6.53527 7.77016 0.551739 14.1232 0.0237807 22.947C-0.152205 25.5941 0.463747 31.5942 8.29513 31.5942C15.4402 31.5942 18.7135 25.947 18.5023 24.0058C17.6752 24.4117 14.3139 25.1882 12.9588 23.2999C10.1606 19.4881 13.1348 12.4997 18.3263 9.00548C22.6908 6.05835 27.1257 4.41714 31.3493 4.24067C30.6454 5.29951 28.7095 8.29958 27.8296 10.9467C26.5977 14.4762 17.2704 46.2416 15.6866 53.1241C15.1586 55.5947 15.1586 56.7948 15.6866 56.8301C19.0127 57.1124 26.2985 57.2359 26.4217 55.5947C27.0905 46.4181 31.015 35.3002 31.5253 32.1236C31.7189 30.8883 32.7572 30.7118 33.1092 30.7118C33.9891 30.7118 34.869 31.4177 35.397 31.9472C36.6289 33.5354 37.8608 36.1825 37.6848 40.5944C37.5088 44.1239 37.1921 56.3006 47.1881 56.3006C53.9108 56.3006 60.4222 51.6594 60.915 50.8299C61.6189 52.5947 64.2587 56.6536 72.5301 56.6536C81.6814 56.6536 88.0169 50.477 88.1929 50.6535C88.3689 50.8299 88.3865 51.1829 88.3689 51.5358C88.2985 52.9476 88.8088 56.5653 94.5284 56.4771C106.935 56.3006 114.239 46.2769 115.647 39.5356C117.952 42.0062 119.73 42.765 120.222 42.8886C120.222 44.4768 117.09 56.6536 132.189 56.6536C138.12 56.6536 143.101 54.4124 147.148 49.9476C146.849 51.5358 145.688 54.6771 146.268 56.1242C146.339 56.283 150.809 56.1242 153.836 56.1242C154.98 56.1242 154.892 55.8771 154.98 55.5241C155.684 52.8417 154.522 46.171 160.699 37.9473C161.368 37.0649 162.283 36.659 162.653 37.6296C164.448 42.165 169.147 40.5062 174.074 35.3002C173.018 39.3238 172.49 42.7827 172.49 45.7122C172.49 49.4181 173.546 56.9183 183.753 56.6536C197.639 56.3006 201 46.2416 201 38.8297C201 36.6767 199.698 30.8883 192.905 31.0648C189.913 31.1354 187.977 32.3001 186.569 33.359ZM190.969 43.065C190.265 46.8769 186.358 55.1536 183.401 54.8888C179.582 54.5359 180.41 47.4769 180.938 44.4768C181.642 41.6533 183.806 34.506 188.153 34.7707C192.482 35.0355 191.655 39.3591 190.969 43.065ZM136.237 32.8295C141.042 32.6354 138.842 38.3002 136.061 40.7709C132.084 44.3004 130.113 43.9474 129.462 43.4004C128.635 42.6945 129.162 40.4356 130.676 37.6826C132.26 34.7884 133.65 32.9354 136.237 32.8295ZM79.5695 35.6531C79.7103 37.2414 76.5778 42.9768 69.1864 45.0063C68.4648 43.0298 69.6439 40.012 70.4183 38.6532C70.9814 37.6473 73.2516 33.1295 76.5778 32.8295C78.3904 32.706 79.3936 33.6413 79.5695 35.6531ZM41.7325 3.35829C42.4365 3.35829 44.3723 4.06419 45.9562 5.82894C47.0121 7.06426 48.244 9.18195 47.892 12.3585C47.5401 15.7115 46.6601 18.7116 45.4282 21.0057C44.3723 22.947 42.9644 24.5352 41.3805 25.7705C38.6352 28.1353 32.81 28.4883 32.4052 27.7118C32.0533 27.1823 32.2293 26.3 33.1092 23.8293C34.3059 19.841 38.7935 6.4466 39.7967 4.94656C40.1486 4.24067 40.7822 3.35829 41.7325 3.35829Z" fill="#414141"/>
</svg>
