<svg width="81" height="80" viewBox="0 0 81 80" fill="none" xmlns="http://www.w3.org/2000/svg">
<rect x="0.201172" width="80" height="80" rx="40" fill="#424242"/>
<path d="M38.9703 29.6455L39.8844 30.1252L39.2314 38.8041L34.748 34.4429L35.0745 33.5269L35.031 32.7856L38.9703 29.6455Z" fill="white"/>
<path d="M41.2777 30.4514L40.6465 38.7814L49.1128 32.5884L49.2652 31.5853L43.1494 29.6228L41.2777 30.4514Z" fill="white"/>
<path d="M43.2402 27.1574L46.8966 24.4534L47.8108 24.5624L50.0742 30.4501L43.4797 28.6402L43.2402 27.1574Z" fill="white"/>
<path d="M48.8555 24.4766L51.206 30.4516L54.7319 25.2398L49.2473 23.9097L48.8555 24.4766Z" fill="white"/>
<path d="M55.7064 25.8286L52.4199 30.7133L52.5723 31.6727L59.9286 34.2677L55.7064 25.8286Z" fill="white"/>
<path d="M56.5176 25.0649L61.1533 29.0555L61.088 33.3731L56.5176 25.0649Z" fill="white"/>
<path d="M62.3066 30.4509L64.7007 35.0084L63.2207 35.4446L62.8072 34.267L62.002 33.7873L62.3066 30.4509Z" fill="white"/>
<path d="M63.0435 36.0989L62.6953 36.6441L62.7388 37.1238L64.9588 40.5038L65.1982 36.317L63.0435 36.0989Z" fill="white"/>
<path d="M61.7417 37.3208L61.1541 37.8223L60.3924 37.3208L58.1289 40.0902L58.8471 41.2896L58.6947 42.7288L62.4165 46.7411L65.0499 42.9468L61.7417 37.3208Z" fill="white"/>
<path d="M52.2031 32.8711L55.5113 39.1949L56.2731 38.9987L57.1871 39.3912L59.5812 36.6436L59.1242 36.0985L59.2113 35.4442L52.2031 32.8711Z" fill="white"/>
<path d="M50.9453 33.7446L49.2695 43.8627L49.9006 44.4297L53.6658 42.3144L53.4917 40.9406L54.6017 39.9157L51.163 33.1995L50.9453 33.7446Z" fill="white"/>
<path d="M50.0743 33.3743L48.3549 43.536L47.7237 43.8195L47.2014 44.43L41.5427 40.723L41.2598 39.8507L50.0743 33.3743Z" fill="white"/>
<path d="M53.9047 43.447L54.4053 43.9704L55.2759 44.4284L54.7753 47.9828L50.0742 45.6495L53.9047 43.447Z" fill="white"/>
<path d="M56.5112 44.2543L57.2294 44.4288L57.7518 43.949L61.3211 47.1109L56.0977 48.2012L56.5112 44.2543Z" fill="white"/>
<path d="M47.8968 47.6564L46.8303 47.5037L46.5256 46.7188C46.5256 46.7188 39.1258 49.2483 38.9517 49.3355C38.7776 49.4227 47.8533 61.7215 47.8533 61.7215L47.8968 47.6564Z" fill="white"/>
<path d="M48.8555 47.9617L49.7479 47.4165L50.0743 46.7188L53.9265 48.9212L49.2473 53.6313L48.8555 47.9617Z" fill="white"/>
<path d="M54.5992 50.4036L49.7676 54.3723L55.274 54.3941L54.5992 50.4036Z" fill="white"/>
<path d="M56.0762 50.4039L56.5115 49.9895L58.6879 50.6437L56.0979 54.0237V50.4039H56.0762Z" fill="white"/>
<path d="M57.3613 48.9431L59.1678 48.8559L61.1701 47.9836L59.603 50.4259L57.3613 48.9431Z" fill="white"/>
<path d="M41.2819 41.6375L40.6508 41.7029L40.0631 41.8336L38.9531 48.2011L46.5053 45.9114L46.7665 45.0828L41.2819 41.6375Z" fill="white"/>
<path d="M38.9461 41.6375L37.5968 48.8117L34.3321 49.9892L33.1133 45.8024L33.7227 45.0392L33.7445 44.4286L38.9461 41.6375Z" fill="white"/>
<path d="M31.0715 45.804L31.6374 46.2183H32.5515L33.0955 49.7291L27.7852 47.9628L31.0715 45.804Z" fill="white"/>
<path d="M25.8964 41.7909C25.8747 41.7909 25.5918 45.1928 25.5918 45.1928L26.8106 47.1335L30.5976 45.062L30.5758 44.0807L27.2458 41.2458L26.5059 41.7691H25.8964V41.7909Z" fill="white"/>
<path d="M23.1992 39.8064L23.5039 40.5043L24.0045 41.1148L24.9186 41.6382L24.9404 43.9279L24.2874 44.4075H20.2828L16.0605 39.3921L23.1992 39.8064Z" fill="white"/>
<path d="M16.0536 36.0995L15.5312 37.6041C15.5312 37.6041 24.0193 38.7817 23.8234 38.7817C23.6275 38.7817 24.0846 37.9749 24.0846 37.9749L21.9082 34.7257L20.9288 34.9656L20.1888 34.2678L16.0536 36.0995Z" fill="white"/>
<path d="M17.5567 28.7507L14.8145 31.1058L16.055 34.682L19.6896 33.3736L19.842 32.8503L20.0814 32.3051L17.5567 28.7507Z" fill="white"/>
<path d="M18.9941 27.8557L21.3664 31.5846L24.4352 26.4165L18.9941 27.8557Z" fill="white"/>
<path d="M24.9356 27.3991L25.7627 27.2465L26.4374 27.0066L31.1819 31.913L31.5737 32.8943L31.0514 33.1996H22.8898H22.3675L22.3457 32.5017L24.9356 27.3991Z" fill="white"/>
<path d="M27.0882 25.3707L26.9141 25.8286L32.3116 31.5855L31.5716 25.0654L30.7446 24.4548L30.2657 23.9097L27.0882 25.3707Z" fill="white"/>
<path d="M32.5508 24.4771L33.1167 31.1498L34.009 31.5859L38.4924 28.9909L38.6447 27.2683L32.5508 24.4771Z" fill="white"/>
<path d="M33.701 35.1829L33.1133 43.4256L37.9231 41.0923L37.9449 40.002L38.3585 39.3915L33.701 35.1829Z" fill="white"/>
<path d="M32.3121 34.8127L31.5721 43.0556L27.7852 40.3734V39.0214V38.4108L32.3121 34.8127Z" fill="white"/>
<path d="M22.666 34.2678L24.9295 37.3425L25.7566 36.841L26.9101 37.6478L31.5676 34.2678H22.666Z" fill="white"/>
<path d="M23.6514 22.2534L24.435 23.9325L24.0867 25.3935L17.8622 27.2253L17.7969 25.0882L23.6514 22.2534Z" fill="white"/>
<path d="M24.2598 20.9446L25.1521 23.4305L25.892 23.6922L26.7409 24.2373L29.962 22.8853L24.2598 20.9446Z" fill="white"/>
<path d="M25.7637 20.0498L30.1382 21.8379L30.7477 22.2304L31.5747 21.5544L33.0982 18.0654L25.7637 20.0498Z" fill="white"/>
<path d="M34.271 18.0654L33.0957 21.6635V22.5793V23.4298L38.9502 26.1338L40.0602 25.8285L38.6237 18.0654H34.271Z" fill="white"/>
<path d="M39.627 18.5888L40.6499 25.0652L41.5423 25.5014L42.391 26.1119L45.9386 23.8877L46.7656 22.2086L43.5663 18.0654L39.627 18.5888Z" fill="white"/>
<path d="M44.7852 18.3926L47.2227 21.6635L48.2892 21.8162L51.4886 19.7664L44.7852 18.3926Z" fill="white"/>
<path d="M52.2076 20.7043L49.2695 22.6015L55.2764 23.9099L52.2076 20.7043Z" fill="white"/>
<path d="M25.0014 40.3078L24.4355 39.61L24.6314 38.7378L25.4367 38.3452L26.242 38.7378L26.4379 39.61L25.8719 40.3078H25.0014Z" fill="white"/>
<path d="M47.9858 46.7195L47.4199 46.0216L47.6158 45.1494L48.4212 44.7568L49.2264 45.1494L49.4223 46.0216L48.8564 46.7195H47.9858Z" fill="white"/>
<path d="M55.4917 42.9038L54.9258 42.2059L55.1217 41.3337L55.9269 40.9412L56.7323 41.3337L56.928 42.2059L56.3622 42.9038H55.4917Z" fill="white"/>
<path d="M40.1929 28.7502L39.627 28.0524L39.8228 27.1801L40.6281 26.7876L41.4334 27.1801L41.6292 28.0524L41.0634 28.7502H40.1929Z" fill="white"/>
<path d="M32.7241 33.9399L32.3105 33.4165L32.4629 32.7623L33.0723 32.457L33.6817 32.7623L33.8341 33.4165L33.4205 33.9399H32.7241Z" fill="white"/>
<path d="M20.7749 33.9399L20.3613 33.4165L20.5137 32.7623L21.1231 32.457L21.7325 32.7623L21.8848 33.4165L21.4713 33.9399H20.7749Z" fill="white"/>
<path d="M25.1069 25.9599L24.6934 25.4365L24.8457 24.7823L25.4551 24.4771L26.0645 24.7823L26.2169 25.4365L25.8033 25.9599H25.1069Z" fill="white"/>
<path d="M31.1987 23.7347L30.7852 23.2113L30.9375 22.5572L31.547 22.2737L32.1563 22.5572L32.3087 23.2113L31.8952 23.7347H31.1987Z" fill="white"/>
<path d="M47.6577 23.7347L47.2441 23.2113L47.3965 22.5572L48.0058 22.2737L48.6153 22.5572L48.7677 23.2113L48.3541 23.7347H47.6577Z" fill="white"/>
<path d="M50.5093 32.4569L50.0957 31.9335L50.2481 31.2794L50.8574 30.9958L51.4669 31.2794L51.6192 31.9335L51.2057 32.4569H50.5093Z" fill="white"/>
<path d="M60.4955 36.2303L59.9297 35.5326L60.1255 34.6603L60.9308 34.2678L61.7361 34.6603L61.932 35.5326L61.366 36.2303H60.4955Z" fill="white"/>
<path d="M39.4291 41.2668L38.8633 40.569L39.0592 39.6967L39.8644 39.3042L40.6698 39.6967L40.8655 40.569L40.2997 41.2668H39.4291Z" fill="white"/>
<path d="M55.1675 49.7282L54.7539 49.2048L54.9063 48.5507L55.5157 48.2454L56.1251 48.5507L56.2774 49.2048L55.8639 49.7282H55.1675Z" fill="white"/>
<path d="M32.1172 23.5159L39.7781 27.2011L32.1172 23.5159Z" fill="white"/>
<path d="M41.5 27.4204L47.4198 23.5171L41.5 27.4204Z" fill="white"/>
<path d="M48.1367 23.7346L50.7049 30.9744L48.1367 23.7346Z" fill="white"/>
<path d="M51.5996 32.0442L60.3053 35.2062L51.5996 32.0442Z" fill="white"/>
<path d="M51.2246 32.457L55.7299 40.678L51.2246 32.457Z" fill="white"/>
<path d="M60.7132 36.231L56.8828 40.8103L60.7132 36.231Z" fill="white"/>
<path d="M55.2764 42.074L49.2695 45.214L55.2764 42.074Z" fill="white"/>
<path d="M56.0817 42.488L55.4941 48.2668L56.0817 42.488Z" fill="white"/>
<path d="M49.2695 45.804L54.754 48.6824L49.2695 45.804Z" fill="white"/>
<path d="M47.4168 44.9093L40.8223 40.9187L47.4168 44.9093Z" fill="white"/>
<path d="M39.2985 40.8093L32.9434 44.2329L39.2985 40.8093Z" fill="white"/>
<path d="M31.9896 45.2363L31.5762 44.713L31.7285 44.0588L32.3379 43.7754L32.9473 44.0588L33.0997 44.713L32.6861 45.2363H31.9896Z" fill="white"/>
<path d="M21.6699 33.7002L25.0651 38.4977L21.6699 33.7002Z" fill="white"/>
<path d="M26.2598 38.7809L32.7454 33.918L26.2598 38.7809Z" fill="white"/>
<path d="M33.1158 33.9407L32.3105 43.7536L33.1158 33.9407Z" fill="white"/>
<path d="M26.2598 39.8716L31.7225 44.1238L26.2598 39.8716Z" fill="white"/>
<path d="M21.5156 32.5462L25.1503 25.9607L21.5156 32.5462Z" fill="white"/>
<path d="M25.9844 25.8286L32.5572 32.6322L25.9844 25.8286Z" fill="white"/>
<path d="M26.2012 25.065L30.7934 23.1897L26.2012 25.065Z" fill="white"/>
<path d="M40.0586 39.1318L40.6463 28.752L40.0586 39.1318Z" fill="white"/>
<path d="M33.5332 33.9407L39.2355 39.5231L33.5332 33.9407Z" fill="white"/>
<path d="M48.5293 44.5595L50.7058 32.457L48.5293 44.5595Z" fill="white"/>
<path d="M50.3143 32.2178L40.9121 39.5011L50.3143 32.2178Z" fill="white"/>
<path d="M50.3145 31.2366L41.5 28.4236L50.3145 31.2366Z" fill="white"/>
<path d="M32.8591 32.5456L31.8145 23.7358L32.8591 32.5456Z" fill="white"/>
</svg>
