<svg width="80" height="80" viewBox="0 0 80 80" fill="none" xmlns="http://www.w3.org/2000/svg">
<rect width="80" height="80" rx="40" fill="#2C7BF0"/>
<path d="M40.1079 37.8879V80.0001H39.9968C32.7632 79.9983 25.6653 78.0364 19.4576 74.323C13.25 70.6095 8.16461 65.2833 4.74219 58.9107L18.2982 43.9436L26.4541 52.9439L40.1079 37.8879Z" fill="#55B958"/>
<path d="M80.0001 40.001C80.0092 46.5422 78.4063 52.9848 75.3332 58.7592L61.9105 43.9455L40.1097 19.8894L18.309 43.9455L4.75291 58.9125C1.48325 52.8185 -0.15057 45.9809 0.0109076 39.067C0.172385 32.1531 2.12364 25.3992 5.67424 19.4645C9.22484 13.5297 14.2535 8.61686 20.2693 5.20541C26.2852 1.79397 33.0828 0.000488105 39.9986 0L40.1097 0C50.7026 0.0194337 60.8544 4.24359 68.3343 11.7442C75.8142 19.2448 80.0101 29.4082 80.0001 40.001V40.001Z" fill="#2C7BF0"/>
<path d="M75.3329 58.7573C73.4672 62.2647 71.0908 65.4754 68.2815 68.2842L67.9504 68.6109C60.5131 75.8967 50.5208 79.9844 40.1094 80.0001V37.8879L53.7543 52.9439L61.9102 43.9436L75.3329 58.7573Z" fill="#529854"/>
<path d="M61.9141 43.9411L53.7582 52.9414L40.1133 37.8854L26.4684 52.9414L18.3125 43.9411L40.1133 19.885L61.9141 43.9411Z" fill="white"/>
</svg>
