<svg width="221" height="59" viewBox="0 0 221 59" fill="none" xmlns="http://www.w3.org/2000/svg">
<path d="M29.1733 27.832V58.7671H29.0925C23.831 58.7657 18.6682 57.3246 14.1529 54.5967C9.63764 51.8689 5.93871 47.9563 3.44934 43.2751L13.3096 32.2805L19.2419 38.8919L29.1733 27.832Z" fill="#55B958"/>
<path d="M58.1896 29.3842C58.1962 34.1893 57.0304 38.9219 54.7951 43.1637L45.0318 32.2818L29.1746 14.6105L13.3174 32.2818L3.45712 43.2764C1.07887 38.7998 -0.10952 33.7769 0.00793387 28.6981C0.125388 23.6193 1.54467 18.6579 4.12727 14.2983C6.70986 9.93874 10.3675 6.32983 14.7433 3.82383C19.1191 1.31783 24.0634 0.000358556 29.0938 0L29.1746 0C36.8795 0.0142757 44.2636 3.11729 49.7043 8.62714C55.1449 14.137 58.1969 21.6029 58.1896 29.3842V29.3842Z" fill="#2C7BF0"/>
<path d="M54.7957 43.1624C53.4387 45.7389 51.7102 48.0974 49.6668 50.1608L49.4259 50.4007C44.0163 55.7528 36.7482 58.7555 29.1752 58.7671V27.832L39.1001 38.8919L45.0325 32.2805L54.7957 43.1624Z" fill="#529854"/>
<path d="M45.0299 32.2792L39.0976 38.8907L29.1727 27.8308L19.2478 38.8907L13.3155 32.2792L29.1727 14.6079L45.0299 32.2792Z" fill="white"/>
<path d="M77.4638 38.5469C73.9626 34.9555 72.2362 30.5479 72.2362 25.2718C72.2362 19.9957 73.9626 15.5325 77.4638 11.995C80.966 8.40361 85.3843 6.60791 90.7185 6.60791C97.1649 6.60791 102.952 9.88914 105.997 15.0657L99.9564 18.6032C98.1784 15.3742 94.7838 13.4773 90.7185 13.4773C87.2674 13.4773 84.4758 14.5531 82.3438 16.7585C80.2634 18.9623 79.1982 21.7816 79.1982 25.2669C79.1982 28.695 80.2634 31.5208 82.3438 33.7246C84.4758 35.9284 87.2674 37.0042 90.7185 37.0042C94.779 37.0042 98.2818 35.0567 99.9564 31.9305L105.997 35.4664C102.952 40.6446 97.2166 43.9242 90.7185 43.9242C85.3843 43.9275 80.966 42.135 77.4638 38.5469Z" fill="#0E1326"/>
<path d="M110.658 43.2121V5.79297H117.205V43.2121H110.658Z" fill="#0E1326"/>
<path d="M139.995 17.585H146.999L137.761 43.2145C135.121 50.5948 130.859 53.8255 124.362 53.4663V47.3152C127.864 47.3658 129.792 45.8787 131.011 42.3934L120.606 17.5801H127.762L134.36 34.8025L139.995 17.585Z" fill="#0E1326"/>
<path d="M188.012 27.4259V43.2134H181.464V27.8862C181.464 24.8107 179.891 23.0166 177.199 23.0166C174.206 23.0166 172.479 25.067 172.479 28.8086V43.2134H165.933V27.8862C165.933 24.8107 164.358 23.0166 161.669 23.0166C158.775 23.0166 156.899 25.067 156.899 28.8086V43.2134H150.35V17.5838H156.899V20.3002C158.421 17.9936 160.755 16.8721 163.953 16.8721C167.05 16.8721 169.384 18.1029 170.856 20.5631C172.531 18.1029 175.069 16.8721 178.418 16.8721C184.255 16.8655 188.012 21.0185 188.012 27.4259Z" fill="#0E1326"/>
<path d="M217.348 20.8094C219.784 23.4214 221.001 26.6014 221.001 30.3952C221.001 34.189 219.784 37.4148 217.348 40.0267C214.962 42.6386 212.014 43.9217 208.619 43.9217C205.063 43.9217 202.325 42.6925 200.396 40.1801V43.2051H193.85V7.32861H200.396V20.6054C202.325 18.093 205.066 16.8621 208.619 16.8621C212.018 16.8621 214.962 18.1959 217.348 20.8094ZM207.399 37.6237C209.429 37.6237 211.104 36.9577 212.424 35.6256C213.795 34.2413 214.454 32.4978 214.454 30.4017C214.454 28.3057 213.795 26.5573 212.424 25.2252C211.104 23.8409 209.429 23.1732 207.399 23.1732C205.368 23.1732 203.694 23.8344 202.376 25.2268C201.056 26.5589 200.396 28.3024 200.396 30.4034C200.396 32.5043 201.056 34.2478 202.376 35.6272C203.694 36.9571 205.368 37.6221 207.399 37.6221V37.6237Z" fill="#0E1326"/>
</svg>
