<svg width="163" height="90" viewBox="0 0 163 90" fill="none" xmlns="http://www.w3.org/2000/svg">
<path d="M109.633 22.8552H107.722V14.017H104.352V12.4178H112.995V14.017H109.633V22.8552ZM116.388 16.716H121.225V12.4178H123.136V22.8552H121.225V18.3152H116.388V22.8552H114.477V12.4178H116.388V16.716ZM127.543 21.2561H132.676V22.8552H125.632V12.4178H132.395V14.017H127.543V16.716H131.709V18.3152H127.543V21.2561Z" fill="#FF6600"/>
<path d="M112.925 33.0506C112.925 33.5031 112.823 33.9191 112.62 34.2987C112.418 34.6732 112.082 34.9852 111.614 35.2348V35.266C111.874 35.3544 112.111 35.4688 112.324 35.6093C112.542 35.7445 112.727 35.9083 112.878 36.1007C113.034 36.2879 113.153 36.5011 113.237 36.7404C113.325 36.9796 113.369 37.2474 113.369 37.5438C113.369 37.7987 113.328 38.0717 113.244 38.3629C113.166 38.6541 113.026 38.9376 112.823 39.2132C112.62 39.4836 112.35 39.7332 112.012 39.9621C111.674 40.1909 111.247 40.3729 110.733 40.5081C110.603 40.5393 110.46 40.5679 110.304 40.5939C110.153 40.6199 109.984 40.6433 109.797 40.6641C109.609 40.6797 109.401 40.6927 109.172 40.7031C108.944 40.7083 108.686 40.7109 108.4 40.7109H105.366V30.2736H108.993C109.768 30.2736 110.392 30.3516 110.865 30.5076C111.219 30.622 111.526 30.7728 111.786 30.96C112.046 31.142 112.259 31.3475 112.425 31.5763C112.597 31.7999 112.722 32.0391 112.8 32.2939C112.883 32.5436 112.925 32.7958 112.925 33.0506ZM107.277 36.1709V39.1118H108.525C108.858 39.1118 109.144 39.104 109.383 39.0884C109.622 39.0676 109.828 39.0364 109.999 38.9948C110.265 38.9376 110.486 38.8622 110.662 38.7686C110.839 38.6697 110.982 38.5605 111.091 38.4409C111.201 38.3161 111.279 38.1809 111.325 38.0353C111.372 37.8845 111.396 37.7259 111.396 37.5594C111.396 37.2682 111.315 37.0134 111.154 36.795C110.993 36.5765 110.74 36.4127 110.397 36.3035C110.246 36.2567 110.07 36.2229 109.867 36.2021C109.664 36.1813 109.404 36.1709 109.087 36.1709H107.277ZM109.001 34.5718C109.521 34.5718 109.908 34.5198 110.163 34.4157C110.449 34.2961 110.652 34.1323 110.772 33.9243C110.896 33.7111 110.959 33.4719 110.959 33.2066C110.959 32.931 110.889 32.6866 110.748 32.4734C110.608 32.2549 110.369 32.0937 110.031 31.9897C109.89 31.9481 109.726 31.9195 109.539 31.9039C109.352 31.8831 109.12 31.8727 108.845 31.8727H107.277V34.5718H109.001ZM117.231 30.2736V39.1118H122.114V40.7109H115.319V30.2736H117.231ZM129.891 38.0509H125.96L124.938 40.7109H122.902L127.044 30.2736H128.791L132.934 40.7109H130.913L129.891 38.0509ZM127.91 32.7854C127.546 33.8775 127.221 34.7902 126.935 35.5234L126.576 36.4517H129.275L128.916 35.5234C128.63 34.785 128.305 33.8723 127.941 32.7854H127.91ZM139.338 31.6933C138.818 31.6933 138.337 31.7791 137.895 31.9507C137.458 32.1223 137.081 32.372 136.764 32.6996C136.452 33.0272 136.207 33.4329 136.03 33.9165C135.854 34.3949 135.765 34.9436 135.765 35.5625C135.765 36.1761 135.846 36.717 136.007 37.185C136.168 37.6478 136.4 38.0353 136.701 38.3473C137.003 38.6593 137.37 38.896 137.801 39.0572C138.238 39.2132 138.732 39.2912 139.283 39.2912C139.679 39.2912 140.082 39.26 140.492 39.1976C140.903 39.1352 141.288 39.0442 141.647 38.9246V40.5705C141.283 40.6745 140.89 40.7551 140.469 40.8123C140.048 40.8748 139.611 40.906 139.159 40.906C138.274 40.906 137.497 40.7811 136.826 40.5315C136.155 40.2767 135.594 39.9205 135.141 39.4628C134.694 39 134.356 38.4487 134.127 37.8091C133.903 37.1642 133.792 36.4543 133.792 35.6795C133.792 34.8838 133.911 34.1453 134.15 33.4641C134.395 32.7828 134.743 32.1925 135.196 31.6933C135.653 31.194 136.223 30.8014 136.904 30.5154C137.591 30.2294 138.365 30.0837 139.229 30.0785C139.671 30.0785 140.089 30.1097 140.485 30.1721C140.88 30.2294 141.236 30.3126 141.553 30.4218V32.0443C141.137 31.9143 140.75 31.8233 140.391 31.7713C140.032 31.7193 139.681 31.6933 139.338 31.6933ZM143.605 40.7109V30.2736H145.516V35.0242H145.547L149.487 30.2736H151.858L147.505 35.4454L152.217 40.7109H149.768L145.547 35.9993H145.516V40.7109H143.605Z" fill="black"/>
<path d="M112.925 51.2191C112.925 51.6715 112.823 52.0876 112.62 52.4672C112.418 52.8416 112.082 53.1537 111.614 53.4033V53.4345C111.874 53.5229 112.111 53.6373 112.324 53.7777C112.542 53.9129 112.727 54.0767 112.878 54.2692C113.034 54.4564 113.153 54.6696 113.237 54.9088C113.325 55.148 113.369 55.4159 113.369 55.7123C113.369 55.9671 113.328 56.2401 113.244 56.5314C113.166 56.8226 113.026 57.106 112.823 57.3817C112.62 57.6521 112.35 57.9017 112.012 58.1305C111.674 58.3593 111.247 58.5414 110.733 58.6766C110.603 58.7078 110.46 58.7364 110.304 58.7624C110.153 58.7884 109.984 58.8118 109.797 58.8326C109.609 58.8482 109.401 58.8612 109.172 58.8716C108.944 58.8768 108.686 58.8794 108.4 58.8794H105.366V48.442H108.993C109.768 48.442 110.392 48.52 110.865 48.676C111.219 48.7904 111.526 48.9413 111.786 49.1285C112.046 49.3105 112.259 49.5159 112.425 49.7447C112.597 49.9684 112.722 50.2076 112.8 50.4624C112.883 50.712 112.925 50.9643 112.925 51.2191ZM107.277 54.3394V57.2802H108.525C108.858 57.2802 109.144 57.2724 109.383 57.2568C109.622 57.236 109.828 57.2048 109.999 57.1632C110.265 57.106 110.486 57.0306 110.662 56.937C110.839 56.8382 110.982 56.729 111.091 56.6094C111.201 56.4846 111.279 56.3494 111.325 56.2037C111.372 56.0529 111.396 55.8943 111.396 55.7279C111.396 55.4367 111.315 55.1818 111.154 54.9634C110.993 54.745 110.74 54.5812 110.397 54.472C110.246 54.4252 110.07 54.3914 109.867 54.3706C109.664 54.3498 109.404 54.3394 109.087 54.3394H107.277ZM109.001 52.7402C109.521 52.7402 109.908 52.6882 110.163 52.5842C110.449 52.4646 110.652 52.3008 110.772 52.0928C110.896 51.8795 110.959 51.6403 110.959 51.3751C110.959 51.0995 110.889 50.855 110.748 50.6418C110.608 50.4234 110.369 50.2622 110.031 50.1582C109.89 50.1166 109.726 50.088 109.539 50.0724C109.352 50.0516 109.12 50.0412 108.845 50.0412H107.277V52.7402H109.001ZM123.042 51.5779C123.042 52.306 122.839 52.9248 122.434 53.4345C122.033 53.9389 121.412 54.3134 120.569 54.5578V54.589L123.674 58.8794H121.381L118.541 54.8386H117.231V58.8794H115.319V48.442H118.494C119.02 48.442 119.508 48.4732 119.961 48.5356C120.413 48.5928 120.801 48.6812 121.123 48.8008C121.737 49.0349 122.21 49.3833 122.543 49.8461C122.876 50.3038 123.042 50.881 123.042 51.5779ZM118.175 53.2395C118.611 53.2395 118.981 53.2213 119.282 53.1849C119.589 53.1433 119.846 53.0834 120.055 53.0054C120.439 52.8598 120.705 52.6622 120.85 52.4126C121.001 52.1578 121.076 51.8665 121.076 51.5389C121.076 51.2581 121.017 51.0111 120.897 50.7978C120.783 50.5794 120.585 50.4078 120.304 50.283C120.122 50.1998 119.893 50.14 119.618 50.1036C119.342 50.062 119.001 50.0412 118.596 50.0412H117.231V53.2395H118.175ZM131.327 56.2193H127.395L126.373 58.8794H124.337L128.479 48.442H130.227L134.369 58.8794H132.348L131.327 56.2193ZM129.345 50.9538C128.981 52.046 128.656 52.9586 128.37 53.6919L128.011 54.6202H130.71L130.351 53.6919C130.065 52.9534 129.74 52.0408 129.376 50.9538H129.345ZM135.851 58.8794V48.442H137.762V58.8794H135.851ZM145.703 53.2941C146.452 54.3602 147.061 55.3067 147.529 56.1335H147.576C147.513 54.7762 147.482 53.7881 147.482 53.1693V48.442H149.393V58.8794H147.388L143.987 54.0741C143.389 53.2421 142.77 52.2774 142.131 51.1801H142.084C142.146 52.4594 142.177 53.4501 142.177 54.1521V58.8794H140.266V48.442H142.271L145.703 53.2941Z" fill="#990000"/>
<path d="M109.633 76.7351H107.722V67.8969H104.352V66.2977H112.995V67.8969H109.633V76.7351ZM122.2 69.4336C122.2 70.1617 121.997 70.7805 121.591 71.2902C121.191 71.7946 120.569 72.1691 119.727 72.4135V72.4447L122.832 76.7351H120.538L117.699 72.6943H116.388V76.7351H114.477V66.2977H117.652C118.177 66.2977 118.666 66.3289 119.118 66.3913C119.571 66.4485 119.958 66.5369 120.281 66.6566C120.894 66.8906 121.368 67.239 121.7 67.7019C122.033 68.1595 122.2 68.7368 122.2 69.4336ZM117.332 71.0952C117.769 71.0952 118.138 71.077 118.44 71.0406C118.747 70.999 119.004 70.9392 119.212 70.8612C119.597 70.7155 119.862 70.5179 120.008 70.2683C120.159 70.0135 120.234 69.7222 120.234 69.3946C120.234 69.1138 120.174 68.8668 120.055 68.6535C119.94 68.4351 119.742 68.2635 119.462 68.1387C119.28 68.0555 119.051 67.9957 118.775 67.9593C118.5 67.9177 118.159 67.8969 117.753 67.8969H116.388V71.0952H117.332ZM128.83 76.9301C128.284 76.9301 127.793 76.8755 127.356 76.7663C126.919 76.6623 126.534 76.5115 126.201 76.3139C125.869 76.111 125.585 75.8666 125.351 75.5806C125.117 75.2894 124.93 74.9617 124.79 74.5977C124.675 74.3065 124.592 73.984 124.54 73.6304C124.493 73.2768 124.47 72.8815 124.47 72.4447V66.2977H126.381V72.2731C126.381 73.0116 126.469 73.5888 126.646 74.0049C126.844 74.4677 127.132 74.8031 127.512 75.0111C127.892 75.214 128.339 75.3154 128.854 75.3154C129.369 75.3154 129.816 75.214 130.195 75.0111C130.575 74.8031 130.864 74.4677 131.061 74.0049C131.238 73.5888 131.327 73.0116 131.327 72.2731V66.2977H133.238V72.4447C133.238 72.8815 133.212 73.2768 133.16 73.6304C133.113 73.984 133.032 74.3065 132.918 74.5977C132.778 74.9617 132.588 75.2894 132.348 75.5806C132.114 75.8666 131.826 76.111 131.483 76.3139C131.145 76.5115 130.755 76.6623 130.312 76.7663C129.87 76.8755 129.376 76.9301 128.83 76.9301ZM140.828 73.7396C140.828 73.4744 140.763 73.2612 140.633 73.1C140.503 72.9335 140.326 72.7983 140.102 72.6943C139.879 72.5903 139.627 72.5071 139.346 72.4447C139.07 72.3771 138.779 72.3121 138.472 72.2497C138.066 72.1613 137.679 72.0573 137.31 71.9377C136.94 71.8128 136.615 71.6438 136.335 71.4306C136.054 71.2122 135.83 70.9366 135.664 70.6037C135.497 70.2709 135.414 69.8549 135.414 69.3556C135.414 68.8044 135.51 68.3259 135.703 67.9203C135.895 67.5094 136.155 67.1714 136.483 66.9062C136.816 66.6358 137.203 66.4355 137.645 66.3055C138.092 66.1703 138.594 66.1027 139.151 66.1027C139.707 66.1027 140.266 66.1573 140.828 66.2665C141.39 66.3757 141.873 66.5161 142.279 66.6878V68.3259C141.738 68.1127 141.218 67.9593 140.719 67.8657C140.225 67.7669 139.759 67.7175 139.322 67.7175C138.693 67.7175 138.207 67.8319 137.864 68.0607C137.526 68.2895 137.357 68.6327 137.357 69.0904C137.357 69.3556 137.411 69.574 137.52 69.7457C137.635 69.9173 137.788 70.0603 137.981 70.1747C138.173 70.2839 138.394 70.3723 138.644 70.4399C138.893 70.5075 139.159 70.5699 139.439 70.6271C139.881 70.7207 140.303 70.83 140.703 70.9548C141.109 71.0744 141.468 71.2434 141.78 71.4618C142.092 71.6802 142.339 71.9663 142.521 72.3199C142.703 72.6683 142.794 73.1156 142.794 73.6616C142.794 74.2233 142.69 74.7095 142.482 75.1204C142.274 75.5312 141.977 75.8718 141.592 76.1423C141.213 76.4075 140.75 76.6051 140.204 76.7351C139.658 76.8651 139.06 76.9301 138.41 76.9301C137.843 76.9301 137.284 76.8729 136.732 76.7585C136.186 76.6493 135.731 76.4933 135.367 76.2905V74.6757C135.882 74.8993 136.384 75.0632 136.873 75.1672C137.362 75.266 137.866 75.3154 138.386 75.3154C138.688 75.3154 138.984 75.292 139.276 75.2452C139.567 75.1932 139.827 75.1074 140.056 74.9877C140.29 74.8681 140.477 74.7069 140.617 74.5041C140.758 74.2961 140.828 74.0413 140.828 73.7396ZM149.182 76.7351H147.271V67.8969H143.901V66.2977H152.545V67.8969H149.182V76.7351Z" fill="#99CC00"/>
<path d="M48.1678 32.1687L49.6075 32.9115L48.5792 46.349L41.5177 39.5965L42.0319 38.1784L41.9633 37.0305L48.1678 32.1687Z" fill="black"/>
<path d="M51.8013 33.418L50.8073 46.3153L64.1418 36.7267L64.3817 35.1736L54.7493 32.135L51.8013 33.418Z" fill="black"/>
<path d="M54.8864 28.3199L60.6453 24.1333L62.085 24.3021L65.65 33.418L55.2635 30.6157L54.8864 28.3199Z" fill="black"/>
<path d="M63.7305 24.1671L67.4326 33.4181L72.9858 25.3488L64.3475 23.2893L63.7305 24.1671Z" fill="black"/>
<path d="M74.5282 26.2607L69.3521 33.8236L69.5921 35.3091L81.1784 39.3269L74.5282 26.2607Z" fill="black"/>
<path d="M75.7966 25.0789L83.0981 31.2574L82.9952 37.9424L75.7966 25.0789Z" fill="black"/>
<path d="M84.9148 33.4185L88.6855 40.4748L86.3546 41.1501L85.7033 39.3269L84.4349 38.5841L84.9148 33.4185Z" fill="black"/>
<path d="M86.0804 42.1626L85.5319 43.0067L85.6005 43.7494L89.0969 48.9826L89.474 42.5002L86.0804 42.1626Z" fill="black"/>
<path d="M84.0236 44.053L83.0981 44.8295L81.8983 44.053L78.3333 48.3408L79.4645 50.1978L79.2246 52.4261L85.0863 58.6384L89.234 52.7637L84.0236 44.053Z" fill="black"/>
<path d="M69.0093 37.1655L74.2197 46.9567L75.4195 46.6528L76.8592 47.2605L80.6299 43.0065L79.9101 42.1624L80.0472 41.1495L69.0093 37.1655Z" fill="black"/>
<path d="M67.0212 38.5159L64.3817 54.1818L65.3758 55.0596L71.3061 51.7846L71.0318 49.6576L72.7801 48.0707L67.364 37.6719L67.0212 38.5159Z" fill="black"/>
<path d="M65.6501 37.9421L62.942 53.6755L61.9479 54.1144L61.1253 55.0598L52.2127 49.3201L51.7671 47.9696L65.6501 37.9421Z" fill="black"/>
<path d="M71.6832 53.5408L72.4717 54.3511L73.8428 55.0601L73.0544 60.5634L65.6501 56.9508L71.6832 53.5408Z" fill="black"/>
<path d="M75.7967 54.7898L76.9279 55.0599L77.7506 54.3171L83.3723 59.2127L75.1454 60.9008L75.7967 54.7898Z" fill="black"/>
<path d="M62.2222 60.0568L60.5425 59.8204L60.0626 58.605C60.0626 58.605 48.4078 62.5214 48.1335 62.6565C47.8593 62.7915 62.1536 81.8336 62.1536 81.8336L62.2222 60.0568Z" fill="black"/>
<path d="M63.7305 60.5295L65.1359 59.6854L65.6501 58.605L71.7175 62.015L64.3475 69.3077L63.7305 60.5295Z" fill="black"/>
<path d="M72.78 64.3108L65.1701 70.4556L73.8427 70.4893L72.78 64.3108Z" fill="black"/>
<path d="M75.111 64.3109L75.7966 63.6694L79.2245 64.6823L75.1453 69.9155V64.3109H75.111Z" fill="black"/>
<path d="M77.1335 62.0488L79.9787 61.9137L83.1324 60.5632L80.6643 64.3446L77.1335 62.0488Z" fill="black"/>
<path d="M51.8014 50.7385L50.8073 50.8398L49.8818 51.0424L48.1335 60.9011L60.0284 57.356L60.4397 56.073L51.8014 50.7385Z" fill="black"/>
<path d="M48.1335 50.7385L46.0082 61.8464L40.8664 63.6696L38.9468 57.1872L39.9066 56.0055L39.9409 55.0601L48.1335 50.7385Z" fill="black"/>
<path d="M35.7245 57.1873L36.6158 57.8287H38.0555L38.9125 63.2645L30.5484 60.5298L35.7245 57.1873Z" fill="black"/>
<path d="M27.566 50.9747C27.5317 50.9747 27.0861 56.2416 27.0861 56.2416L29.0057 59.2465L34.9703 56.0391L34.936 54.5197L29.6913 50.1306L28.5258 50.9409H27.566V50.9747Z" fill="black"/>
<path d="M23.3155 47.9022L23.7954 48.9826L24.5838 49.928L26.0236 50.7383L26.0578 54.2834L25.0295 55.0261H18.7221L12.072 47.2607L23.3155 47.9022Z" fill="black"/>
<path d="M12.072 42.1625L11.2493 44.4921C11.2493 44.4921 24.6181 46.3153 24.3096 46.3153C24.0011 46.3153 24.721 45.0661 24.721 45.0661L21.2931 40.0354L19.7505 40.4068L18.585 39.3264L12.072 42.1625Z" fill="black"/>
<path d="M14.4373 30.7844L10.1181 34.4308L12.072 39.9678L17.7966 37.9421L18.0365 37.1318L18.4136 36.2877L14.4373 30.7844Z" fill="black"/>
<path d="M16.6996 29.4007L20.4361 35.1741L25.2694 27.1724L16.6996 29.4007Z" fill="black"/>
<path d="M26.0578 28.6912L27.3604 28.4549L28.423 28.0835L35.8958 35.6801L36.5129 37.1994L35.6902 37.6721H22.8356H22.0129L21.9786 36.5917L26.0578 28.6912Z" fill="black"/>
<path d="M29.4514 25.5514L29.1772 26.2604L37.6784 35.1737L36.5129 25.0787L35.2103 24.1334L34.4561 23.2893L29.4514 25.5514Z" fill="black"/>
<path d="M38.0555 24.1672L38.9467 34.4986L40.3522 35.1738L47.4136 31.1561L47.6536 28.4888L38.0555 24.1672Z" fill="black"/>
<path d="M39.8723 40.7444L38.9468 53.5066L46.5224 49.894L46.5567 48.2059L47.208 47.2606L39.8723 40.7444Z" fill="black"/>
<path d="M37.6784 40.1702L36.5129 52.9324L30.5484 48.7796V46.6863V45.741L37.6784 40.1702Z" fill="black"/>
<path d="M22.4929 39.3264L26.0579 44.0869L27.3605 43.3104L29.1773 44.5596L36.513 39.3264H22.4929Z" fill="black"/>
<path d="M24.0353 20.7231L25.2694 23.3229L24.7209 25.585L14.9171 28.421L14.8143 25.1123L24.0353 20.7231Z" fill="black"/>
<path d="M24.9952 18.698L26.4006 22.5469L27.5661 22.9521L28.903 23.7961L33.9763 21.7029L24.9952 18.698Z" fill="black"/>
<path d="M27.3605 17.3134L34.2506 20.0819L35.2104 20.6896L36.513 19.643L38.9126 14.241L27.3605 17.3134Z" fill="black"/>
<path d="M40.7636 14.241L38.9125 19.8118V21.2298V22.5466L48.1336 26.7331L49.8818 26.2604L47.6194 14.241H40.7636Z" fill="black"/>
<path d="M49.1962 15.0513L50.8073 25.0788L52.2128 25.754L53.5497 26.6994L59.1371 23.2556L60.4397 20.6559L55.4007 14.241L49.1962 15.0513Z" fill="black"/>
<path d="M57.3203 14.7476L61.1595 19.8119L62.8392 20.0483L67.8782 16.8746L57.3203 14.7476Z" fill="black"/>
<path d="M69.0094 18.3262L64.3817 21.2635L73.8427 23.2893L69.0094 18.3262Z" fill="black"/>
<path d="M26.1608 48.679L25.2695 47.5986L25.578 46.2481L26.8464 45.6404L28.1147 46.2481L28.4232 47.5986L27.5319 48.679H26.1608Z" fill="black"/>
<path d="M62.3593 58.6048L61.4681 57.5244L61.7766 56.1739L63.0449 55.5662L64.3132 56.1739L64.6217 57.5244L63.7305 58.6048H62.3593Z" fill="black"/>
<path d="M74.1856 52.6966L73.2943 51.6162L73.6028 50.2657L74.8711 49.658L76.1395 50.2657L76.448 51.6162L75.5567 52.6966H74.1856Z" fill="black"/>
<path d="M50.0875 30.785L49.1962 29.7046L49.5047 28.3541L50.7731 27.7463L52.0414 28.3541L52.3499 29.7046L51.4586 30.785H50.0875Z" fill="black"/>
<path d="M38.3297 38.8203L37.6784 38.01L37.9184 36.9971L38.8782 36.5244L39.838 36.9971L40.0779 38.01L39.4266 38.8203H38.3297Z" fill="black"/>
<path d="M19.5106 38.8203L18.8593 38.01L19.0993 36.9971L20.0591 36.5244L21.0189 36.9971L21.2588 38.01L20.6075 38.8203H19.5106Z" fill="black"/>
<path d="M26.3321 26.4631L25.6808 25.6528L25.9207 24.6399L26.8806 24.1672L27.8404 24.6399L28.0803 25.6528L27.429 26.4631H26.3321Z" fill="black"/>
<path d="M35.9303 23.0192L35.279 22.2089L35.5189 21.196L36.4788 20.7571L37.4386 21.196L37.6785 22.2089L37.0272 23.0192H35.9303Z" fill="black"/>
<path d="M61.8451 23.0192L61.1938 22.2089L61.4337 21.196L62.3936 20.7571L63.3534 21.196L63.5933 22.2089L62.942 23.0192H61.8451Z" fill="black"/>
<path d="M66.3357 36.5241L65.6844 35.7138L65.9243 34.7009L66.8842 34.262L67.844 34.7009L68.0839 35.7138L67.4326 36.5241H66.3357Z" fill="black"/>
<path d="M82.0698 42.365L81.1785 41.2846L81.487 39.9341L82.7554 39.3264L84.0237 39.9341L84.3322 41.2846L83.4409 42.365H82.0698Z" fill="black"/>
<path d="M48.8876 50.1641L47.9963 49.0837L48.3048 47.7332L49.5732 47.1255L50.8415 47.7332L51.15 49.0837L50.2588 50.1641H48.8876Z" fill="black"/>
<path d="M73.6714 63.2646L73.0201 62.4543L73.26 61.4414L74.2198 60.9688L75.1797 61.4414L75.4196 62.4543L74.7683 63.2646H73.6714Z" fill="black"/>
<path d="M37.3699 22.6814L49.4361 28.3873Z" fill="black"/>
<path d="M52.1442 28.7249L61.4681 22.6814Z" fill="black"/>
<path d="M62.5992 23.019L66.6441 34.2282Z" fill="black"/>
<path d="M68.0496 35.8831L81.7612 40.7786Z" fill="black"/>
<path d="M67.4668 36.5244L74.5625 49.2529Z" fill="black"/>
<path d="M82.4124 42.3652L76.3793 49.4554Z" fill="black"/>
<path d="M73.8427 51.4141L64.3817 56.2759Z" fill="black"/>
<path d="M75.1111 52.0549L74.1855 61.002Z" fill="black"/>
<path d="M64.3817 57.1873L73.02 61.6439Z" fill="black"/>
<path d="M61.4681 55.8026L51.0815 49.624Z" fill="black"/>
<path d="M48.6821 49.4556L38.6726 54.7563Z" fill="black"/>
<path d="M37.1642 56.3092L36.5129 55.4989L36.7529 54.486L37.7127 54.0471L38.6725 54.486L38.9125 55.4989L38.2612 56.3092H37.1642Z" fill="black"/>
<path d="M20.916 38.4487L26.2635 45.8765Z" fill="black"/>
<path d="M28.1488 46.3154L38.3639 38.7864Z" fill="black"/>
<path d="M38.9467 38.8201L37.6784 54.0132Z" fill="black"/>
<path d="M28.1488 48.0034L36.7528 54.5871Z" fill="black"/>
<path d="M20.6761 36.6594L26.4007 26.4631Z" fill="black"/>
<path d="M27.7033 26.2607L38.0556 36.7947Z" fill="black"/>
<path d="M28.0461 25.0789L35.279 22.1753Z" fill="black"/>
<path d="M49.8817 46.8554L50.8072 30.7844Z" fill="black"/>
<path d="M39.598 38.8201L48.5791 47.4633Z" fill="black"/>
<path d="M63.2163 55.2626L66.6442 36.5244Z" fill="black"/>
<path d="M66.0271 36.1528L51.2186 47.4295Z" fill="black"/>
<path d="M66.0272 34.6334L52.1442 30.2781Z" fill="black"/>
<path d="M38.5353 36.6591L36.89 23.019Z" fill="black"/>
<line x1="93.7802" y1="7" x2="93.7802" y2="83.9036" stroke="black" stroke-width="0.313253"/>
</svg>
