<svg width="100" height="100" viewBox="0 0 100 100" fill="none" xmlns="http://www.w3.org/2000/svg">
<g clip-path="url(#clip0_1347_127051)">
<path d="M14.2504 35.5162C6.38035 35.5162 0 41.9243 0 49.8288C0 57.7336 6.38035 64.1417 14.2504 64.1417C22.1207 64.1417 28.5008 57.7339 28.5008 49.8288C28.5005 41.9243 22.1207 35.5162 14.2504 35.5162ZM14.3894 60.2133C8.63455 60.2133 3.96959 55.5279 3.96959 49.748C3.96959 43.9682 8.63455 39.2827 14.3894 39.2827C20.144 39.2827 24.8092 43.9682 24.8092 49.748C24.8092 55.5281 20.144 60.2133 14.3894 60.2133Z" fill="#E43026"/>
<path d="M4.72357 52.4061C4.72357 52.4061 6.43044 59.0672 13.0991 59.7805C19.7678 60.4941 23.1024 54.7057 23.1024 54.7057L21.3161 53.5956C21.3161 53.5956 18.5371 58.274 13.5758 58.1152C8.61375 57.9568 6.11307 54.9832 4.72357 52.4061Z" fill="#E43026"/>
<path d="M8.23352 56.1691C9.73649 57.2357 11.5097 57.7989 13.5833 57.865C18.3347 58.0166 21.0734 53.513 21.1004 53.4677L21.2309 53.248L21.4481 53.3832L23.1204 54.4225C24.6562 51.9017 24.2887 49.0792 24.2887 49.0792L21.1969 49.1153C21.1969 49.1153 21.4351 53.6749 15.9573 56.2517C13.676 57.3248 9.8452 57.1499 7.5419 55.3397C7.5419 55.34 7.74355 55.7005 8.23352 56.1691Z" fill="#E43026"/>
<path d="M20.7407 48.8758L20.7272 48.6156L20.988 48.6126L24.2426 48.5791C24.0976 46.0596 22.1893 43.842 22.1893 43.842L18.5374 46.1021C18.5374 46.1021 20.8622 47.838 18.7573 51.9405C18.0251 53.3674 16.45 54.9084 15.0039 55.5851C13.2354 56.4128 11.8767 56.4553 11.8767 56.4553C12.0553 56.5264 13.7652 56.8667 16.1634 55.8023C20.8943 53.7031 20.7495 49.0552 20.7407 48.8758Z" fill="#E43026"/>
<path fill-rule="evenodd" clip-rule="evenodd" d="M46.0936 43.9927C46.0936 43.9927 45.9758 50.0625 46.0988 52.7689C46.1316 53.4927 46.1306 54.3604 46.7494 55.1928C47.3914 56.0568 48.7027 56.1311 49.0138 56.1448C49.4948 56.1656 50.0183 56.1271 50.636 56.1333C50.7415 56.1343 50.9724 56.1511 51.001 55.8946L51 54.8538C50.9471 54.6729 50.6355 54.7052 50.4602 54.7104C49.7252 54.7312 48.8871 54.6752 48.5542 54.2338C48.3097 53.9098 48.1621 53.552 48.1817 53.2147L48.2027 50.6354C48.2027 49.5035 48.2027 48.4737 48.2027 47.5567L49.7418 47.5597C49.8219 47.5512 49.9542 47.5708 50.0223 47.5485C50.1426 47.52 50.1493 47.3333 50.1493 47.3025C50.1493 46.9868 50.1493 46.6713 50.1493 46.3555C50.1493 46.324 50.1598 46.0896 49.8247 46.1011L48.2027 46.0986C48.1814 45.6983 48.1997 44.0329 48.1997 44.0329C48.1902 43.854 48.1742 43.7209 48.1486 43.6681C48.1023 43.5736 47.979 43.5023 47.8781 43.5063C47.2022 43.5473 46.5196 43.7032 46.0936 43.9927Z" fill="#231F20"/>
<path fill-rule="evenodd" clip-rule="evenodd" d="M41.7272 46.3505C41.6751 46.3733 41.5816 46.4383 41.5756 46.612C41.5756 49.7354 41.5756 52.8594 41.5756 55.9829C41.5756 55.9829 41.6831 56.0435 42.545 56.0435C43.3892 56.0435 43.4932 55.9659 43.4932 55.9659C43.4932 55.9659 43.5232 46.5447 43.4932 46.311C43.4696 46.1266 43.4476 45.9147 43.1981 45.9369C42.7023 46.0695 42.1643 46.1598 41.7272 46.3505Z" fill="#231F20"/>
<path fill-rule="evenodd" clip-rule="evenodd" d="M87.1466 47.544C87.7198 47.569 87.8999 47.3839 87.9452 47.1695C87.983 46.9896 87.9442 46.5274 87.9344 46.4356C87.9209 46.3073 87.8771 46.1401 87.6128 46.1046C87.3916 46.0748 87.0336 46.1019 86.3405 46.0971C86.1228 46.0956 85.7085 46.0803 85.4337 46.1236C82.8975 46.5242 83.1044 48.6879 83.1044 48.6879C83.1044 51.1196 83.1044 53.5513 83.1044 55.9827C83.1044 55.9827 83.2121 56.0433 84.0738 56.0433C84.9177 56.0433 85.0214 55.9657 85.0214 55.9657C85.0214 55.9657 85.0339 52.0583 85.0349 49.2141C85.076 47.7499 86.0925 47.4982 87.1466 47.544Z" fill="#231F20"/>
<path fill-rule="evenodd" clip-rule="evenodd" d="M38.588 47.4001C38.7262 47.0904 38.8052 46.7423 38.6787 46.631C38.2498 46.2537 37.0807 46.1236 36.8468 46.0993C34.6635 45.8726 32.277 46.5199 31.9799 48.3676C31.6896 50.1746 33.2377 50.7941 34.5756 51.4463C35.8122 52.0488 37.4402 52.3953 37.1712 53.7146C36.8608 55.2353 34.1758 54.5696 33.278 54.3626C32.9138 54.2786 32.5358 54.0321 32.2632 54.0607C32.0678 54.0814 31.9208 54.2826 31.8953 54.3336C31.7575 54.6063 31.5849 54.8455 31.6656 55.3357C31.7775 55.782 33.3228 55.9652 33.4403 55.9829C37.7175 56.6249 38.6436 54.9679 38.8317 54.6481C40.3662 52.041 37.0357 50.7563 36.8468 50.6359C35.7904 49.9634 33.8138 49.7767 34.0888 48.3674C34.2431 47.5762 35.1251 47.4346 35.711 47.3951C36.7088 47.328 37.7268 47.8054 38.0141 47.8437C38.341 47.8875 38.465 47.6756 38.588 47.4001Z" fill="#231F20"/>
<path d="M59.6964 51.6047C60.0451 51.5877 60.4542 51.634 60.7798 51.594C60.9497 51.5732 61.2242 51.386 61.1924 50.9977C61.115 50.0497 61.1132 48.131 59.502 46.9055C58.3628 46.039 56.962 45.9422 55.8536 46.0991C55.3624 46.1686 53.6828 46.7113 52.7715 48.2053C52.1608 49.2068 51.9421 50.743 52.1225 52.0941C52.5022 54.9369 54.9343 55.7845 55.155 55.8661C55.5299 56.005 56.0585 56.094 56.5024 56.1448C57.1269 56.2161 58.0349 56.2349 58.7734 56.1448C59.2165 56.0905 59.7195 56.0665 60.099 55.7693C60.1904 55.6977 60.2377 55.4918 60.2222 55.2846C60.1684 55.1583 60.1443 55.0019 60.113 54.8531C59.9324 54.3822 59.3708 54.5155 59.1962 54.5626C58.5296 54.7425 56.7939 54.6339 56.7939 54.6339C56.2864 54.6104 55.6995 54.4492 55.4443 54.2343C54.0277 53.0416 54.2311 51.608 54.2311 51.608L59.6964 51.6047ZM54.183 50.3182C54.183 50.2154 54.2417 49.41 54.6542 48.6679C54.6923 48.5993 54.7344 48.5315 54.7787 48.4645C55.1504 47.9048 55.7509 47.4271 56.716 47.3819C56.7398 47.3799 56.7639 47.3784 56.7889 47.3781C56.7954 47.3781 56.8015 47.3771 56.8077 47.3771C56.813 47.3771 56.818 47.3774 56.8232 47.3774L56.8348 47.3776C57.2889 47.3741 57.6576 47.4782 57.957 47.6488C58.2573 47.8205 58.488 48.0586 58.6651 48.3234C59.2405 49.1833 59.2518 50.3179 59.2518 50.3179H54.183V50.3182Z" fill="#231F20"/>
<path d="M96.1149 51.6047C96.4641 51.5877 96.8729 51.634 97.1982 51.594C97.3678 51.5732 97.6426 51.386 97.6111 50.9977C97.5334 50.0497 97.5317 48.131 95.9205 46.9055C94.7815 46.039 93.3807 45.9422 92.2723 46.0991C91.7805 46.1686 90.1017 46.7113 89.1897 48.2053C88.579 49.2068 88.3608 50.743 88.5414 52.0941C88.9209 54.9369 91.353 55.7845 91.5734 55.8661C91.9486 56.005 92.4769 56.094 92.9211 56.1448C93.5453 56.2161 94.4538 56.2349 95.1923 56.1448C95.6352 56.0905 96.1379 56.0665 96.5177 55.7693C96.6091 55.6977 96.6562 55.4918 96.6409 55.2846C96.5868 55.1583 96.5632 55.0019 96.5312 54.8531C96.3506 54.3822 95.7887 54.5155 95.6149 54.5626C94.9483 54.7425 93.2124 54.6339 93.2124 54.6339C92.7051 54.6104 92.118 54.4492 91.8627 54.2343C90.4459 53.0416 90.6493 51.608 90.6493 51.608L96.1149 51.6047ZM90.6017 50.3182C90.6017 50.2154 90.6601 49.41 91.0727 48.6679C91.1105 48.5993 91.1528 48.5315 91.1971 48.4645C91.5686 47.9048 92.1696 47.4271 93.1345 47.3819C93.1588 47.3799 93.1826 47.3784 93.2074 47.3781C93.2136 47.3781 93.2201 47.3771 93.2264 47.3771C93.2314 47.3771 93.2362 47.3774 93.2417 47.3774L93.2535 47.3776C93.7074 47.3741 94.0766 47.4782 94.3759 47.6488C94.676 47.8205 94.9067 48.0586 95.0836 48.3234C95.659 49.1833 95.6707 50.3179 95.6707 50.3179H90.6017V50.3182Z" fill="#231F20"/>
<path d="M80.5701 48.7484C79.7458 47.1321 78.087 46.028 76.1755 46.028C74.1417 46.028 72.4847 47.218 71.7237 49.0044C71.4619 49.6186 71.3509 50.3472 71.3509 51.0595C71.3509 51.9525 71.4551 52.7999 71.8554 53.5275C72.7021 55.0675 74.3195 56.1085 76.1757 56.1085C78.1185 56.1085 79.8001 55.0925 80.6102 53.4332C80.9394 52.7581 81.0358 51.9705 81.0358 51.1656C81.0355 50.3292 80.9241 49.4427 80.5701 48.7484ZM78.2505 53.7877C77.7578 54.477 76.8994 54.9038 76.1401 54.9038C75.5204 54.9038 74.7877 54.6211 74.3308 54.1422C73.6823 53.4622 73.4263 52.3891 73.4263 51.1836C73.4263 49.8993 73.6925 48.9939 74.3486 48.2603C74.7922 47.7644 75.578 47.4632 76.1401 47.4632C76.9803 47.4632 77.7363 47.6933 78.375 48.7212C78.7726 49.3609 78.8537 50.2807 78.8537 51.1836C78.8537 52.1972 78.7305 53.1169 78.2505 53.7877Z" fill="#231F20"/>
<path fill-rule="evenodd" clip-rule="evenodd" d="M65.8576 48.1515C65.8576 48.1515 64.9921 48.7997 64.8842 50.6089C64.776 52.4184 65.452 54.2548 66.8037 54.5516C68.1554 54.8488 69.0208 54.4973 69.0208 54.4973C69.0208 54.4973 69.0719 54.476 69.1536 54.4502C69.3988 54.3742 69.8114 54.2368 70.0484 54.5786C70.1541 54.7315 70.3134 55.09 70.3187 55.335C70.3249 55.6525 70.1293 55.8211 69.7508 55.9559C68.8169 56.2892 66.3709 56.4689 64.4243 55.1458C62.4777 53.8227 62.0719 49.8801 63.5591 48.0977C65.046 46.3153 66.9385 45.7751 69.345 46.2882L69.9129 46.5312C69.9129 46.5312 70.3725 46.6663 70.0481 47.2335C69.7235 47.8007 69.6153 47.8818 68.9665 47.6926C68.318 47.5035 66.6957 47.2603 65.8576 48.1515Z" fill="#231F20"/>
<path d="M98.874 46.7854C98.5729 46.7854 98.3142 46.676 98.0977 46.4571C97.8813 46.2382 97.7729 45.9772 97.7729 45.6732C97.7729 45.3645 97.8816 45.1018 98.0988 44.8856C98.3162 44.6694 98.5789 44.5613 98.8861 44.5613C99.1939 44.5613 99.4562 44.6694 99.6739 44.8856C99.8913 45.1018 100 45.3635 100 45.671C100 45.9832 99.8908 46.2469 99.6726 46.4626C99.4542 46.6778 99.1884 46.7854 98.874 46.7854ZM98.8763 46.5377C99.1188 46.5377 99.3259 46.4531 99.497 46.2835C99.6686 46.1138 99.7543 45.9097 99.7543 45.671C99.7543 45.4355 99.6684 45.2329 99.497 45.0622C99.3259 44.8919 99.1223 44.8068 98.8863 44.8068C98.6513 44.8068 98.4482 44.8919 98.2771 45.0622C98.1068 45.2326 98.0213 45.436 98.0213 45.6732C98.0213 45.9072 98.1065 46.1096 98.2761 46.2807C98.4457 46.4521 98.6458 46.5377 98.8763 46.5377ZM98.6704 46.352H98.454C98.4412 46.353 98.4372 46.3465 98.4377 46.3345V45.0247H98.8237C99.1649 45.0247 99.3021 45.1911 99.3021 45.4213C99.3021 45.5834 99.2438 45.6617 99.0622 45.7585L99.3547 46.3175C99.36 46.332 99.3565 46.3505 99.3427 46.352C99.3417 46.3523 99.1102 46.352 99.1102 46.352C99.0985 46.3523 99.0842 46.3453 99.0734 46.3212L98.8064 45.8111H98.6859V46.332C98.6854 46.3538 98.6761 46.3515 98.6704 46.352ZM98.6857 45.6259H98.7936C98.9692 45.6259 99.0571 45.5491 99.0571 45.3955C99.0571 45.2702 98.9727 45.2076 98.8039 45.2076H98.6857V45.6259Z" fill="#231F20"/>
<path d="M34.6522 63.4066C34.4658 63.5027 34.075 63.5988 33.5821 63.5988C32.4398 63.5988 31.5861 62.8782 31.5861 61.5451C31.5861 60.2719 32.4458 59.4192 33.7026 59.4192C34.2015 59.4192 34.5262 59.5273 34.6645 59.5993L34.5322 60.0257C34.3398 59.9296 34.0573 59.8575 33.7206 59.8575C32.7707 59.8575 32.1392 60.4643 32.1392 61.5271C32.1392 62.5239 32.7103 63.1547 33.6903 63.1547C34.0149 63.1547 34.3396 63.0884 34.5502 62.9863L34.6522 63.4066Z" fill="black"/>
<path d="M35.5236 62.1696C35.5357 62.8842 35.9866 63.1784 36.5156 63.1784C36.8944 63.1784 37.1288 63.1124 37.3212 63.0343L37.4174 63.4066C37.231 63.4907 36.9064 63.5927 36.4435 63.5927C35.5537 63.5927 35.0126 62.9983 35.0126 62.1276C35.0126 61.2449 35.5357 60.5541 36.3836 60.5541C37.3335 60.5541 37.58 61.389 37.58 61.9234C37.58 62.0315 37.5739 62.1158 37.5619 62.1756L35.5236 62.1696ZM37.0687 61.7911C37.0747 61.461 36.9304 60.9324 36.3413 60.9324C35.8002 60.9324 35.5717 61.4248 35.5297 61.7911H37.0687Z" fill="black"/>
<path d="M38.2413 61.5329C38.2413 61.1909 38.2353 60.8964 38.2172 60.6262H38.6801L38.7042 61.1966H38.7222C38.8545 60.8063 39.1791 60.5601 39.5338 60.5601C39.5879 60.5601 39.63 60.5659 39.6781 60.5781V61.0705C39.618 61.0645 39.5639 61.0585 39.4917 61.0585C39.119 61.0585 38.8545 61.3407 38.7823 61.7311C38.7703 61.8091 38.7643 61.8929 38.7643 61.9833V63.5325H38.2353L38.2413 61.5329Z" fill="black"/>
<path d="M40.9824 59.9296V60.6261H41.7399V61.0284H40.9824V62.5959C40.9824 62.9562 41.0846 63.1604 41.3792 63.1604C41.5235 63.1604 41.6077 63.1484 41.6858 63.1244L41.7099 63.5264C41.6077 63.5627 41.4454 63.5985 41.2409 63.5985C40.9945 63.5985 40.7961 63.5144 40.6698 63.3763C40.5255 63.2142 40.4654 62.956 40.4654 62.6137V61.0282H40.0145V60.6259H40.4654V60.0914L40.9824 59.9296Z" fill="black"/>
<path d="M42.5876 60.0917C42.3892 60.0917 42.257 59.9356 42.257 59.7494C42.257 59.5633 42.3952 59.4129 42.5996 59.4129C42.804 59.4129 42.9363 59.5633 42.9363 59.7494C42.9363 59.9356 42.804 60.0917 42.5936 60.0917H42.5876ZM42.3349 63.5327V60.6261H42.8639V63.5327H42.3349Z" fill="black"/>
<path d="M43.79 63.5327V61.0285H43.3872V60.6261H43.79V60.488C43.79 60.0797 43.8862 59.7074 44.1327 59.473C44.331 59.2808 44.5956 59.2028 44.836 59.2028C45.0284 59.2028 45.1847 59.2448 45.2869 59.2868L45.2208 59.6954C45.1366 59.6591 45.0344 59.6291 44.8781 59.6291C44.4332 59.6291 44.313 60.0254 44.313 60.4698V60.6259H45.0166V61.0282H44.319V63.5325H43.79V63.5327Z" fill="black"/>
<path d="M45.7498 60.0917C45.5515 60.0917 45.4192 59.9356 45.4192 59.7494C45.4192 59.5633 45.5575 59.4129 45.7619 59.4129C45.9663 59.4129 46.0985 59.5633 46.0985 59.7494C46.0985 59.9356 45.9663 60.0917 45.7559 60.0917H45.7498ZM45.4971 63.5327V60.6261H46.0261V63.5327H45.4971Z" fill="black"/>
<path d="M47.2045 62.1696C47.2165 62.8842 47.6674 63.1784 48.1964 63.1784C48.5752 63.1784 48.8096 63.1124 49.002 63.0343L49.0982 63.4066C48.9118 63.4907 48.5872 63.5927 48.1243 63.5927C47.2345 63.5927 46.6935 62.9983 46.6935 62.1276C46.6935 61.2449 47.2165 60.5541 48.0644 60.5541C49.0143 60.5541 49.2608 61.389 49.2608 61.9234C49.2608 62.0315 49.2548 62.1158 49.2427 62.1756L47.2045 62.1696ZM48.7495 61.7911C48.7555 61.461 48.6112 60.9324 48.0221 60.9324C47.481 60.9324 47.2526 61.4248 47.2105 61.7911H48.7495Z" fill="black"/>
<path d="M52.429 59.269V62.7821C52.429 63.0403 52.435 63.3345 52.4531 63.5327H51.9781L51.9541 63.028H51.9421C51.7797 63.3525 51.4311 63.5985 50.9559 63.5985C50.2525 63.5985 49.7054 63.004 49.7054 62.1213C49.6994 61.1483 50.3066 60.5601 51.01 60.5601C51.4609 60.5601 51.7615 60.7702 51.8877 60.9984H51.8997V59.269H52.429ZM51.9 61.8091C51.9 61.737 51.894 61.6529 51.8759 61.5809C51.7978 61.2506 51.5092 60.9744 51.1124 60.9744C50.5653 60.9744 50.2407 61.4548 50.2407 62.0913C50.2407 62.6858 50.5353 63.1722 51.1004 63.1722C51.4551 63.1722 51.7797 62.932 51.8759 62.5416C51.894 62.4696 51.9 62.3975 51.9 62.3135V61.8091Z" fill="black"/>
<path d="M54.593 59.5393C54.9177 59.4912 55.2964 59.455 55.7113 59.455C56.4627 59.455 56.9978 59.6233 57.3525 59.9534C57.7192 60.2836 57.9296 60.7582 57.9296 61.4128C57.9296 62.0735 57.7192 62.614 57.3465 62.986C56.9617 63.3646 56.3365 63.5685 55.5489 63.5685C55.1702 63.5685 54.8636 63.5565 54.593 63.5207V59.5393ZM55.1221 63.1244C55.2544 63.1484 55.4467 63.1484 55.6511 63.1484C56.7693 63.1544 57.3768 62.5239 57.3768 61.431C57.3828 60.4643 56.8417 59.8695 55.7353 59.8695C55.4648 59.8695 55.2604 59.8938 55.1221 59.9238V63.1244Z" fill="black"/>
<path d="M58.9214 62.1696C58.9334 62.8842 59.3843 63.1784 59.9133 63.1784C60.2921 63.1784 60.5265 63.1124 60.7189 63.0343L60.8151 63.4066C60.6287 63.4907 60.3041 63.5927 59.8412 63.5927C58.9514 63.5927 58.4103 62.9983 58.4103 62.1276C58.4103 61.2449 58.9334 60.5541 59.7813 60.5541C60.7312 60.5541 60.9777 61.389 60.9777 61.9234C60.9777 62.0315 60.9716 62.1158 60.9596 62.1756L58.9214 62.1696ZM60.4667 61.7911C60.4727 61.461 60.3284 60.9324 59.7392 60.9324C59.1981 60.9324 58.9697 61.4248 58.9276 61.7911H60.4667Z" fill="black"/>
<path d="M61.8254 60.6262L62.3965 62.2537C62.4927 62.5239 62.5708 62.7641 62.6309 63.0043H62.649C62.7151 62.7641 62.7993 62.5239 62.8955 62.2537L63.4606 60.6262H64.0137L62.8712 63.5327H62.3662L61.2597 60.6262H61.8254Z" fill="black"/>
<path d="M64.7469 62.1696C64.7589 62.8842 65.2098 63.1784 65.7388 63.1784C66.1176 63.1784 66.3518 63.1124 66.5447 63.0343L66.6406 63.4066C66.4542 63.4907 66.1298 63.5927 65.6667 63.5927C64.7769 63.5927 64.2358 62.9983 64.2358 62.1276C64.2358 61.2449 64.7589 60.5541 65.6068 60.5541C66.5567 60.5541 66.8032 61.389 66.8032 61.9234C66.8032 62.0315 66.7974 62.1158 66.7851 62.1756L64.7469 62.1696ZM66.2924 61.7911C66.2982 61.461 66.1539 60.9324 65.5647 60.9324C65.0236 60.9324 64.7952 61.4248 64.7531 61.7911H66.2924Z" fill="black"/>
<path d="M67.4582 59.269H67.987V63.5327H67.4582V59.269Z" fill="black"/>
<path d="M70.0493 63.5988C69.268 63.5988 68.6546 63.0223 68.6546 62.1034C68.6546 61.1306 69.2978 60.5601 70.0979 60.5601C70.9336 60.5601 71.4987 61.1666 71.4987 62.0493C71.4987 63.1302 70.7472 63.5985 70.0558 63.5985H70.0493V63.5988ZM70.0674 63.2025C70.5724 63.2025 70.9514 62.7281 70.9514 62.0676C70.9514 61.5752 70.7049 60.9567 70.0796 60.9567C69.4602 60.9567 69.1896 61.5331 69.1896 62.0858C69.1896 62.7223 69.5501 63.2027 70.0613 63.2027H70.0674V63.2025Z" fill="black"/>
<path d="M72.1653 61.5752C72.1653 61.2029 72.1595 60.9026 72.1412 60.6262H72.6161L72.646 61.1246H72.6582C72.8686 60.7643 73.2173 60.5601 73.6863 60.5601C74.3962 60.5601 74.925 61.1546 74.925 62.0373C74.925 63.0824 74.2817 63.5985 73.6021 63.5985C73.2116 63.5985 72.8809 63.4304 72.7063 63.1422H72.6946V64.7217H72.1653V61.5752ZM72.6946 62.3498C72.6946 62.4219 72.7003 62.5002 72.7186 62.566C72.8085 62.9323 73.1334 63.1845 73.5064 63.1845C74.0655 63.1845 74.3899 62.7283 74.3899 62.0616C74.3899 61.4791 74.0896 60.9807 73.5302 60.9807C73.1697 60.9807 72.8266 61.2332 72.7244 61.6295C72.7126 61.7015 72.6946 61.7796 72.6946 61.8456V62.3498Z" fill="black"/>
<path d="M75.8924 62.1696C75.9047 62.8842 76.3558 63.1784 76.8846 63.1784C77.2633 63.1784 77.4976 63.1124 77.6904 63.0343L77.7864 63.4066C77.6 63.4907 77.2756 63.5927 76.8127 63.5927C75.9227 63.5927 75.3816 62.9983 75.3816 62.1276C75.3816 61.2449 75.9047 60.5541 76.7526 60.5541C77.7022 60.5541 77.9487 61.389 77.9487 61.9234C77.9487 62.0315 77.9429 62.1158 77.9307 62.1756L75.8924 62.1696ZM77.4379 61.7911C77.4437 61.461 77.2994 60.9324 76.7105 60.9324C76.1694 60.9324 75.941 61.4248 75.8989 61.7911H77.4379Z" fill="black"/>
<path d="M78.6095 61.5329C78.6095 61.1909 78.6037 60.8964 78.5854 60.6262H79.0484L79.0724 61.1966H79.0904C79.223 60.8063 79.5473 60.5601 79.902 60.5601C79.9564 60.5601 79.9985 60.5659 80.0463 60.5781V61.0705C79.9862 61.0645 79.9324 61.0585 79.86 61.0585C79.4872 61.0585 79.223 61.3407 79.1506 61.7311C79.1388 61.8091 79.1325 61.8929 79.1325 61.9833V63.5325H78.6037L78.6095 61.5329Z" fill="black"/>
</g>
<defs>
<clipPath id="clip0_1347_127051">
<rect width="100" height="29.857" fill="white" transform="translate(0 35)"/>
</clipPath>
</defs>
</svg>
