<svg width="100" height="100" viewBox="0 0 100 100" fill="none" xmlns="http://www.w3.org/2000/svg">
<path d="M49.4721 99.1558C76.5379 99.1558 98.4791 77.2147 98.4791 50.1489C98.4791 23.083 76.5379 1.14188 49.4721 1.14188C22.4063 1.14188 0.465118 23.083 0.465118 50.1489C0.465118 77.2147 22.4063 99.1558 49.4721 99.1558Z" fill="white"/>
<path fill-rule="evenodd" clip-rule="evenodd" d="M49.4721 1.60699C22.6632 1.60699 0.930233 23.3399 0.930233 50.1489C0.930233 76.9578 22.6632 98.6907 49.4721 98.6907C76.281 98.6907 98.0139 76.9578 98.0139 50.1489C98.0139 23.3399 76.281 1.60699 49.4721 1.60699ZM0 50.1489C0 22.8262 22.1494 0.676758 49.4721 0.676758C76.7948 0.676758 98.9442 22.8262 98.9442 50.1489C98.9442 77.4715 76.7948 99.6209 49.4721 99.6209C22.1494 99.6209 0 77.4715 0 50.1489Z" fill="#165AAB"/>
<path d="M48.4674 86.4488C68.5154 86.4488 84.7674 70.1968 84.7674 50.1488C84.7674 30.1009 68.5154 13.8488 48.4674 13.8488C28.4195 13.8488 12.1674 30.1009 12.1674 50.1488C12.1674 70.1968 28.4195 86.4488 48.4674 86.4488Z" fill="#165AAB"/>
<path d="M74.3139 44.9837C74.2995 45.0212 74.2894 45.0602 74.2837 45.1C74.2803 45.155 74.2803 45.2101 74.2837 45.2651C74.2855 45.8411 74.2262 46.4156 74.107 46.9791C73.9737 47.688 73.7663 48.3809 73.4884 49.0465C73.2592 49.621 72.9567 50.1635 72.5884 50.6605C72.3261 50.9948 72.0308 51.3018 71.707 51.5767C71.3602 51.8791 70.9883 52.1514 70.5953 52.3907C70.2298 52.6079 69.8499 52.7999 69.4581 52.9651C69.1793 53.0968 68.8899 53.2049 68.593 53.2884C68.086 53.4116 67.5791 53.5209 67.0697 53.6372C66.66 53.7208 66.2451 53.7768 65.8279 53.8047C65.3784 53.8526 64.9265 53.8752 64.4744 53.8721C64.1372 53.8721 63.8046 53.8279 63.4698 53.807C63.0596 53.776 62.6518 53.7193 62.2488 53.6372C61.696 53.5336 61.1518 53.3883 60.6209 53.2023C60.1087 53.024 59.6118 52.8047 59.1349 52.5465C58.5345 52.2276 57.9694 51.8464 57.4488 51.4093C56.9626 50.9846 56.548 50.4844 56.2209 49.9279C55.6559 48.9907 55.2806 47.9517 55.1163 46.8698C55.0581 46.5116 55.0232 46.1512 54.9884 45.7884C54.95 45.2893 54.943 44.7883 54.9674 44.2884C54.9674 43.9 55.0372 43.5116 55.0767 43.1256C55.1436 42.5123 55.2539 41.9046 55.407 41.307C55.6564 40.3047 56.1188 39.368 56.7628 38.5605C57.3522 37.8241 58.0888 37.219 58.9256 36.7837C59.7208 36.3631 60.5642 36.0406 61.4372 35.8233C61.9439 35.7019 62.4572 35.6095 62.9744 35.5465C63.7716 35.4528 64.5756 35.431 65.3767 35.4814C66.302 35.5265 67.219 35.6786 68.1093 35.9349C68.7835 36.1253 69.4389 36.3767 70.0674 36.6861C70.6409 36.9658 71.1769 37.3166 71.6628 37.7302C72.1753 38.1664 72.6253 38.6712 73 39.2302C73.2604 39.6259 73.4706 40.0524 73.6256 40.5C73.8859 41.2437 74.0736 42.0108 74.186 42.7907C74.2546 43.2245 74.2873 43.6632 74.2837 44.1023C74.2877 44.1899 74.2986 44.277 74.3163 44.3628L74.3139 44.9837ZM67.5232 43.5023H67.5395C67.5163 43.0767 67.5046 42.6535 67.4698 42.2302C67.4576 41.9008 67.3916 41.5756 67.2744 41.2674C67.2189 41.1195 67.1455 40.9789 67.0558 40.8488C66.849 40.5852 66.5828 40.374 66.2791 40.2326C65.818 40.0341 65.3228 39.9267 64.8209 39.9163C64.4301 39.8991 64.0389 39.9359 63.6581 40.0256C63.3551 40.0877 63.0644 40.1993 62.7977 40.3558C62.5994 40.4666 62.4256 40.6165 62.2869 40.7963C62.1482 40.9762 62.0474 41.1824 61.9907 41.4023C61.8648 41.8659 61.7815 42.3399 61.7418 42.8186C61.7163 43.1861 61.6837 43.5558 61.6721 43.9256C61.6589 44.3708 61.669 44.8163 61.7023 45.2605C61.7232 45.5465 61.7163 45.8349 61.7349 46.1233C61.7535 46.4116 61.7814 46.7651 61.8279 47.0837C61.8736 47.4375 61.9699 47.7829 62.1139 48.1093C62.2777 48.4999 62.58 48.8163 62.9628 48.9977C63.426 49.2077 63.9229 49.3336 64.4302 49.3698C64.9175 49.4117 65.4082 49.3572 65.8744 49.2093C66.2952 49.0994 66.6704 48.8592 66.9465 48.5233C67.1632 48.2462 67.3093 47.9206 67.3721 47.5744C67.4327 47.2234 67.4746 46.8694 67.4977 46.514C67.5256 46.1256 67.5349 45.7349 67.5418 45.3512C67.5488 44.9674 67.5418 44.6116 67.5163 44.2419C67.5093 43.9977 67.5232 43.7488 67.5232 43.5023Z" fill="white"/>
<path d="M24.8605 49.6768C24.8744 49.6116 24.8907 49.5442 24.9 49.4791C24.9093 49.414 24.9 49.3698 24.9163 49.3163C24.9194 49.2919 24.9308 49.2694 24.9486 49.2525C24.9664 49.2355 24.9895 49.2252 25.014 49.2233H25.0558C25.2884 49.2116 25.5326 49.1954 25.7744 49.1907C26.2744 49.1907 26.7744 49.1907 27.2768 49.1791C27.4954 49.1791 27.5093 49.1558 27.5302 48.9303C27.5302 48.8396 27.5302 48.7512 27.5302 48.6628V40.3814C27.5411 40.2939 27.5332 40.2051 27.507 40.121C27.4878 40.1103 27.4675 40.1017 27.4465 40.0954C27.214 40.0791 26.9954 40.0535 26.7698 40.0512C26.2744 40.0512 25.7814 40.0512 25.2861 40.0396C25.1744 40.0521 25.0616 40.0301 24.9628 39.9768C24.9523 39.9459 24.9452 39.9139 24.9419 39.8814V35.814C24.9452 35.7815 24.9523 35.7495 24.9628 35.7186C24.9814 35.7057 25.0017 35.6955 25.0233 35.6884C25.2279 35.6744 25.4326 35.6512 25.6372 35.6512H34.2023C34.8744 35.707 35.5465 35.6675 36.2186 35.6814H36.3C36.3977 35.6814 36.4233 35.7116 36.4302 35.807C36.4465 35.9977 36.4675 36.1884 36.4675 36.3814C36.4675 37.5256 36.4675 38.6721 36.4675 39.8186C36.4675 39.8861 36.4558 39.9512 36.4512 40.007C36.383 40.0531 36.2995 40.0707 36.2186 40.0558C35.814 40.0558 35.4093 40.0558 35.0047 40.0558C34.6675 40.0558 34.3326 40.0744 33.9977 40.0884C33.8558 40.0884 33.8326 40.114 33.8302 40.2628C33.8302 40.5303 33.8302 40.7977 33.8302 41.0651C33.7721 42.3675 33.8093 43.6721 33.8023 44.9744C33.7954 46.2768 33.8023 47.5675 33.8023 48.8651C33.8023 48.9465 33.8023 49.0279 33.8023 49.114C33.9649 49.1563 34.132 49.179 34.3 49.1814C34.8558 49.1814 35.4116 49.1814 35.9675 49.1814C36.1163 49.1814 36.2651 49.2047 36.4326 49.2186C36.449 49.2656 36.4615 49.3138 36.4698 49.3628C36.4733 49.4108 36.4733 49.459 36.4698 49.507V53.1721C36.4733 53.2403 36.4733 53.3086 36.4698 53.3768C36.4681 53.3976 36.4589 53.4171 36.444 53.4316C36.429 53.4462 36.4092 53.4548 36.3884 53.4558C36.3209 53.4558 36.2512 53.4558 36.1837 53.4558H25.0768C24.9395 53.4558 24.9163 53.4233 24.9047 53.2814C24.9047 53.2256 24.9047 53.1698 24.9047 53.1163C24.8954 53.0766 24.883 53.0377 24.8675 53L24.8605 49.6768Z" fill="white"/>
<path d="M48.1256 64.6628C48.0668 64.6475 48.0069 64.6366 47.9465 64.6303C47.5767 64.6303 47.2093 64.5837 46.8395 64.5512C46.3209 64.5047 45.8047 64.4303 45.293 64.3419C44.1376 64.1339 43.0019 63.8289 41.8977 63.4302C41.2977 63.214 40.7047 62.9791 40.1279 62.7047C39.311 62.3166 38.5188 61.8786 37.7558 61.393C37.0956 60.973 36.4604 60.5149 35.8535 60.0209C35.409 59.6653 34.9829 59.2873 34.5767 58.8884C34.4628 58.7698 34.3279 58.6721 34.2163 58.5512C33.8535 58.1512 33.4698 57.7675 33.1209 57.3512C32.6495 56.7973 32.2108 56.2165 31.807 55.6116C31.7674 55.5512 31.7326 55.4861 31.6814 55.4047C31.7292 55.3839 31.7791 55.3684 31.8302 55.3582C32.0093 55.3582 32.1884 55.3582 32.3651 55.3582C32.4115 55.3552 32.4578 55.3651 32.4988 55.3869C32.5399 55.4086 32.5741 55.4414 32.5977 55.4814C32.7651 55.714 32.9302 55.9465 33.107 56.1791C33.4108 56.5838 33.736 56.972 34.0814 57.3419C34.4326 57.7093 34.7791 58.0814 35.1442 58.4326C35.588 58.8538 36.0537 59.2513 36.5395 59.6233C36.5707 59.6517 36.6103 59.6691 36.6523 59.6729C36.6943 59.6767 36.7364 59.6666 36.7721 59.6442C36.9349 59.5605 37.107 59.4837 37.2651 59.393C37.7302 59.1256 38.1954 58.8512 38.6605 58.5791C38.6975 58.5532 38.7325 58.5244 38.7651 58.493C38.6791 58.3837 38.6023 58.2814 38.5209 58.1837C37.953 57.5161 37.4227 56.8174 36.9326 56.0907C36.8116 55.907 36.7 55.7186 36.5861 55.5302C36.563 55.4843 36.5428 55.4369 36.5256 55.3884C36.7383 55.3263 36.9613 55.3073 37.1814 55.3326C37.2299 55.3387 37.2763 55.3562 37.3167 55.3837C37.3571 55.4112 37.3904 55.4478 37.414 55.4907C37.6808 55.9387 37.9817 56.3656 38.314 56.7675C38.6581 57.2047 39.0116 57.6326 39.3953 58.0349L39.4372 58.0814C39.4648 58.1146 39.5031 58.1372 39.5456 58.1453C39.588 58.1533 39.6319 58.1464 39.6698 58.1256C39.8023 58.0651 39.9372 58.0163 40.0698 57.9628C40.9698 57.607 41.886 57.2954 42.814 57.0163L42.8721 57.0023C43.0581 56.9489 43.0605 56.8768 42.9954 56.7326C42.8326 56.3698 42.6791 56.0023 42.5302 55.6349C42.5 55.5628 42.4744 55.4837 42.4465 55.4023C42.4747 55.3734 42.5089 55.3509 42.5466 55.3365C42.5844 55.322 42.6248 55.3159 42.6651 55.3186C42.7954 55.3186 42.9256 55.3349 43.0535 55.3419C43.0947 55.3433 43.1345 55.3569 43.168 55.3809C43.2016 55.4049 43.2272 55.4382 43.2419 55.4768C43.3233 55.6349 43.4116 55.7907 43.493 55.9419C43.5744 56.093 43.6791 56.3093 43.7744 56.493C43.8047 56.5535 43.8395 56.6116 43.8791 56.6837C43.9581 56.6837 44.0302 56.6628 44.1116 56.6489C44.6907 56.5396 45.2744 56.4349 45.8558 56.3698C46.2837 56.321 46.7116 56.2651 47.1419 56.2209C47.393 56.193 47.6465 56.1861 47.9 56.1675L48.4744 56.1279C48.509 56.1284 48.5425 56.1164 48.569 56.0942C48.5954 56.072 48.613 56.0411 48.6186 56.007C48.6507 55.9016 48.6587 55.7903 48.6419 55.6814C48.6291 55.6148 48.6244 55.5468 48.6279 55.4791C48.6279 55.3884 48.6674 55.3489 48.7535 55.3465C48.9186 55.3465 49.0837 55.3465 49.2465 55.3465C49.278 55.3451 49.3088 55.3555 49.3329 55.3758C49.3571 55.396 49.3727 55.4246 49.3767 55.4558C49.3884 55.5302 49.3977 55.6047 49.4023 55.6884C49.407 55.7721 49.4023 55.8814 49.4023 55.9768C49.4023 56.0721 49.4326 56.1 49.5209 56.1186C49.5888 56.1283 49.6571 56.1345 49.7256 56.1372L50.6558 56.214C50.9977 56.2442 51.3395 56.2698 51.6791 56.3116C52.1008 56.3628 52.5217 56.4225 52.9419 56.4907C53.3186 56.5535 53.6954 56.6302 54.0744 56.7C54.1977 56.7233 54.2209 56.714 54.2837 56.593C54.4442 56.2814 54.6 55.9675 54.7488 55.6628C54.7826 55.5878 54.8207 55.5148 54.8628 55.4442C54.8887 55.4052 54.9287 55.3777 54.9744 55.3675C55.1813 55.349 55.3895 55.3537 55.5954 55.3814C55.6025 55.4292 55.6025 55.4778 55.5954 55.5256C55.5419 55.6744 55.486 55.8209 55.4233 55.9651C55.3186 56.1977 55.207 56.4302 55.1 56.6628C55.0698 56.7302 55.0488 56.8023 55.0256 56.8628C55.0471 56.8971 55.0756 56.9264 55.1093 56.9489C55.143 56.9713 55.181 56.9864 55.2209 56.993L55.714 57.1396C56.5372 57.3721 57.3419 57.6907 58.1326 58.0093C58.2023 58.0372 58.2767 58.0605 58.3442 58.093C58.3882 58.1206 58.4412 58.1299 58.492 58.119C58.5428 58.1082 58.5873 58.078 58.6163 58.0349C58.7907 57.8395 58.9721 57.6535 59.1395 57.4558C59.6489 56.8433 60.1225 56.2019 60.5581 55.5349C60.5881 55.4779 60.6345 55.4312 60.6913 55.401C60.7481 55.3707 60.8127 55.3582 60.8767 55.3651C61.0256 55.3651 61.1791 55.3651 61.3302 55.3651C61.3744 55.3651 61.4209 55.3768 61.4791 55.3861C61.4707 55.4223 61.4582 55.4574 61.4419 55.4907C61.094 56.0835 60.7055 56.6516 60.2791 57.1907C59.9767 57.5721 59.6651 57.9465 59.3488 58.3256C59.3163 58.3675 59.2884 58.4163 59.2512 58.4698C59.2832 58.4973 59.3175 58.5221 59.3535 58.5442L60.3302 59.114C60.6163 59.2791 60.9 59.4419 61.1837 59.6116C61.3419 59.7047 61.3674 59.714 61.5116 59.5954C61.8186 59.3419 62.1256 59.0884 62.4209 58.8233C62.7163 58.5582 62.9651 58.321 63.2256 58.0558C63.9232 57.3469 64.5676 56.5875 65.1535 55.7837L65.3698 55.4837C65.3856 55.4529 65.4091 55.4266 65.438 55.4075C65.467 55.3884 65.5003 55.377 65.5349 55.3744H66.1907C66.2093 55.3744 66.2256 55.3954 66.2558 55.4116C66.2358 55.4612 66.2125 55.5094 66.1861 55.5558C65.8837 56.021 65.5488 56.4651 65.2047 56.9023C64.8408 57.3719 64.4527 57.8221 64.0419 58.2512C63.8256 58.4721 63.6233 58.7163 63.4 58.9163C63.0698 59.2279 62.7279 59.5256 62.3884 59.8233C61.7551 60.3707 61.0845 60.8735 60.3814 61.3279C59.8767 61.6605 59.3558 61.9628 58.8256 62.2582C58.107 62.6454 57.3644 62.9864 56.6023 63.2791C55.6706 63.6489 54.71 63.9414 53.7302 64.1535C53.193 64.2675 52.6535 64.3675 52.114 64.4605C51.8302 64.5093 51.5442 64.5302 51.2581 64.5628C50.8724 64.6122 50.4842 64.6409 50.0954 64.6489C50.0556 64.6548 50.0167 64.665 49.9791 64.6791L48.1256 64.6628ZM53.7419 57.4791C53.7023 57.4163 53.6349 57.4163 53.5767 57.4047C53.2628 57.3396 52.9488 57.2675 52.6302 57.2186C52.1767 57.1489 51.7209 57.1 51.2674 57.0442C50.8818 56.9941 50.4935 56.9669 50.1047 56.9628C50.0279 56.9628 49.9535 56.9465 49.8721 56.9419C49.7253 56.9185 49.5753 56.9233 49.4302 56.9558C49.4209 56.9769 49.4131 56.9987 49.407 57.0209C49.393 57.2535 49.3698 57.4861 49.3674 57.7186C49.3535 58.8489 49.3512 59.9791 49.4023 61.1093C49.4073 61.1602 49.4158 61.2108 49.4279 61.2605L49.5233 61.2837C49.8698 61.3279 50.2209 61.3628 50.5581 61.4372C50.6997 61.4617 50.8426 61.478 50.986 61.4861C51.0309 61.4915 51.0764 61.4844 51.1175 61.4655C51.1585 61.4466 51.1935 61.4167 51.2186 61.3791C51.2744 61.3023 51.3372 61.2279 51.3953 61.1465C52.0129 60.3502 52.5859 59.5202 53.1116 58.6605C53.307 58.3326 53.493 57.9954 53.6814 57.6628C53.7209 57.6093 53.7628 57.5535 53.7419 57.4791ZM44.2674 57.5C44.2837 57.5396 44.2954 57.5791 44.314 57.614C44.4512 57.8582 44.586 58.1047 44.7279 58.3465C45.2419 59.2301 45.8153 60.0778 46.4442 60.8837C46.5721 61.0442 46.7023 61.2023 46.8279 61.3651C46.8573 61.4118 46.9013 61.4474 46.953 61.4663C47.0048 61.4853 47.0614 61.4865 47.114 61.4698C47.2476 61.4409 47.3827 61.4192 47.5186 61.4047C47.8023 61.3675 48.0884 61.3303 48.3744 61.2884C48.607 61.2535 48.607 61.2512 48.607 61.0023C48.607 60.6116 48.5814 60.2233 48.5791 59.8396C48.5791 58.9605 48.5791 58.0837 48.5791 57.2047C48.5885 57.122 48.5781 57.0383 48.5488 56.9605C48.5242 56.9503 48.4985 56.9432 48.4721 56.9396C48.293 56.9396 48.114 56.9396 47.9372 56.9396C47.6233 56.9558 47.3093 56.9814 46.9954 57.0093C46.7977 57.0256 46.6 57.0442 46.4023 57.0698C46.0628 57.114 45.7233 57.1628 45.386 57.214C45.0884 57.2628 44.793 57.3186 44.4954 57.3698C44.4498 57.3721 44.4055 57.3851 44.3659 57.4077C44.3263 57.4303 44.2926 57.462 44.2674 57.5ZM40.1837 58.8372C40.9736 59.6558 41.8465 60.39 42.7884 61.0279C43.2535 61.3465 44.686 62.214 44.9116 62.2489C45.1093 62.1628 45.3 62.0884 45.486 62C45.6832 61.9332 45.8709 61.841 46.0442 61.7256C46.0093 61.6675 45.9791 61.614 45.9442 61.5651C45.6512 61.1419 45.3535 60.7233 45.0651 60.2977C44.6 59.6 44.1349 58.9233 43.7326 58.2047C43.6512 58.0628 43.5674 57.9209 43.4884 57.7768C43.469 57.7342 43.4344 57.7004 43.3914 57.6819C43.3484 57.6634 43.3001 57.6616 43.2558 57.6768C43.222 57.682 43.1885 57.6898 43.1558 57.7C42.5312 57.8602 41.9163 58.0558 41.314 58.2861C40.9884 58.414 40.6698 58.5558 40.3488 58.693C40.3122 58.703 40.2783 58.7212 40.2497 58.7462C40.2211 58.7711 40.1986 58.8023 40.1837 58.8372ZM52.0047 61.7419C52.0271 61.7624 52.0512 61.7811 52.0767 61.7977L52.9814 62.1954C53.0157 62.2111 53.0533 62.2183 53.091 62.2163C53.1287 62.2142 53.1653 62.2031 53.1977 62.1837C53.3279 62.1093 53.4651 62.0442 53.593 61.9675C54.0581 61.693 54.5233 61.4326 54.9651 61.1372C55.5123 60.771 56.0373 60.3726 56.5372 59.9442C56.9141 59.6258 57.2743 59.2882 57.6163 58.9326C57.6651 58.8814 57.7349 58.8395 57.7395 58.7326C57.6814 58.7 57.6186 58.6605 57.5512 58.6302C56.9284 58.3429 56.2847 58.1034 55.6256 57.914C55.393 57.8396 55.1395 57.7675 54.893 57.714C54.5628 57.6419 54.607 57.5954 54.4279 57.9349C53.9884 58.7326 53.5163 59.5116 53 60.2605C52.7302 60.6558 52.4442 61.0419 52.1698 61.4349C52.0855 61.5195 52.0281 61.6271 52.0047 61.7442V61.7419ZM44.5884 63.3698C44.6366 63.4249 44.7039 63.4598 44.7767 63.4675C45.0233 63.5186 45.2721 63.5768 45.5209 63.6209C45.8256 63.6744 46.1302 63.7186 46.4349 63.7582C46.7395 63.7977 46.993 63.8233 47.2721 63.8465C47.614 63.8768 47.9558 63.9116 48.2977 63.9163C48.886 63.9163 49.4767 63.9326 50.0651 63.8907C50.4814 63.8605 50.9 63.8349 51.314 63.7861C51.7791 63.7349 52.2233 63.6582 52.6767 63.5837C52.8791 63.5489 53.0767 63.4954 53.2767 63.4489C53.3196 63.4307 53.3608 63.4089 53.4 63.3837C53.3558 63.3369 53.3076 63.2941 53.2558 63.2558C53.0884 63.1489 52.9233 63.0372 52.7488 62.9442C51.7849 62.4357 50.7211 62.1452 49.6326 62.093C48.8448 62.0324 48.0523 62.0841 47.2791 62.2465C46.3953 62.4221 45.5522 62.7613 44.793 63.2465L44.5884 63.3698ZM60.5395 60.1837C59.9364 59.7588 59.2874 59.403 58.6047 59.1233C58.4512 59.2605 58.3023 59.3837 58.1674 59.5163C57.7977 59.8744 57.4093 60.214 57.0047 60.5396C56.5197 60.9531 56.0136 61.3413 55.4884 61.7023C55.0233 62.0209 54.5326 62.3186 54.0535 62.6326C54.0093 62.6628 53.9512 62.6791 53.9465 62.7582C54.065 62.8769 54.1969 62.9815 54.3395 63.0698C54.3811 63.0995 54.4293 63.1187 54.48 63.1256C54.5306 63.1325 54.5822 63.1269 54.6302 63.1093C55.0279 62.9768 55.4326 62.8768 55.8233 62.7233C56.7439 62.3868 57.6418 61.9914 58.5116 61.5396C59.1591 61.1975 59.7809 60.8088 60.3721 60.3768C60.45 60.3345 60.5097 60.2649 60.5395 60.1814V60.1837ZM37.4302 60.2465C37.4927 60.3271 37.5721 60.393 37.6628 60.4396C38.1279 60.7303 38.5744 61.0256 39.0372 61.3023C39.5894 61.6219 40.1585 61.9114 40.7419 62.1698C41.2279 62.3907 41.7279 62.5814 42.2326 62.7535C42.6163 62.8837 43.007 62.9861 43.3954 63.107C43.4263 63.1215 43.46 63.129 43.4942 63.129C43.5284 63.129 43.5621 63.1215 43.593 63.107C43.7504 63.0216 43.8876 62.9034 43.9953 62.7605C43.9508 62.6971 43.8897 62.6472 43.8186 62.6163C43.1442 62.1837 42.4791 61.7349 41.8372 61.2558C41.2504 60.828 40.6868 60.3692 40.1488 59.8814C39.9163 59.6721 39.6954 59.4628 39.4744 59.2489C39.4453 59.2113 39.4036 59.1856 39.3569 59.1766C39.3102 59.1676 39.2619 59.1759 39.2209 59.2C38.6417 59.4828 38.0802 59.8004 37.5395 60.1512C37.5039 60.1787 37.4711 60.2099 37.4419 60.2442L37.4302 60.2465Z" fill="white"/>
<path d="M49.9372 24.4791C49.9678 24.493 49.9998 24.5039 50.0326 24.5117C50.1977 24.5279 50.3605 24.5535 50.5256 24.5558C50.9839 24.5705 51.4407 24.6155 51.893 24.6907C52.3884 24.7605 52.8814 24.8582 53.3698 24.9582C54.2157 25.1335 55.0487 25.3666 55.8628 25.6558C56.4651 25.8675 57.0535 26.121 57.6349 26.3768C58.3022 26.6833 58.952 27.0264 59.5814 27.4047C60.278 27.8169 60.9483 28.272 61.5884 28.7675C62.0527 29.1199 62.4983 29.4964 62.9233 29.8954C63.2814 30.2349 63.6419 30.5721 63.986 30.9279C64.3302 31.2837 64.6605 31.6651 64.9767 32.0535C65.293 32.4419 65.6372 32.8954 65.9442 33.3326C66.0161 33.4123 66.0715 33.5056 66.107 33.607C66.098 33.6348 66.0796 33.6586 66.055 33.6743C66.0304 33.69 66.0011 33.6966 65.9721 33.6931C65.7814 33.6931 65.5907 33.6768 65.3977 33.6675C65.3603 33.665 65.3241 33.6536 65.2921 33.6342C65.2601 33.6147 65.2333 33.5879 65.214 33.5558C65.1186 33.421 65.0209 33.2861 64.9209 33.1558C64.5787 32.6927 64.2115 32.2487 63.8209 31.8256C63.4581 31.4442 63.0977 31.0558 62.7163 30.6907C62.2725 30.2695 61.8067 29.872 61.3209 29.5C61.2753 29.4585 61.2179 29.4321 61.1567 29.4246C61.0954 29.4171 61.0334 29.4289 60.9791 29.4582C60.9232 29.4861 60.8674 29.5117 60.8139 29.5419L59.2791 30.4233C59.1023 30.5233 59.0046 30.5582 59.2139 30.7791C59.5728 31.1658 59.9083 31.5735 60.2186 32C60.4698 32.3442 60.7465 32.6675 60.9767 33.0256C61.0767 33.1814 61.1767 33.3372 61.2721 33.4907C61.2976 33.5391 61.3186 33.5897 61.3349 33.6419C61.2283 33.6987 61.1091 33.7276 60.9884 33.7256C60.907 33.7256 60.8232 33.7256 60.7419 33.7256C60.6875 33.7315 60.6326 33.7215 60.5839 33.6967C60.5351 33.6719 60.4947 33.6335 60.4674 33.5861C60.2535 33.2768 60.0326 32.9698 59.8046 32.6698C59.4512 32.2047 59.0837 31.7396 58.686 31.3C58.5884 31.1954 58.4953 31.0861 58.3977 30.9791C58.3743 30.9556 58.3486 30.9345 58.3209 30.9163C58.2989 30.9182 58.2771 30.9221 58.2558 30.9279C57.1537 31.393 56.0281 31.8005 54.8837 32.1489C54.8837 32.1489 54.8628 32.1651 54.8512 32.1744C54.8139 32.2465 54.8512 32.307 54.886 32.3675C55.0512 32.7442 55.2186 33.1186 55.3837 33.4954C55.407 33.5442 55.4209 33.5954 55.4395 33.6465C55.4143 33.6767 55.3825 33.7007 55.3467 33.7168C55.3109 33.7329 55.2718 33.7407 55.2326 33.7396C55.0953 33.7396 54.9581 33.7396 54.8209 33.7396C54.79 33.7405 54.7594 33.7327 54.7327 33.7171C54.7059 33.7014 54.6841 33.6786 54.6698 33.6512C54.6435 33.6107 54.6194 33.5687 54.5977 33.5256L54.1093 32.5954C54.0915 32.5656 54.076 32.5345 54.0628 32.5024C54.045 32.4579 54.0114 32.4216 53.9685 32.4006C53.9255 32.3795 53.8762 32.3752 53.8302 32.3884C53.7302 32.407 53.6302 32.4326 53.5279 32.4535C53.0256 32.5651 52.5209 32.6558 52.0093 32.7186C51.5744 32.7721 51.1395 32.8256 50.7046 32.8698C50.4512 32.8977 50.1977 32.9047 49.9442 32.9233C49.7744 32.9233 49.6046 32.9465 49.4326 32.9628C49.3349 32.9628 49.2977 33.0024 49.286 33.1024C49.2744 33.2024 49.286 33.2791 49.286 33.3698C49.286 33.4605 49.286 33.5326 49.286 33.6163C49.2864 33.6321 49.2835 33.6477 49.2775 33.6623C49.2714 33.6769 49.2625 33.6901 49.2511 33.701C49.2397 33.7119 49.2262 33.7204 49.2114 33.7258C49.1966 33.7312 49.1808 33.7336 49.1651 33.7326C48.9884 33.7326 48.8093 33.7326 48.6325 33.7326C48.6167 33.7336 48.6008 33.7312 48.586 33.7256C48.5711 33.72 48.5576 33.7113 48.5464 33.7001C48.5352 33.6889 48.5265 33.6754 48.5209 33.6606C48.5153 33.6457 48.5129 33.6298 48.5139 33.614C48.5139 33.5186 48.5139 33.421 48.5139 33.3256C48.5132 33.244 48.5078 33.1624 48.4977 33.0814C48.4767 32.9721 48.4233 32.9349 48.3116 32.9256H48.2488C47.893 32.9093 47.5372 32.9024 47.1814 32.8768C46.8256 32.8512 46.4721 32.8117 46.1186 32.7675C45.6163 32.7024 45.1147 32.6303 44.6139 32.5512C44.3628 32.514 44.1139 32.4582 43.8651 32.4093C43.7186 32.3814 43.7023 32.3814 43.6325 32.507C43.5628 32.6326 43.486 32.7861 43.4163 32.9279C43.307 33.1489 43.1977 33.3698 43.0977 33.5954C43.0807 33.6426 43.0488 33.6831 43.0069 33.7108C42.965 33.7385 42.9153 33.7518 42.8651 33.7489C42.7163 33.7489 42.5651 33.7489 42.4139 33.7489C42.3681 33.7435 42.3228 33.7334 42.2791 33.7186C42.3651 33.4535 42.4837 33.2163 42.5884 32.9744C42.693 32.7326 42.7953 32.4954 42.893 32.2768C42.8721 32.1698 42.7953 32.1512 42.7232 32.1303C42.5419 32.0721 42.3558 32.021 42.1721 31.9605C41.707 31.8047 41.2419 31.6489 40.7767 31.4954C40.3814 31.3558 39.9907 31.2047 39.5977 31.0605C39.5526 31.0456 39.5068 31.0332 39.4605 31.0233C39.4363 31.038 39.4137 31.0552 39.393 31.0744C39.1442 31.3512 38.8953 31.6233 38.6535 31.9047C38.1884 32.4535 37.7698 33.0396 37.3558 33.6303C37.3321 33.672 37.2985 33.7072 37.2579 33.7327C37.2174 33.7583 37.1711 33.7734 37.1232 33.7768C36.9884 33.7768 36.8512 33.8 36.7163 33.8024C36.6747 33.8063 36.6327 33.802 36.5928 33.7896C36.5529 33.7772 36.5158 33.757 36.4837 33.7303C36.5093 33.6768 36.5302 33.621 36.5605 33.5698C36.9375 32.9398 37.3579 32.3368 37.8186 31.7651C38.0651 31.4535 38.3209 31.1489 38.5698 30.8349C38.604 30.7877 38.6358 30.7388 38.6651 30.6884C38.6307 30.6245 38.5746 30.5751 38.507 30.5489C38.1969 30.3752 37.893 30.2024 37.5953 30.0303L36.8279 29.5907C36.8038 29.5774 36.7805 29.5626 36.7581 29.5465C36.7213 29.5157 36.6748 29.4988 36.6267 29.4988C36.5787 29.4988 36.5322 29.5157 36.4953 29.5465C36.0924 29.8174 35.7093 30.1166 35.3488 30.4419C35.0349 30.7396 34.7116 31.0279 34.4186 31.3419C34.0558 31.7256 33.7209 32.1279 33.3744 32.5326C33.0884 32.8744 32.8209 33.2303 32.5512 33.5861C32.5175 33.6374 32.4711 33.6792 32.4165 33.7073C32.3619 33.7355 32.3009 33.749 32.2395 33.7465H31.7256C31.6921 33.7419 31.6593 33.7333 31.6279 33.721C31.6451 33.6751 31.6661 33.6308 31.6907 33.5884C32.0046 33.1558 32.3139 32.7186 32.6372 32.2931C32.9729 31.8487 33.3348 31.4246 33.7209 31.0233C34.007 30.7279 34.2837 30.421 34.5814 30.1372C35.6976 29.0791 36.9294 28.15 38.2535 27.3675C38.7791 27.0582 39.3163 26.7675 39.8674 26.507C40.4698 26.2233 41.0837 25.9651 41.7093 25.7396C42.4257 25.482 43.1554 25.263 43.8953 25.0837C44.6222 24.9076 45.3582 24.7717 46.1 24.6768C46.5 24.6233 46.9023 24.5861 47.3046 24.5489C47.607 24.521 47.907 24.5233 48.2093 24.5163C48.2876 24.5091 48.3653 24.4967 48.4419 24.4791H49.9372ZM44.1 31.6279C44.1379 31.6498 44.1776 31.6685 44.2186 31.6837C44.4721 31.7419 44.7256 31.8093 44.9814 31.8512C45.3512 31.9163 45.7256 31.9651 46.0977 32.014C46.3977 32.0512 46.6977 32.0768 46.9977 32.1047C47.207 32.1256 47.4209 32.1279 47.6302 32.1605C47.8887 32.1849 48.1494 32.1732 48.4046 32.1256C48.4163 32.1256 48.4256 32.107 48.4512 32.0861C48.4512 31.9512 48.486 31.8024 48.486 31.6512C48.486 30.7008 48.486 29.7481 48.486 28.793C48.486 28.514 48.4605 28.2326 48.4442 27.9535C48.4386 27.9293 48.43 27.9058 48.4186 27.8837C48.3561 27.8634 48.2925 27.8471 48.2279 27.8349L47.2721 27.7047L46.9256 27.6628C46.8817 27.6548 46.8365 27.6595 46.7953 27.6764C46.7541 27.6933 46.7186 27.7217 46.693 27.7582L46.5232 27.9651C46.0848 28.5003 45.6742 29.0576 45.293 29.6349C45 30.0814 44.7256 30.5396 44.4488 30.9977C44.3302 31.1861 44.2232 31.3954 44.1 31.6279ZM53.5581 31.6279C53.5444 31.578 53.5273 31.5291 53.507 31.4814C53.3372 31.1744 53.1698 30.8675 52.9907 30.5675C52.673 30.038 52.3275 29.5256 51.9558 29.0326C51.6395 28.6093 51.3093 28.1977 50.9907 27.7791C50.9664 27.7416 50.9306 27.7129 50.8887 27.6974C50.8468 27.6819 50.801 27.6804 50.7581 27.6931C50.507 27.7349 50.2558 27.7628 50.0046 27.7977L49.4558 27.8768C49.3488 27.893 49.3302 27.9093 49.3116 28.0186C49.2954 28.1132 49.2861 28.2088 49.2837 28.3047C49.2837 29.4907 49.2837 30.6775 49.2837 31.8651C49.2802 31.9124 49.2802 31.9598 49.2837 32.007C49.2977 32.1186 49.3302 32.1442 49.4442 32.1535H49.5349C49.8558 32.1535 50.1767 32.1535 50.5 32.121C50.9232 32.0861 51.3442 32.0442 51.7651 31.9907C52.3163 31.9186 52.8628 31.8163 53.393 31.693C53.4509 31.6721 53.5062 31.6448 53.5581 31.6117V31.6279ZM54.4605 31.4419L54.9953 31.3117C55.6371 31.1366 56.2677 30.9231 56.8837 30.6721C57.093 30.5907 57.3023 30.5024 57.5116 30.414C57.6488 30.3558 57.6581 30.3117 57.5628 30.207C57.5349 30.1768 57.5046 30.1465 57.4744 30.1186C57.3046 29.9605 57.1326 29.8047 56.9628 29.6535C56.5799 29.3001 56.1794 28.9664 55.7628 28.6535C55.1756 28.202 54.5604 27.7879 53.9209 27.414C53.6442 27.2512 53.3558 27.107 53.0721 26.9489C53.0412 26.9272 53.0053 26.9139 52.9679 26.9103C52.9304 26.9066 52.8926 26.9127 52.8581 26.9279C52.5674 27.0651 52.2721 27.193 51.9791 27.3279C51.9186 27.3558 51.8628 27.3931 51.8139 27.421C51.8139 27.4558 51.8139 27.4721 51.8139 27.4814C52.7256 28.7349 53.5953 30.0163 54.386 31.3512C54.4097 31.3771 54.4345 31.4019 54.4605 31.4256V31.4419ZM40.1163 30.4186C40.1628 30.4442 40.2023 30.4721 40.2442 30.4907C41.151 30.8671 42.0836 31.178 43.0349 31.421C43.0736 31.4328 43.1133 31.4414 43.1535 31.4465C43.1875 31.4544 43.2232 31.4509 43.2551 31.4367C43.287 31.4224 43.3134 31.3981 43.3302 31.3675C43.3535 31.3256 43.3791 31.2861 43.4046 31.2465C43.6953 30.7651 43.9791 30.2768 44.2814 29.8047C44.6046 29.2954 44.9465 28.7977 45.286 28.3C45.4419 28.0675 45.6163 27.8605 45.7837 27.6419C45.8171 27.6072 45.8428 27.5659 45.8593 27.5206C45.8757 27.4753 45.8824 27.4271 45.8791 27.3791C45.8395 27.3605 45.8046 27.3372 45.7674 27.3233C45.486 27.2117 45.2023 27.107 44.9256 26.9907C44.8704 26.964 44.8092 26.9521 44.7481 26.9562C44.6869 26.9603 44.6279 26.9802 44.5767 27.014C44.207 27.2465 43.8302 27.4465 43.4605 27.6721C42.8535 28.0481 42.2709 28.4621 41.7163 28.9117C41.4 29.1628 41.093 29.4233 40.786 29.6861C40.5977 29.8465 40.4186 30.0186 40.2372 30.1861C40.2022 30.2109 40.1732 30.2431 40.1523 30.2806C40.1314 30.318 40.1191 30.3596 40.1163 30.4024V30.4186ZM44.5209 25.7675C44.5285 25.8044 44.545 25.839 44.5689 25.8681C44.5928 25.8973 44.6234 25.9202 44.6581 25.9349C44.8605 26.0512 45.0605 26.1675 45.2651 26.2814C45.6843 26.5016 46.1255 26.6769 46.5814 26.8047C47.1809 26.9811 47.8008 27.0788 48.4256 27.0954C48.6791 27.0954 48.9326 27.0954 49.1884 27.0954C49.5443 27.0872 49.899 27.0499 50.2488 26.9837C50.955 26.8709 51.6406 26.6546 52.2837 26.3419C52.5651 26.2024 52.8326 26.0326 53.1023 25.8768C53.1439 25.8458 53.1807 25.809 53.2116 25.7675C53.1632 25.7464 53.1135 25.7285 53.0628 25.714C52.7814 25.6535 52.5 25.5907 52.2163 25.5419C51.6571 25.4346 51.0916 25.3631 50.5232 25.3279C50.0791 25.3024 49.6349 25.2698 49.1907 25.2582C48.807 25.2465 48.4233 25.2582 48.0279 25.2814C47.5139 25.3117 47.0023 25.3512 46.493 25.407C45.9395 25.4698 45.393 25.5605 44.8488 25.6698C44.7359 25.6745 44.6248 25.6997 44.5209 25.7442V25.7675ZM37.3372 28.9489C37.3678 28.9811 37.4004 29.0114 37.4349 29.0396C37.6488 29.1791 37.8581 29.321 38.0767 29.4512C38.399 29.6476 38.7366 29.8179 39.086 29.9605C39.1386 29.9912 39.2001 30.0028 39.2602 29.9935C39.3204 29.9842 39.3755 29.9545 39.4163 29.9093C39.7651 29.5814 40.1139 29.2582 40.486 28.9489C40.9372 28.5698 41.3953 28.1977 41.8651 27.8419C42.4884 27.3768 43.1372 26.9349 43.8 26.521C43.8398 26.4939 43.8778 26.4644 43.9139 26.4326C43.8986 26.4055 43.8799 26.3805 43.8581 26.3582L43.4884 26.0651C43.4564 26.0388 43.418 26.0215 43.3771 26.0149C43.3363 26.0084 43.2944 26.0129 43.2558 26.0279C43.1315 26.0862 42.9903 26.0977 42.8581 26.0605C42.7546 26.1645 42.6241 26.2378 42.4814 26.2721C42.1884 26.3698 41.8977 26.4721 41.6093 26.5837C40.7893 26.8962 39.992 27.2654 39.2232 27.6884C38.6115 28.0277 38.0198 28.4019 37.4512 28.8093C37.4103 28.8452 37.3723 28.8841 37.3372 28.9256V28.9489ZM53.8232 26.4024C53.8766 26.4755 53.949 26.5326 54.0326 26.5675C54.2884 26.7279 54.5465 26.8814 54.8023 27.0442C55.4453 27.4597 56.0663 27.9084 56.6628 28.3884C57.1558 28.7837 57.6349 29.193 58.0884 29.6326C58.1721 29.714 58.2512 29.7977 58.3372 29.8768C58.4233 29.9558 58.486 29.9931 58.6256 29.9163C58.8186 29.8117 59.0116 29.707 59.2023 29.6C59.5581 29.4047 59.9 29.207 60.2628 29.0093C60.3116 28.9837 60.3628 28.9605 60.3651 28.8931C60.3608 28.8798 60.3545 28.8672 60.3465 28.8558C60.3163 28.8283 60.2845 28.8027 60.2512 28.7791C58.5278 27.5726 56.6134 26.6653 54.5884 26.0954C54.2395 25.9977 54.3209 25.9768 53.9884 26.2047C53.9168 26.2446 53.8592 26.3055 53.8232 26.3791V26.4024Z" fill="white"/>
<path d="M49.9791 36.9488C50.034 36.8444 50.0605 36.7273 50.0558 36.6093C50.0558 36.4442 50.0558 36.2791 50.0558 36.114C50.0558 35.9488 50.0884 35.9349 50.2395 35.9302C50.507 35.9302 50.7744 35.9302 51.0419 35.9186C51.4744 35.9186 51.9047 35.8907 52.3372 35.8907C52.7698 35.8907 53.2419 35.9093 53.693 35.9209C53.7209 35.9186 53.7489 35.9186 53.7767 35.9209C53.8012 35.9219 53.8245 35.9316 53.8424 35.9482C53.8603 35.9648 53.8717 35.9873 53.8744 36.0116C53.8818 36.0726 53.8857 36.1339 53.8861 36.1953C53.8861 36.5233 53.8861 36.8535 53.8861 37.1837C53.9279 38.486 53.9302 39.7884 53.9256 41.093C53.9256 41.3256 53.9256 41.5442 53.9256 41.7721C53.9256 41.8186 53.9256 41.8674 53.9256 41.914C53.9256 41.9385 53.9162 41.962 53.8993 41.9798C53.8824 41.9975 53.8594 42.0081 53.8349 42.0093H53.7954C53.514 42.0233 53.2326 42.0442 52.9535 42.0442C52.1093 42.0442 51.2651 42.0442 50.4209 42.0442H50.3791C50.3182 42.0519 50.2564 42.0411 50.2017 42.0134C50.147 41.9856 50.1018 41.942 50.0721 41.8884C49.9419 41.7034 49.7989 41.5278 49.6442 41.3628C49.1042 40.7929 48.4418 40.3532 47.707 40.0767C46.5283 39.6133 45.2653 39.4025 44 39.4581C43.7365 39.4642 43.4801 39.5449 43.2605 39.6907C43.1884 39.7415 43.1207 39.7983 43.0581 39.8605C43.01 39.9006 42.9704 39.9501 42.9419 40.006C42.9134 40.0618 42.8964 40.1229 42.8921 40.1854C42.8877 40.248 42.8961 40.3108 42.9166 40.37C42.9372 40.4293 42.9695 40.4838 43.0116 40.5302C43.0871 40.6456 43.1913 40.7394 43.314 40.8023C43.5517 40.9261 43.803 41.0221 44.0628 41.0884L48.3326 42.3209L50.1512 42.8442C50.6597 42.991 51.1456 43.207 51.5954 43.486C51.9621 43.7145 52.3084 43.9744 52.6302 44.2628C53.2408 44.7975 53.7348 45.4522 54.0814 46.186C54.288 46.6203 54.4223 47.0853 54.4791 47.5628C54.5217 47.931 54.5294 48.3024 54.5023 48.6721C54.4648 49.2279 54.3343 49.7734 54.1163 50.286C53.6707 51.3521 52.886 52.2414 51.8837 52.8163C51.6575 52.9434 51.4246 53.0583 51.1861 53.1605C50.5001 53.4433 49.7813 53.6386 49.0465 53.7419C48.4962 53.8151 47.9412 53.8478 47.386 53.8395C46.7347 53.8323 46.0851 53.7701 45.4442 53.6535C44.5849 53.5044 43.7444 53.2627 42.9372 52.9326C42.8047 52.8767 42.6767 52.8093 42.5488 52.7442L41.6907 52.2977C41.6504 52.2788 41.6083 52.264 41.5651 52.2535C41.5 52.2977 41.5116 52.3558 41.5093 52.4093C41.5093 52.6209 41.5093 52.8349 41.4977 53.0465C41.4977 53.1605 41.4721 53.2791 41.4605 53.3814C41.4256 53.4 41.407 53.4163 41.3884 53.4163C41.1977 53.4326 41.007 53.4535 40.8163 53.4558H37.8093C37.7349 53.4558 37.6605 53.4558 37.5767 53.4558C37.5603 53.4299 37.5477 53.4017 37.5395 53.3721C37.5233 53.1674 37.5 52.9628 37.5 52.7581C37.5 51.062 37.5 49.3667 37.5 47.6721C37.5 47.6046 37.5 47.5372 37.5 47.4674C37.514 47.2977 37.5279 47.1279 37.5395 46.9674C37.5727 46.9434 37.6105 46.9264 37.6505 46.9176C37.6905 46.9088 37.7319 46.9083 37.7721 46.9163H38.6349H40.7558C40.8047 46.9163 40.8535 46.9163 40.9 46.9163C40.9584 46.9085 41.0178 46.9191 41.0698 46.9466C41.1219 46.9741 41.1642 47.0172 41.1907 47.0698C41.2581 47.1814 41.3326 47.2884 41.3954 47.4023C41.5509 47.6622 41.7508 47.8929 41.986 48.0837C42.3579 48.4094 42.766 48.6911 43.2023 48.9233C43.5965 49.1324 44.0121 49.2985 44.4419 49.4186C44.8766 49.5463 45.323 49.6304 45.7744 49.6698C46.007 49.6907 46.2674 49.6698 46.514 49.6837C47.1184 49.6887 47.721 49.616 48.307 49.4674C48.4397 49.4325 48.5666 49.3784 48.6837 49.307C48.7463 49.2663 48.7982 49.2112 48.835 49.1463C48.8718 49.0814 48.8924 49.0086 48.8952 48.934C48.8979 48.8594 48.8826 48.7853 48.8507 48.7178C48.8188 48.6504 48.7711 48.5916 48.7116 48.5465C48.5895 48.4586 48.4567 48.3867 48.3163 48.3326C47.8512 48.1721 47.3861 48.0233 46.9047 47.8791C46.3163 47.6977 45.7233 47.5256 45.1302 47.3488C44.5372 47.1721 43.893 46.9884 43.2698 46.7953C42.5721 46.5628 41.8744 46.3512 41.1767 46.0977C40.4812 45.8373 39.8324 45.4658 39.2558 44.9977C38.849 44.6816 38.4889 44.3098 38.186 43.893C37.8443 43.4185 37.6066 42.8773 37.4884 42.3047C37.4146 41.935 37.3688 41.5603 37.3512 41.1837C37.3004 40.2485 37.4969 39.3165 37.9209 38.4814C38.3028 37.7387 38.8822 37.1159 39.5954 36.6814C40.5276 36.1105 41.5667 35.7362 42.6488 35.5814C43.4016 35.4626 44.1649 35.4259 44.9256 35.4721C46.0499 35.5318 47.1601 35.7502 48.2233 36.1209C48.6262 36.2685 49.0153 36.4514 49.3861 36.6674C49.5349 36.7512 49.6884 36.8279 49.8512 36.9C49.8924 36.9198 49.9352 36.9361 49.9791 36.9488Z" fill="white"/>
<path d="M29.8904 74.2979L30.5976 74.2325C30.6576 74.565 30.772 74.8062 30.941 74.9561C31.11 75.106 31.3266 75.1809 31.591 75.1809C31.8172 75.1809 32.0148 75.1291 32.1837 75.0256C32.3554 74.922 32.4958 74.7844 32.6048 74.6127C32.7138 74.4383 32.8051 74.2039 32.8787 73.9096C32.9523 73.6152 32.9891 73.3155 32.9891 73.0102C32.9891 72.9775 32.9877 72.9285 32.985 72.8631C32.8378 73.0974 32.6361 73.2882 32.38 73.4354C32.1265 73.5798 31.8513 73.652 31.5542 73.652C31.0582 73.652 30.6385 73.4722 30.2951 73.1124C29.9517 72.7527 29.78 72.2785 29.78 71.6898C29.78 71.0821 29.9585 70.5929 30.3155 70.2222C30.6753 69.8516 31.125 69.6663 31.6646 69.6663C32.0543 69.6663 32.4099 69.7712 32.7315 69.9811C33.0558 70.1909 33.3011 70.4907 33.4673 70.8804C33.6363 71.2674 33.7208 71.8288 33.7208 72.5646C33.7208 73.3304 33.6377 73.9409 33.4714 74.396C33.3052 74.8484 33.0572 75.1932 32.7274 75.4303C32.4004 75.6674 32.0161 75.7859 31.5746 75.7859C31.1059 75.7859 30.723 75.6565 30.4259 75.3976C30.1289 75.1359 29.9504 74.7694 29.8904 74.2979ZM32.9032 71.653C32.9032 71.2306 32.7901 70.8954 32.5639 70.6474C32.3404 70.3994 32.0706 70.2754 31.7545 70.2754C31.4275 70.2754 31.1427 70.4089 30.9001 70.676C30.6576 70.9431 30.5363 71.2892 30.5363 71.7143C30.5363 72.0959 30.6508 72.4066 30.8797 72.6464C31.1113 72.8835 31.3961 73.002 31.7341 73.002C32.0747 73.002 32.3541 72.8835 32.5721 72.6464C32.7928 72.4066 32.9032 72.0754 32.9032 71.653Z" fill="white"/>
<path d="M34.4403 72.7282C34.4403 72.0196 34.5125 71.45 34.6569 71.0194C34.8041 70.5861 35.0208 70.2522 35.3069 70.0179C35.5958 69.7835 35.9583 69.6663 36.3943 69.6663C36.7159 69.6663 36.998 69.7317 37.2405 69.8625C37.4831 69.9906 37.6834 70.1773 37.8414 70.4226C37.9995 70.6651 38.1235 70.9622 38.2134 71.3137C38.3034 71.6626 38.3483 72.134 38.3483 72.7282C38.3483 73.4313 38.2761 73.9995 38.1317 74.4328C37.9872 74.8634 37.7706 75.1973 37.4817 75.4344C37.1955 75.6687 36.8331 75.7859 36.3943 75.7859C35.8165 75.7859 35.3628 75.5788 35.033 75.1646C34.6379 74.6658 34.4403 73.8537 34.4403 72.7282ZM35.1965 72.7282C35.1965 73.712 35.311 74.3674 35.5399 74.6945C35.7716 75.0188 36.0564 75.1809 36.3943 75.1809C36.7322 75.1809 37.0157 75.0174 37.2446 74.6904C37.4763 74.3633 37.5921 73.7093 37.5921 72.7282C37.5921 71.7416 37.4763 71.0862 37.2446 70.7619C37.0157 70.4375 36.7295 70.2754 36.3861 70.2754C36.0482 70.2754 35.7784 70.4185 35.5767 70.7046C35.3233 71.0698 35.1965 71.7443 35.1965 72.7282Z" fill="white"/>
<path d="M39.1005 72.7282C39.1005 72.0196 39.1727 71.45 39.3172 71.0194C39.4643 70.5861 39.681 70.2522 39.9672 70.0179C40.256 69.7835 40.6185 69.6663 41.0546 69.6663C41.3761 69.6663 41.6582 69.7317 41.9008 69.8625C42.1433 69.9906 42.3436 70.1773 42.5017 70.4226C42.6598 70.6651 42.7838 70.9622 42.8737 71.3137C42.9636 71.6626 43.0086 72.134 43.0086 72.7282C43.0086 73.4313 42.9364 73.9995 42.7919 74.4328C42.6475 74.8634 42.4308 75.1973 42.1419 75.4344C41.8558 75.6687 41.4933 75.7859 41.0546 75.7859C40.4768 75.7859 40.023 75.5788 39.6933 75.1646C39.2981 74.6658 39.1005 73.8537 39.1005 72.7282ZM39.8568 72.7282C39.8568 73.712 39.9713 74.3674 40.2002 74.6945C40.4318 75.0188 40.7166 75.1809 41.0546 75.1809C41.3925 75.1809 41.6759 75.0174 41.9048 74.6904C42.1365 74.3633 42.2523 73.7093 42.2523 72.7282C42.2523 71.7416 42.1365 71.0862 41.9048 70.7619C41.6759 70.4375 41.3898 70.2754 41.0464 70.2754C40.7084 70.2754 40.4386 70.4185 40.237 70.7046C39.9835 71.0698 39.8568 71.7443 39.8568 72.7282Z" fill="white"/>
<path d="M46.5324 75.6837H45.7966V70.9949C45.6194 71.1638 45.3864 71.3328 45.0975 71.5018C44.8114 71.6707 44.5538 71.7975 44.3249 71.882V71.1707C44.7364 70.9772 45.0962 70.7428 45.4041 70.4675C45.7121 70.1923 45.9301 69.9252 46.0582 69.6663H46.5324V75.6837Z" fill="white"/>
<path d="M48.8298 72.1804V71.3423H49.6678V72.1804H48.8298ZM48.8298 75.6837V74.8457H49.6678V75.6837H48.8298Z" fill="white"/>
<path d="M54.6183 74.9765V75.6837H50.6571C50.6517 75.5066 50.6803 75.3363 50.743 75.1727C50.8438 74.9029 51.0046 74.6372 51.2253 74.3756C51.4488 74.114 51.7704 73.8115 52.1901 73.4681C52.8414 72.9339 53.2816 72.5115 53.5105 72.2008C53.7394 71.8874 53.8539 71.5917 53.8539 71.3137C53.8539 71.0221 53.749 70.7768 53.5391 70.5779C53.332 70.3762 53.0608 70.2754 52.7256 70.2754C52.3713 70.2754 52.0879 70.3817 51.8753 70.5943C51.6628 70.8068 51.5551 71.1012 51.5524 71.4772L50.7961 71.3996C50.8479 70.8354 51.0427 70.4062 51.3807 70.1119C51.7186 69.8148 52.1724 69.6663 52.742 69.6663C53.317 69.6663 53.7721 69.8257 54.1073 70.1446C54.4425 70.4634 54.6102 70.8586 54.6102 71.3301C54.6102 71.5699 54.5611 71.8056 54.463 72.0373C54.3649 72.2689 54.2014 72.5129 53.9724 72.769C53.7462 73.0252 53.3688 73.3768 52.8401 73.8237C52.3986 74.1944 52.1152 74.4465 51.9898 74.58C51.8644 74.7108 51.7609 74.843 51.6791 74.9765H54.6183Z" fill="white"/>
<path d="M55.4114 72.7282C55.4114 72.0196 55.4836 71.45 55.628 71.0194C55.7752 70.5861 55.9919 70.2522 56.278 70.0179C56.5669 69.7835 56.9294 69.6663 57.3654 69.6663C57.687 69.6663 57.9691 69.7317 58.2116 69.8625C58.4542 69.9906 58.6545 70.1773 58.8126 70.4226C58.9706 70.6651 59.0946 70.9622 59.1846 71.3137C59.2745 71.6626 59.3195 72.134 59.3195 72.7282C59.3195 73.4313 59.2472 73.9995 59.1028 74.4328C58.9584 74.8634 58.7417 75.1973 58.4528 75.4344C58.1667 75.6687 57.8042 75.7859 57.3654 75.7859C56.7877 75.7859 56.3339 75.5788 56.0041 75.1646C55.609 74.6658 55.4114 73.8537 55.4114 72.7282ZM56.1677 72.7282C56.1677 73.712 56.2821 74.3674 56.511 74.6945C56.7427 75.0188 57.0275 75.1809 57.3654 75.1809C57.7034 75.1809 57.9868 75.0174 58.2157 74.6904C58.4474 74.3633 58.5632 73.7093 58.5632 72.7282C58.5632 71.7416 58.4474 71.0862 58.2157 70.7619C57.9868 70.4375 57.7006 70.2754 57.3572 70.2754C57.0193 70.2754 56.7495 70.4185 56.5478 70.7046C56.2944 71.0698 56.1677 71.7443 56.1677 72.7282Z" fill="white"/>
<path d="M62.8433 75.6837H62.1074V70.9949C61.9303 71.1638 61.6973 71.3328 61.4084 71.5018C61.1222 71.6707 60.8647 71.7975 60.6358 71.882V71.1707C61.0473 70.9772 61.407 70.7428 61.715 70.4675C62.0229 70.1923 62.241 69.9252 62.3691 69.6663H62.8433V75.6837Z" fill="white"/>
<path d="M64.7319 74.114L65.5045 74.0486C65.5617 74.4246 65.6939 74.7081 65.901 74.8988C66.1109 75.0869 66.363 75.1809 66.6573 75.1809C67.0116 75.1809 67.3114 75.0474 67.5566 74.7803C67.8019 74.5132 67.9246 74.1589 67.9246 73.7174C67.9246 73.2977 67.806 72.9666 67.5689 72.7241C67.3345 72.4815 67.0266 72.3602 66.645 72.3602C66.4079 72.3602 66.194 72.4147 66.0032 72.5238C65.8125 72.63 65.6626 72.769 65.5536 72.9407L64.8627 72.8508L65.4432 69.7726H68.4233V70.4757H66.0318L65.7089 72.0863C66.0686 71.8356 66.4461 71.7103 66.8413 71.7103C67.3645 71.7103 67.806 71.8915 68.1657 72.254C68.5255 72.6164 68.7054 73.0824 68.7054 73.652C68.7054 74.1944 68.5473 74.6631 68.2312 75.0583C67.8469 75.5434 67.3223 75.7859 66.6573 75.7859C66.1122 75.7859 65.6667 75.6333 65.3205 75.3281C64.9772 75.0228 64.7809 74.6181 64.7319 74.114Z" fill="white"/>
<path d="M23.0482 18.044L23.8956 17.6052C24.2545 18.3025 24.3776 18.9688 24.265 19.6039C24.1526 20.2345 23.824 20.7913 23.2791 21.2742C22.7152 21.774 22.1547 22.0668 21.5977 22.1526C21.041 22.2339 20.4769 22.1391 19.9053 21.8682C19.3362 21.5951 18.8302 21.2087 18.3873 20.709C17.9044 20.1641 17.5872 19.5977 17.4357 19.0097C17.2845 18.4172 17.3076 17.8466 17.5051 17.2976C17.7029 16.7442 18.0326 16.263 18.4942 15.8538C19.0177 15.3899 19.576 15.133 20.1691 15.0831C20.7622 15.0333 21.343 15.1877 21.9115 15.5463L21.3722 16.3111C20.9134 16.038 20.4916 15.9168 20.1069 15.9477C19.7221 15.9785 19.3548 16.149 19.005 16.459C18.6029 16.8154 18.3516 17.2101 18.2512 17.6433C18.1531 18.0743 18.1938 18.5014 18.3733 18.9243C18.5506 19.345 18.7922 19.7278 19.098 20.0728C19.4924 20.5178 19.9014 20.8499 20.3251 21.0691C20.7492 21.2839 21.1707 21.3521 21.5899 21.2737C22.009 21.1954 22.378 21.0149 22.6969 20.7324C23.0847 20.3886 23.314 19.9857 23.3846 19.5238C23.4553 19.0618 23.3431 18.5685 23.0482 18.044Z" fill="#165AAB"/>
<path d="M27.3851 17.9031L23.9443 11.8167L28.3452 9.32878L28.7512 10.047L25.1558 12.0796L26.2096 13.9437L29.5767 12.0403L29.9804 12.7544L26.6133 14.6578L27.7845 16.7296L31.5211 14.6172L31.9271 15.3355L27.3851 17.9031Z" fill="#165AAB"/>
<path d="M34.2787 14.3146L32.196 7.64026L35.1553 6.71684C35.7502 6.53121 36.2214 6.4508 36.5689 6.4756C36.9154 6.49737 37.2286 6.63112 37.5084 6.87687C37.7883 7.12261 37.9855 7.42911 38.1001 7.79637C38.2479 8.26986 38.2191 8.71681 38.0139 9.13723C37.8087 9.55765 37.3996 9.91179 36.7867 10.1996C37.0554 10.239 37.2675 10.2944 37.423 10.3658C37.7549 10.522 38.0916 10.7417 38.433 11.0248L40.1608 12.4791L39.05 12.8258L37.7334 11.7128C37.3504 11.3926 37.0423 11.1524 36.8091 10.992C36.5758 10.8316 36.3792 10.7298 36.2191 10.6865C36.0621 10.6422 35.9101 10.6247 35.7631 10.6339C35.6563 10.644 35.4891 10.6845 35.2614 10.7555L34.2371 11.0752L35.1619 14.039L34.2787 14.3146ZM33.9984 10.3103L35.8969 9.71788C36.3006 9.59192 36.6035 9.45244 36.8055 9.29946C37.0066 9.14345 37.138 8.95591 37.1995 8.73687C37.2601 8.51479 37.2568 8.296 37.1896 8.0805C37.0911 7.76484 36.8947 7.54132 36.6006 7.40995C36.3095 7.27762 35.9166 7.28865 35.4219 7.44302L33.3094 8.1022L33.9984 10.3103Z" fill="#165AAB"/>
<path d="M43.903 12.0104L43.268 5.87654L40.9767 6.11373L40.8918 5.29303L46.4042 4.7224L46.4892 5.5431L44.1884 5.78127L44.8233 11.9151L43.903 12.0104Z" fill="#165AAB"/>
<path d="M49.5577 11.7664L49.8374 4.77469L50.7626 4.8117L50.483 11.8034L49.5577 11.7664Z" fill="#165AAB"/>
<path d="M53.4801 12.0471L54.8142 5.18384L59.4443 6.08385L59.2869 6.89377L55.565 6.1703L55.1518 8.29577L58.3728 8.92186L58.2154 9.73178L54.9944 9.10569L54.3883 12.2237L53.4801 12.0471Z" fill="#165AAB"/>
<path d="M60.659 13.8022L62.9929 7.21155L63.8651 7.5204L61.5312 14.1111L60.659 13.8022Z" fill="#165AAB"/>
<path d="M64.3113 15.1541L67.6673 9.00137L72.1161 11.428L71.72 12.154L68.0855 10.1716L67.0576 12.056L70.4613 13.9126L70.0676 14.6344L66.6638 12.7779L65.5215 14.8721L69.2988 16.9325L68.9027 17.6585L64.3113 15.1541Z" fill="#165AAB"/>
<path d="M70.9936 19.1014L75.5383 13.7877L77.3687 15.3532C77.7819 15.7066 78.0756 16.0017 78.2496 16.2385C78.4942 16.5689 78.6454 16.918 78.7034 17.2855C78.7812 17.7621 78.7309 18.2441 78.5524 18.7316C78.3784 19.2188 78.0889 19.6992 77.6838 20.1728C77.3387 20.5763 76.9857 20.8937 76.6248 21.1248C76.264 21.3559 75.9221 21.5111 75.599 21.5905C75.278 21.6674 74.9786 21.6896 74.701 21.6571C74.4278 21.6243 74.1409 21.5317 73.8404 21.3792C73.5422 21.2288 73.2325 21.0162 72.9111 20.7413L70.9936 19.1014ZM72.2331 19.0758L73.3676 20.0461C73.718 20.3458 74.0202 20.5477 74.2741 20.6519C74.5305 20.7582 74.7685 20.8028 74.9882 20.7857C75.2975 20.7615 75.618 20.6486 75.9495 20.4468C76.2856 20.2447 76.6251 19.9431 76.9682 19.5419C77.4435 18.9861 77.7165 18.4811 77.787 18.0268C77.8621 17.5722 77.8125 17.1825 77.6383 16.8578C77.5118 16.6241 77.2396 16.3285 76.8215 15.971L75.7051 15.0162L72.2331 19.0758Z" fill="#165AAB"/>
<path d="M29.1649 88.595L29.853 89.2609C29.3043 89.8251 28.7099 90.155 28.0698 90.2508C27.434 90.3454 26.7994 90.2107 26.1659 89.8466C25.5103 89.4698 25.0528 89.0302 24.7932 88.5278C24.538 88.0242 24.448 87.4573 24.5232 86.8271C24.6011 86.1985 24.807 85.5937 25.1409 85.0128C25.5049 84.3794 25.9424 83.8967 26.4533 83.5647C26.9686 83.2316 27.5188 83.0713 28.1041 83.0838C28.6937 83.0952 29.2568 83.2551 29.7935 83.5635C30.402 83.9132 30.8247 84.3622 31.0616 84.9105C31.2985 85.4588 31.3372 86.0606 31.1776 86.7159L30.2778 86.4472C30.3911 85.9235 30.3716 85.4836 30.2194 85.1275C30.0671 84.7713 29.7876 84.4764 29.381 84.2427C28.9135 83.9741 28.4577 83.8611 28.0136 83.904C27.5723 83.9484 27.1791 84.1235 26.834 84.4294C26.4906 84.7324 26.2036 85.0845 25.9731 85.4856C25.6758 86.0029 25.4906 86.4981 25.4174 86.9712C25.3485 87.4431 25.4183 87.8659 25.6268 88.2396C25.8352 88.6133 26.1247 88.9067 26.4954 89.1197C26.9463 89.3788 27.4027 89.4682 27.8647 89.3878C28.3267 89.3074 28.7601 89.0432 29.1649 88.595Z" fill="#165AAB"/>
<path d="M32.5579 89.2196C32.9204 88.1171 33.4999 87.3521 34.2965 86.9245C35.0941 86.494 35.961 86.4326 36.8974 86.7404C37.5105 86.942 38.0151 87.2703 38.4111 87.7251C38.8071 88.18 39.0471 88.7124 39.131 89.3223C39.219 89.9303 39.1537 90.5665 38.9353 91.231C38.7138 91.9046 38.3798 92.4624 37.9331 92.9047C37.4865 93.3469 36.9688 93.6235 36.3801 93.7345C35.7924 93.8425 35.21 93.8016 34.6331 93.612C34.0079 93.4064 33.4988 93.0717 33.1057 92.6077C32.7127 92.1438 32.4752 91.6089 32.3933 91.0029C32.3114 90.397 32.3663 89.8025 32.5579 89.2196ZM33.4596 89.5311C33.1964 90.3315 33.2033 91.0333 33.4803 91.6364C33.7613 92.2376 34.2265 92.6449 34.8759 92.8584C35.5373 93.0759 36.1575 93.022 36.7363 92.6969C37.3181 92.3728 37.7496 91.7833 38.0306 90.9285C38.2084 90.3879 38.2712 89.8864 38.219 89.4241C38.1708 88.9598 38.0063 88.5593 37.7254 88.2226C37.4485 87.8839 37.0911 87.6425 36.6531 87.4985C36.0309 87.294 35.4243 87.3322 34.8332 87.6131C34.2462 87.892 33.7883 88.5313 33.4596 89.5311Z" fill="#165AAB"/>
<path d="M41.1873 95.2515L41.8963 88.2958L43.2817 88.4371L44.4261 93.5298C44.5312 94.004 44.6069 94.3585 44.6533 94.5933C44.7582 94.3483 44.9194 93.9892 45.137 93.516L47.2957 88.8462L48.5341 88.9724L47.8251 95.9281L46.9378 95.8377L47.5312 90.016L44.9166 95.6317L44.0863 95.547L42.6781 89.4206L42.0745 95.342L41.1873 95.2515Z" fill="#165AAB"/>
<path d="M51.4991 95.8449L50.8047 88.8878L53.4291 88.6258C53.891 88.5797 54.246 88.5666 54.494 88.5866C54.8414 88.6095 55.1386 88.69 55.3856 88.8283C55.6324 88.9635 55.8397 89.168 56.0077 89.4421C56.1788 89.7157 56.2816 90.025 56.316 90.3699C56.375 90.9615 56.2368 91.4818 55.9014 91.9306C55.5656 92.3763 54.9058 92.6483 53.9219 92.7465L52.1375 92.9246L52.4198 95.753L51.4991 95.8449ZM52.0555 92.1036L53.8541 91.9241C54.4489 91.8647 54.8603 91.7118 55.0881 91.4654C55.3159 91.219 55.4098 90.8949 55.3697 90.4931C55.3406 90.202 55.2415 89.9611 55.0723 89.7703C54.9059 89.576 54.6992 89.4576 54.4521 89.4152C54.293 89.3895 54.0046 89.3975 53.587 89.4392L51.8073 89.6169L52.0555 92.1036Z" fill="#165AAB"/>
<path d="M58.5547 95.0328L59.3153 87.5819L60.2773 87.3209L64.8698 93.3193L63.8526 93.5953L62.511 91.7652L59.6894 92.5308L59.5029 94.7755L58.5547 95.0328ZM59.7499 91.7336L62.0375 91.1129L60.8262 89.4352C60.4574 88.9258 60.1713 88.5027 59.9679 88.1658C59.9994 88.6218 59.9947 89.0843 59.9539 89.5533L59.7499 91.7336Z" fill="#165AAB"/>
<path d="M67.5519 92.2601L64.476 85.9814L65.3283 85.5638L71.0411 88.8779L68.6261 83.9482L69.4227 83.558L72.4987 89.8367L71.6464 90.2543L65.9314 86.9359L68.3485 91.8699L67.5519 92.2601Z" fill="#165AAB"/>
<path d="M77.2275 86.694L75.4504 84.3246L70.8767 82.7173L71.7771 82.042L74.1446 82.9014C74.5846 83.0642 75.0107 83.2375 75.4228 83.4213C75.3713 83.0029 75.3277 82.5209 75.2921 81.9752L75.1423 79.5181L76.0046 78.8714L76.1906 83.7694L77.9676 86.1388L77.2275 86.694Z" fill="#165AAB"/>
</svg>
