<svg width="100" height="100" viewBox="0 0 100 100" fill="none" xmlns="http://www.w3.org/2000/svg">
<path d="M50 0L93.3013 23.4205V70.2614L50 93.6819L6.69873 70.2614V23.4205L50 0Z" fill="#6C797F"/>
<path fill-rule="evenodd" clip-rule="evenodd" d="M50 1.73384L8.22378 24.3295V69.3525L50 91.9481L91.7762 69.3525V24.3295L50 1.73384ZM93.3013 23.4205L50 0L6.69873 23.4205V70.2614L50 93.6819L93.3013 70.2614V23.4205Z" fill="white"/>
<path d="M13.8528 27.255L50 7.56671L86.1472 27.255V66.4835L50 86.1718L13.8528 66.4835V27.255Z" stroke="white" stroke-width="3"/>
<path d="M50 5.85864L87.6472 26.364V67.3746L50 87.8799L12.3528 67.3746V26.364L50 5.85864Z" fill="white"/>
<path fill-rule="evenodd" clip-rule="evenodd" d="M50 6.35481L12.7885 26.6228V67.1157L50 87.3837L87.2115 67.1157V26.6228L50 6.35481ZM87.6472 26.364L50 5.85864L12.3528 26.364V67.3746L50 87.8799L87.6472 67.3746V26.364Z" fill="#19313B"/>
<rect x="8.27887" y="33.9869" width="4.13943" height="25.7081" fill="#19313B"/>
<rect x="87.5817" y="33.9869" width="3.92157" height="25.7081" fill="#19313B"/>
<path fill-rule="evenodd" clip-rule="evenodd" d="M81.0509 34.3766H19.1834V34.1587H81.0509V34.3766Z" fill="#19313B"/>
<path fill-rule="evenodd" clip-rule="evenodd" d="M81.0509 59.6129H19.1834V59.395H81.0509V59.6129Z" fill="#19313B"/>
<path d="M46.9785 17.2756H44.5331V17.6364H45.5554V20.9336H45.9562V17.6364H46.9785V17.2756Z" fill="#19313B"/>
<path d="M49.8263 20.9837C50.7733 20.9837 51.2443 20.3674 51.2443 19.1146C51.2443 17.8519 50.7733 17.2255 49.8263 17.2255C48.8742 17.2255 48.4082 17.8519 48.4082 19.1146C48.4082 20.3674 48.8742 20.9837 49.8263 20.9837ZM49.8263 20.6279C49.0295 20.6279 48.809 20.2972 48.809 19.1146C48.809 17.917 49.0295 17.5813 49.8263 17.5813C50.618 17.5813 50.8435 17.917 50.8435 19.1146C50.8435 20.2972 50.618 20.6279 49.8263 20.6279Z" fill="#19313B"/>
<path d="M54.2207 17.2756H53.1033V20.9336H53.4942V19.4754H54.2107C54.9323 19.4754 55.283 19.1096 55.283 18.378C55.283 17.6414 54.9323 17.2756 54.2207 17.2756ZM54.1957 19.1397H53.4942V17.6114H54.2007C54.7469 17.6114 54.9022 17.7817 54.9022 18.378C54.9022 18.9743 54.7469 19.1397 54.1957 19.1397Z" fill="#19313B"/>
<path d="M34.7083 28.7767H35.8057C36.6125 28.7767 37.0184 28.441 37.0184 27.7595C37.0184 27.2033 36.7478 26.8926 36.2667 26.8726C36.6425 26.8475 36.848 26.5669 36.848 26.0708C36.848 25.4345 36.5022 25.1188 35.8007 25.1188H34.7083V28.7767ZM35.0942 26.7172V25.4545H35.7857C36.3218 25.4545 36.4722 25.5948 36.4722 26.0859C36.4722 26.5769 36.3118 26.7172 35.7406 26.7172H35.0942ZM35.0942 28.436V27.053H35.7606C36.4321 27.053 36.6175 27.2083 36.6175 27.7495C36.6175 28.2857 36.4371 28.436 35.7907 28.436H35.0942Z" fill="#19313B"/>
<path d="M38.7983 28.7767H39.1891V27.2133H39.7253L40.6974 28.7767H41.1684L40.1512 27.1833C40.7375 27.1031 41.0331 26.7623 41.0331 26.166C41.0331 25.4695 40.6673 25.1188 39.9358 25.1188H38.7983V28.7767ZM39.1841 26.8926V25.4445H39.9157C40.4819 25.4445 40.6523 25.6048 40.6523 26.166C40.6523 26.7323 40.4819 26.8926 39.9057 26.8926H39.1841Z" fill="#19313B"/>
<path d="M45.1095 28.7767H45.5354L44.2275 25.1188H43.8517L42.5389 28.7767H42.9548L43.2554 27.8898H44.8088L45.1095 28.7767ZM43.3707 27.5541L44.0321 25.5798L44.6986 27.5541H43.3707Z" fill="#19313B"/>
<path d="M47.1826 28.7767H47.5635V25.9005L49.4375 28.7767H49.7632V25.1188H49.3874V28L47.5134 25.1188H47.1826V28.7767Z" fill="#19313B"/>
<path d="M51.7189 28.7767H52.8113C53.8035 28.7767 54.2945 28.1754 54.2945 26.9578C54.2945 25.7301 53.8035 25.1188 52.8113 25.1188H51.7189V28.7767ZM52.1098 28.436V25.4595H52.8113C53.6582 25.4595 53.8937 25.7852 53.8937 26.9578C53.8937 28.1153 53.6582 28.436 52.8113 28.436H52.1098Z" fill="#19313B"/>
<path d="M56.1514 28.7767H56.5523V25.1188H56.1514V28.7767Z" fill="#19313B"/>
<path d="M58.508 28.7767H58.8889V25.9005L60.7629 28.7767H61.0886V25.1188H60.7128V28L58.8388 25.1188H58.508V28.7767Z" fill="#19313B"/>
<path d="M64.188 26.9277V27.2484H65.0298V28.1504C64.8745 28.3708 64.639 28.4811 64.3133 28.4811C63.4915 28.4811 63.251 28.1504 63.251 26.9578C63.251 25.7501 63.5165 25.4144 64.4436 25.4144C64.7192 25.4144 64.9396 25.4645 65.115 25.5698L65.1902 25.214C64.9797 25.1188 64.7242 25.0687 64.4285 25.0687C63.3762 25.0687 62.8551 25.695 62.8551 26.9578C62.8551 28.1554 63.3412 28.8268 64.203 28.8268C64.5989 28.8268 64.8995 28.6865 65.11 28.3909H65.115L65.1601 28.7767H65.3706V26.9277H64.188Z" fill="#19313B"/>
<path fill-rule="evenodd" clip-rule="evenodd" d="M47.0438 17.2103V17.7018H46.0216V20.9989H45.49V17.7018H44.4678V17.2103H47.0438ZM44.5331 17.6364V17.2756H46.9785V17.6364H45.9562V20.9336H45.5554V17.6364H44.5331ZM50.9425 20.5585C50.6912 20.889 50.3152 21.049 49.8263 21.049C49.3349 21.049 48.9588 20.8891 48.7081 20.5584C48.4601 20.2313 48.3428 19.7471 48.3428 19.1146C48.3428 18.4772 48.4601 17.9882 48.7079 17.6574C48.9584 17.3229 49.3345 17.1602 49.8263 17.1602C50.3156 17.1602 50.6916 17.3229 50.9427 17.6573C51.1911 17.9881 51.3097 18.477 51.3097 19.1146C51.3097 19.7473 51.1911 20.2314 50.9425 20.5585ZM49.0731 20.2783C49.2093 20.4812 49.4349 20.5626 49.8263 20.5626C50.2149 20.5626 50.4407 20.4813 50.5776 20.2782C50.7205 20.0661 50.7781 19.707 50.7781 19.1146C50.7781 18.5147 50.7205 18.1504 50.5773 17.935C50.4403 17.729 50.2146 17.6466 49.8263 17.6466C49.4353 17.6466 49.2097 17.7291 49.0734 17.9349C48.9308 18.1502 48.8744 18.5145 48.8744 19.1146C48.8744 19.7072 48.9308 20.0663 49.0731 20.2783ZM53.0379 17.2103H54.2207C54.5871 17.2103 54.8726 17.3045 55.0658 17.5053C55.2585 17.7055 55.3484 18.0004 55.3484 18.378C55.3484 18.7532 55.2585 19.047 55.0643 19.2466C54.8698 19.4466 54.5818 19.5408 54.2107 19.5408H53.5595V20.9989H53.0379V17.2103ZM53.4942 20.9336H53.1033V17.2756H54.2207C54.9323 17.2756 55.283 17.6414 55.283 18.378C55.283 19.1096 54.9323 19.4754 54.2107 19.4754H53.4942V20.9336ZM53.5595 19.0743H54.1957C54.4695 19.0743 54.6203 19.032 54.7078 18.938C54.7967 18.8423 54.8369 18.6757 54.8369 18.378C54.8369 18.0804 54.7968 17.9122 54.708 17.8152C54.6211 17.7201 54.4715 17.6767 54.2007 17.6767H53.5595V19.0743ZM34.643 28.8421V25.0534H35.8007C36.1599 25.0534 36.4405 25.1341 36.6314 25.3078C36.8235 25.4826 36.9133 25.7411 36.9133 26.0708C36.9133 26.3267 36.8605 26.5363 36.7512 26.6868C36.6979 26.76 36.6325 26.8176 36.5562 26.8592C36.682 26.903 36.7886 26.9741 36.8726 27.0725C37.0137 27.2378 37.0837 27.4715 37.0837 27.7595C37.0837 28.1136 36.9777 28.3889 36.7565 28.5738C36.5375 28.7568 36.2165 28.8421 35.8057 28.8421H34.643ZM36.464 26.8999C36.4029 26.8846 36.337 26.8755 36.2667 26.8726C36.3372 26.8679 36.4017 26.8542 36.46 26.8318C36.7124 26.7347 36.848 26.4738 36.848 26.0708C36.848 25.4344 36.5022 25.1188 35.8007 25.1188H34.7083V28.7767H35.8057C36.6125 28.7767 37.0184 28.441 37.0184 27.7595C37.0184 27.2846 36.8211 26.9887 36.464 26.8999ZM35.1595 25.5199V26.6519H35.7406C36.0261 26.6519 36.1862 26.6155 36.2778 26.5363C36.3661 26.4599 36.4068 26.3285 36.4068 26.0859C36.4068 25.8424 36.3684 25.7103 36.2857 25.6341C36.2012 25.5562 36.0532 25.5199 35.7857 25.5199H35.1595ZM35.1595 27.1183V28.3706H35.7907C36.1142 28.3706 36.2986 28.3317 36.4047 28.2435C36.5066 28.1589 36.5521 28.0143 36.5521 27.7495C36.5521 27.4825 36.5055 27.3355 36.3995 27.2489C36.2889 27.1585 36.0967 27.1183 35.7606 27.1183H35.1595ZM38.7329 28.8421V25.0534H39.9357C40.311 25.0534 40.6044 25.1433 40.8039 25.334C41.004 25.5251 41.0985 25.8069 41.0985 26.166C41.0985 26.4747 41.0219 26.726 40.8614 26.911C40.7189 27.0754 40.516 27.1808 40.2595 27.2315L41.2877 28.8421H40.6611L39.689 27.2787H39.2545V28.8421H38.7329ZM39.7253 27.2133L40.6974 28.7767H41.1684L40.1512 27.1832C40.1752 27.18 40.1987 27.1763 40.2216 27.1721C40.7612 27.0748 41.0331 26.738 41.0331 26.166C41.0331 25.4695 40.6673 25.1188 39.9357 25.1188H38.7983V28.7767H39.1891V27.2133H39.7253ZM39.2495 25.5098V26.8273H39.9057C40.1926 26.8273 40.3551 26.7861 40.4497 26.6947C40.5435 26.6039 40.5869 26.4472 40.5869 26.166C40.5869 25.8875 40.5435 25.7319 40.4508 25.6417C40.3575 25.5509 40.1974 25.5098 39.9157 25.5098H39.2495ZM45.0626 28.8421L44.7619 27.9551H43.3023L43.0016 28.8421H42.446L43.8057 25.0534H44.2736L45.6282 28.8421H45.0626ZM43.2554 27.8898H44.8088L45.1095 28.7767H45.5354L44.2275 25.1188H43.8517L42.5389 28.7767H42.9548L43.2554 27.8898ZM43.3707 27.5541H44.6986L44.0321 25.5798L43.3707 27.5541ZM43.4615 27.4887H44.6075L44.0323 25.7848L43.4615 27.4887ZM47.1173 28.8421V25.0534H47.5488L49.3221 27.7797V25.0534H49.8286V28.8421H49.4021L47.6288 26.1205V28.8421H47.1173ZM47.5635 25.9005L49.4375 28.7767H49.7632V25.1188H49.3874V28L47.5134 25.1188H47.1826V28.7767H47.5635V25.9005ZM51.6536 28.8421V25.0534H52.8113C53.3215 25.0534 53.7135 25.2113 53.9759 25.5369C54.236 25.8598 54.3599 26.337 54.3599 26.9578C54.3599 27.5736 54.236 28.046 53.9756 28.3652C53.7132 28.6869 53.3212 28.8421 52.8113 28.8421H51.6536ZM52.8113 28.7767C53.8035 28.7767 54.2945 28.1754 54.2945 26.9578C54.2945 25.7301 53.8035 25.1188 52.8113 25.1188H51.7189V28.7767H52.8113ZM52.1752 25.5249V28.3706H52.8113C53.2295 28.3706 53.4719 28.2909 53.6173 28.0923C53.7681 27.8865 53.8283 27.5375 53.8283 26.9578C53.8283 26.3704 53.7681 26.0162 53.6171 25.8072C53.4715 25.6057 53.2292 25.5249 52.8113 25.5249H52.1752ZM56.0861 28.8421V25.0534H56.6177V28.8421H56.0861ZM56.5523 28.7767H56.1514V25.1188H56.5523V28.7767ZM58.4427 28.8421V25.0534H58.8742L60.6475 27.7797V25.0534H61.154V28.8421H60.7275L58.9542 26.1205V28.8421H58.4427ZM58.8889 25.9005L60.7629 28.7767H61.0886V25.1188H60.7128V28L58.8388 25.1188H58.508V28.7767H58.8889V25.9005ZM64.1226 26.8623H65.4359V28.8421H65.102L65.0675 28.5469C64.8506 28.7812 64.5613 28.8922 64.203 28.8922C63.7528 28.8922 63.3954 28.7156 63.1529 28.3796C62.9125 28.0467 62.7897 27.564 62.7897 26.9578C62.7897 26.3191 62.9213 25.829 63.197 25.4979C63.4746 25.1644 63.889 25.0033 64.4285 25.0033C64.7313 25.0033 64.9965 25.0546 65.2171 25.1544L65.265 25.1761L65.16 25.673L65.0814 25.6258C64.9193 25.5285 64.7116 25.4798 64.4436 25.4798C63.9845 25.4798 63.714 25.5636 63.5513 25.7733C63.3841 25.9888 63.3163 26.3534 63.3163 26.9578C63.3163 27.5549 63.3777 27.916 63.5274 28.1291C63.6715 28.334 63.9088 28.4157 64.3133 28.4157C64.6137 28.4157 64.8238 28.3181 64.9645 28.1292V27.3138H64.1226V26.8623ZM65.0298 28.1504C64.8745 28.3708 64.639 28.4811 64.3133 28.4811C63.4915 28.4811 63.251 28.1504 63.251 26.9578C63.251 25.7501 63.5165 25.4144 64.4436 25.4144C64.6887 25.4144 64.8902 25.454 65.0552 25.5368C65.0757 25.5471 65.0956 25.5581 65.115 25.5697L65.1902 25.214C64.9797 25.1188 64.7242 25.0687 64.4285 25.0687C63.3762 25.0687 62.8551 25.695 62.8551 26.9578C62.8551 28.1554 63.3412 28.8268 64.203 28.8268C64.5669 28.8268 64.8504 28.7083 65.0572 28.4595C65.0753 28.4378 65.0927 28.4152 65.1096 28.3915C65.1097 28.3913 65.1099 28.3911 65.11 28.3909H65.115L65.1601 28.7767H65.3706V26.9277H64.188V27.2484H65.0298V28.1504ZM51.2443 19.1146C51.2443 20.3673 50.7733 20.9837 49.8263 20.9837C48.8742 20.9837 48.4082 20.3673 48.4082 19.1146C48.4082 17.8519 48.8742 17.2255 49.8263 17.2255C50.7733 17.2255 51.2443 17.8519 51.2443 19.1146ZM48.809 19.1146C48.809 20.2972 49.0295 20.6279 49.8263 20.6279C50.618 20.6279 50.8435 20.2972 50.8435 19.1146C50.8435 17.917 50.618 17.5813 49.8263 17.5813C49.0295 17.5813 48.809 17.917 48.809 19.1146ZM54.1957 19.1397C54.7469 19.1397 54.9022 18.9743 54.9022 18.378C54.9022 17.7817 54.7469 17.6114 54.2007 17.6114H53.4942V19.1397H54.1957ZM35.0942 26.7172H35.7406C36.3118 26.7172 36.4722 26.5769 36.4722 26.0859C36.4722 25.5948 36.3218 25.4545 35.7857 25.4545H35.0942V26.7172ZM35.0942 28.436H35.7907C36.4371 28.436 36.6175 28.2856 36.6175 27.7495C36.6175 27.2083 36.4321 27.053 35.7606 27.053H35.0942V28.436ZM39.1841 26.8926H39.9057C40.4819 26.8926 40.6523 26.7323 40.6523 26.166C40.6523 25.6048 40.4819 25.4445 39.9157 25.4445H39.1841V26.8926ZM52.1098 28.436H52.8113C53.6582 28.436 53.8937 28.1153 53.8937 26.9578C53.8937 25.7852 53.6582 25.4595 52.8113 25.4595H52.1098V28.436Z" fill="#19313B"/>
<path d="M37.7275 69.707H38.1534L36.8456 66.049H36.4697L35.1569 69.707H35.5728L35.8734 68.82H37.4268L37.7275 69.707ZM35.9887 68.4843L36.6501 66.51L37.3166 68.4843H35.9887Z" fill="#19313B"/>
<path d="M40.9013 67.8579V68.1786H41.7432V69.0806C41.5878 69.3011 41.3523 69.4113 41.0266 69.4113C40.2048 69.4113 39.9643 69.0806 39.9643 67.888C39.9643 66.6804 40.2299 66.3447 41.1569 66.3447C41.4325 66.3447 41.653 66.3948 41.8283 66.5L41.9035 66.1442C41.6931 66.049 41.4375 65.9989 41.1419 65.9989C40.0896 65.9989 39.5684 66.6253 39.5684 67.888C39.5684 69.0856 40.0545 69.7571 40.9164 69.7571C41.3122 69.7571 41.6129 69.6168 41.8233 69.3211H41.8283L41.8734 69.707H42.0839V67.8579H40.9013Z" fill="#19313B"/>
<path d="M44.3902 69.3662V68.0183H45.9185V67.6826H44.3902V66.3898H46.0638V66.049H43.9993V69.707H46.1139V69.3662H44.3902Z" fill="#19313B"/>
<path d="M47.8484 69.707H48.2293V66.8307L50.1033 69.707H50.429V66.049H50.0532V68.9303L48.1791 66.049H47.8484V69.707Z" fill="#19313B"/>
<path d="M53.7288 69.7571C54.0295 69.7571 54.29 69.712 54.5055 69.6118L54.4304 69.256C54.2449 69.3562 54.0144 69.4113 53.7489 69.4113C52.8469 69.4113 52.5964 69.0806 52.5964 67.888C52.5964 66.6804 52.8469 66.3497 53.7539 66.3497C53.9794 66.3497 54.1798 66.3898 54.3552 66.4749L54.4354 66.1292C54.2349 66.044 54.0044 65.9989 53.7388 65.9989C52.7016 65.9989 52.1955 66.6253 52.1955 67.888C52.1955 69.1407 52.7016 69.7571 53.7288 69.7571Z" fill="#19313B"/>
<path d="M56.2202 69.707H56.6211V66.049H56.2202V69.707Z" fill="#19313B"/>
<path d="M59.0128 69.3662V68.0183H60.5411V67.6826H59.0128V66.3898H60.6864V66.049H58.6219V69.707H60.7365V69.3662H59.0128Z" fill="#19313B"/>
<path d="M63.3279 69.7571C64.1146 69.7571 64.5055 69.4113 64.5055 68.6998C64.5055 68.1837 64.2349 67.9782 63.5985 67.7176C62.912 67.437 62.7516 67.3619 62.7516 66.956C62.7516 66.4799 62.907 66.3497 63.4431 66.3497C63.7538 66.3497 64.0244 66.4198 64.2599 66.5601L64.3451 66.1943C64.0695 66.064 63.7689 66.0039 63.4281 66.0039C62.7166 66.0039 62.3608 66.3196 62.3608 66.966C62.3608 67.5022 62.6514 67.7176 63.2527 67.9682C63.9643 68.2588 64.1046 68.334 64.1046 68.7348C64.1046 69.266 63.9342 69.4113 63.3279 69.4113C62.9872 69.4113 62.6765 69.3412 62.3858 69.2059L62.3007 69.5616C62.6013 69.6969 62.9421 69.7571 63.3279 69.7571Z" fill="#19313B"/>
<path d="M42.5042 77.5501H44.6639V77.1993H43.0504L43.9173 76.2473C44.4284 75.6911 44.6338 75.3503 44.6338 74.9194C44.6338 74.3281 44.263 73.9823 43.6166 73.9823C43.2358 73.9823 42.8951 74.0725 42.5894 74.2429L42.6746 74.5987C42.9602 74.4233 43.2659 74.3381 43.5966 74.3381C44.0977 74.3381 44.243 74.4734 44.243 74.9444C44.243 75.2451 44.0826 75.5257 43.6166 76.0368L42.5042 77.2645V77.5501Z" fill="#19313B"/>
<path d="M47.6986 77.6002C48.5605 77.6002 48.9914 77.0039 48.9914 75.7913C48.9914 74.5837 48.5605 73.9823 47.6986 73.9823C46.8317 73.9823 46.4008 74.5837 46.4008 75.7913C46.4008 77.0039 46.8317 77.6002 47.6986 77.6002ZM47.6986 77.2494C46.9921 77.2494 46.7916 76.9338 46.7916 75.7913C46.7916 74.6538 46.9921 74.3331 47.6986 74.3331C48.4001 74.3331 48.6005 74.6538 48.6005 75.7913C48.6005 76.9338 48.4001 77.2494 47.6986 77.2494Z" fill="#19313B"/>
<path d="M50.6645 77.5501H52.8242V77.1993H51.2107L52.0776 76.2473C52.5887 75.6911 52.7942 75.3503 52.7942 74.9194C52.7942 74.3281 52.4234 73.9823 51.7769 73.9823C51.3961 73.9823 51.0554 74.0725 50.7497 74.2429L50.8349 74.5987C51.1205 74.4233 51.4262 74.3381 51.7569 74.3381C52.258 74.3381 52.4033 74.4734 52.4033 74.9444C52.4033 75.2451 52.243 75.5257 51.7769 76.0368L50.6645 77.2645V77.5501Z" fill="#19313B"/>
<path d="M55.8589 77.6002C56.7208 77.6002 57.1517 77.0039 57.1517 75.7913C57.1517 74.5837 56.7208 73.9823 55.8589 73.9823C54.992 73.9823 54.5611 74.5837 54.5611 75.7913C54.5611 77.0039 54.992 77.6002 55.8589 77.6002ZM55.8589 77.2494C55.1524 77.2494 54.9519 76.9338 54.9519 75.7913C54.9519 74.6538 55.1524 74.3331 55.8589 74.3331C56.5604 74.3331 56.7609 74.6538 56.7609 75.7913C56.7609 76.9338 56.5604 77.2494 55.8589 77.2494Z" fill="#19313B"/>
<path fill-rule="evenodd" clip-rule="evenodd" d="M37.6806 69.7724L37.38 68.8854H35.9203L35.6197 69.7724H35.064L36.4238 65.9837H36.8916L38.2462 69.7724H37.6806ZM35.8734 68.8201H37.4268L37.7275 69.707H38.1534L36.8456 66.0491H36.4697L35.1569 69.707H35.5728L35.8734 68.8201ZM35.9887 68.4844H37.3166L36.6501 66.5101L35.9887 68.4844ZM36.0795 68.419H37.2255L36.6504 66.7151L36.0795 68.419ZM40.836 67.7926H42.1493V69.7724H41.8153L41.7808 69.4772C41.5639 69.7115 41.2746 69.8225 40.9164 69.8225C40.4662 69.8225 40.1087 69.6459 39.8662 69.3099C39.6259 68.977 39.5031 68.4943 39.5031 67.8881C39.5031 67.2494 39.6346 66.7593 39.9103 66.4282C40.1879 66.0947 40.6023 65.9336 41.1419 65.9336C41.4447 65.9336 41.7098 65.9849 41.9304 66.0847L41.9783 66.1064L41.8733 66.6033L41.7947 66.5561C41.6326 66.4588 41.4249 66.4101 41.1569 66.4101C40.6979 66.4101 40.4273 66.4939 40.2646 66.7036C40.0974 66.9191 40.0297 67.2837 40.0297 67.8881C40.0297 68.4852 40.091 68.8463 40.2408 69.0594C40.3848 69.2643 40.6222 69.346 41.0266 69.346C41.327 69.346 41.5371 69.2484 41.6778 69.0595V68.2441H40.836V67.7926ZM41.7432 69.0807C41.5878 69.3011 41.3523 69.4114 41.0266 69.4114C40.2048 69.4114 39.9643 69.0807 39.9643 67.8881C39.9643 66.6804 40.2299 66.3447 41.1569 66.3447C41.402 66.3447 41.6035 66.3843 41.7685 66.4671C41.789 66.4774 41.809 66.4884 41.8283 66.5L41.9035 66.1443C41.6931 66.0491 41.4375 65.999 41.1419 65.999C40.0896 65.999 39.5684 66.6253 39.5684 67.8881C39.5684 69.0857 40.0545 69.7571 40.9164 69.7571C41.2802 69.7571 41.5637 69.6386 41.7706 69.3898C41.7886 69.3681 41.806 69.3455 41.8229 69.3218C41.823 69.3216 41.8232 69.3214 41.8233 69.3212H41.8283L41.8734 69.707H42.0839V67.858H40.9013V68.1787H41.7432V69.0807ZM46.1139 69.3663V69.707H43.9993V66.0491H46.0638V66.3898H44.3902V67.6826H45.9185V68.0183H44.3902V69.3663H46.1139ZM44.4555 69.3009H46.1793V69.7724H43.934V65.9837H46.1292V66.4552H44.4555V67.6173H45.9838V68.0837H44.4555V69.3009ZM47.7831 69.7724V65.9837H48.2146L49.9879 68.71V65.9837H50.4944V69.7724H50.0679L48.2946 67.0508V69.7724H47.7831ZM48.2293 66.8308L50.1033 69.707H50.429V66.0491H50.0532V68.9303L48.1791 66.0491H47.8484V69.707H48.2293V66.8308ZM54.5802 69.6492L54.5331 69.6711C54.3063 69.7766 54.0355 69.8225 53.7288 69.8225C53.2016 69.8225 52.7971 69.6637 52.5264 69.3338C52.2578 69.0065 52.1301 68.5215 52.1301 67.8881C52.1301 67.2497 52.2578 66.7598 52.5275 66.4287C52.7994 66.095 53.2065 65.9336 53.7388 65.9336C54.0119 65.9336 54.2513 65.98 54.4609 66.0691L54.5114 66.0905L54.4003 66.5696L54.3266 66.5338C54.1619 66.4538 53.9716 66.4151 53.7539 66.4151C53.305 66.4151 53.0437 66.4976 52.8872 66.7054C52.7258 66.9197 52.6617 67.2833 52.6617 67.8881C52.6617 68.4852 52.7257 68.8451 52.8865 69.0575C53.0424 69.2635 53.3026 69.346 53.7489 69.346C54.0056 69.346 54.225 69.2927 54.3993 69.1985L54.4762 69.1569L54.5802 69.6492ZM54.37 69.2863C54.3906 69.2768 54.4107 69.2666 54.4304 69.256L54.5055 69.6118C54.29 69.712 54.0295 69.7571 53.7288 69.7571C52.7016 69.7571 52.1955 69.1408 52.1955 67.8881C52.1955 66.6253 52.7016 65.999 53.7388 65.999C54.0044 65.999 54.2349 66.0441 54.4354 66.1292L54.3552 66.475C54.3353 66.4653 54.315 66.4562 54.2944 66.4477C54.1339 66.3812 53.9537 66.3497 53.7539 66.3497C52.8469 66.3497 52.5964 66.6804 52.5964 67.8881C52.5964 69.0807 52.8469 69.4114 53.7489 69.4114C53.9863 69.4114 54.1957 69.3673 54.37 69.2863ZM56.1549 69.7724V65.9837H56.6864V69.7724H56.1549ZM56.6211 69.707H56.2202V66.0491H56.6211V69.707ZM60.7365 69.3663V69.707H58.6219V66.0491H60.6864V66.3898H59.0128V67.6826H60.5411V68.0183H59.0128V69.3663H60.7365ZM59.0781 69.3009H60.8019V69.7724H58.5566V65.9837H60.7518V66.4552H59.0781V67.6173H60.6065V68.0837H59.0781V69.3009ZM63.6232 67.6572C63.9416 67.7875 64.1796 67.9081 64.337 68.0669C64.4987 68.23 64.5708 68.4283 64.5708 68.6998C64.5708 69.0674 64.4696 69.3523 64.2553 69.544C64.0424 69.7344 63.7294 69.8225 63.3279 69.8225C62.9353 69.8225 62.585 69.7613 62.2738 69.6213L62.2245 69.5991L62.3409 69.1129L62.4134 69.1467C62.6953 69.2779 62.9966 69.346 63.3279 69.346C63.6313 69.346 63.8024 69.3083 63.9008 69.223C63.9959 69.1404 64.0392 68.9979 64.0392 68.7349C64.0392 68.6377 64.0306 68.5665 64.01 68.5088C63.99 68.4529 63.9574 68.4061 63.9032 68.3601C63.8476 68.3129 63.7693 68.2666 63.6578 68.2132C63.5466 68.16 63.4062 68.1015 63.228 68.0287L63.2276 68.0286C62.9265 67.9031 62.6923 67.7824 62.5344 67.6198C62.3727 67.4533 62.2954 67.248 62.2954 66.9661C62.2954 66.6311 62.3879 66.37 62.584 66.194C62.7786 66.0192 63.0641 65.9386 63.4281 65.9386C63.7769 65.9386 64.0873 66.0002 64.373 66.1353L64.4207 66.1578L64.3033 66.6621L64.2265 66.6163C64.0023 66.4828 63.7435 66.4151 63.4431 66.4151C63.175 66.4151 63.0251 66.449 62.9392 66.5237C62.8564 66.5957 62.817 66.7208 62.817 66.956C62.817 67.0539 62.8268 67.1258 62.8486 67.1838C62.8699 67.2404 62.904 67.2876 62.9594 67.3336C63.016 67.3806 63.0946 67.4262 63.2045 67.4783C63.3142 67.5303 63.4513 67.5869 63.6232 67.6572ZM64.2006 66.5267C63.9793 66.4087 63.7281 66.3497 63.4431 66.3497C62.907 66.3497 62.7516 66.48 62.7516 66.956C62.7516 67.3619 62.912 67.4371 63.5985 67.7177C64.2349 67.9783 64.5055 68.1837 64.5055 68.6998C64.5055 69.4114 64.1146 69.7571 63.3279 69.7571C62.9421 69.7571 62.6013 69.697 62.3007 69.5617L62.3858 69.2059C62.406 69.2153 62.4262 69.2244 62.4465 69.2331C62.7197 69.3506 63.0108 69.4114 63.3279 69.4114C63.9342 69.4114 64.1046 69.2661 64.1046 68.7349C64.1046 68.334 63.9643 68.2589 63.2527 67.9682C62.6514 67.7177 62.3608 67.5022 62.3608 66.9661C62.3608 66.3197 62.7166 66.004 63.4281 66.004C63.7689 66.004 64.0695 66.0641 64.3451 66.1944L64.2599 66.5602C64.2404 66.5485 64.2206 66.5374 64.2006 66.5267ZM42.4388 77.6155V77.2393L43.5682 75.993C44.0345 75.4815 44.1776 75.2176 44.1776 74.9445C44.1776 74.7112 44.1405 74.585 44.063 74.5124C43.9841 74.4385 43.8462 74.4035 43.5966 74.4035C43.2779 74.4035 42.984 74.4854 42.7088 74.6544L42.632 74.7016L42.5143 74.21L42.5576 74.1859C42.8732 74.0099 43.225 73.917 43.6166 73.917C43.951 73.917 44.223 74.0065 44.412 74.1812C44.6017 74.3565 44.6992 74.6098 44.6992 74.9194C44.6992 75.377 44.4778 75.7339 43.9656 76.2913M43.9173 76.2473L43.0504 77.1994H44.6639V77.5502H42.5042V77.2645L43.6166 76.0369C44.0826 75.5258 44.243 75.2451 44.243 74.9445C44.243 74.4735 44.0977 74.3382 43.5966 74.3382C43.2885 74.3382 43.0021 74.4121 42.7335 74.564C42.7137 74.5752 42.6941 74.5867 42.6746 74.5987L42.5894 74.243C42.8951 74.0726 43.2358 73.9824 43.6166 73.9824C44.263 73.9824 44.6338 74.3281 44.6338 74.9194C44.6338 75.3504 44.4284 75.6911 43.9173 76.2473ZM43.1983 77.134H44.7293V77.6155H42.4388M43.1983 77.134L43.9654 76.2915L43.1983 77.134ZM48.7213 77.1886C48.4913 77.5095 48.1464 77.6656 47.6986 77.6656C47.2484 77.6656 46.9022 77.5096 46.6715 77.1887C46.4438 76.8718 46.3354 76.4034 46.3354 75.7913C46.3354 75.1817 46.4438 74.7133 46.6715 74.3959C46.9021 74.0744 47.2482 73.917 47.6986 73.917C48.1466 73.917 48.4915 74.0745 48.7214 74.396C48.9483 74.7134 49.0568 75.1817 49.0568 75.7913C49.0568 76.4034 48.9484 76.8718 48.7213 77.1886ZM47.0356 76.9142C47.1563 77.1075 47.3541 77.1841 47.6986 77.1841C48.0404 77.1841 48.237 77.1076 48.3571 76.9143C48.4839 76.7104 48.5352 76.3639 48.5352 75.7913C48.5352 75.2214 48.4839 74.8748 48.3571 74.6701C48.2369 74.4761 48.0401 74.3985 47.6986 74.3985C47.3544 74.3985 47.1564 74.4762 47.0356 74.6702C46.9083 74.8748 46.857 75.2213 46.857 75.7913C46.857 76.3639 46.9083 76.7103 47.0356 76.9142ZM50.5992 77.6155V77.2393L51.7285 75.993C52.1948 75.4815 52.3379 75.2176 52.3379 74.9445C52.3379 74.7112 52.3008 74.585 52.2233 74.5124C52.1444 74.4385 52.0065 74.4035 51.7569 74.4035C51.4382 74.4035 51.1444 74.4854 50.8691 74.6544L50.7923 74.7016L50.6746 74.21L50.7179 74.1859C51.0335 74.0099 51.3853 73.917 51.7769 73.917C52.1113 73.917 52.3833 74.0065 52.5723 74.1812C52.762 74.3565 52.8595 74.6098 52.8595 74.9194C52.8595 75.377 52.6381 75.7339 52.1259 76.2913M52.0776 76.2473L51.2107 77.1994H52.8242V77.5502H50.6645V77.2645L51.7769 76.0369C52.243 75.5258 52.4033 75.2451 52.4033 74.9445C52.4033 74.4735 52.258 74.3382 51.7569 74.3382C51.4488 74.3382 51.1625 74.4121 50.8938 74.564C50.8741 74.5752 50.8544 74.5867 50.8349 74.5987L50.7497 74.243C51.0554 74.0726 51.3961 73.9824 51.7769 73.9824C52.4234 73.9824 52.7942 74.3281 52.7942 74.9194C52.7942 75.3504 52.5887 75.6911 52.0776 76.2473ZM51.3586 77.134H52.8896V77.6155H50.5992M51.3586 77.134L52.1257 76.2915L51.3586 77.134ZM56.8816 77.1886C56.6517 77.5095 56.3068 77.6656 55.8589 77.6656C55.4087 77.6656 55.0625 77.5096 54.8318 77.1887C54.6041 76.8718 54.4957 76.4034 54.4957 75.7913C54.4957 75.1817 54.6041 74.7133 54.8318 74.3959C55.0624 74.0744 55.4085 73.917 55.8589 73.917C56.3069 73.917 56.6518 74.0745 56.8817 74.396C57.1087 74.7134 57.2171 75.1817 57.2171 75.7913C57.2171 76.4034 57.1087 76.8718 56.8816 77.1886ZM55.1959 76.9142C55.3166 77.1075 55.5144 77.1841 55.8589 77.1841C56.2007 77.1841 56.3973 77.1076 56.5174 76.9143C56.6442 76.7104 56.6955 76.3639 56.6955 75.7913C56.6955 75.2214 56.6442 74.8748 56.5174 74.6701C56.3972 74.4761 56.2004 74.3985 55.8589 74.3985C55.5147 74.3985 55.3167 74.4762 55.196 74.6702C55.0686 74.8748 55.0173 75.2213 55.0173 75.7913C55.0173 76.3639 55.0686 76.7103 55.1959 76.9142ZM48.9914 75.7913C48.9914 77.004 48.5605 77.6003 47.6986 77.6003C46.8317 77.6003 46.4008 77.004 46.4008 75.7913C46.4008 74.5837 46.8317 73.9824 47.6986 73.9824C48.5605 73.9824 48.9914 74.5837 48.9914 75.7913ZM46.7916 75.7913C46.7916 76.9338 46.9921 77.2495 47.6986 77.2495C48.4001 77.2495 48.6005 76.9338 48.6005 75.7913C48.6005 74.6539 48.4001 74.3332 47.6986 74.3332C46.9921 74.3332 46.7916 74.6539 46.7916 75.7913ZM57.1517 75.7913C57.1517 77.004 56.7208 77.6003 55.8589 77.6003C54.992 77.6003 54.5611 77.004 54.5611 75.7913C54.5611 74.5837 54.992 73.9824 55.8589 73.9824C56.7208 73.9824 57.1517 74.5837 57.1517 75.7913ZM54.9519 75.7913C54.9519 76.9338 55.1524 77.2495 55.8589 77.2495C56.5604 77.2495 56.7609 76.9338 56.7609 75.7913C56.7609 74.6539 56.5604 74.3332 55.8589 74.3332C55.1524 74.3332 54.9519 74.6539 54.9519 75.7913Z" fill="#19313B"/>
<path d="M12.4183 36.1656H88.0174V57.2985H12.4183V36.1656Z" fill="#19313B"/>
<path d="M39.0719 40.3294H41.1664V53.261H39.0719V40.3294Z" fill="#FFFEFF"/>
<path d="M48.4519 49.1629C48.4519 51.1664 46.8126 51.3486 46.2662 51.3486C44.9913 51.3486 44.8092 50.1647 44.8092 49.5272V44.5185H42.7146V49.4361C42.7146 50.62 43.0789 51.7128 43.8074 52.3503C44.4449 52.9878 45.2645 53.261 46.2662 53.261C46.9948 53.261 47.9055 53.0788 48.4519 52.5324V53.261H50.5464V44.5185H48.4519V49.1629Z" fill="#FFFEFF"/>
<path d="M54.6444 41.3311H52.5499V44.5185H51.0017V46.522H52.5499V53.261H54.6444V46.522H56.1926V44.5185H54.6444V41.3311Z" fill="#FFFEFF"/>
<path d="M62.7495 50.62C62.2941 50.9843 61.6567 51.2575 61.0192 51.2575C59.5621 51.2575 58.5604 50.1647 58.5604 48.7076C58.5604 47.2505 59.5621 46.2488 61.0192 46.2488C61.6567 46.2488 62.2941 46.4309 62.7495 46.8863L63.0227 47.1595L64.4797 45.7934L64.1155 45.5202C63.2959 44.7917 62.2031 44.3364 61.0192 44.3364C58.4693 44.3364 56.5569 46.2488 56.5569 48.7987C56.5569 51.3486 58.4693 53.261 61.0192 53.261C62.2031 53.261 63.2959 52.8056 64.1155 52.0771L64.4797 51.8039L63.0227 50.3468L62.7495 50.62Z" fill="#FFFEFF"/>
<path d="M71.8562 45.2471C71.2187 44.6096 70.5813 44.3364 69.5795 44.3364C68.851 44.3364 68.1224 44.5185 67.576 45.0649V40.3294H65.4815V53.261H67.576V48.4344C67.576 46.4309 68.9421 46.2488 69.4885 46.2488C70.7634 46.2488 70.6723 47.4327 70.6723 48.0701V53.1699H72.7669V48.1612C72.7669 46.9773 72.4937 45.8845 71.8562 45.2471Z" fill="#FFFEFF"/>
<path d="M60.9281 50.2558C61.7328 50.2558 62.3852 49.6034 62.3852 48.7987C62.3852 47.994 61.7328 47.3416 60.9281 47.3416C60.1234 47.3416 59.471 47.994 59.471 48.7987C59.471 49.6034 60.1234 50.2558 60.9281 50.2558Z" fill="#FE0002"/>
<path d="M36.1577 50.0736C35.4292 50.8022 34.3364 51.2575 33.1525 51.2575C30.8758 51.2575 29.2366 49.4362 29.2366 46.9773C29.2366 44.5185 30.8758 42.6972 33.2436 42.6972C34.3364 42.6972 35.4292 43.1525 36.2488 43.9721L36.522 44.2453L37.888 42.8793L37.6148 42.6061C36.4309 41.4222 34.8828 40.7847 33.2436 40.7847C29.783 40.6937 27.2331 43.4257 27.2331 46.9773C27.2331 50.529 29.783 53.261 33.1525 53.261C34.7917 53.261 36.4309 52.6235 37.5237 51.4396L37.797 51.1664L36.4309 49.8004L36.1577 50.0736Z" fill="#FFFEFF"/>
</svg>
