<svg width="100" height="100" viewBox="0 0 100 100" fill="none" xmlns="http://www.w3.org/2000/svg">
<path d="M50 3L93.3013 26.4205V73.2614L50 96.6819L6.69873 73.2614V26.4205L50 3Z" fill="#6C797F"/>
<path fill-rule="evenodd" clip-rule="evenodd" d="M50 4.73384L8.22378 27.3295V72.3525L50 94.9481L91.7762 72.3525V27.3295L50 4.73384ZM93.3013 26.4205L50 3L6.69873 26.4205V73.2614L50 96.6819L93.3013 73.2614V26.4205Z" fill="white"/>
<path d="M13.8528 30.255L50 10.5667L86.1472 30.255V69.4835L50 89.1718L13.8528 69.4835V30.255Z" stroke="white" stroke-width="3"/>
<path d="M50 8.85864L87.6472 29.364V70.3746L50 90.8799L12.3528 70.3746V29.364L50 8.85864Z" fill="white"/>
<path fill-rule="evenodd" clip-rule="evenodd" d="M50 9.35481L12.7885 29.6228V70.1157L50 90.3837L87.2115 70.1157V29.6228L50 9.35481ZM87.6472 29.364L50 8.85864L12.3528 29.364V70.3746L50 90.8799L87.6472 70.3746V29.364Z" fill="#19313B"/>
<rect x="8.27887" y="36.9869" width="4.13943" height="25.7081" fill="#19313B"/>
<rect x="87.5817" y="36.9869" width="3.92157" height="25.7081" fill="#19313B"/>
<path fill-rule="evenodd" clip-rule="evenodd" d="M81.0509 37.3766H19.1834V37.1587H81.0509V37.3766Z" fill="#19313B"/>
<path fill-rule="evenodd" clip-rule="evenodd" d="M81.0509 62.6129H19.1834V62.395H81.0509V62.6129Z" fill="#19313B"/>
<path d="M46.9785 20.2756H44.5331V20.6364H45.5554V23.9336H45.9562V20.6364H46.9785V20.2756Z" fill="#19313B"/>
<path d="M49.8263 23.9837C50.7733 23.9837 51.2443 23.3674 51.2443 22.1146C51.2443 20.8519 50.7733 20.2255 49.8263 20.2255C48.8742 20.2255 48.4082 20.8519 48.4082 22.1146C48.4082 23.3674 48.8742 23.9837 49.8263 23.9837ZM49.8263 23.6279C49.0295 23.6279 48.809 23.2972 48.809 22.1146C48.809 20.917 49.0295 20.5813 49.8263 20.5813C50.618 20.5813 50.8435 20.917 50.8435 22.1146C50.8435 23.2972 50.618 23.6279 49.8263 23.6279Z" fill="#19313B"/>
<path d="M54.2207 20.2756H53.1033V23.9336H53.4941V22.4754H54.2107C54.9323 22.4754 55.283 22.1096 55.283 21.378C55.283 20.6414 54.9323 20.2756 54.2207 20.2756ZM54.1957 22.1397H53.4941V20.6114H54.2007C54.7469 20.6114 54.9022 20.7817 54.9022 21.378C54.9022 21.9743 54.7469 22.1397 54.1957 22.1397Z" fill="#19313B"/>
<path d="M34.39 28.1188H33.2726V31.7767H33.6634V30.3186H34.38C35.1016 30.3186 35.4523 29.9528 35.4523 29.2212C35.4523 28.4846 35.1016 28.1188 34.39 28.1188ZM34.365 29.9828H33.6634V28.4545H34.37C34.9162 28.4545 35.0715 28.6249 35.0715 29.2212C35.0715 29.8175 34.9162 29.9828 34.365 29.9828Z" fill="#19313B"/>
<path d="M39.0406 31.7767H39.4665L38.1587 28.1188H37.7829L36.47 31.7767H36.8859L37.1866 30.8898H38.7399L39.0406 31.7767ZM37.3018 30.5541L37.9633 28.5798L38.6297 30.5541H37.3018Z" fill="#19313B"/>
<path d="M42.4149 31.8268C42.7155 31.8268 42.9761 31.7817 43.1916 31.6815L43.1164 31.3257C42.931 31.426 42.7005 31.4811 42.4349 31.4811C41.533 31.4811 41.2824 31.1504 41.2824 29.9578C41.2824 28.7501 41.533 28.4194 42.4399 28.4194C42.6654 28.4194 42.8659 28.4595 43.0412 28.5447L43.1214 28.1989C42.921 28.1138 42.6905 28.0687 42.4249 28.0687C41.3877 28.0687 40.8816 28.695 40.8816 29.9578C40.8816 31.2105 41.3877 31.8268 42.4149 31.8268Z" fill="#19313B"/>
<path d="M47.4017 31.7767L45.703 29.9077L47.2614 28.1188H46.7553L45.2971 29.8576V28.1188H44.9063V31.7767H45.2971V29.9678L46.8655 31.7767H47.4017Z" fill="#19313B"/>
<path d="M51.3153 31.7767H51.7413L50.4334 28.1188H50.0576L48.7447 31.7767H49.1606L49.4613 30.8898H51.0147L51.3153 31.7767ZM49.5765 30.5541L50.238 28.5798L50.9044 30.5541H49.5765Z" fill="#19313B"/>
<path d="M54.4892 29.9277V30.2484H55.331V31.1504C55.1757 31.3708 54.9402 31.4811 54.6145 31.4811C53.7927 31.4811 53.5521 31.1504 53.5521 29.9578C53.5521 28.7501 53.8177 28.4144 54.7447 28.4144C55.0203 28.4144 55.2408 28.4645 55.4162 28.5698L55.4914 28.214C55.2809 28.1188 55.0253 28.0687 54.7297 28.0687C53.6774 28.0687 53.1563 28.695 53.1563 29.9578C53.1563 31.1554 53.6423 31.8268 54.5042 31.8268C54.9001 31.8268 55.2007 31.6865 55.4112 31.3909H55.4162L55.4613 31.7767H55.6718V29.9277H54.4892Z" fill="#19313B"/>
<path d="M57.5872 31.7767H57.988V28.1188H57.5872V31.7767Z" fill="#19313B"/>
<path d="M59.9438 31.7767H60.3246V28.9005L62.1987 31.7767H62.5244V28.1188H62.1486V31L60.2745 28.1188H59.9438V31.7767Z" fill="#19313B"/>
<path d="M65.6237 29.9277V30.2484H66.4656V31.1504C66.3102 31.3708 66.0747 31.4811 65.749 31.4811C64.9272 31.4811 64.6867 31.1504 64.6867 29.9578C64.6867 28.7501 64.9523 28.4144 65.8793 28.4144C66.1549 28.4144 66.3754 28.4645 66.5508 28.5698L66.6259 28.214C66.4155 28.1188 66.1599 28.0687 65.8643 28.0687C64.812 28.0687 64.2908 28.695 64.2908 29.9578C64.2908 31.1554 64.7769 31.8268 65.6388 31.8268C66.0346 31.8268 66.3353 31.6865 66.5457 31.3909H66.5508L66.5959 31.7767H66.8063V29.9277H65.6237Z" fill="#19313B"/>
<path fill-rule="evenodd" clip-rule="evenodd" d="M47.0438 20.2103V20.7018H46.0216V23.9989H45.49V20.7018H44.4678V20.2103H47.0438ZM44.5331 20.6364V20.2756H46.9785V20.6364H45.9562V23.9336H45.5554V20.6364H44.5331ZM50.9425 23.5585C50.6912 23.889 50.3152 24.049 49.8263 24.049C49.3349 24.049 48.9588 23.8891 48.7081 23.5584C48.4601 23.2313 48.3428 22.7471 48.3428 22.1146C48.3428 21.4772 48.4601 20.9882 48.7079 20.6574C48.9584 20.3229 49.3345 20.1602 49.8263 20.1602C50.3156 20.1602 50.6916 20.3229 50.9427 20.6573C51.1911 20.9881 51.3097 21.477 51.3097 22.1146C51.3097 22.7473 51.1911 23.2314 50.9425 23.5585ZM49.0731 23.2783C49.2093 23.4812 49.4349 23.5626 49.8263 23.5626C50.2149 23.5626 50.4407 23.4813 50.5776 23.2782C50.7205 23.0661 50.7781 22.707 50.7781 22.1146C50.7781 21.5147 50.7205 21.1504 50.5773 20.935C50.4403 20.729 50.2146 20.6466 49.8263 20.6466C49.4353 20.6466 49.2097 20.7291 49.0734 20.9349C48.9308 21.1502 48.8744 21.5145 48.8744 22.1146C48.8744 22.7072 48.9308 23.0663 49.0731 23.2783ZM53.0379 20.2103H54.2207C54.587 20.2103 54.8726 20.3045 55.0658 20.5053C55.2585 20.7055 55.3484 21.0004 55.3484 21.378C55.3484 21.7532 55.2585 22.047 55.0643 22.2466C54.8698 22.4466 54.5818 22.5408 54.2107 22.5408H53.5595V23.9989H53.0379V20.2103ZM53.4942 23.9336H53.1033V20.2756H54.2207C54.9323 20.2756 55.283 20.6414 55.283 21.378C55.283 22.1096 54.9323 22.4754 54.2107 22.4754H53.4942V23.9336ZM53.5595 22.0743H54.1957C54.4695 22.0743 54.6203 22.032 54.7078 21.938C54.7967 21.8423 54.8369 21.6757 54.8369 21.378C54.8369 21.0804 54.7968 20.9122 54.708 20.8152C54.6211 20.7201 54.4715 20.6767 54.2007 20.6767H53.5595V22.0743ZM33.2072 28.0534H34.39C34.7563 28.0534 35.0419 28.1477 35.2351 28.3484C35.4278 28.5487 35.5177 28.8436 35.5177 29.2212C35.5177 29.5964 35.4278 29.8901 35.2336 30.0898C35.0391 30.2898 34.7511 30.3839 34.38 30.3839H33.7288V31.8421H33.2072V28.0534ZM33.6634 31.7767H33.2726V28.1188H34.39C35.1016 28.1188 35.4523 28.4846 35.4523 29.2212C35.4523 29.9527 35.1016 30.3185 34.38 30.3185H33.6634V31.7767ZM33.7288 29.9175H34.365C34.6388 29.9175 34.7896 29.8752 34.8771 29.7811C34.966 29.6854 35.0061 29.5189 35.0061 29.2212C35.0061 28.9236 34.9661 28.7554 34.8773 28.6583C34.7904 28.5632 34.6407 28.5199 34.37 28.5199H33.7288V29.9175ZM38.9937 31.8421L38.6931 30.9551H37.2334L36.9328 31.8421H36.3771L37.7369 28.0534H38.2047L39.5593 31.8421H38.9937ZM37.1866 30.8898H38.7399L39.0406 31.7767H39.4665L38.1587 28.1188H37.7829L36.47 31.7767H36.8859L37.1866 30.8898ZM37.3018 30.5541H38.6297L37.9633 28.5798L37.3018 30.5541ZM37.3926 30.4887H38.5387L37.9635 28.7848L37.3926 30.4887ZM43.2663 31.7189L43.2191 31.7408C42.9924 31.8463 42.7216 31.8922 42.4149 31.8922C41.8877 31.8922 41.4832 31.7334 41.2125 31.4035C40.9439 31.0762 40.8162 30.5912 40.8162 29.9578C40.8162 29.3194 40.9438 28.8295 41.2136 28.4984C41.4855 28.1647 41.8926 28.0033 42.4249 28.0033C42.698 28.0033 42.9374 28.0497 43.147 28.1388L43.1975 28.1602L43.0864 28.6393L43.0127 28.6035C42.8479 28.5235 42.6577 28.4848 42.4399 28.4848C41.991 28.4848 41.7298 28.5673 41.5733 28.7751C41.4118 28.9894 41.3478 29.353 41.3478 29.9578C41.3478 30.5549 41.4118 30.9148 41.5726 31.1272C41.7284 31.3332 41.9886 31.4157 42.4349 31.4157C42.6916 31.4157 42.9111 31.3624 43.0853 31.2682L43.1623 31.2266L43.2663 31.7189ZM43.056 31.356C43.0766 31.3465 43.0968 31.3363 43.1164 31.3257L43.1916 31.6815C42.9761 31.7817 42.7155 31.8268 42.4149 31.8268C41.3877 31.8268 40.8816 31.2105 40.8816 29.9578C40.8816 28.695 41.3877 28.0687 42.4249 28.0687C42.6905 28.0687 42.921 28.1138 43.1214 28.1989L43.0412 28.5447C43.0213 28.535 43.0011 28.5259 42.9805 28.5174C42.82 28.4509 42.6398 28.4194 42.4399 28.4194C41.533 28.4194 41.2824 28.7501 41.2824 29.9578C41.2824 31.1504 41.533 31.4811 42.4349 31.4811C42.6724 31.4811 42.8818 31.437 43.056 31.356ZM47.5494 31.8421H46.8357L45.3625 30.1429V31.8421H44.8409V28.0534H45.3625V29.6779L46.7248 28.0534H47.405L45.7905 29.9067L47.5494 31.8421ZM45.703 29.9076L47.2614 28.1188H46.7553L45.2971 29.8575V28.1188H44.9063V31.7767H45.2971V29.9678L46.8655 31.7767H47.4017L45.703 29.9076ZM51.2685 31.8421L50.9678 30.9551H49.5082L49.2075 31.8421H48.6518L50.0116 28.0534H50.4795L51.834 31.8421H51.2685ZM49.4613 30.8898H51.0147L51.3153 31.7767H51.7413L50.4334 28.1188H50.0576L48.7447 31.7767H49.1606L49.4613 30.8898ZM49.5765 30.5541H50.9044L50.238 28.5798L49.5765 30.5541ZM49.6674 30.4887H50.8134L50.2382 28.7848L49.6674 30.4887ZM54.4238 29.8623H55.7371V31.8421H55.4031L55.3686 31.5469C55.1518 31.7812 54.8625 31.8922 54.5042 31.8922C54.054 31.8922 53.6966 31.7156 53.4541 31.3796C53.2137 31.0467 53.0909 30.564 53.0909 29.9578C53.0909 29.3191 53.2225 28.829 53.4982 28.4979C53.7758 28.1644 54.1902 28.0033 54.7297 28.0033C55.0325 28.0033 55.2976 28.0546 55.5183 28.1544L55.5662 28.1761L55.4612 28.673L55.3826 28.6258C55.2205 28.5285 55.0128 28.4798 54.7447 28.4798C54.2857 28.4798 54.0151 28.5636 53.8524 28.7733C53.6852 28.9888 53.6175 29.3534 53.6175 29.9578C53.6175 30.5549 53.6789 30.916 53.8286 31.1291C53.9726 31.334 54.21 31.4157 54.6145 31.4157C54.9149 31.4157 55.1249 31.3181 55.2657 31.1292V30.3138H54.4238V29.8623ZM55.331 31.1504C55.1757 31.3708 54.9402 31.4811 54.6145 31.4811C53.7927 31.4811 53.5521 31.1504 53.5521 29.9578C53.5521 28.7501 53.8177 28.4144 54.7447 28.4144C54.9899 28.4144 55.1914 28.454 55.3563 28.5368C55.3769 28.5471 55.3968 28.5581 55.4162 28.5697L55.4914 28.214C55.2809 28.1188 55.0253 28.0687 54.7297 28.0687C53.6774 28.0687 53.1563 28.695 53.1563 29.9578C53.1563 31.1554 53.6423 31.8268 54.5042 31.8268C54.8681 31.8268 55.1515 31.7083 55.3584 31.4595C55.3764 31.4378 55.3939 31.4152 55.4107 31.3915C55.4109 31.3913 55.411 31.3911 55.4112 31.3909H55.4162L55.4613 31.7767H55.6718V29.9277H54.4892V30.2484H55.331V31.1504ZM57.5218 31.8421V28.0534H58.0534V31.8421H57.5218ZM57.988 31.7767H57.5872V28.1188H57.988V31.7767ZM59.8784 31.8421V28.0534H60.31L62.0832 30.7797V28.0534H62.5897V31.8421H62.1633L60.39 29.1205V31.8421H59.8784ZM60.3246 28.9005L62.1987 31.7767H62.5244V28.1188H62.1486V31L60.2745 28.1188H59.9438V31.7767H60.3246V28.9005ZM65.5584 29.8623H66.8717V31.8421H66.5377L66.5032 31.5469C66.2863 31.7812 65.997 31.8922 65.6388 31.8922C65.1886 31.8922 64.8311 31.7156 64.5886 31.3796C64.3483 31.0467 64.2255 30.564 64.2255 29.9578C64.2255 29.3191 64.357 28.829 64.6327 28.4979C64.9104 28.1644 65.3247 28.0033 65.8643 28.0033C66.1671 28.0033 66.4322 28.0546 66.6529 28.1544L66.7007 28.1761L66.5958 28.673L66.5171 28.6258C66.355 28.5285 66.1473 28.4798 65.8793 28.4798C65.4203 28.4798 65.1497 28.5636 64.987 28.7733C64.8198 28.9888 64.7521 29.3534 64.7521 29.9578C64.7521 30.5549 64.8135 30.916 64.9632 31.1291C65.1072 31.334 65.3446 31.4157 65.749 31.4157C66.0494 31.4157 66.2595 31.3181 66.4002 31.1292V30.3138H65.5584V29.8623ZM66.4656 31.1504C66.3102 31.3708 66.0747 31.4811 65.749 31.4811C64.9272 31.4811 64.6867 31.1504 64.6867 29.9578C64.6867 28.7501 64.9523 28.4144 65.8793 28.4144C66.1244 28.4144 66.3259 28.454 66.4909 28.5368C66.5114 28.5471 66.5314 28.5581 66.5508 28.5697L66.6259 28.214C66.4155 28.1188 66.1599 28.0687 65.8643 28.0687C64.812 28.0687 64.2908 28.695 64.2908 29.9578C64.2908 31.1554 64.7769 31.8268 65.6388 31.8268C66.0027 31.8268 66.2861 31.7083 66.493 31.4595C66.511 31.4378 66.5284 31.4152 66.5453 31.3915C66.5454 31.3913 66.5456 31.3911 66.5457 31.3909H66.5508L66.5959 31.7767H66.8063V29.9277H65.6237V30.2484H66.4656V31.1504ZM51.2443 22.1146C51.2443 23.3673 50.7733 23.9837 49.8263 23.9837C48.8742 23.9837 48.4082 23.3673 48.4082 22.1146C48.4082 20.8519 48.8742 20.2255 49.8263 20.2255C50.7733 20.2255 51.2443 20.8519 51.2443 22.1146ZM48.809 22.1146C48.809 23.2972 49.0295 23.6279 49.8263 23.6279C50.618 23.6279 50.8435 23.2972 50.8435 22.1146C50.8435 20.917 50.618 20.5813 49.8263 20.5813C49.0295 20.5813 48.809 20.917 48.809 22.1146ZM54.1957 22.1397C54.7469 22.1397 54.9022 21.9743 54.9022 21.378C54.9022 20.7817 54.7469 20.6114 54.2007 20.6114H53.4942V22.1397H54.1957ZM34.365 29.9828C34.9162 29.9828 35.0715 29.8175 35.0715 29.2212C35.0715 28.6249 34.9162 28.4545 34.37 28.4545H33.6634V29.9828H34.365Z" fill="#19313B"/>
<path d="M33.3781 72.707H34.4705C35.4626 72.707 35.9537 72.1057 35.9537 70.888C35.9537 69.6603 35.4626 69.049 34.4705 69.049H33.3781V72.707ZM33.7689 72.3662V69.3898H34.4705C35.3173 69.3898 35.5528 69.7155 35.5528 70.888C35.5528 72.0455 35.3173 72.3662 34.4705 72.3662H33.7689Z" fill="#19313B"/>
<path d="M38.2014 72.3662V71.0183H39.7297V70.6826H38.2014V69.3898H39.8751V69.049H37.8106V72.707H39.9252V72.3662H38.2014Z" fill="#19313B"/>
<path d="M42.5165 72.7571C43.3033 72.7571 43.6941 72.4113 43.6941 71.6998C43.6941 71.1837 43.4235 70.9782 42.7871 70.7176C42.1006 70.437 41.9403 70.3619 41.9403 69.956C41.9403 69.4799 42.0956 69.3497 42.6318 69.3497C42.9425 69.3497 43.2131 69.4198 43.4486 69.5601L43.5338 69.1943C43.2582 69.064 42.9575 69.0039 42.6168 69.0039C41.9052 69.0039 41.5494 69.3196 41.5494 69.966C41.5494 70.5022 41.8401 70.7176 42.4414 70.9682C43.1529 71.2588 43.2932 71.334 43.2932 71.7348C43.2932 72.266 43.1229 72.4113 42.5165 72.4113C42.1758 72.4113 41.8651 72.3412 41.5745 72.2059L41.4893 72.5616C41.79 72.6969 42.1307 72.7571 42.5165 72.7571Z" fill="#19313B"/>
<path d="M45.4669 72.707H45.8677V69.049H45.4669V72.707Z" fill="#19313B"/>
<path d="M49.0122 70.8579V71.1786H49.8541V72.0806C49.6987 72.3011 49.4632 72.4113 49.1375 72.4113C48.3157 72.4113 48.0752 72.0806 48.0752 70.888C48.0752 69.6804 48.3408 69.3447 49.2678 69.3447C49.5434 69.3447 49.7639 69.3948 49.9392 69.5L50.0144 69.1442C49.8039 69.049 49.5484 68.9989 49.2528 68.9989C48.2005 68.9989 47.6793 69.6253 47.6793 70.888C47.6793 72.0856 48.1654 72.7571 49.0273 72.7571C49.4231 72.7571 49.7238 72.6168 49.9342 72.3211H49.9392L49.9843 72.707H50.1948V70.8579H49.0122Z" fill="#19313B"/>
<path d="M52.0651 72.707H52.4459V69.8307L54.32 72.707H54.6457V69.049H54.2699V71.9303L52.3958 69.049H52.0651V72.707Z" fill="#19313B"/>
<path d="M56.9923 72.3662V71.0183H58.5206V70.6826H56.9923V69.3898H58.6659V69.049H56.6014V72.707H58.716V72.3662H56.9923Z" fill="#19313B"/>
<path d="M60.4956 72.707H60.8865V71.1436H61.4226L62.3948 72.707H62.8658L61.8486 71.1135C62.4348 71.0333 62.7305 70.6926 62.7305 70.0963C62.7305 69.3998 62.3647 69.049 61.6331 69.049H60.4956V72.707ZM60.8815 70.8229V69.3747H61.6131C62.1793 69.3747 62.3497 69.5351 62.3497 70.0963C62.3497 70.6625 62.1793 70.8229 61.603 70.8229H60.8815Z" fill="#19313B"/>
<path d="M65.3973 72.7571C66.1841 72.7571 66.5749 72.4113 66.5749 71.6998C66.5749 71.1837 66.3043 70.9782 65.6679 70.7176C64.9814 70.437 64.8211 70.3619 64.8211 69.956C64.8211 69.4799 64.9764 69.3497 65.5126 69.3497C65.8233 69.3497 66.0939 69.4198 66.3294 69.5601L66.4146 69.1943C66.139 69.064 65.8383 69.0039 65.4976 69.0039C64.786 69.0039 64.4302 69.3196 64.4302 69.966C64.4302 70.5022 64.7209 70.7176 65.3222 70.9682C66.0337 71.2588 66.174 71.334 66.174 71.7348C66.174 72.266 66.0037 72.4113 65.3973 72.4113C65.0566 72.4113 64.7459 72.3412 64.4553 72.2059L64.3701 72.5616C64.6708 72.6969 65.0115 72.7571 65.3973 72.7571Z" fill="#19313B"/>
<path d="M43.2015 80.5501H45.3612V80.1993H43.7477L44.6146 79.2473C45.1257 78.6911 45.3312 78.3503 45.3312 77.9194C45.3312 77.3281 44.9604 76.9823 44.3139 76.9823C43.9331 76.9823 43.5924 77.0725 43.2867 77.2429L43.3719 77.5987C43.6575 77.4233 43.9632 77.3381 44.2939 77.3381C44.795 77.3381 44.9403 77.4734 44.9403 77.9444C44.9403 78.2451 44.78 78.5257 44.3139 79.0368L43.2015 80.2645V80.5501Z" fill="#19313B"/>
<path d="M48.3959 80.6002C49.2578 80.6002 49.6887 80.0039 49.6887 78.7913C49.6887 77.5837 49.2578 76.9823 48.3959 76.9823C47.529 76.9823 47.0981 77.5837 47.0981 78.7913C47.0981 80.0039 47.529 80.6002 48.3959 80.6002ZM48.3959 80.2494C47.6894 80.2494 47.4889 79.9338 47.4889 78.7913C47.4889 77.6538 47.6894 77.3331 48.3959 77.3331C49.0974 77.3331 49.2979 77.6538 49.2979 78.7913C49.2979 79.9338 49.0974 80.2494 48.3959 80.2494Z" fill="#19313B"/>
<path d="M51.3618 80.5501H53.5215V80.1993H51.908L52.7749 79.2473C53.286 78.6911 53.4915 78.3503 53.4915 77.9194C53.4915 77.3281 53.1207 76.9823 52.4743 76.9823C52.0934 76.9823 51.7527 77.0725 51.447 77.2429L51.5322 77.5987C51.8178 77.4233 52.1235 77.3381 52.4542 77.3381C52.9553 77.3381 53.1006 77.4734 53.1006 77.9444C53.1006 78.2451 52.9403 78.5257 52.4743 79.0368L51.3618 80.2645V80.5501Z" fill="#19313B"/>
<path d="M55.9499 80.5501H56.3307V77.0325H56L55.0028 77.5536L55.1432 77.8592L55.9499 77.4584V80.5501Z" fill="#19313B"/>
<path fill-rule="evenodd" clip-rule="evenodd" d="M33.3127 72.7724V68.9837H34.4705C34.9807 68.9837 35.3727 69.1416 35.635 69.4672C35.8952 69.7901 36.019 70.2673 36.019 70.8881C36.019 71.5039 35.8951 71.9763 35.6348 72.2955C35.3723 72.6172 34.9803 72.7724 34.4705 72.7724H33.3127ZM34.4705 72.707C35.4626 72.707 35.9537 72.1057 35.9537 70.8881C35.9537 69.6604 35.4626 69.0491 34.4705 69.0491H33.3781V72.707H34.4705ZM33.8343 69.4552V72.3009H34.4705C34.8886 72.3009 35.131 72.2212 35.2765 72.0226C35.4272 71.8169 35.4874 71.4678 35.4874 70.8881C35.4874 70.3007 35.4272 69.9465 35.2762 69.7375C35.1307 69.536 34.8883 69.4552 34.4705 69.4552H33.8343ZM39.9252 72.3663V72.707H37.8106V69.0491H39.8751V69.3898H38.2014V70.6826H39.7297V71.0183H38.2014V72.3663H39.9252ZM38.2668 72.3009H39.9905V72.7724H37.7452V68.9837H39.9404V69.4552H38.2668V70.6173H39.7951V71.0837H38.2668V72.3009ZM42.8119 70.6572C43.1302 70.7875 43.3682 70.9081 43.5257 71.0669C43.6874 71.23 43.7595 71.4283 43.7595 71.6998C43.7595 72.0674 43.6582 72.3523 43.4439 72.544C43.231 72.7344 42.918 72.8225 42.5165 72.8225C42.124 72.8225 41.7736 72.7613 41.4625 72.6213L41.4131 72.5991L41.5296 72.1129L41.6021 72.1467C41.884 72.2779 42.1852 72.346 42.5165 72.346C42.8199 72.346 42.9911 72.3083 43.0894 72.223C43.1846 72.1404 43.2279 71.9979 43.2279 71.7349C43.2279 71.6377 43.2192 71.5665 43.1986 71.5088C43.1786 71.4529 43.1461 71.4061 43.0918 71.3601C43.0362 71.3129 42.9579 71.2666 42.8464 71.2132C42.7352 71.16 42.5948 71.1015 42.4167 71.0287L42.4162 71.0286C42.1151 70.9031 41.881 70.7824 41.723 70.6198C41.5613 70.4533 41.4841 70.248 41.4841 69.9661C41.4841 69.6311 41.5766 69.37 41.7726 69.194C41.9673 69.0192 42.2527 68.9386 42.6168 68.9386C42.9655 68.9386 43.276 69.0002 43.5617 69.1353L43.6094 69.1578L43.4919 69.6621L43.4151 69.6163C43.1909 69.4828 42.9322 69.4151 42.6318 69.4151C42.3637 69.4151 42.2137 69.449 42.1279 69.5237C42.0451 69.5957 42.0056 69.7208 42.0056 69.956C42.0056 70.0539 42.0154 70.1258 42.0372 70.1838C42.0585 70.2404 42.0927 70.2876 42.148 70.3336C42.2047 70.3806 42.2833 70.4262 42.3932 70.4783C42.5028 70.5303 42.6399 70.5869 42.8119 70.6572ZM43.3892 69.5267C43.1679 69.4087 42.9167 69.3497 42.6318 69.3497C42.0956 69.3497 41.9403 69.48 41.9403 69.956C41.9403 70.3619 42.1006 70.4371 42.7871 70.7177C43.4235 70.9783 43.6941 71.1837 43.6941 71.6998C43.6941 72.4114 43.3033 72.7571 42.5165 72.7571C42.1307 72.7571 41.79 72.697 41.4893 72.5617L41.5745 72.2059C41.5946 72.2153 41.6149 72.2244 41.6352 72.2331C41.9083 72.3506 42.1994 72.4114 42.5165 72.4114C43.1229 72.4114 43.2932 72.2661 43.2932 71.7349C43.2932 71.334 43.1529 71.2589 42.4414 70.9682C41.8401 70.7177 41.5494 70.5022 41.5494 69.9661C41.5494 69.3197 41.9052 69.004 42.6168 69.004C42.9575 69.004 43.2582 69.0641 43.5338 69.1944L43.4486 69.5602C43.429 69.5485 43.4093 69.5374 43.3892 69.5267ZM45.4015 72.7724V68.9837H45.9331V72.7724H45.4015ZM45.8677 72.707H45.4669V69.0491H45.8677V72.707ZM48.9469 70.7926H50.2602V72.7724H49.9262L49.8917 72.4772C49.6748 72.7115 49.3855 72.8225 49.0273 72.8225C48.5771 72.8225 48.2196 72.6459 47.9771 72.3099C47.7368 71.977 47.614 71.4943 47.614 70.8881C47.614 70.2494 47.7455 69.7593 48.0212 69.4282C48.2988 69.0947 48.7132 68.9336 49.2527 68.9336C49.5556 68.9336 49.8207 68.9849 50.0413 69.0847L50.0892 69.1064L49.9842 69.6033L49.9056 69.5561C49.7435 69.4588 49.5358 69.4101 49.2678 69.4101C48.8088 69.4101 48.5382 69.4939 48.3755 69.7036C48.2083 69.9191 48.1405 70.2837 48.1405 70.8881C48.1405 71.4852 48.2019 71.8463 48.3516 72.0594C48.4957 72.2643 48.7331 72.346 49.1375 72.346C49.4379 72.346 49.648 72.2484 49.7887 72.0595V71.2441H48.9469V70.7926ZM49.8541 72.0807C49.6987 72.3011 49.4632 72.4114 49.1375 72.4114C48.3157 72.4114 48.0752 72.0807 48.0752 70.8881C48.0752 69.6804 48.3408 69.3447 49.2678 69.3447C49.5129 69.3447 49.7144 69.3843 49.8794 69.4671C49.8999 69.4774 49.9198 69.4884 49.9392 69.5L50.0144 69.1443C49.8039 69.0491 49.5484 68.999 49.2527 68.999C48.2005 68.999 47.6793 69.6253 47.6793 70.8881C47.6793 72.0857 48.1654 72.7571 49.0273 72.7571C49.3911 72.7571 49.6746 72.6386 49.8815 72.3898C49.8995 72.3681 49.9169 72.3455 49.9338 72.3218C49.9339 72.3216 49.9341 72.3214 49.9342 72.3212H49.9392L49.9843 72.707H50.1948V70.858H49.0122V71.1787H49.8541V72.0807ZM51.9998 72.7724V68.9837H52.4313L54.2045 71.71V68.9837H54.7111V72.7724H54.2846L52.5113 70.0508V72.7724H51.9998ZM52.4459 69.8308L54.32 72.707H54.6457V69.0491H54.2699V71.9303L52.3958 69.0491H52.0651V72.707H52.4459V69.8308ZM58.716 72.3663V72.707H56.6014V69.0491H58.6659V69.3898H56.9923V70.6826H58.5206V71.0183H56.9923V72.3663H58.716ZM57.0576 72.3009H58.7814V72.7724H56.5361V68.9837H58.7313V69.4552H57.0576V70.6173H58.5859V71.0837H57.0576V72.3009ZM60.4303 72.7724V68.9837H61.6331C62.0083 68.9837 62.3018 69.0736 62.5013 69.2643C62.7014 69.4554 62.7958 69.7372 62.7958 70.0963C62.7958 70.405 62.7192 70.6563 62.5588 70.8413C62.4162 71.0057 62.2133 71.1111 61.9569 71.1618L62.985 72.7724H62.3584L61.3863 71.209H60.9518V72.7724H60.4303ZM61.4226 71.1436L62.3948 72.707H62.8658L61.8486 71.1135C61.8725 71.1103 61.896 71.1066 61.919 71.1024C62.4585 71.0051 62.7305 70.6683 62.7305 70.0963C62.7305 69.3998 62.3647 69.0491 61.6331 69.0491H60.4956V72.707H60.8865V71.1436H61.4226ZM60.9468 69.4401V70.7576H61.603C61.89 70.7576 62.0525 70.7164 62.147 70.625C62.2408 70.5342 62.2843 70.3775 62.2843 70.0963C62.2843 69.8178 62.2409 69.6622 62.1481 69.572C62.0548 69.4812 61.8948 69.4401 61.6131 69.4401H60.9468ZM65.6927 70.6572C66.011 70.7875 66.249 70.9081 66.4065 71.0669C66.5682 71.23 66.6403 71.4283 66.6403 71.6998C66.6403 72.0674 66.539 72.3523 66.3247 72.544C66.1118 72.7344 65.7988 72.8225 65.3973 72.8225C65.0048 72.8225 64.6544 72.7613 64.3433 72.6213L64.2939 72.5991L64.4104 72.1129L64.4829 72.1467C64.7648 72.2779 65.066 72.346 65.3973 72.346C65.7007 72.346 65.8719 72.3083 65.9702 72.223C66.0654 72.1404 66.1087 71.9979 66.1087 71.7349C66.1087 71.6377 66.1 71.5665 66.0794 71.5088C66.0594 71.4529 66.0269 71.4061 65.9726 71.3601C65.917 71.3129 65.8387 71.2666 65.7272 71.2132C65.616 71.16 65.4756 71.1015 65.2975 71.0287L65.297 71.0286C64.9959 70.9031 64.7618 70.7824 64.6038 70.6198C64.4421 70.4533 64.3649 70.248 64.3649 69.9661C64.3649 69.6311 64.4574 69.37 64.6534 69.194C64.8481 69.0192 65.1335 68.9386 65.4976 68.9386C65.8463 68.9386 66.1568 69.0002 66.4425 69.1353L66.4902 69.1578L66.3727 69.6621L66.2959 69.6163C66.0717 69.4828 65.813 69.4151 65.5126 69.4151C65.2445 69.4151 65.0945 69.449 65.0087 69.5237C64.9259 69.5957 64.8864 69.7208 64.8864 69.956C64.8864 70.0539 64.8962 70.1258 64.918 70.1838C64.9393 70.2404 64.9735 70.2876 65.0288 70.3336C65.0855 70.3806 65.1641 70.4262 65.274 70.4783C65.3836 70.5303 65.5207 70.5869 65.6927 70.6572ZM66.27 69.5267C66.0487 69.4087 65.7975 69.3497 65.5126 69.3497C64.9764 69.3497 64.8211 69.48 64.8211 69.956C64.8211 70.3619 64.9814 70.4371 65.6679 70.7177C66.3043 70.9783 66.5749 71.1837 66.5749 71.6998C66.5749 72.4114 66.184 72.7571 65.3973 72.7571C65.0115 72.7571 64.6708 72.697 64.3701 72.5617L64.4553 72.2059C64.4754 72.2153 64.4957 72.2244 64.516 72.2331C64.7891 72.3506 65.0802 72.4114 65.3973 72.4114C66.0037 72.4114 66.174 72.2661 66.174 71.7349C66.174 71.334 66.0337 71.2589 65.3222 70.9682C64.7209 70.7177 64.4302 70.5022 64.4302 69.9661C64.4302 69.3197 64.786 69.004 65.4976 69.004C65.8383 69.004 66.139 69.0641 66.4145 69.1944L66.3294 69.5602C66.3098 69.5485 66.2901 69.5374 66.27 69.5267ZM43.1362 80.6155V80.2393L44.2655 78.993C44.7318 78.4815 44.8749 78.2176 44.8749 77.9445C44.8749 77.7112 44.8378 77.585 44.7603 77.5124C44.6814 77.4385 44.5435 77.4035 44.2939 77.4035C43.9752 77.4035 43.6814 77.4854 43.4061 77.6544L43.3293 77.7016L43.2116 77.21L43.2549 77.1859C43.5705 77.0099 43.9223 76.917 44.3139 76.917C44.6483 76.917 44.9203 77.0065 45.1093 77.1812C45.299 77.3565 45.3965 77.6098 45.3965 77.9194C45.3965 78.377 45.1751 78.7339 44.6629 79.2913M44.6146 79.2473L43.7477 80.1994H45.3612V80.5502H43.2015V80.2645L44.3139 79.0369C44.78 78.5258 44.9403 78.2451 44.9403 77.9445C44.9403 77.4735 44.795 77.3382 44.2939 77.3382C43.9858 77.3382 43.6994 77.4121 43.4308 77.564C43.4111 77.5752 43.3914 77.5867 43.3719 77.5987L43.2867 77.243C43.5924 77.0726 43.9331 76.9824 44.3139 76.9824C44.9604 76.9824 45.3312 77.3281 45.3312 77.9194C45.3312 78.3504 45.1257 78.6911 44.6146 79.2473ZM43.8956 80.134H45.4266V80.6155H43.1362M43.8956 80.134L44.6627 79.2915L43.8956 80.134ZM49.4186 80.1886C49.1887 80.5095 48.8438 80.6656 48.3959 80.6656C47.9457 80.6656 47.5995 80.5096 47.3688 80.1887C47.1411 79.8718 47.0327 79.4034 47.0327 78.7913C47.0327 78.1817 47.1411 77.7133 47.3688 77.3959C47.5994 77.0744 47.9455 76.917 48.3959 76.917C48.8439 76.917 49.1888 77.0745 49.4187 77.396C49.6457 77.7134 49.7541 78.1817 49.7541 78.7913C49.7541 79.4034 49.6457 79.8718 49.4186 80.1886ZM47.7329 79.9142C47.8536 80.1075 48.0514 80.1841 48.3959 80.1841C48.7377 80.1841 48.9343 80.1076 49.0544 79.9143C49.1812 79.7104 49.2325 79.3639 49.2325 78.7913C49.2325 78.2214 49.1812 77.8748 49.0544 77.6701C48.9342 77.4761 48.7374 77.3985 48.3959 77.3985C48.0517 77.3985 47.8537 77.4762 47.733 77.6702C47.6056 77.8748 47.5543 78.2213 47.5543 78.7913C47.5543 79.3639 47.6056 79.7103 47.7329 79.9142ZM51.2965 80.6155V80.2393L52.4258 78.993C52.8922 78.4815 53.0353 78.2176 53.0353 77.9445C53.0353 77.7112 52.9981 77.585 52.9206 77.5124C52.8417 77.4385 52.7039 77.4035 52.4542 77.4035C52.1355 77.4035 51.8417 77.4854 51.5664 77.6544L51.4896 77.7016L51.3719 77.21L51.4152 77.1859C51.7309 77.0099 52.0826 76.917 52.4743 76.917C52.8086 76.917 53.0807 77.0065 53.2696 77.1812C53.4593 77.3565 53.5568 77.6098 53.5568 77.9194C53.5568 78.377 53.3355 78.7339 52.8232 79.2913M52.7749 79.2473L51.908 80.1994H53.5215V80.5502H51.3618V80.2645L52.4743 79.0369C52.9403 78.5258 53.1006 78.2451 53.1006 77.9445C53.1006 77.4735 52.9553 77.3382 52.4542 77.3382C52.1461 77.3382 51.8598 77.4121 51.5911 77.564C51.5714 77.5752 51.5518 77.5867 51.5322 77.5987L51.447 77.243C51.7527 77.0726 52.0934 76.9824 52.4743 76.9824C53.1207 76.9824 53.4915 77.3281 53.4915 77.9194C53.4915 78.3504 53.286 78.6911 52.7749 79.2473ZM52.0559 80.134H53.5869V80.6155H51.2965M52.0559 80.134L52.823 79.2915L52.0559 80.134ZM55.8845 80.6155V77.5639L55.1119 77.9478L54.9175 77.5245L55.984 76.9671H56.3961V80.6155H55.8845ZM55.9499 77.4584V80.5502H56.3307V77.0325H56L55.0028 77.5536L55.1431 77.8593L55.9499 77.4584ZM33.7689 72.3663H34.4705C35.3173 72.3663 35.5528 72.0456 35.5528 70.8881C35.5528 69.7155 35.3173 69.3898 34.4705 69.3898H33.7689V72.3663ZM60.8815 70.8229H61.603C62.1793 70.8229 62.3497 70.6626 62.3497 70.0963C62.3497 69.5351 62.1793 69.3748 61.6131 69.3748H60.8815V70.8229ZM49.6887 78.7913C49.6887 80.004 49.2578 80.6003 48.3959 80.6003C47.529 80.6003 47.0981 80.004 47.0981 78.7913C47.0981 77.5837 47.529 76.9824 48.3959 76.9824C49.2578 76.9824 49.6887 77.5837 49.6887 78.7913ZM47.4889 78.7913C47.4889 79.9338 47.6894 80.2495 48.3959 80.2495C49.0974 80.2495 49.2979 79.9338 49.2979 78.7913C49.2979 77.6539 49.0974 77.3332 48.3959 77.3332C47.6894 77.3332 47.4889 77.6539 47.4889 78.7913Z" fill="#19313B"/>
<path d="M12.4183 39.1656H88.0174V60.2985H12.4183V39.1656Z" fill="#19313B"/>
<path d="M39.0719 43.3294H41.1664V56.261H39.0719V43.3294Z" fill="#FFFEFF"/>
<path d="M48.4519 52.1629C48.4519 54.1664 46.8126 54.3486 46.2662 54.3486C44.9913 54.3486 44.8092 53.1647 44.8092 52.5272V47.5185H42.7146V52.4361C42.7146 53.62 43.0789 54.7128 43.8074 55.3503C44.4449 55.9878 45.2645 56.261 46.2662 56.261C46.9948 56.261 47.9055 56.0788 48.4519 55.5324V56.261H50.5464V47.5185H48.4519V52.1629Z" fill="#FFFEFF"/>
<path d="M54.6444 44.3311H52.5499V47.5185H51.0017V49.522H52.5499V56.261H54.6444V49.522H56.1926V47.5185H54.6444V44.3311Z" fill="#FFFEFF"/>
<path d="M62.7495 53.62C62.2941 53.9843 61.6567 54.2575 61.0192 54.2575C59.5621 54.2575 58.5604 53.1647 58.5604 51.7076C58.5604 50.2505 59.5621 49.2488 61.0192 49.2488C61.6567 49.2488 62.2941 49.4309 62.7495 49.8863L63.0227 50.1595L64.4797 48.7934L64.1155 48.5202C63.2959 47.7917 62.2031 47.3364 61.0192 47.3364C58.4693 47.3364 56.5569 49.2488 56.5569 51.7987C56.5569 54.3486 58.4693 56.261 61.0192 56.261C62.2031 56.261 63.2959 55.8056 64.1155 55.0771L64.4797 54.8039L63.0227 53.3468L62.7495 53.62Z" fill="#FFFEFF"/>
<path d="M71.8562 48.2471C71.2187 47.6096 70.5813 47.3364 69.5795 47.3364C68.851 47.3364 68.1224 47.5185 67.576 48.0649V43.3294H65.4815V56.261H67.576V51.4344C67.576 49.4309 68.9421 49.2488 69.4885 49.2488C70.7634 49.2488 70.6723 50.4327 70.6723 51.0701V56.1699H72.7669V51.1612C72.7669 49.9773 72.4937 48.8845 71.8562 48.2471Z" fill="#FFFEFF"/>
<path d="M60.9281 53.2558C61.7328 53.2558 62.3852 52.6034 62.3852 51.7987C62.3852 50.994 61.7328 50.3416 60.9281 50.3416C60.1234 50.3416 59.471 50.994 59.471 51.7987C59.471 52.6034 60.1234 53.2558 60.9281 53.2558Z" fill="#FE0002"/>
<path d="M36.1577 53.0736C35.4292 53.8022 34.3364 54.2575 33.1525 54.2575C30.8758 54.2575 29.2366 52.4362 29.2366 49.9773C29.2366 47.5185 30.8758 45.6972 33.2436 45.6972C34.3364 45.6972 35.4292 46.1525 36.2488 46.9721L36.522 47.2453L37.888 45.8793L37.6148 45.6061C36.4309 44.4222 34.8828 43.7847 33.2436 43.7847C29.783 43.6937 27.2331 46.4257 27.2331 49.9773C27.2331 53.529 29.783 56.261 33.1525 56.261C34.7917 56.261 36.4309 55.6235 37.5237 54.4396L37.797 54.1664L36.4309 52.8004L36.1577 53.0736Z" fill="#FFFEFF"/>
</svg>
