<svg width="100" height="100" viewBox="0 0 100 100" fill="none" xmlns="http://www.w3.org/2000/svg">
<path d="M26.9594 46.2874L24.7816 43.5106H14.6281C14.8195 43.253 26.9437 27.29 26.9437 27.29H9.06455L11.2131 30.0339H21.4017C21.2105 30.2836 9.03114 46.2816 9.03114 46.2816L26.9592 46.2878L26.9594 46.2874Z" fill="#0679EA"/>
<path d="M58.4183 27.2897H50.1383V46.2256H52.9679V30.116H58.0182C62.9846 30.116 65.9507 32.3817 65.9507 36.1831V46.227H68.7745V36.038C68.7745 31.6841 65.5725 27.2897 58.4181 27.2897" fill="#0679EA"/>
<path d="M86.964 21.8848L86.9624 27.2885H80.427C75.6557 27.2885 71.9109 30.4244 71.1127 35.0962C71.0423 35.645 71.0039 36.1975 70.9976 36.7509C71.0022 37.2894 71.0407 37.8272 71.1127 38.3609C71.4743 40.571 72.6094 42.5808 74.3154 44.0317C76.0215 45.4825 78.1875 46.28 80.427 46.2819L89.4524 46.2882V20L86.9645 21.8851L86.964 21.8848ZM86.6224 30.1141V43.466H80.374C77.4371 43.466 74.6679 41.1964 73.9381 38.1906C73.9381 38.1874 73.8269 36.7504 73.8269 36.7504C73.8335 36.2653 73.8706 35.781 73.9381 35.3005C74.6113 32.1977 77.2828 30.1332 80.6002 30.1332C80.6002 30.1332 86.4625 30.1136 86.6224 30.1136" fill="#0679EA"/>
<path d="M47.2574 37.8055L47.3063 36.7675C47.3142 34.2171 46.3652 31.7565 44.6468 29.8719C42.9284 27.9874 40.5656 26.8159 38.0254 26.5891C35.4851 26.3622 32.9521 27.0964 30.927 28.6467C28.9018 30.1969 27.5318 32.4504 27.0877 34.9618C26.6436 37.4732 27.1576 40.0598 28.5282 42.2106C29.8989 44.3614 32.0264 45.9198 34.4904 46.5779C36.9544 47.236 39.5757 46.946 41.8362 45.7651C44.0967 44.5841 45.832 42.5983 46.6992 40.1999H43.6785C42.9549 41.585 41.8098 42.7042 40.4086 43.396C39.0074 44.0878 37.4225 44.3163 35.8829 44.0485C34.3434 43.7807 32.9287 43.0305 31.8434 41.9062C30.758 40.7819 30.0581 39.3418 29.8447 37.7937H44.6504L47.2574 37.8048V37.8055ZM29.9988 34.9642C30.3953 33.3674 31.3147 31.9493 32.6107 30.9357C33.9067 29.9221 35.5046 29.3715 37.1499 29.3715C38.7951 29.3715 40.3931 29.9221 41.689 30.9357C42.985 31.9493 43.9045 33.3674 44.3009 34.9642H29.9988Z" fill="#0679EA"/>
<path d="M18.6876 62.1793C18.2723 62.3365 17.829 62.4487 17.3577 62.516C16.8863 62.5946 16.3196 62.6339 15.6574 62.6339C14.7596 62.6339 14.0189 62.5048 13.4353 62.2467C12.8629 61.9886 12.4028 61.607 12.0549 61.1019C11.7182 60.5969 11.4825 59.9684 11.3478 59.2165C11.2131 58.4646 11.1458 57.5892 11.1458 56.5903C11.1458 54.66 11.5218 53.2122 12.2737 52.2471C13.0369 51.2707 14.2545 50.7825 15.9268 50.7825C16.5665 50.7825 17.122 50.833 17.5934 50.934C18.0647 51.035 18.3958 51.1304 18.5866 51.2202L18.4856 52.7016C18.2723 52.6118 17.9581 52.5276 17.5429 52.4491C17.1276 52.3593 16.6731 52.3144 16.1793 52.3144C15.4835 52.3144 14.9335 52.4379 14.5295 52.6848C14.1255 52.9317 13.8169 53.2571 13.6036 53.6611C13.3904 54.054 13.2501 54.5085 13.1828 55.0247C13.1266 55.5298 13.0986 56.0516 13.0986 56.5903C13.0986 57.1739 13.1266 57.7407 13.1828 58.2906C13.2389 58.8293 13.3679 59.3063 13.5699 59.7215C13.7832 60.1368 14.0918 60.4735 14.4958 60.7316C14.9111 60.9785 15.4722 61.1019 16.1793 61.1019C16.718 61.1019 17.1949 61.057 17.6102 60.9673C18.0367 60.8775 18.3621 60.7877 18.5866 60.6979L18.6876 62.1793Z" fill="#0679EA"/>
<path d="M28.1417 62.4319H21.0712V50.9845H27.9397V52.4827H22.9567V55.8833H27.6366V57.2974H22.9567V60.9336H28.1417V62.4319Z" fill="#0679EA"/>
<path d="M39.4087 62.4319H37.1698L34.7119 57.8866H32.574V62.4319H30.6885V50.9845H35.2338C36.3898 50.9845 37.2932 51.2594 37.9441 51.8094C38.5951 52.3481 38.9205 53.1954 38.9205 54.3514C38.9205 54.8339 38.8588 55.2548 38.7354 55.6139C38.6231 55.9618 38.4604 56.2649 38.2472 56.523C38.0339 56.7811 37.787 56.9944 37.5065 57.1627C37.2259 57.331 36.9285 57.4657 36.6142 57.5667L39.4087 62.4319ZM37.0014 54.4187C37.0014 53.8014 36.8331 53.3188 36.4964 52.9709C36.1709 52.6118 35.6322 52.4322 34.8803 52.4322H32.574V56.5062L34.4763 56.4893C35.3853 56.4893 36.0306 56.3098 36.4122 55.9506C36.805 55.5803 37.0014 55.0696 37.0014 54.4187Z" fill="#0679EA"/>
<path d="M48.9444 52.5837H45.7963V62.4319H43.9109V52.5837H40.746V50.9845H48.9444V52.5837Z" fill="#0679EA"/>
<path d="M52.9265 62.4319H51.041V50.9845H52.9265V62.4319Z" fill="#0679EA"/>
<path d="M62.5572 52.4996H57.7762V56.2536H62.2542V57.7519H57.7762V62.4319H55.8908V50.9845H62.5572V52.4996Z" fill="#0679EA"/>
<path d="M66.8839 62.4319H64.9984V50.9845H66.8839V62.4319Z" fill="#0679EA"/>
<path d="M76.9186 62.4319H69.8482V50.9845H76.7166V52.4827H71.7336V55.8833H76.4136V57.2974H71.7336V60.9336H76.9186V62.4319Z" fill="#0679EA"/>
<path d="M88.4887 56.5903C88.4887 57.6004 88.3989 58.4758 88.2193 59.2165C88.0398 59.946 87.7255 60.552 87.2766 61.0346C86.8389 61.506 86.2441 61.8595 85.4922 62.0952C84.7515 62.3196 83.8087 62.4319 82.664 62.4319H79.4655V50.9845H82.8323C84.0107 50.9845 84.9647 51.1079 85.6942 51.3548C86.4349 51.5905 87.0073 51.9497 87.4113 52.4322C87.8265 52.9036 88.1071 53.4872 88.253 54.183C88.4101 54.8788 88.4887 55.6813 88.4887 56.5903ZM86.5359 56.5903C86.5359 55.917 86.4966 55.3278 86.4181 54.8227C86.3395 54.3065 86.1712 53.8744 85.913 53.5265C85.6661 53.1673 85.2958 52.898 84.802 52.7184C84.3194 52.5389 83.6684 52.4491 82.8492 52.4491H81.3509V60.9673H82.6808C83.4889 60.9673 84.1454 60.8831 84.6504 60.7148C85.1555 60.5464 85.5483 60.2883 85.8289 59.9404C86.1094 59.5812 86.2946 59.1267 86.3844 58.5768C86.4854 58.0156 86.5359 57.3535 86.5359 56.5903Z" fill="#0679EA"/>
<path d="M8.06096 72.6831C8.06096 73.7097 7.76555 74.4894 7.17473 75.0221C6.5936 75.5452 5.78002 75.8067 4.73398 75.8067H2.71455V79.4968H1.08738V69.6176H4.96643C5.96404 69.6176 6.7292 69.8646 7.2619 70.3586C7.79461 70.8525 8.06096 71.6274 8.06096 72.6831ZM6.37568 72.6831C6.37568 72.1019 6.23524 71.6564 5.95436 71.3465C5.68316 71.0269 5.2231 70.867 4.57417 70.867H2.71455V74.5427H4.42889C5.07782 74.5427 5.56209 74.3877 5.88172 74.0778C6.21102 73.7582 6.37568 73.2933 6.37568 72.6831Z" fill="#0A4870"/>
<path d="M17.3756 79.4968H15.7485V75.0221H11.7096V79.4968H10.0824V69.6176H11.7096V73.671H15.7485V69.6176H17.3756V79.4968Z" fill="#0A4870"/>
<path d="M26.9023 72.6831C26.9023 73.7097 26.6069 74.4894 26.0161 75.0221C25.435 75.5452 24.6214 75.8067 23.5754 75.8067H21.5559V79.4968H19.9288V69.6176H23.8078C24.8054 69.6176 25.5706 69.8646 26.1033 70.3586C26.636 70.8525 26.9023 71.6274 26.9023 72.6831ZM25.2171 72.6831C25.2171 72.1019 25.0766 71.6564 24.7957 71.3465C24.5245 71.0269 24.0645 70.867 23.4155 70.867H21.5559V74.5427H23.2703C23.9192 74.5427 24.4035 74.3877 24.7231 74.0778C25.0524 73.7582 25.2171 73.2933 25.2171 72.6831Z" fill="#0A4870"/>
<path d="M39.2395 79.4968H33.1376V69.6176H39.0651V70.9106H34.7648V73.8453H38.8036V75.0657H34.7648V78.2038H39.2395V79.4968Z" fill="#0A4870"/>
<path d="M49.1665 79.4968H46.7838L42.8467 71.2302V79.4968H41.4374V69.6176H43.8201L47.7572 77.8842V69.6176H49.1665V79.4968Z" fill="#0A4870"/>
<path d="M58.6826 79.061C58.547 79.1385 58.363 79.216 58.1306 79.2935C57.8981 79.3613 57.6318 79.4242 57.3315 79.4823C57.0313 79.5404 56.7068 79.584 56.3581 79.6131C56.0094 79.6518 55.6607 79.6712 55.3121 79.6712C54.5179 79.6712 53.8592 79.5598 53.3362 79.337C52.8132 79.1143 52.3967 78.785 52.0868 78.3491C51.7865 77.9133 51.5735 77.3709 51.4475 76.7219C51.3313 76.073 51.2732 75.3175 51.2732 74.4555C51.2732 72.7993 51.6267 71.5499 52.3338 70.7072C53.0408 69.8646 54.1547 69.4433 55.6753 69.4433C56.3339 69.4433 56.8908 69.4917 57.346 69.5886C57.8109 69.6757 58.1112 69.758 58.2468 69.8355L58.1596 71.0559C58.0046 70.9978 57.7238 70.93 57.317 70.8525C56.9199 70.7653 56.4065 70.7218 55.777 70.7218C55.1377 70.7218 54.6292 70.8283 54.2515 71.0414C53.8835 71.2545 53.6026 71.5353 53.4089 71.884C53.2152 72.2327 53.0892 72.6298 53.0311 73.0753C52.9827 73.5209 52.9585 73.9809 52.9585 74.4555C52.9585 74.9689 52.9779 75.4677 53.0166 75.9519C53.065 76.4265 53.1716 76.8479 53.3362 77.2159C53.5009 77.584 53.743 77.8794 54.0626 78.1021C54.3919 78.3249 54.8375 78.4363 55.3992 78.4363C55.8157 78.4363 56.1789 78.4072 56.4889 78.3491C56.7988 78.291 57.0216 78.2329 57.1572 78.1748V75.211H55.53V74.0342H58.6826V79.061Z" fill="#0A4870"/>
<path d="M62.7005 79.4968H61.0733V69.6176H62.7005V79.4968Z" fill="#0A4870"/>
<path d="M72.9878 79.4968H70.6051L66.668 71.2302V79.4968H65.2587V69.6176H67.6414L71.5785 77.8842V69.6176H72.9878V79.4968Z" fill="#0A4870"/>
<path d="M81.6468 79.4968H75.5449V69.6176H81.4724V70.9106H77.172V73.8453H81.2109V75.0657H77.172V78.2038H81.6468V79.4968Z" fill="#0A4870"/>
<path d="M89.9466 79.4968H83.8447V69.6176H89.7723V70.9106H85.4719V73.8453H89.5108V75.0657H85.4719V78.2038H89.9466V79.4968Z" fill="#0A4870"/>
<path d="M99.6702 79.4968H97.738L95.6168 75.5742H93.7718V79.4968H92.1446V69.6176H96.0672C97.0648 69.6176 97.8445 69.8549 98.4063 70.3295C98.968 70.7944 99.2489 71.5257 99.2489 72.5233C99.2489 72.9397 99.1956 73.303 99.0891 73.6129C98.9922 73.9131 98.8518 74.1746 98.6678 74.3974C98.4838 74.6202 98.2707 74.8042 98.0285 74.9495C97.7864 75.0948 97.5297 75.211 97.2585 75.2982L99.6702 79.4968ZM97.5927 72.5814C97.5927 72.0487 97.4474 71.6322 97.1568 71.3319C96.876 71.022 96.4111 70.867 95.7621 70.867H93.7718V74.3829L95.4134 74.3684C96.198 74.3684 96.7549 74.2134 97.0842 73.9035C97.4232 73.5838 97.5927 73.1431 97.5927 72.5814Z" fill="#0A4870"/>
</svg>
