<svg width="228" height="56" viewBox="0 0 228 56" fill="none" xmlns="http://www.w3.org/2000/svg">
<g clip-path="url(#clip0_299_121967)">
<path d="M18.9111 17.2344C7.4902 17.9578 4.43626 27.7876 4.43626 27.7876C4.43626 27.7876 4.35259 28.2557 4.31075 28.9365C4.31075 29.4471 4.26892 30.1705 4.64543 30.3408C5.81681 30.5535 8.45241 30.8514 12.8451 30.1705C12.8451 30.2131 13.1797 29.9152 13.1797 29.9578C10.1676 36.0003 4.47809 36.8939 4.47809 36.8939C3.97608 44.2557 2.34452 50.511 0.210938 53.9152C15.648 53.9152 22.6763 43.5748 24.5588 37.8727L29.9137 43.2769C32.4656 40.511 34.0553 36.8088 34.0553 32.6812C34.0972 24.1705 27.3199 17.2344 18.9111 17.2344Z" fill="#61B984"/>
<path d="M39.2451 12.4687C28.1171 1.19211 11.2576 1.44743 0.296875 11.7453C1.42642 14.0432 3.09981 17.2772 4.02018 21.4474C11.6341 10.6815 25.4815 11.2772 32.8862 18.8091C40.2073 26.2559 39.9563 38.5964 32.8026 46.1283L37.0279 50.3836C35.7728 50.3836 32.1332 50.3836 32.0495 50.3836C31.8404 50.3836 31.7985 50.5113 31.8822 50.6815C31.924 50.7666 31.9659 50.8942 32.0077 50.9793C32.8444 52.8091 33.4719 54.1708 34.2668 56.0006C36.233 54.724 37.7809 53.4474 38.8686 52.341C49.9967 41.1921 50.164 23.5325 39.2451 12.4687Z" fill="#3B302D"/>
<path d="M52.1719 4.21289H73.8842V10.1703H59.493V15.3193H72.671V21.1491H59.493V27.3618H74.3444V33.3193H52.1719V4.21289V4.21289Z" fill="#61B984"/>
<path d="M78.1875 4.21289H85.9269L89.9431 19.1491C90.3196 20.5108 90.8635 22.3831 91.4073 24.8937C91.742 23.4895 92.2022 21.7448 92.7879 19.6171L97.0132 4.21289H104.711L94.7959 33.2767H87.9769L78.1875 4.21289Z" fill="#61B984"/>
<path d="M110.07 4.21289H117.391V33.2767H110.07V4.21289Z" fill="#61B984"/>
<path d="M125.922 4.21289H133.829L139.225 13.7448C140.982 16.8512 142.572 19.915 143.953 22.8937C143.702 17.8299 143.618 14.0852 143.618 11.6597V4.21289H150.688V33.2767H142.781L137.217 23.4469C135.962 21.2342 134.414 18.3405 132.615 14.8937C132.908 18.9363 133.034 22.1703 133.034 24.5108V33.2767H125.922V4.21289Z" fill="#61B984"/>
<path d="M171.949 34.085C163.624 34.085 157.977 28.0424 157.977 18.9786C157.977 9.57436 163.624 3.48926 172.368 3.48926C179.271 3.48926 183.956 7.4467 184.625 13.8722H177.764C177.095 11.0637 175.213 9.65947 172.159 9.65947C168.184 9.65947 165.507 13.0212 165.507 18.8935C165.507 24.7233 167.975 27.8722 171.949 27.8722C175.254 27.8722 177.262 26.2127 177.764 23.1063H184.542C183.538 30.085 178.936 34.085 171.949 34.085Z" fill="#61B984"/>
<path d="M191.562 4.21289H213.275V10.1703H198.884V15.3193H212.062V21.1491H198.884V27.3618H213.735V33.3193H191.562V4.21289Z" fill="#61B984"/>
<path d="M52.25 55.8297V41.7871H56.8937C58.8181 41.7871 60.366 42.468 61.4537 43.8297C62.5414 45.1914 63.0852 46.8084 63.0852 48.7658C63.0852 50.7233 62.5414 52.4254 61.4955 53.7871C60.4496 55.1488 59.1109 55.8297 57.4794 55.8297H52.25ZM53.9652 54.3403H56.7682C58.2324 54.3403 59.3619 53.8297 60.1568 52.7658C60.9517 51.702 61.3282 50.3403 61.3282 48.6382C61.3282 47.2765 60.9517 45.9999 60.2405 44.8935C59.5293 43.7871 58.3579 43.2339 56.81 43.2339H53.9652V54.3403Z" fill="#3B302D"/>
<path d="M77.5202 54.2977V55.8297H68.6094V41.7871H77.311V43.319H70.3246V47.7871H75.8886V49.2339H70.3246V54.2977H77.5202V54.2977Z" fill="#3B302D"/>
<path d="M92.242 41.7871L87.5983 55.7871H85.9249L81.2812 41.7871H83.0802L86.929 53.3616L90.7359 41.7871H92.242V41.7871Z" fill="#3B302D"/>
<path d="M105.966 54.2977V55.8297H97.0547V41.7871H105.756V43.319H98.7699V47.7871H104.334V49.2339H98.7699V54.2977H105.966V54.2977Z" fill="#3B302D"/>
<path d="M119.475 54.2977V55.8297H111.359V41.7871H113.116V54.2552H119.475V54.2977Z" fill="#3B302D"/>
<path d="M128.762 56.085C127.005 56.085 125.625 55.4042 124.62 53.9999C123.616 52.5956 123.156 50.8935 123.156 48.851C123.156 46.7233 123.658 44.9786 124.704 43.5744C125.75 42.1701 127.131 41.4893 128.804 41.4893C130.519 41.4893 131.858 42.1701 132.904 43.5318C133.95 44.8935 134.452 46.5956 134.452 48.6807C134.452 50.6807 133.95 52.3829 132.946 53.8722C131.942 55.3616 130.561 56.085 128.762 56.085ZM128.804 54.6807C130.017 54.6807 130.938 54.1276 131.649 53.0212C132.318 51.9148 132.653 50.468 132.653 48.7233C132.653 46.8935 132.318 45.4893 131.607 44.5105C130.896 43.4893 129.975 43.0212 128.804 43.0212C127.633 43.0212 126.67 43.5744 126.001 44.6382C125.29 45.7446 124.955 47.1488 124.955 48.8935C124.955 50.5956 125.29 51.9999 126.001 53.1063C126.712 54.1276 127.633 54.6807 128.804 54.6807Z" fill="#3B302D"/>
<path d="M141.778 55.8297H140.062V41.7871H144.957C146.505 41.7871 147.593 42.2126 148.346 43.0637C149.099 43.9148 149.434 44.8935 149.434 45.9573C149.434 47.1488 149.057 48.1701 148.262 48.936C147.467 49.7446 146.421 50.1275 145.166 50.1275H141.82V55.8297H141.778ZM141.778 48.6807H144.957C145.752 48.6807 146.421 48.4254 146.923 47.9573C147.425 47.4892 147.676 46.8084 147.676 45.9999C147.676 45.319 147.467 44.6807 147.007 44.1275C146.547 43.5743 145.919 43.319 145.083 43.319H141.778V48.6807Z" fill="#3B302D"/>
<path d="M167.928 55.8297H166.255V43.5743L161.779 55.8297H160.607L156.089 43.5743V55.8297H154.625V41.7871H157.177L161.36 52.9786L165.418 41.7871H167.928V55.8297Z" fill="#3B302D"/>
<path d="M183.278 54.2977V55.8297H174.367V41.7871H183.069V43.319H176.082V47.7871H181.646V49.2339H176.082V54.2977H183.278V54.2977Z" fill="#3B302D"/>
<path d="M198.838 55.8297H197.164L190.052 43.6169V44.5531C190.052 44.8935 190.094 45.1914 190.094 45.4467V55.8722H188.672V41.7871H190.847L197.499 53.1914V52.2126C197.499 51.8297 197.499 51.4892 197.499 51.1914V41.7871H198.88V55.8297H198.838Z" fill="#3B302D"/>
<path d="M209.424 55.8291H207.709V43.361H203.734V41.8291H213.356V43.361H209.382V55.8291H209.424Z" fill="#3B302D"/>
<path d="M227.711 6.93663C227.711 10.043 225.327 12.4685 222.189 12.4685C219.093 12.4685 216.625 10.043 216.625 6.93663C216.625 3.8728 219.093 1.44727 222.189 1.44727C225.327 1.44727 227.711 3.8728 227.711 6.93663ZM218.006 6.93663C218.006 9.36216 219.763 11.3196 222.231 11.3196C224.615 11.3196 226.331 9.36216 226.331 6.97918C226.331 4.55365 224.574 2.55365 222.189 2.55365C219.804 2.55365 218.006 4.5111 218.006 6.93663ZM221.352 9.78769H220.097V4.34088C220.599 4.25578 221.269 4.17067 222.189 4.17067C223.193 4.17067 223.653 4.34088 224.072 4.55365C224.364 4.80897 224.615 5.2345 224.615 5.74514C224.615 6.34088 224.155 6.80897 223.486 7.02173V7.10684C224.03 7.31961 224.323 7.70258 224.49 8.42599C224.657 9.27705 224.741 9.61748 224.866 9.78769H223.528C223.36 9.57493 223.277 9.10684 223.109 8.46854C223.026 7.8728 222.691 7.61748 221.98 7.61748H221.394V9.78769H221.352ZM221.352 6.68131H221.938C222.649 6.68131 223.193 6.42599 223.193 5.8728C223.193 5.36216 222.817 5.02173 222.022 5.02173C221.687 5.02173 221.478 5.06429 221.311 5.10684V6.68131H221.352Z" fill="#3B3735"/>
</g>
<defs>
<clipPath id="clip0_299_121967">
<rect width="228" height="56" fill="white"/>
</clipPath>
</defs>
</svg>
