<svg width="24" height="24" viewBox="0 0 24 24" fill="none" xmlns="http://www.w3.org/2000/svg">
<g clip-path="url(#clip0_2106_124778)">
<mask id="mask0_2106_124778" style="mask-type:luminance" maskUnits="userSpaceOnUse" x="0" y="0" width="24" height="24">
<path d="M24 0H0V24H24V0Z" fill="white"/>
</mask>
<g mask="url(#mask0_2106_124778)">
<path fill-rule="evenodd" clip-rule="evenodd" d="M12.0123 2C9.29672 2 8.94385 2 7.88524 2.0583C7.05556 2.07462 6.23475 2.23235 5.45812 2.5247C4.79201 2.78077 4.18675 3.17315 3.68107 3.67672C3.17541 4.18032 2.78049 4.78385 2.52163 5.44888C2.23223 6.22531 2.07459 7.04457 2.05523 7.87293C2 8.95302 2 9.29672 2 12.0123C2 14.7278 2 15.0807 2.05523 16.1393C2.07459 16.9677 2.23223 17.7871 2.52163 18.5634C2.77772 19.23 3.17045 19.8356 3.67459 20.3414C4.17874 20.8471 4.78312 21.2417 5.44891 21.4998C6.22449 21.7922 7.04429 21.95 7.87297 21.9662C8.30782 21.9662 8.61826 21.9752 8.99675 21.986C9.58774 22.003 10.3446 22.0245 12 22.0245C14.7152 22.0245 15.0684 22.0245 16.127 21.9662C16.9557 21.95 17.7755 21.7922 18.5511 21.4998C19.2158 21.2433 19.8195 20.8505 20.3236 20.3469C20.8277 19.8434 21.221 19.2401 21.4784 18.5756C21.7677 17.7993 21.9254 16.9799 21.9448 16.1516C21.9448 15.7167 21.9531 15.4057 21.9634 15.0266C21.9795 14.435 22 13.6776 22 12.0245C22 9.31206 22 8.95609 21.9448 7.89748C21.9254 7.06818 21.7677 6.24785 21.4784 5.47035C21.2255 4.80439 20.8364 4.19837 20.336 3.69121C19.8357 3.18401 19.2351 2.78672 18.5726 2.5247C17.797 2.2324 16.9772 2.07467 16.1485 2.0583C15.0807 2 14.737 2 12.0123 2ZM12.0136 6.87274C10.9975 6.87451 10.0047 7.17746 9.16064 7.74335C8.31667 8.30924 7.65935 9.11261 7.27176 10.0519C6.88416 10.9912 6.78369 12.0243 6.98304 13.0207C7.18239 14.017 7.67262 14.932 8.39177 15.6499C9.11096 16.3677 10.0268 16.8563 11.0234 17.0538C12.0202 17.2515 13.0532 17.1492 13.9918 16.7598C14.9303 16.3706 15.7325 15.7119 16.2969 14.8669C16.8612 14.0219 17.1624 13.0285 17.1624 12.0124C17.1624 11.3366 17.0291 10.6676 16.7702 10.0434C16.5114 9.41922 16.132 8.85223 15.6538 8.37486C15.1756 7.89748 14.6079 7.519 13.9833 7.26125C13.3586 7.00351 12.6893 6.87144 12.0136 6.87274ZM12.0136 15.3508C11.3536 15.349 10.7091 15.1516 10.1613 14.7837C9.61359 14.4158 9.18708 13.8937 8.93581 13.2835C8.68454 12.6734 8.61975 12.0024 8.7496 11.3554C8.87946 10.7084 9.19817 10.1145 9.6654 9.64852C10.1326 9.18248 10.7275 8.86545 11.3749 8.7374C12.0222 8.60924 12.693 8.67592 13.3024 8.92894C13.912 9.18189 14.4328 9.60981 14.7992 10.1586C15.1657 10.7074 15.3612 11.3524 15.3612 12.0124C15.3612 12.4515 15.2746 12.8864 15.1062 13.292C14.9379 13.6977 14.6911 14.0661 14.3802 14.3763C14.0692 14.6864 13.7 14.9321 13.2939 15.0993C12.8878 15.2666 12.4527 15.352 12.0136 15.3508ZM18.5648 6.6733C18.5648 7.33761 18.0262 7.87612 17.362 7.87612C16.6976 7.87612 16.1591 7.33761 16.1591 6.6733C16.1591 6.0091 16.6976 5.47047 17.362 5.47047C18.0262 5.47047 18.5648 6.0091 18.5648 6.6733Z" fill="url(#paint0_linear_2106_124778)"/>
<g filter="url(#filter0_d_2106_124778)">
<path fill-rule="evenodd" clip-rule="evenodd" d="M12.0123 2C9.29672 2 8.94385 2 7.88524 2.0583C7.05556 2.07462 6.23475 2.23235 5.45812 2.5247C4.79201 2.78077 4.18675 3.17315 3.68107 3.67672C3.17541 4.18032 2.78049 4.78385 2.52163 5.44888C2.23223 6.22531 2.07459 7.04457 2.05523 7.87293C2 8.95302 2 9.29672 2 12.0123C2 14.7278 2 15.0807 2.05523 16.1393C2.07459 16.9677 2.23223 17.7871 2.52163 18.5634C2.77772 19.23 3.17045 19.8356 3.67459 20.3414C4.17874 20.8471 4.78312 21.2417 5.44891 21.4998C6.22449 21.7922 7.04429 21.95 7.87297 21.9662C8.30782 21.9662 8.61826 21.9752 8.99675 21.986C9.58774 22.003 10.3446 22.0245 12 22.0245C14.7152 22.0245 15.0684 22.0245 16.127 21.9662C16.9557 21.95 17.7755 21.7922 18.5511 21.4998C19.2158 21.2433 19.8195 20.8505 20.3236 20.3469C20.8277 19.8434 21.221 19.2401 21.4784 18.5756C21.7677 17.7993 21.9254 16.9799 21.9448 16.1516C21.9448 15.7167 21.9531 15.4057 21.9634 15.0266C21.9795 14.435 22 13.6776 22 12.0245C22 9.31206 22 8.95609 21.9448 7.89748C21.9254 7.06818 21.7677 6.24785 21.4784 5.47035C21.2255 4.80439 20.8364 4.19837 20.336 3.69121C19.8357 3.18401 19.2351 2.78672 18.5726 2.5247C17.797 2.2324 16.9772 2.07467 16.1485 2.0583C15.0807 2 14.737 2 12.0123 2ZM12.0136 6.87274C10.9975 6.87451 10.0047 7.17746 9.16064 7.74335C8.31667 8.30924 7.65935 9.11261 7.27176 10.0519C6.88416 10.9912 6.78369 12.0243 6.98304 13.0207C7.18239 14.017 7.67262 14.932 8.39177 15.6499C9.11096 16.3677 10.0268 16.8563 11.0234 17.0538C12.0202 17.2515 13.0532 17.1492 13.9918 16.7598C14.9303 16.3706 15.7325 15.7119 16.2969 14.8669C16.8612 14.0219 17.1624 13.0285 17.1624 12.0124C17.1624 11.3366 17.0291 10.6676 16.7702 10.0434C16.5114 9.41922 16.132 8.85223 15.6538 8.37486C15.1756 7.89748 14.6079 7.519 13.9833 7.26125C13.3586 7.00351 12.6893 6.87144 12.0136 6.87274ZM12.0136 15.3508C11.3536 15.349 10.7091 15.1516 10.1613 14.7837C9.61359 14.4158 9.18708 13.8937 8.93581 13.2835C8.68454 12.6734 8.61975 12.0024 8.7496 11.3554C8.87946 10.7084 9.19817 10.1145 9.6654 9.64852C10.1326 9.18248 10.7275 8.86545 11.3749 8.7374C12.0222 8.60924 12.693 8.67592 13.3024 8.92894C13.912 9.18189 14.4328 9.60981 14.7992 10.1586C15.1657 10.7074 15.3612 11.3524 15.3612 12.0124C15.3612 12.4515 15.2746 12.8864 15.1062 13.292C14.9379 13.6977 14.6911 14.0661 14.3802 14.3763C14.0692 14.6864 13.7 14.9321 13.2939 15.0993C12.8878 15.2666 12.4527 15.352 12.0136 15.3508ZM18.5648 6.6733C18.5648 7.33761 18.0262 7.87612 17.362 7.87612C16.6976 7.87612 16.1591 7.33761 16.1591 6.6733C16.1591 6.0091 16.6976 5.47047 17.362 5.47047C18.0262 5.47047 18.5648 6.0091 18.5648 6.6733Z" fill="url(#paint1_linear_2106_124778)"/>
</g>
</g>
</g>
<defs>
<filter id="filter0_d_2106_124778" x="-48" y="-23" width="120" height="120.025" filterUnits="userSpaceOnUse" color-interpolation-filters="sRGB">
<feFlood flood-opacity="0" result="BackgroundImageFix"/>
<feColorMatrix in="SourceAlpha" type="matrix" values="0 0 0 0 0 0 0 0 0 0 0 0 0 0 0 0 0 0 127 0" result="hardAlpha"/>
<feOffset dy="25"/>
<feGaussianBlur stdDeviation="25"/>
<feComposite in2="hardAlpha" operator="out"/>
<feColorMatrix type="matrix" values="0 0 0 0 0 0 0 0 0 0 0 0 0 0 0 0 0 0 0.1 0"/>
<feBlend mode="normal" in2="BackgroundImageFix" result="effect1_dropShadow_2106_124778"/>
<feBlend mode="normal" in="SourceGraphic" in2="effect1_dropShadow_2106_124778" result="shape"/>
</filter>
<linearGradient id="paint0_linear_2106_124778" x1="-0.230769" y1="-0.772629" x2="7.2453" y2="13.8532" gradientUnits="userSpaceOnUse">
<stop stop-color="#D9D9D9"/>
<stop offset="0.0001" stop-color="#1F0CF8"/>
<stop offset="0.868122" stop-color="#ED1389"/>
</linearGradient>
<linearGradient id="paint1_linear_2106_124778" x1="2.69231" y1="21.4854" x2="10.8635" y2="0.928635" gradientUnits="userSpaceOnUse">
<stop stop-color="#FC2C46"/>
<stop offset="0.0001" stop-color="#FBAB48"/>
<stop offset="0.39864" stop-color="#FC3746"/>
<stop offset="0.85431" stop-color="#FC2C46" stop-opacity="0"/>
</linearGradient>
<clipPath id="clip0_2106_124778">
<rect width="24" height="24" fill="white"/>
</clipPath>
</defs>
</svg>
