<svg width="24" height="24" viewBox="0 0 24 24" fill="none" xmlns="http://www.w3.org/2000/svg">
<path d="M21.0886 6.84072C20.9741 6.41858 20.7512 6.03375 20.4419 5.72448C20.1327 5.41522 19.7478 5.19229 19.3257 5.07786C17.76 4.665 11.5 4.665 11.5 4.665C11.5 4.665 5.24 4.665 3.67429 5.07786C2.81714 5.30786 2.14286 5.98357 1.91143 6.84072C1.5 8.405 1.5 11.6507 1.5 11.6507C1.5 11.6507 1.5 14.9121 1.91143 16.4607C2.14286 17.3179 2.81857 17.9936 3.67429 18.2236C5.24 18.6364 11.5 18.6364 11.5 18.6364C11.5 18.6364 17.76 18.6364 19.3257 18.2236C19.7478 18.1091 20.1327 17.8862 20.4419 17.5769C20.7512 17.2677 20.9741 16.8828 21.0886 16.4607C21.5 14.8964 21.5 11.6507 21.5 11.6507C21.5 11.6507 21.5 8.405 21.0886 6.84072Z" fill="#9D9896"/>
<path d="M9.49005 14.665L14.6958 11.6679L9.49005 8.65357V14.665Z" fill="white"/>
</svg>
