<svg width="24" height="24" viewBox="0 0 24 24" fill="none" xmlns="http://www.w3.org/2000/svg">
<path d="M22 21.9877V14.6413C22 11.055 21.2287 8.29674 17.0347 8.29674C15.0177 8.30687 13.682 9.4121 13.121 10.4573H13.0643V8.64078H9.08722V21.9977H13.2279V15.3793C13.2279 13.6396 13.5618 11.9565 15.7123 11.9565C17.8628 11.9565 17.8661 13.9435 17.8661 15.4896V21.9877H22Z" fill="#0A66C2"/>
<path d="M2.3493 8.64605H6.49328V22.003H2.3493V8.64605Z" fill="#0A66C2"/>
<path d="M4.42093 2.00002C3.94323 1.99803 3.47573 2.138 3.07772 2.40214C2.67972 2.6663 2.36915 3.04274 2.18543 3.48369C2.00172 3.92463 1.95314 4.4102 2.04584 4.87886C2.13855 5.34743 2.36836 5.77798 2.70615 6.11564C3.04392 6.45344 3.47443 6.68335 3.94302 6.77598C4.41163 6.86875 4.89721 6.82011 5.33816 6.63634C5.7791 6.45268 6.15553 6.14215 6.41968 5.7441C6.68383 5.34605 6.8238 4.87862 6.82181 4.40091C6.82181 3.76416 6.56888 3.15348 6.11862 2.70321C5.66835 2.25296 5.05768 2.00002 4.42093 2.00002Z" fill="#0A66C2"/>
</svg>
