<svg width="24" height="24" viewBox="0 0 24 24" fill="none" xmlns="http://www.w3.org/2000/svg">
<path fill-rule="evenodd" clip-rule="evenodd" d="M14.7799 8.08584H20.0762V6.56845H14.7799V8.08584ZM16.0346 11.3968C15.6971 11.7401 15.4843 12.2053 15.3973 12.7923H19.5165C19.473 12.1659 19.259 11.6926 18.8803 11.3666C18.497 11.0429 18.0254 10.8817 17.461 10.8817C16.8495 10.8817 16.3721 11.0534 16.0346 11.3968ZM19.6094 9.35963C20.2479 9.64037 20.7736 10.0858 21.1875 10.6937C21.565 11.2297 21.8072 11.8515 21.9177 12.558C21.9824 12.971 22.0083 13.5696 21.9977 14.348H15.3385C15.3784 15.2517 15.6936 15.8863 16.2956 16.2494C16.6602 16.4756 17.0988 16.5893 17.6139 16.5893C18.156 16.5893 18.5993 16.4513 18.9391 16.1763C19.1261 16.0267 19.2907 15.8202 19.4318 15.5557H21.8719C21.8072 16.0893 21.5109 16.6334 20.9864 17.1856C20.168 18.0615 19.0214 18.5 17.548 18.5C16.3309 18.5 15.2573 18.1311 14.3295 17.3909C13.397 16.652 12.9337 15.4478 12.9337 13.7819C12.9337 12.2193 13.3535 11.0209 14.1919 10.1868C15.0327 9.35499 16.1204 8.9362 17.4598 8.9362C18.2559 8.9362 18.9721 9.07773 19.6094 9.35963ZM4.46356 12.8248V16.0766H7.4645C8.00072 16.0766 8.41936 16.0046 8.71687 15.8619C9.25896 15.5951 9.52942 15.0893 9.52942 14.3399C9.52942 13.7042 9.26837 13.2691 8.74273 13.0313C8.44875 12.8991 8.03601 12.8295 7.50684 12.8248H4.46356ZM4.46356 8.11717V10.8074H7.46921C8.00425 10.8074 8.44052 10.7065 8.77683 10.5046C9.11079 10.3028 9.27895 9.94547 9.27895 9.43503C9.27895 8.86543 9.05787 8.49072 8.61573 8.30743C8.23238 8.18098 7.74555 8.11717 7.15406 8.11717H4.46356ZM11.1757 7.2993C11.5532 7.81787 11.7425 8.43736 11.7425 9.16009C11.7425 9.90371 11.5532 10.5035 11.171 10.9559C10.957 11.2088 10.643 11.4408 10.2279 11.6496C10.8582 11.877 11.3333 12.2355 11.6566 12.7262C11.9765 13.2158 12.1376 13.8121 12.1376 14.5128C12.1376 15.2355 11.9542 15.884 11.5861 16.4571C11.3533 16.8364 11.0616 17.1566 10.7112 17.4165C10.3173 17.7146 9.85279 17.9176 9.31539 18.029C8.778 18.1392 8.19709 18.1926 7.56915 18.1926H2V6H7.97249C9.48002 6.02204 10.5466 6.45476 11.1757 7.2993Z" fill="#1769FF"/>
</svg>
