<svg width="24" height="24" viewBox="0 0 24 24" fill="none" xmlns="http://www.w3.org/2000/svg">
<path d="M12 22C17.5228 22 22 17.5228 22 12C22 6.47715 17.5228 2 12 2C6.47715 2 2 6.47715 2 12C2 17.5228 6.47715 22 12 22Z" fill="white"/>
<path d="M11.5001 9.0625C10.3751 6.9375 9.18762 4.9375 7.93762 2.9375C4.87512 4.25 2.62512 7.125 2.12512 10.5625C5.12512 10.625 8.25012 10.125 11.5001 9.0625Z" fill="#9D9896"/>
<path d="M12.6877 8.625C14.9377 7.75 17.1252 6.625 19.3752 5.25C17.5002 3.25 14.9377 2 12.0002 2C11.0002 2 10.0002 2.125 9.12518 2.4375C10.3752 4.4375 11.5627 6.5 12.6877 8.625Z" fill="#9D9896"/>
<path d="M14.4375 12.3125C16.25 11.8125 18.1875 11.5 20.125 11.5C20.75 11.5 21.3125 11.5 21.9375 11.5625C21.875 9.56251 21.1875 7.68751 20.125 6.18751C17.8125 7.68751 15.5 8.87501 13.25 9.75001C13.625 10.625 14.0625 11.4375 14.4375 12.3125Z" fill="#9D9896"/>
<path d="M13.25 12.6875C12.875 11.8125 12.4375 11 12 10.125C8.875 11.1875 5.8125 11.75 2.875 11.75C2.5625 11.75 2.3125 11.75 2 11.75C2 11.8125 2 11.875 2 12C2 14.5 2.9375 16.75 4.4375 18.5C6.9375 15.8125 9.9375 13.875 13.25 12.6875Z" fill="#9D9896"/>
<path d="M20.1874 12.8125C18.4374 12.8125 16.6874 13.0625 14.9999 13.5C15.9999 15.6875 16.8124 18 17.6249 20.3125C20.0624 18.6875 21.6874 16 21.9999 12.9375C21.3749 12.8125 20.7499 12.8125 20.1874 12.8125Z" fill="#9D9896"/>
<path d="M13.8124 13.875C10.6249 14.9375 7.74988 16.8125 5.31238 19.4375C7.06238 21 9.43738 22 11.9999 22C13.6249 22 15.1249 21.625 16.4999 20.9375C15.6874 18.5 14.8124 16.1875 13.8124 13.875Z" fill="#9D9896"/>
</svg>
