<svg width="46" height="25" viewBox="0 0 46 25" fill="none" xmlns="http://www.w3.org/2000/svg">
<g clip-path="url(#clip0_299_121825)">
<path d="M46 0H0V24.2105H46V0Z" fill="#B22234"/>
<path d="M0 2.79395H46ZM46 6.51864H0ZM0 10.2433H46ZM46 13.968H0ZM0 17.6927H46ZM46 21.4174H0Z" fill="black"/>
<path d="M0 2.79395H46M46 6.51864H0M0 10.2433H46M46 13.968H0M0 17.6927H46M46 21.4174H0" stroke="white" stroke-width="1.86235"/>
<path d="M18.4 0H0V13.0364H18.4V0Z" fill="#3C3B6E"/>
<path d="M1.5366 0.558594L1.97447 1.9062L0.828125 1.07333H2.24508L1.09874 1.9062L1.5366 0.558594Z" fill="white"/>
<path d="M1.5366 3.16602L1.97447 4.51362L0.828125 3.68076H2.24508L1.09874 4.51362L1.5366 3.16602Z" fill="white"/>
<path d="M1.5366 5.77344L1.97447 7.12105L0.828125 6.28818H2.24508L1.09874 7.12105L1.5366 5.77344Z" fill="white"/>
<path d="M1.5366 8.37988L1.97447 9.72749L0.828125 8.89462H2.24508L1.09874 9.72749L1.5366 8.37988Z" fill="white"/>
<path d="M1.5366 10.9873L1.97447 12.3349L0.828125 11.502H2.24508L1.09874 12.3349L1.5366 10.9873Z" fill="white"/>
<path d="M3.06785 1.8623L3.50572 3.20991L2.35938 2.37704H3.77633L2.62999 3.20991L3.06785 1.8623Z" fill="white"/>
<path d="M3.06785 4.46973L3.50572 5.81733L2.35938 4.98447H3.77633L2.62999 5.81733L3.06785 4.46973Z" fill="white"/>
<path d="M3.06785 7.07715L3.50572 8.42476L2.35938 7.59189H3.77633L2.62999 8.42476L3.06785 7.07715Z" fill="white"/>
<path d="M3.06785 9.68359L3.50572 11.0312L2.35938 10.1983H3.77633L2.62999 11.0312L3.06785 9.68359Z" fill="white"/>
<path d="M4.5991 0.558594L5.03697 1.9062L3.89062 1.07333H5.30758L4.16124 1.9062L4.5991 0.558594Z" fill="white"/>
<path d="M4.5991 3.16602L5.03697 4.51362L3.89062 3.68076H5.30758L4.16124 4.51362L4.5991 3.16602Z" fill="white"/>
<path d="M4.5991 5.77344L5.03697 7.12105L3.89062 6.28818H5.30758L4.16124 7.12105L4.5991 5.77344Z" fill="white"/>
<path d="M4.5991 8.37988L5.03697 9.72749L3.89062 8.89462H5.30758L4.16124 9.72749L4.5991 8.37988Z" fill="white"/>
<path d="M4.5991 10.9873L5.03697 12.3349L3.89062 11.502H5.30758L4.16124 12.3349L4.5991 10.9873Z" fill="white"/>
<path d="M6.13035 1.8623L6.56822 3.20991L5.42188 2.37704H6.83883L5.69249 3.20991L6.13035 1.8623Z" fill="white"/>
<path d="M6.13035 4.46973L6.56822 5.81733L5.42188 4.98447H6.83883L5.69249 5.81733L6.13035 4.46973Z" fill="white"/>
<path d="M6.13035 7.07715L6.56822 8.42476L5.42188 7.59189H6.83883L5.69249 8.42476L6.13035 7.07715Z" fill="white"/>
<path d="M6.13035 9.68359L6.56822 11.0312L5.42188 10.1983H6.83883L5.69249 11.0312L6.13035 9.68359Z" fill="white"/>
<path d="M7.66942 0.558594L8.10728 1.9062L6.96094 1.07333H8.3779L7.23155 1.9062L7.66942 0.558594Z" fill="white"/>
<path d="M7.66942 3.16602L8.10728 4.51362L6.96094 3.68076H8.3779L7.23155 4.51362L7.66942 3.16602Z" fill="white"/>
<path d="M7.66942 5.77344L8.10728 7.12105L6.96094 6.28818H8.3779L7.23155 7.12105L7.66942 5.77344Z" fill="white"/>
<path d="M7.66942 8.37988L8.10728 9.72749L6.96094 8.89462H8.3779L7.23155 9.72749L7.66942 8.37988Z" fill="white"/>
<path d="M7.66942 10.9873L8.10728 12.3349L6.96094 11.502H8.3779L7.23155 12.3349L7.66942 10.9873Z" fill="white"/>
<path d="M9.20067 1.8623L9.63853 3.20991L8.49219 2.37704H9.90915L8.7628 3.20991L9.20067 1.8623Z" fill="white"/>
<path d="M9.20067 4.46973L9.63853 5.81733L8.49219 4.98447H9.90915L8.7628 5.81733L9.20067 4.46973Z" fill="white"/>
<path d="M9.20067 7.07715L9.63853 8.42476L8.49219 7.59189H9.90915L8.7628 8.42476L9.20067 7.07715Z" fill="white"/>
<path d="M9.20067 9.68359L9.63853 11.0312L8.49219 10.1983H9.90915L8.7628 11.0312L9.20067 9.68359Z" fill="white"/>
<path d="M10.7397 0.558594L11.1776 1.9062L10.0312 1.07333H11.4482L10.3019 1.9062L10.7397 0.558594Z" fill="white"/>
<path d="M10.7397 3.16602L11.1776 4.51362L10.0312 3.68076H11.4482L10.3019 4.51362L10.7397 3.16602Z" fill="white"/>
<path d="M10.7397 5.77344L11.1776 7.12105L10.0312 6.28818H11.4482L10.3019 7.12105L10.7397 5.77344Z" fill="white"/>
<path d="M10.7397 8.37988L11.1776 9.72749L10.0312 8.89462H11.4482L10.3019 9.72749L10.7397 8.37988Z" fill="white"/>
<path d="M10.7397 10.9873L11.1776 12.3349L10.0312 11.502H11.4482L10.3019 12.3349L10.7397 10.9873Z" fill="white"/>
<path d="M12.271 1.8623L12.7088 3.20991L11.5625 2.37704H12.9795L11.8331 3.20991L12.271 1.8623Z" fill="white"/>
<path d="M12.271 4.46973L12.7088 5.81733L11.5625 4.98447H12.9795L11.8331 5.81733L12.271 4.46973Z" fill="white"/>
<path d="M12.271 7.07715L12.7088 8.42476L11.5625 7.59189H12.9795L11.8331 8.42476L12.271 7.07715Z" fill="white"/>
<path d="M12.271 9.68359L12.7088 11.0312L11.5625 10.1983H12.9795L11.8331 11.0312L12.271 9.68359Z" fill="white"/>
<path d="M13.8022 0.558594L14.2401 1.9062L13.0938 1.07333H14.5107L13.3644 1.9062L13.8022 0.558594Z" fill="white"/>
<path d="M13.8022 3.16602L14.2401 4.51362L13.0938 3.68076H14.5107L13.3644 4.51362L13.8022 3.16602Z" fill="white"/>
<path d="M13.8022 5.77344L14.2401 7.12105L13.0938 6.28818H14.5107L13.3644 7.12105L13.8022 5.77344Z" fill="white"/>
<path d="M13.8022 8.37988L14.2401 9.72749L13.0938 8.89462H14.5107L13.3644 9.72749L13.8022 8.37988Z" fill="white"/>
<path d="M13.8022 10.9873L14.2401 12.3349L13.0938 11.502H14.5107L13.3644 12.3349L13.8022 10.9873Z" fill="white"/>
<path d="M15.3335 1.8623L15.7713 3.20991L14.625 2.37704H16.042L14.8956 3.20991L15.3335 1.8623Z" fill="white"/>
<path d="M15.3335 4.46973L15.7713 5.81733L14.625 4.98447H16.042L14.8956 5.81733L15.3335 4.46973Z" fill="white"/>
<path d="M15.3335 7.07715L15.7713 8.42476L14.625 7.59189H16.042L14.8956 8.42476L15.3335 7.07715Z" fill="white"/>
<path d="M15.3335 9.68359L15.7713 11.0312L14.625 10.1983H16.042L14.8956 11.0312L15.3335 9.68359Z" fill="white"/>
<path d="M16.8647 0.558594L17.3026 1.9062L16.1562 1.07333H17.5732L16.4269 1.9062L16.8647 0.558594Z" fill="white"/>
<path d="M16.8647 3.16602L17.3026 4.51362L16.1562 3.68076H17.5732L16.4269 4.51362L16.8647 3.16602Z" fill="white"/>
<path d="M16.8647 5.77344L17.3026 7.12105L16.1562 6.28818H17.5732L16.4269 7.12105L16.8647 5.77344Z" fill="white"/>
<path d="M16.8647 8.37988L17.3026 9.72749L16.1562 8.89462H17.5732L16.4269 9.72749L16.8647 8.37988Z" fill="white"/>
<path d="M16.8647 10.9873L17.3026 12.3349L16.1562 11.502H17.5732L16.4269 12.3349L16.8647 10.9873Z" fill="white"/>
</g>
<defs>
<clipPath id="clip0_299_121825">
<rect width="46" height="24.2105" fill="white"/>
</clipPath>
</defs>
</svg>
