<svg width="60" height="60" viewBox="0 0 60 60" fill="none" xmlns="http://www.w3.org/2000/svg">
<g clip-path="url(#clip0_1347_124259)">
<path d="M0 21.7143C0 14.1136 0 10.3132 1.4792 7.41013C2.78034 4.8565 4.8565 2.78034 7.41013 1.4792C10.3132 0 14.1136 0 21.7143 0H38.2857C45.8864 0 49.6868 0 52.5899 1.4792C55.1435 2.78034 57.2197 4.8565 58.5208 7.41013C60 10.3132 60 14.1136 60 21.7143V38.2857C60 45.8864 60 49.6868 58.5208 52.5899C57.2197 55.1435 55.1435 57.2197 52.5899 58.5208C49.6868 60 45.8864 60 38.2857 60H21.7143C14.1136 60 10.3132 60 7.41013 58.5208C4.8565 57.2197 2.78034 55.1435 1.4792 52.5899C0 49.6868 0 45.8864 0 38.2857V21.7143Z" fill="#330000"/>
<path d="M29.0752 37.7063H19.7774L17.8857 43.7335C17.8332 43.9574 17.627 44.116 17.4027 44.105H12.6934C12.4249 44.105 12.331 43.9536 12.4117 43.6509L20.4616 19.8724C20.5422 19.6248 20.6227 19.3427 20.7032 19.0261C20.8085 18.4754 20.8624 17.9155 20.8642 17.3543C20.8412 17.1885 20.9869 17.042 21.146 17.0653H27.5456C27.7331 17.0653 27.8405 17.1341 27.8677 17.2717L37.0045 43.6922C37.0849 43.9676 37.0044 44.1052 36.7629 44.105H31.5304C31.3468 44.1259 31.1716 44.0001 31.1279 43.816L29.0752 37.7063ZM21.2264 32.5048H27.5859C26.5411 28.9344 25.3619 25.4109 24.4062 21.8127C23.3751 25.417 22.2501 29.0067 21.2264 32.5048Z" fill="#FF9A00"/>
<path d="M42.4377 21.441C42.0272 21.458 41.6178 21.3858 41.2363 21.2293C40.8548 21.0728 40.5099 20.8355 40.224 20.5328C39.9388 20.2171 39.7174 19.8467 39.5723 19.4428C39.4272 19.039 39.3614 18.6098 39.3786 18.1798C39.364 17.754 39.4371 17.3299 39.5932 16.9351C39.7492 16.5403 39.9847 16.1837 40.2843 15.8886C40.5809 15.5966 40.9311 15.3677 41.3146 15.2154C41.698 15.063 42.1071 14.9902 42.5182 15.0011C43.4842 15.0011 44.2423 15.2969 44.7923 15.8886C45.07 16.1961 45.2858 16.5568 45.4273 16.9499C45.5689 17.3431 45.6335 17.761 45.6174 18.1798C45.6342 18.6114 45.5663 19.0422 45.4176 19.4464C45.269 19.8506 45.0426 20.2201 44.752 20.5328C44.4483 20.8399 44.0859 21.0791 43.6876 21.2354C43.2893 21.3918 42.8637 21.4618 42.4377 21.441ZM39.6604 43.692V23.9592C39.6604 23.7116 39.7673 23.5877 39.9824 23.5877H44.9332C45.1477 23.5877 45.255 23.7115 45.2552 23.9592V43.692C45.2552 43.9675 45.1479 44.1051 44.9332 44.1049H40.0227C39.7812 44.1049 39.6605 43.9673 39.6604 43.692Z" fill="#FF9A00"/>
</g>
<defs>
<clipPath id="clip0_1347_124259">
<rect width="60" height="60" fill="white"/>
</clipPath>
</defs>
</svg>
