<svg width="60" height="60" viewBox="0 0 60 60" fill="none" xmlns="http://www.w3.org/2000/svg">
<g clip-path="url(#clip0_1347_124253)">
<path d="M0 21.7143C0 14.1136 0 10.3132 1.4792 7.41013C2.78034 4.8565 4.8565 2.78034 7.41013 1.4792C10.3132 0 14.1136 0 21.7143 0H38.2857C45.8864 0 49.6868 0 52.5899 1.4792C55.1435 2.78034 57.2197 4.8565 58.5208 7.41013C60 10.3132 60 14.1136 60 21.7143V38.2857C60 45.8864 60 49.6868 58.5208 52.5899C57.2197 55.1435 55.1435 57.2197 52.5899 58.5208C49.6868 60 45.8864 60 38.2857 60H21.7143C14.1136 60 10.3132 60 7.41013 58.5208C4.8565 57.2197 2.78034 55.1435 1.4792 52.5899C0 49.6868 0 45.8864 0 38.2857V21.7143Z" fill="#470137"/>
<path d="M31.3854 17.6439L23.8988 30.3175L31.9085 43.7755C32.0751 44.0806 31.9085 44.1479 31.6671 44.1479H25.9516C25.549 44.1479 25.2673 44.1334 25.1063 43.858C24.5692 42.7847 24.0325 41.7183 23.4963 40.6587C22.9592 39.5995 22.389 38.5192 21.7857 37.418C21.182 36.3176 20.5849 35.203 19.9946 34.0741C19.4575 35.1752 18.8604 36.2761 18.2839 37.3767C17.7066 38.4778 17.1365 39.5718 16.5733 40.6587C16.0099 41.7462 15.433 42.8264 14.8426 43.8993C14.7351 44.147 14.547 44.1725 14.279 44.1725H8.76487C8.54822 44.1725 8.52207 44.0096 8.64414 43.8167L16.4123 30.7303L8.84532 17.6026C8.70786 17.4153 8.82616 17.2156 9.04661 17.231H14.7218C14.9675 17.2171 15.1847 17.3099 15.3255 17.52C15.8086 18.6211 16.3452 19.7219 16.9355 20.8226C17.5255 21.9237 18.1225 23.0108 18.7267 24.0839C19.3304 25.1572 19.9275 26.2443 20.4374 27.3452C20.9737 26.217 21.5171 25.1161 22.0675 24.0426C22.6172 22.9693 23.1806 21.889 23.7579 20.8019C24.3347 19.7151 24.8915 18.6349 25.4283 17.5613C25.4996 17.3258 25.6701 17.2065 25.9113 17.231H31.184C31.3854 17.231 31.4686 17.5058 31.3854 17.6439Z" fill="#FF61F6"/>
<path d="M42.9368 44.684C39.3871 44.7393 35.669 43.2779 33.8 40.0397C32.8874 38.4852 32.4313 36.538 32.4315 34.1983C32.4164 32.3036 32.8884 30.4383 33.8 28.7903C36.1522 24.5857 40.8908 23.0103 45.392 23.4237V15.2911C45.392 15.0989 45.4725 15.0022 45.6335 15.0022H50.7049C50.8436 14.9818 50.9663 15.1076 50.9465 15.2498V39.6475C50.9465 40.6542 51.0463 41.6572 51.1075 42.6611C51.1174 42.8326 51.0182 43.0022 50.866 43.0739C48.3601 44.1458 45.6489 44.6715 42.9368 44.684ZM45.3919 39.565V28.295C41.7158 27.2736 38.1465 30.0737 38.147 33.9506C38.0597 37.9588 41.5148 40.728 45.3919 39.565Z" fill="#FF61F6"/>
</g>
<defs>
<clipPath id="clip0_1347_124253">
<rect width="60" height="60" fill="white"/>
</clipPath>
</defs>
</svg>
