<svg width="60" height="60" viewBox="0 0 60 60" fill="none" xmlns="http://www.w3.org/2000/svg">
<g clip-path="url(#clip0_1347_124256)">
<path d="M0 21.7143C0 14.1136 0 10.3132 1.4792 7.41013C2.78034 4.8565 4.8565 2.78034 7.41013 1.4792C10.3132 0 14.1136 0 21.7143 0H38.2857C45.8864 0 49.6868 0 52.5899 1.4792C55.1435 2.78034 57.2197 4.8565 58.5208 7.41013C60 10.3132 60 14.1136 60 21.7143V38.2857C60 45.8864 60 49.6868 58.5208 52.5899C57.2197 55.1435 55.1435 57.2197 52.5899 58.5208C49.6868 60 45.8864 60 38.2857 60H21.7143C14.1136 60 10.3132 60 7.41013 58.5208C4.8565 57.2197 2.78034 55.1435 1.4792 52.5899C0 49.6868 0 45.8864 0 38.2857V21.7143Z" fill="#001E36"/>
<path d="M12.8572 43.9633V17.5787C12.8572 17.3992 12.9322 17.2967 13.1072 17.2967C15.6906 17.2967 18.273 17.1428 20.8572 17.1428C25.0503 17.1428 29.5907 18.5766 31.1822 22.9633C31.5572 24.0403 31.7572 25.1428 31.7572 26.2967C31.7572 28.5018 31.2572 30.3223 30.2572 31.7582C27.4638 35.7693 22.6221 35.7069 18.2822 35.7069V43.9377C18.3161 44.1814 18.1084 44.2967 17.9072 44.2967H13.1572C12.9572 44.2967 12.8572 44.1941 12.8572 43.9633ZM18.3072 22.2454V30.8608C20.028 30.9868 21.8287 31.0005 23.4822 30.4505C25.3075 29.924 26.3072 28.3439 26.3072 26.4505C26.3579 24.8372 25.4788 23.2892 23.9822 22.7069C22.3486 22.0277 20.0705 21.987 18.3072 22.2454Z" fill="#31A8FF"/>
<path d="M47.35 29.1586C46.5936 28.76 45.7879 28.4683 44.9551 28.2917C43.8849 28.0398 39.6638 27.1579 39.6622 29.365C39.6997 30.5972 41.6557 31.2009 42.5199 31.553C45.5539 32.5946 48.9872 34.4565 48.9197 38.1994C49.0125 42.8589 44.498 44.7215 40.6282 44.722C38.6136 44.7428 36.5149 44.4308 34.6712 43.566C34.4952 43.4728 34.3819 43.2736 34.3894 43.0706V38.6122C34.3696 38.4334 34.5614 38.2772 34.7114 38.4058C36.5179 39.4983 38.6592 40.0287 40.7489 40.0571C41.6715 40.0571 43.4998 39.9676 43.486 38.6122C43.486 37.3114 41.2988 36.7134 40.4269 36.3829C39.1631 35.9318 37.9648 35.3069 36.8648 34.5253C35.3276 33.4288 34.3632 31.6707 34.3894 29.7366C34.3804 25.3493 38.536 23.38 42.2785 23.3791C44.028 23.3647 45.9068 23.4943 47.5354 24.2048C47.7696 24.2737 47.8182 24.5204 47.8171 24.7414V28.9109C47.832 29.1697 47.5446 29.2579 47.35 29.1586Z" fill="#31A8FF"/>
</g>
<defs>
<clipPath id="clip0_1347_124256">
<rect width="60" height="60" fill="white"/>
</clipPath>
</defs>
</svg>
