<svg width="60" height="60" viewBox="0 0 60 60" fill="none" xmlns="http://www.w3.org/2000/svg">
<g clip-path="url(#clip0_1347_124262)">
<path d="M54.5609 0H5.43914C2.43516 0 0 2.43516 0 5.43914V54.5609C0 57.5648 2.43516 60 5.43914 60H54.5609C57.5648 60 60 57.5648 60 54.5609V5.43914C60 2.43516 57.5648 0 54.5609 0Z" fill="#DC395F"/>
<path d="M20.052 18.8778C22.0465 18.8778 23.7173 17.3145 23.7173 15.2656C23.7173 13.2181 22.0465 11.655 20.052 11.655C18.0574 11.655 16.387 13.2181 16.387 15.2656C16.387 17.3142 18.0574 18.8778 20.052 18.8778ZM12.4521 38.2184C12.2367 39.1348 12.1287 40.1243 12.1287 40.9315C12.1287 44.1122 13.8534 46.2237 17.5188 46.2237C20.5587 46.2237 23.0231 44.4185 24.7976 41.5036L23.7141 45.852H29.7504L33.2004 32.0147C34.0629 28.5113 35.7337 26.6928 38.2673 26.6928C40.2616 26.6928 41.5013 27.9331 41.5013 29.9806C41.5013 30.5738 41.4473 31.22 41.2317 31.921L39.4528 38.2812C39.1833 39.1976 39.0759 40.1145 39.0759 40.9763C39.0759 43.9957 40.8541 46.2043 44.5734 46.2043C47.7537 46.2043 50.2868 44.157 51.6884 39.2518L49.317 38.3363C48.131 41.6225 47.1068 42.2166 46.2982 42.2166C45.4896 42.2166 45.0584 41.678 45.0584 40.6006C45.0584 40.1154 45.1666 39.5771 45.3279 38.9288L47.0531 32.7324C47.4841 31.2774 47.6461 29.9871 47.6461 28.8017C47.6461 24.1662 44.843 21.747 41.4473 21.747C38.2673 21.747 35.033 24.6155 33.4163 27.6345L34.6017 22.2157H25.3852L24.0914 26.9885H28.4037L25.7482 37.6198C23.663 42.2553 19.8326 42.3305 19.3519 42.2229C18.5625 42.0448 18.0577 41.745 18.0577 40.7194C18.0577 40.1276 18.1655 39.2775 18.435 38.2526L22.478 22.2157H12.2367L10.943 26.9885H15.2009L12.4523 38.2184" fill="white"/>
</g>
<defs>
<clipPath id="clip0_1347_124262">
<rect width="60" height="60" fill="white"/>
</clipPath>
</defs>
</svg>
