<svg width="60" height="60" viewBox="0 0 60 60" fill="none" xmlns="http://www.w3.org/2000/svg">
<path fill-rule="evenodd" clip-rule="evenodd" d="M13.0909 6.02917L29.9999 4.33594L46.909 6.02917L59.9999 22.6745L29.9999 55.7643L0 22.6745L13.0909 6.02917Z" fill="#FDB300"/>
<path d="M12.1513 22.6746L29.9998 55.7645L0 22.6746H12.1513ZM47.8487 22.6746L30.0002 55.7645L60 22.6746" fill="#EA6C00"/>
<path fill-rule="evenodd" clip-rule="evenodd" d="M12.1513 22.6746H47.8482L29.9998 55.7645" fill="#FDAD00"/>
<path d="M29.9998 4.33594L13.0908 6.02889L12.1514 22.6743L29.9998 4.33594ZM30.0001 4.33594L46.9091 6.02889L47.8485 22.6743" fill="#FDD231"/>
<path d="M60 22.6743L46.9093 6.02881L47.8487 22.6743H60ZM0 22.6743L13.0907 6.02881L12.1513 22.6743" fill="#FDAD00"/>
<path fill-rule="evenodd" clip-rule="evenodd" d="M29.9998 4.33594L12.1514 22.6743H47.8483" fill="#FEEEB7"/>
</svg>
