<svg width="60" height="60" viewBox="0 0 60 60" fill="none" xmlns="http://www.w3.org/2000/svg">
<path fill-rule="evenodd" clip-rule="evenodd" d="M28.2545 43.7692C30.5748 43.4656 32.815 42.7529 34.8454 41.6111C39.8607 38.7868 42.757 33.9323 43.0031 27.9411L43.0244 27.4229H49.9651C49.5381 23.959 48.2466 20.6595 46.2105 17.8307L39.1098 22.443C41.2714 25.8696 41.5487 29.6676 39.9095 33.4618C37.9653 37.9562 33.386 41.8934 28.2545 43.7692Z" fill="#EE3524"/>
<path fill-rule="evenodd" clip-rule="evenodd" d="M50.0703 28.5049H44.0429C43.6368 34.5651 40.4944 39.668 35.3654 42.5563C32.4379 44.2038 29.1056 45.0243 25.7034 45.0243C23.0093 45.0171 20.339 44.5175 17.823 43.5501C20.9067 45.4974 24.3727 46.5626 27.9636 46.5739H28.0186C34.502 46.5739 40.322 43.1021 43.5956 37.2803L43.873 36.7884L47.9062 39.3756C49.3703 36.4698 50.1319 33.2584 50.129 30.0017C50.129 29.4974 50.104 28.9992 50.0703 28.5049Z" fill="#EE3524"/>
<path fill-rule="evenodd" clip-rule="evenodd" d="M28.02 47.6535H27.9625C21.5029 47.6347 15.433 44.3988 11.1136 38.8266C14.3959 45.8555 21.4666 50.7325 29.6456 50.7325C37.2273 50.7325 43.8544 46.5393 47.3966 40.3273L44.243 38.3047C40.7295 44.1729 34.7096 47.6548 28.02 47.6548" fill="#EE3524"/>
<path fill-rule="evenodd" clip-rule="evenodd" d="M29.6446 0C13.2717 0 0 13.4316 0 30C0 46.5684 13.2717 60 29.6446 60C46.0163 60 59.288 46.5696 59.288 30C59.288 13.4304 46.0175 0 29.6446 0ZM29.6446 51.8143C17.7398 51.8143 8.08899 42.0477 8.08899 30C8.08899 17.9536 17.7398 8.18695 29.6446 8.18695C41.5482 8.18695 51.1978 17.9536 51.1978 30C51.1978 42.0477 41.5482 51.8143 29.6446 51.8143Z" fill="#EE3524"/>
</svg>
