<svg width="60" height="60" viewBox="0 0 60 60" fill="none" xmlns="http://www.w3.org/2000/svg">
<path d="M58.5629 0H19.1281V19.7723H38.5319C39.2231 19.7723 39.7839 20.3331 39.7839 21.0244V40.1604H59.8149V1.25437C59.8156 0.921901 59.6839 0.602841 59.449 0.367535C59.2142 0.132229 58.8953 0 58.5629 0Z" fill="#8E75FF"/>
<path opacity="0.405" d="M19.1258 0V19.7723H0.626092C0.371881 19.7719 0.143085 19.618 0.0467742 19.3828C-0.049537 19.1475 0.00568762 18.8774 0.186605 18.6988L19.1258 0ZM40.8506 58.8798C40.6705 59.0567 40.4019 59.1084 40.169 59.0109C39.9361 58.9135 39.7844 58.6859 39.7839 58.4335V40.1604H59.8149L40.8506 58.8775V58.8798Z" fill="#8E75FF"/>
<path opacity="0.405" d="M19.1258 19.7723H39.159C39.5024 19.7723 39.7839 20.0516 39.7839 20.3972V40.1604H20.3801C19.6886 40.1604 19.1281 39.5998 19.1281 38.9083V19.7723H19.1258Z" fill="#8E75FF"/>
</svg>
