<svg width="60" height="60" viewBox="0 0 60 60" fill="none" xmlns="http://www.w3.org/2000/svg">
<path d="M1.85802 29.9702C1.85802 14.7713 14.5672 2.40002 30.1006 2.40002C45.6341 2.40002 58.3433 14.7713 58.3433 29.9702C58.3433 45.1691 45.6341 57.5404 30.1006 57.5404C14.5672 57.5404 1.85802 45.1691 1.85802 29.9702ZM29.3946 39.337C26.5703 39.337 24.4521 39.1603 22.8635 38.8068C21.0983 38.4533 20.0392 37.3929 19.1566 35.9791C18.4506 34.5652 18.0975 32.2677 18.274 29.2633C18.274 27.6727 18.4506 26.0821 18.4506 24.6682C18.6271 23.2544 18.8036 21.8405 19.1566 20.9569L19.3331 19.8965V19.7198C19.3331 19.543 19.1566 19.1896 18.8036 19.1896L15.4498 19.0128H15.2733C15.0967 19.0128 14.7437 19.1896 14.5672 19.3663C14.5672 19.543 14.3907 19.7198 14.3907 20.2499C14.2142 21.3103 14.0376 22.3707 13.6846 23.7846C13.5081 25.3752 13.3316 26.9658 13.3316 28.7331C13.3316 28.7331 13.1551 29.0865 13.3316 32.091C13.5081 35.0954 14.0376 37.3929 14.9202 39.337C15.9793 41.1043 17.568 42.5182 19.8627 43.2251C22.1574 43.932 25.5112 44.2855 29.5711 44.2855H30.1006C34.1605 44.2855 37.5143 43.932 39.809 43.2251C42.1038 42.5182 43.8689 41.1043 44.7515 39.337C45.8106 37.3929 46.3401 35.0954 46.3401 32.091C46.5167 29.0865 46.3401 28.7331 46.3401 28.7331C46.3401 26.9658 46.1636 25.3752 45.9871 23.7846C45.8106 22.194 45.6341 21.3103 45.281 20.2499C45.1045 19.7198 45.1045 19.543 45.1045 19.3663C45.1045 19.1896 44.928 19.0128 44.3985 19.0128H44.2219L40.5151 19.543C40.3386 19.543 39.9856 19.7197 39.9856 20.0732V20.2499L40.1621 21.3103C40.3386 22.3707 40.5151 23.6079 40.8681 25.0217C41.0447 26.6123 41.0447 28.0261 41.0447 29.6167C41.0447 32.6212 40.8681 34.742 40.1621 36.3326C40.1621 37.5697 38.9265 38.4533 37.1613 38.8068C35.5726 39.1603 33.4544 39.337 30.6302 39.337H29.3946Z" fill="#F37021"/>
</svg>
