<svg width="60" height="60" viewBox="0 0 60 60" fill="none" xmlns="http://www.w3.org/2000/svg">
<path d="M19.376 28.2639C19.376 27.1151 18.3322 25.9103 16.5181 25.9103C14.4836 25.9103 12.2498 27.492 11.9078 30.6491C11.5583 33.837 13.4289 35.2536 15.3145 35.2536C17.2001 35.2536 18.1874 34.4746 19.1972 33.4356C18.3288 32.2797 17.2076 32.8139 16.9927 32.9316C16.637 33.1409 16.2342 33.2444 15.8272 33.231C15.0996 33.231 14.3571 32.8849 14.3571 31.4446C19.019 30.9564 19.3753 29.4055 19.3753 28.2639H19.376ZM17.0654 28.4527C17.0355 28.8067 16.9022 29.4127 14.5414 29.7523C15.0377 27.8783 15.9897 27.7376 16.4269 27.7376C16.5155 27.7333 16.604 27.7492 16.6863 27.7842C16.7685 27.8193 16.8427 27.8726 16.9037 27.9406C16.9647 28.0085 17.0112 28.0896 17.0399 28.1782C17.0687 28.2668 17.079 28.3609 17.0702 28.4541L17.0654 28.4527ZM9.16952 28.76L8.08563 32.373L7.32066 26.0998C5.61391 26.0998 4.69594 27.3908 4.21723 28.7521L2.89535 32.3809L2.70972 28.7909C2.60908 27.1222 1.16616 26.107 0 26.107L1.41028 35.1826C3.19862 35.1754 4.16419 33.8916 4.66942 32.5302L5.7873 29.445C5.7975 29.5706 6.55976 35.1833 6.55976 35.1833C8.35626 35.1833 9.32183 33.9792 9.8393 32.6645L12.3552 26.1077C10.5839 26.1077 9.65026 27.3908 9.16816 28.76H9.16952ZM25.9691 25.888C24.8628 25.888 24.0175 26.5256 23.3036 27.4619V27.4547L23.9414 22C22.4713 22 21.2759 23.3542 21.046 25.3689L19.9404 35.1122C20.787 35.1122 21.6852 34.8523 22.168 34.191C22.5991 34.7812 23.2444 35.2536 24.2025 35.2536C26.6817 35.2536 28.3823 32.2 28.3823 29.3344C28.3674 26.7209 27.172 25.8952 25.9766 25.8952L25.9691 25.888ZM25.7379 30.5715C25.4795 32.1691 24.639 33.2554 23.8305 33.2554C23.0221 33.2554 22.6651 32.8699 22.6651 32.8699C22.8215 31.4698 22.918 30.611 23.2145 29.8708C23.511 29.1305 24.2168 27.9501 24.9518 27.9501C25.6726 27.9501 25.999 28.9654 25.7386 30.5708L25.7379 30.5715ZM34.5654 26.1005H32.8355L32.8423 26.0057C32.9613 24.8095 33.2285 24.1799 34.1098 24.0772C34.7116 24.014 34.9788 23.6837 35.0454 23.3218L35.261 22.0546C31.7931 22.0309 30.6956 23.6198 30.4161 26.0452L30.4093 26.1005H30.3719C29.8076 26.1005 29.1847 26.7776 29.08 27.6356L29.0426 27.9501H30.2013L29.2289 36.4656L28.9311 37.9928C28.9685 37.9928 29.0127 38 29.0494 38C30.6745 37.9368 31.7149 36.5755 31.9447 34.5995L32.7036 27.9487H33.2476C33.782 27.9487 34.4063 27.3814 34.5151 26.4373L34.5654 26.1005ZM43.5629 25.9426C41.5658 25.9426 39.6802 27.5006 39.1022 29.949C38.5242 32.3974 39.4 35.2931 42.3389 35.2931C45.2778 35.2931 46.9607 32.2775 46.9607 29.7674C46.9634 27.2723 45.3682 25.9418 43.5635 25.9418L43.5629 25.9426ZM44.372 30.4918C44.2687 31.6019 43.8077 33.2863 42.5456 33.2863C41.2836 33.2863 41.4542 31.319 41.5766 30.382C41.7106 29.3825 42.2376 27.958 43.3732 27.958C44.3945 27.958 44.4904 29.2411 44.3727 30.4926L44.372 30.4918ZM56.8293 28.7521L55.7454 32.3651C55.7161 32.0815 54.9811 26.0919 54.9811 26.0919C53.2743 26.0919 52.3604 27.3829 51.8817 28.7442L50.5599 32.373C50.5531 32.1131 50.3742 28.783 50.3742 28.783C50.2668 27.1143 48.8252 26.0991 47.6543 26.0991L49.0571 35.1747C50.8454 35.1675 51.811 33.8837 52.3162 32.5223L53.43 29.4371C53.4368 29.5627 54.2025 35.1754 54.2025 35.1754C55.999 35.1754 56.9605 33.9713 57.482 32.6566L60 26.0998C58.2334 26.0998 57.2978 27.3829 56.8225 28.7521H56.8293ZM36.1987 22.0531L34.7435 34.4961L34.4457 36.0312C34.4824 36.0312 34.5273 36.0384 34.564 36.0384C36.1293 36.0147 37.2431 34.5593 37.4519 32.7248L38.2903 25.5857C38.5446 23.4051 37.32 22.0517 36.1987 22.0517V22.0531Z" fill="#4353FF"/>
</svg>
