<svg width="60" height="60" viewBox="0 0 60 60" fill="none" xmlns="http://www.w3.org/2000/svg"><path d="M52.4241 40.9848c-2.6595 1.4074-5.4802 2.4239-8.4217 3.1276-3.1834.7037-6.4876.9383-9.7516.7037-5.4802-.4691-10.7992-2.893-14.4661-6.9198-.4432-.4691-.8059-1.0947-1.5312-1.251-1.1283-.2346-1.8939.4691-2.176 1.4856-2.6998 9.7738 6.4876 19.0393 16.5615 18.2183 4.5131-.2737 8.865-1.642 12.6528-3.9877 3.7878-2.3457 6.9309-5.5906 9.1068-9.4219.1209-.1955.2015-.4692.2015-.7037 0-.2346-.0806-.4692-.2015-.7038-.2015-.3127-.4835-.5473-.8865-.6646-.3626-.0782-.7656-.0391-1.088.1173zM29.5231 6.28254c2.5768 1.55607 4.912 3.47125 7.0056 5.62586 2.2144 2.3939 4.0664 5.0672 5.4756 8.0197 2.3352 4.9476 2.8183 10.733 1.0468 15.9598-.2013.6384-.5637 1.2369-.3624 1.9152.3221 1.0772 1.3689 1.3566 2.4158 1.1172 10.0251-2.6733 13.7292-15.2815 7.9718-23.5008-2.4962-3.7106-5.8782-6.743-9.9044-8.81777-3.9859-2.07476-8.455-3.11215-12.924-2.99245-.2416 0-.5235.0798-.7248.1995-.2013.11969-.4026.3192-.5234.55859-.2013.3192-.2415.71819-.161 1.07728.1208.3192.3221.63839.6844.83789zM31.9933 22.2781c-1.7167-.2442-3.4725.0814-4.9551 1.0177-1.4826.9362-2.6141 2.3609-3.1994 4.0706-.5852 1.7096-.5852 3.5821 0 5.251.5853 1.7097 1.7168 3.1344 3.1994 4.0706 1.4826.9362 3.2384 1.3026 4.9551 1.0176 1.7168-.2849 3.2774-1.1397 4.4479-2.483 1.1705-1.3433 1.8338-3.0529 1.9509-4.8847.078-1.7911-.4292-3.5821-1.4436-5.0475-.5853-.8142-1.3266-1.5469-2.185-2.076-.8583-.4478-1.7948-.7735-2.7702-.9363zM30.0754 16.4054c.6492-.1205 1.3796-.1606 1.8665-.6828.771-.8434.487-1.8877-.2434-2.6508-7.3852-7.35012-20.37-4.17713-24.71182 4.9402-2.02889 4.0164-2.96217 8.4747-2.75928 12.9731.20289 4.4984 1.54195 8.8362 3.85487 12.6919.12174.2009.32462.4017.52751.5222.24347.1205.48693.2008.7304.2008.3652 0 .77102-.1607 1.01442-.4016.2841-.2812.4464-.6427.4464-1.0042.0811-3.0123.5681-5.9845 1.4608-8.8763.9738-3.1328 2.3941-6.105 4.2606-8.796 3.2057-4.4984 8.1156-7.7919 13.553-8.9165z" fill="#EF4355"/></svg>