<svg width="60" height="60" viewBox="0 0 60 60" fill="none" xmlns="http://www.w3.org/2000/svg">
<path d="M45.7993 45.7984C43.0466 45.7869 40.8556 43.6463 40.855 40.9668C40.8543 38.0325 43.4221 35.5254 46.4365 35.5146C49.0964 35.5056 51.51 37.8238 51.5139 40.3909C51.519 43.3092 48.8744 45.8118 45.7993 45.7984Z" fill="#40BDD7"/>
<path d="M27.641 41.7074C27.6801 38.816 30.1346 36.3012 32.9187 36.3005C34.7636 36.3005 36.3475 37.5397 36.7819 39.3242C37.5412 42.4416 34.9242 45.8266 31.7032 45.8917C29.4175 45.9383 27.6091 44.076 27.641 41.7074Z" fill="#40BDD7"/>
<path d="M51.0106 29.3946C51.6395 27.6313 51.0228 25.9592 49.4574 24.9147C47.4865 23.5989 44.3858 24.1601 42.7487 26.1297C41.9805 27.0535 41.4904 28.0929 41.6177 29.3142C41.8576 31.6087 43.7077 33.0267 46.184 32.8613C48.636 32.5702 50.3607 31.2161 51.0106 29.3946Z" fill="#40BDD7"/>
<path d="M32.9536 33.7609C30.5477 33.7602 29.0117 31.8443 29.5267 29.4866C30.0148 27.2489 32.2186 25.444 34.4947 25.4185C36.9141 25.3923 38.5249 27.3612 38.008 29.7145C37.5103 31.9777 35.2828 33.7609 32.9536 33.7609Z" fill="#40BDD7"/>
<path d="M17.3938 41.941C17.5902 40.0512 18.6451 38.3268 20.7747 37.4055C23.3086 36.3087 25.7594 38.1059 25.5284 40.8556C25.3512 42.9682 24.2835 44.5432 22.3855 45.4868C19.8388 46.7535 17.3427 45.1472 17.3938 41.941Z" fill="#40BDD7"/>
<path d="M47.9081 14.0071C48.3706 13.9605 49.0864 14.1431 49.7472 14.5511C51.257 15.4838 51.6984 17.1348 50.8738 18.7724C49.872 20.7624 47.1922 21.9926 45.0108 21.4634C42.5901 20.876 41.6101 18.5132 42.9816 16.4517C44.0608 14.8301 45.6211 14.0199 47.9081 14.0071Z" fill="#40BDD7"/>
<path d="M8 42.0407C8.07037 40.6923 9.09391 39.0822 10.9843 38.0824C13.1459 36.939 15.4021 38.3512 15.255 40.7536C15.129 42.817 14.1227 44.4252 12.2752 45.4148C10.0541 46.6061 7.99936 45.3522 8 42.0407Z" fill="#40BDD7"/>
<path d="M34.0931 23.1245C31.9283 23.1188 30.5881 21.3573 31.1863 19.3048C31.8324 17.0913 34.6158 15.3937 36.778 15.8968C38.5526 16.3092 39.4488 17.8428 38.939 19.5927C38.3683 21.5514 36.2029 23.129 34.0931 23.1245Z" fill="#40BDD7"/>
<path d="M24.475 26.9149C26.2981 26.9207 27.5417 28.4848 27.2193 30.3676C26.8822 32.3372 25.1083 34.0667 23.1213 34.3655C21.3148 34.6361 19.8428 33.397 19.823 31.5895C19.7974 29.2395 22.1176 26.9073 24.475 26.9149Z" fill="#40BDD7"/>
<path d="M21.6411 22.0246C21.7198 19.5053 24.7335 17.0895 27.1222 17.6302C28.2481 17.885 29.0407 18.7781 29.143 19.9056C29.3707 22.4261 26.1875 25.1854 23.692 24.6319C22.4024 24.3446 21.6008 23.3257 21.6411 22.0246Z" fill="#40BDD7"/>
<path d="M13.3756 35.1825C11.942 35.1768 10.9377 34.1029 10.9543 32.595C10.9786 30.4141 12.8824 28.2185 15.0465 27.875C16.5895 27.6318 17.8255 28.5888 17.9796 30.1466C18.2138 32.5139 15.7656 35.1908 13.3756 35.1825Z" fill="#40BDD7"/>
<path d="M13.5389 23.491C13.5677 21.5349 15.6148 19.4363 17.6081 19.3214C19.1479 19.2314 20.1663 20.3627 19.9386 21.9071C19.6757 23.6896 17.7936 25.4861 15.9935 25.6719C14.549 25.8213 13.5178 24.9052 13.5389 23.491Z" fill="#40BDD7"/>
<path d="M45.7993 45.7984C43.0466 45.7869 40.8556 43.6463 40.855 40.9668C40.8543 38.0325 43.4221 35.5254 46.4365 35.5146C49.0964 35.5056 51.51 37.8238 51.5139 40.3909C51.519 43.3092 48.8744 45.8118 45.7993 45.7984Z" fill="#40BDD7"/>
<path d="M27.641 41.7074C27.6801 38.816 30.1346 36.3012 32.9187 36.3005C34.7636 36.3005 36.3475 37.5397 36.7819 39.3242C37.5412 42.4416 34.9242 45.8266 31.7032 45.8917C29.4175 45.9383 27.6091 44.076 27.641 41.7074Z" fill="#40BDD7"/>
<path d="M51.0106 29.3946C51.6395 27.6313 51.0228 25.9592 49.4574 24.9147C47.4865 23.5989 44.3858 24.1601 42.7487 26.1297C41.9805 27.0535 41.4904 28.0929 41.6177 29.3142C41.8576 31.6087 43.7077 33.0267 46.184 32.8613C48.636 32.5702 50.3607 31.2161 51.0106 29.3946Z" fill="#40BDD7"/>
<path d="M32.9536 33.7609C30.5477 33.7602 29.0117 31.8443 29.5267 29.4866C30.0148 27.2489 32.2186 25.444 34.4947 25.4185C36.9141 25.3923 38.5249 27.3612 38.008 29.7145C37.5103 31.9777 35.2828 33.7609 32.9536 33.7609Z" fill="#40BDD7"/>
</svg>
