<svg width="60" height="60" viewBox="0 0 60 60" fill="none" xmlns="http://www.w3.org/2000/svg">
<path d="M48.7994 12.5371C48.7581 12.248 48.5103 12.092 48.2993 12.0737C48.0928 12.0553 43.7018 11.7295 43.7018 11.7295C43.7018 11.7295 40.6552 8.70127 40.3202 8.36632C39.9853 8.03137 39.3337 8.13232 39.0768 8.20573C39.0401 8.21491 38.4115 8.4122 37.3699 8.73338C36.3559 5.80605 34.5573 3.11271 31.396 3.11271C31.3088 3.11271 31.217 3.1173 31.1298 3.12189C30.2259 1.93352 29.1156 1.41504 28.152 1.41504C20.7878 1.41504 17.2686 10.6238 16.1628 15.3038C13.2997 16.1894 11.2671 16.8226 11.0055 16.9006C9.40881 17.4007 9.35833 17.4512 9.14727 18.9561C8.99127 20.0986 4.81133 52.4278 4.81133 52.4278L37.3883 58.5303L55.0395 54.7128C55.0349 54.7128 48.8407 12.8216 48.7994 12.5371ZM35.5713 9.29316C34.7546 9.54551 33.8232 9.83458 32.8137 10.1466C32.8137 9.95387 32.8137 9.76116 32.8137 9.5501C32.8137 7.72855 32.5614 6.26029 32.1576 5.09945C33.7865 5.30592 34.8739 7.1596 35.5713 9.29316ZM30.1388 5.46192C30.593 6.59523 30.8867 8.22408 30.8867 10.4265C30.8867 10.5366 30.8867 10.6421 30.8867 10.7477C29.0926 11.3028 27.1472 11.9039 25.1926 12.5096C26.2892 8.27455 28.3401 6.23276 30.1388 5.46192ZM27.9501 3.3926C28.2667 3.3926 28.5879 3.49813 28.8953 3.70919C26.5324 4.81956 24.0042 7.61843 22.9351 13.207C21.3751 13.6888 19.8472 14.1613 18.434 14.6018C19.6866 10.3393 22.6598 3.3926 27.9501 3.3926Z" fill="#95BF47"/>
<path d="M48.3035 12.0738C48.097 12.0554 43.706 11.7296 43.706 11.7296C43.706 11.7296 40.6594 8.70135 40.3244 8.36641C40.2005 8.24252 40.0308 8.17829 39.8518 8.15076L37.3879 58.5303L55.0345 54.7129C55.0345 54.7129 48.8403 12.8217 48.799 12.5372C48.7623 12.2481 48.51 12.0875 48.3035 12.0738Z" fill="#5E8E3E"/>
<path d="M31.3951 21.8236L29.2203 28.2977C29.2203 28.2977 27.3116 27.2791 24.9761 27.2791C21.5486 27.2791 21.3789 29.431 21.3789 29.9724C21.3789 32.9273 29.0872 34.0606 29.0872 40.9889C29.0872 46.4398 25.6322 49.9453 20.9705 49.9453C15.3774 49.9453 12.5189 46.4674 12.5189 46.4674L14.0146 41.5212C14.0146 41.5212 16.9557 44.0447 19.4334 44.0447C21.0531 44.0447 21.7138 42.7692 21.7138 41.8378C21.7138 37.979 15.3911 37.8092 15.3911 31.4728C15.3911 26.1412 19.2178 20.9747 26.9491 20.9747C29.9223 20.9702 31.3951 21.8236 31.3951 21.8236Z" fill="white"/>
</svg>
