<svg width="60" height="60" viewBox="0 0 60 60" fill="none" xmlns="http://www.w3.org/2000/svg">
<path fill-rule="evenodd" clip-rule="evenodd" d="M48.7994 12.5371C48.7985 12.5305 48.7974 12.5241 48.7963 12.5176C48.7973 12.5241 48.7983 12.5306 48.7991 12.5371C48.8404 12.8216 55.0346 54.7128 55.0346 54.7128L37.3883 58.5303L55.0395 54.7128C55.0349 54.7128 48.8407 12.8216 48.7994 12.5371ZM39.8519 8.1507C39.9055 8.15895 39.9583 8.17049 40.0092 8.18593C39.6747 8.08173 39.2673 8.1513 39.0768 8.20573C39.0582 8.21036 38.8889 8.26293 38.5917 8.35517L38.5911 8.35536C38.2996 8.44584 37.8853 8.57444 37.3699 8.73338C36.3559 5.80605 34.5573 3.11271 31.3959 3.11271C31.3088 3.11271 31.217 3.1173 31.1298 3.12189C30.2259 1.93352 29.1156 1.41504 28.152 1.41504C20.7878 1.41504 17.2686 10.6238 16.1628 15.3038C14.8172 15.72 13.6551 16.0805 12.774 16.3537L12.7726 16.3542L12.7723 16.3543C11.7796 16.6621 11.1441 16.8592 11.0055 16.9006C9.4088 17.4007 9.35833 17.4512 9.14726 18.9561C8.99126 20.0986 4.81132 52.4278 4.81132 52.4278L37.388 58.5302L39.8519 8.1507ZM34.2869 9.69066L34.2849 9.69127L34.283 9.69188C33.8164 9.83636 33.3251 9.98853 32.8137 10.1466V9.5501C32.8137 7.72855 32.5614 6.26029 32.1576 5.09945C33.7865 5.30592 34.8739 7.1596 35.5713 9.29316C35.1695 9.41732 34.7399 9.55037 34.2869 9.69066ZM30.1388 5.46192C30.593 6.59523 30.8867 8.22408 30.8867 10.4265V10.7477L28.949 11.347C27.7267 11.7251 26.4616 12.1164 25.1926 12.5096C26.2892 8.27455 28.3401 6.23276 30.1388 5.46192ZM27.9501 3.3926C28.2667 3.3926 28.5879 3.49813 28.8953 3.70919C26.5323 4.81956 24.0042 7.61843 22.9351 13.207C21.3751 13.6888 19.8472 14.1613 18.434 14.6018C19.6866 10.3393 22.6598 3.3926 27.9501 3.3926ZM29.2202 28.2977L31.395 21.8236C31.395 21.8236 29.9222 20.9702 26.949 20.9748C19.2177 20.9748 15.391 26.1412 15.391 31.4728C15.391 35.0318 17.3857 36.6454 19.1344 38.0599C20.499 39.1638 21.7137 40.1464 21.7137 41.8378C21.7137 42.7692 21.053 44.0447 19.4333 44.0447C16.9556 44.0447 14.0145 41.5212 14.0145 41.5212L12.5187 46.4674C12.5187 46.4674 15.3773 49.9453 20.9704 49.9453C25.6321 49.9453 29.0871 46.4398 29.0871 40.9889C29.0871 36.7977 26.2662 34.7272 24.0374 33.0912C22.5818 32.0228 21.3788 31.1398 21.3788 29.9724C21.3788 29.431 21.5485 27.2791 24.976 27.2791C27.3114 27.2791 29.2202 28.2977 29.2202 28.2977Z" fill="black"/>
<path d="M48.5629 12.8311C48.3593 12.8132 44.0297 12.4951 44.0297 12.4951C44.0297 12.4951 41.0256 9.5377 40.6954 9.2106C40.5732 9.08962 40.4058 9.02689 40.2294 9L37.7999 58.2L55.1999 54.4719C55.1999 54.4719 49.0923 13.5615 49.0515 13.2837C49.0153 13.0014 48.7665 12.8446 48.5629 12.8311Z" fill="black"/>
</svg>
