<svg width="60" height="60" viewBox="0 0 60 60" fill="none" xmlns="http://www.w3.org/2000/svg">
<path fill-rule="evenodd" clip-rule="evenodd" d="M2.05863 16.1979C2.83234 14.3247 4.77402 13.0013 6.80824 13.005C22.1103 12.9994 37.4123 13.0068 52.7143 13.0013C54.0415 12.9716 55.3705 13.4659 56.3496 14.3636C57.4713 15.3668 58.1099 16.8661 58.0785 18.3691C58.0729 24.2348 58.0896 30.0987 58.071 35.9645C58.0599 38.6151 55.7444 40.9806 53.0956 41.0528C47.5149 41.0769 41.9324 41.0547 36.3517 41.0639C37.1013 42.9112 37.8602 44.7566 38.6099 46.6057C35.2855 44.7751 31.9945 42.8797 28.6516 41.088C21.3106 41.0232 13.9641 41.0935 6.62129 41.051C3.97625 40.9769 1.66993 38.6132 1.65512 35.9682C1.63291 30.2264 1.65512 24.4829 1.64402 18.7393C1.62365 17.8767 1.7051 16.9957 2.05863 16.1979Z" fill="#9C5C8F"/>
<path fill-rule="evenodd" clip-rule="evenodd" d="M24.5035 16.6254C25.3512 15.724 26.9597 16.0164 27.5854 17.0363C27.9241 17.5712 27.9537 18.2857 27.6816 18.8558C26.5025 21.1751 26.0102 23.759 25.5567 26.2986C25.0199 29.61 24.5738 32.9639 24.7478 36.3253C24.7959 37.1823 24.3813 38.2226 23.4614 38.4225C22.5914 38.6168 21.7992 38.0467 21.2532 37.4322C18.7544 34.7446 17.3402 31.2629 16.3203 27.7886C15.2893 29.8228 14.2546 31.8571 13.2551 33.9079C12.5554 35.2943 11.8169 36.7085 10.6989 37.8098C10.2269 38.2781 9.42913 38.702 8.82016 38.2207C7.90392 37.4193 7.67811 36.1421 7.2894 35.0444C5.81417 29.9561 4.97753 24.7123 4.12053 19.4925C3.92432 18.6226 4.28897 17.5805 5.15707 17.2325C5.8586 16.9697 6.75632 16.9326 7.35418 17.4491C7.77065 17.8211 7.88541 18.3968 7.96316 18.9224C8.56472 22.9631 9.28105 26.9908 10.2565 30.9593C11.9279 27.7905 13.5901 24.616 15.256 21.4435C15.504 20.9789 15.8002 20.5124 16.2555 20.2237C16.8645 19.8331 17.7678 19.8609 18.2768 20.4069C18.7044 20.8549 18.8469 21.4786 18.9654 22.0672C19.4633 24.6901 20.137 27.287 21.1162 29.7729C21.5382 26.0265 22.0546 22.2338 23.4225 18.6966C23.7316 17.984 24.0037 17.2306 24.5035 16.6254ZM33.899 18.6318C35.6982 18.4116 37.6399 19.0094 38.8652 20.3773C39.8647 21.5083 40.4256 22.9761 40.6144 24.4606C40.9198 27.0001 40.4626 29.6396 39.241 31.8922C38.5506 33.1768 37.6473 34.4077 36.3738 35.1629C34.508 36.2957 32.0055 36.1569 30.2026 34.9612C28.7626 33.9746 27.9537 32.2939 27.6242 30.6188C26.9616 26.828 28.0944 22.6022 30.9652 19.9553C31.7889 19.2445 32.8162 18.7633 33.899 18.6318ZM34.2748 22.5318C33.4104 22.8187 32.8644 23.611 32.3998 24.3477C31.2355 26.2227 30.8986 28.6956 31.8352 30.7354C32.0814 31.2722 32.4775 31.8367 33.1013 31.9496C33.7639 32.0588 34.3803 31.6794 34.8634 31.2666C35.9277 30.3541 36.4571 28.9825 36.7144 27.6368C37.0031 26.1042 36.8551 24.4069 35.9555 23.0945C35.5945 22.5596 34.8856 22.3171 34.2748 22.5318ZM48.3348 18.6355C50.0932 18.4171 52.0016 18.9595 53.2325 20.2718C54.3338 21.4601 54.9298 23.0501 55.0983 24.6475C55.3574 27.1019 54.9058 29.6396 53.7415 31.8219C53.0419 33.1416 52.1182 34.4114 50.8077 35.1796C49.016 36.2531 46.6504 36.155 44.8753 35.0963C43.6759 34.3744 42.8781 33.1416 42.4191 31.846C41.1604 27.883 42.2229 23.2204 45.1234 20.2292C45.9933 19.3815 47.1224 18.7873 48.3348 18.6355ZM48.7161 22.5374C47.7721 22.8743 47.2057 23.7757 46.7152 24.5938C45.6528 26.467 45.3918 28.8788 46.3524 30.8464C46.6116 31.3906 47.0706 31.9385 47.7203 31.9681C48.4274 31.994 49.0363 31.5461 49.5268 31.0834C50.5949 30.0302 51.0835 28.5253 51.2538 27.0649C51.4297 25.697 51.202 24.2273 50.4061 23.0797C50.0414 22.5448 49.3251 22.3171 48.7161 22.5374Z" fill="white"/>
</svg>
