<svg width="60" height="60" viewBox="0 0 60 60" fill="none" xmlns="http://www.w3.org/2000/svg">
<path fill-rule="evenodd" clip-rule="evenodd" d="M7.60651 46.2721L10.491 47.7802L11.6579 47.5029L11.8771 26.5377L10.491 26.4705L7.60651 26.761V46.2728V46.2721Z" fill="#9D5025"/>
<path fill-rule="evenodd" clip-rule="evenodd" d="M15.6762 46.5356L10.491 47.7802V26.4697L15.6762 26.72V46.5356Z" fill="#F58534"/>
<path fill-rule="evenodd" clip-rule="evenodd" d="M13.2029 49.1254L18.1495 51.6819L21.3522 50.6405V17.6569L18.1495 17.0349L13.2029 18.55V49.1261V49.1254Z" fill="#9D5025"/>
<path fill-rule="evenodd" clip-rule="evenodd" d="M26.617 48.9229L18.1494 51.6826V17.0349L26.617 18.6921V48.9229Z" fill="#F58534"/>
<path fill-rule="evenodd" clip-rule="evenodd" d="M45.3294 18.0694V42.0106L51.0054 42.9169V17.0349L45.3294 18.0694Z" fill="#9D5025"/>
<path fill-rule="evenodd" clip-rule="evenodd" d="M32.187 16.684L33.3407 9.3938L49.7788 15.5483V19.4167L45.4153 20.0456L32.187 16.684Z" fill="#6B3B19"/>
<path fill-rule="evenodd" clip-rule="evenodd" d="M30.6553 43.7761L35.423 49.5652L49.7788 44.5943V40.6448L45.3758 40.0159L30.6553 43.7761Z" fill="#FCBF92"/>
<path fill-rule="evenodd" clip-rule="evenodd" d="M22.1079 53.6636L30.1311 57.7213L34.8787 55.3L36.4436 5.47616L30.1311 2.2644L22.1079 6.35606V53.6636Z" fill="#9D5025"/>
<path fill-rule="evenodd" clip-rule="evenodd" d="M30.1318 2.27832V57.7359L52.6765 46.2382V13.7753L30.1318 2.27832ZM49.7788 40.6453L36.8881 44.5949V15.5136L49.7851 19.4292L49.7788 40.6453Z" fill="#F58534"/>
</svg>
