<svg width="60" height="60" viewBox="0 0 60 60" fill="none" xmlns="http://www.w3.org/2000/svg">
<path fill-rule="evenodd" clip-rule="evenodd" d="M35.1073 6.87589L47.4447 13.9991C47.7921 13.6311 48.1978 13.3062 48.6582 13.0388C51.2169 11.5679 54.4804 12.4413 55.9667 15C57.4375 17.5587 56.5642 20.8223 54.0055 22.3085C53.5487 22.5711 53.0689 22.759 52.5805 22.8759V37.1278C53.0636 37.245 53.5381 37.4317 53.9901 37.6915C56.5642 39.1777 57.4375 42.4413 55.9513 45C54.4804 47.5587 51.2016 48.4321 48.6429 46.9612C48.1334 46.6683 47.6908 46.3038 47.3202 45.8876L35.0581 52.9674C35.2334 53.497 35.3282 54.0636 35.3282 54.6527C35.3282 57.5945 32.9381 60 29.981 60C27.0239 60 24.6337 57.6098 24.6337 54.6527C24.6337 54.1271 24.7092 53.6194 24.85 53.1398L12.5159 46.0185C12.1722 46.3792 11.772 46.6981 11.3191 46.9612C8.745 48.4321 5.48146 47.5587 4.01058 45C2.53969 42.4413 3.41303 39.1777 5.97176 37.6915C6.42417 37.4315 6.89861 37.2447 7.38136 37.1275V22.8759C6.89303 22.759 6.41326 22.5711 5.95644 22.3085C3.39771 20.8376 2.52437 17.5587 3.99525 15C5.46614 12.4413 8.745 11.5679 11.3037 13.0388C11.7616 13.3047 12.1654 13.6276 12.5116 13.9931L24.8523 6.86797C24.71 6.38612 24.6337 5.87576 24.6337 5.34729C24.6337 2.39019 27.0239 0 29.981 0C32.9381 0 35.3282 2.39019 35.3282 5.34729C35.3282 5.87866 35.2511 6.39172 35.1073 6.87589ZM33.8219 9.07057L46.1886 16.2107C45.8063 17.5533 45.9466 19.042 46.697 20.3473C47.4498 21.6568 48.6761 22.5249 50.0371 22.8632V37.133C49.9678 37.15 49.8988 37.1684 49.8301 37.1882L33.6783 9.21319C33.7271 9.16656 33.7749 9.11901 33.8219 9.07057ZM26.287 9.21643L10.1354 37.1909C10.0656 37.1707 9.99536 37.1518 9.92477 37.1344V22.8632C11.2858 22.5249 12.5121 21.6568 13.2649 20.3473C14.0167 19.0394 14.1561 17.5474 13.771 16.2028L26.1343 9.06462C26.1842 9.11624 26.2351 9.16685 26.287 9.21643ZM31.475 10.4838L47.623 38.4519C47.2616 38.7965 46.9431 39.198 46.6817 39.6527C46.4218 40.1047 46.2351 40.5793 46.118 41.0623H13.8442C13.7271 40.5796 13.5403 40.1051 13.2802 39.6527C13.0178 39.2009 12.7 38.8016 12.3404 38.4586L28.4914 10.4851C28.9641 10.6215 29.4638 10.6946 29.981 10.6946C30.4997 10.6946 31.001 10.621 31.475 10.4838ZM33.9354 51.0502L46.2219 43.9565C46.185 43.8407 46.1521 43.7237 46.1231 43.6057H13.8374C13.8203 43.675 13.8018 43.744 13.7819 43.8126L26.1286 50.9412C27.1008 49.9323 28.4665 49.3054 29.981 49.3054C31.5492 49.3054 32.958 49.9777 33.9354 51.0502Z" fill="#E535AB"/>
</svg>
