<svg width="60" height="60" viewBox="0 0 60 60" fill="none" xmlns="http://www.w3.org/2000/svg">
<path fill-rule="evenodd" clip-rule="evenodd" d="M58.0132 10.5479C57.1092 10.5768 57.3951 10.8373 55.4416 11.318C53.4689 11.8035 51.0592 11.6546 48.9349 12.5455C42.5935 15.205 41.3212 24.2946 35.5563 27.5507C31.2472 29.9847 26.8996 30.1789 22.991 31.4037C20.4223 32.2092 17.6124 33.861 15.2851 35.8666C13.4786 37.4239 13.4314 38.7931 11.5439 40.7463C9.52501 42.8355 3.51993 40.7816 0.79834 43.9792C1.67507 44.8656 2.05943 45.1139 3.78718 44.8839C3.42947 45.5619 1.32086 46.1333 1.73362 47.1307C2.16794 48.1801 7.26568 48.8915 11.8997 46.0937C14.0579 44.7907 15.7769 42.9127 19.138 42.4644C23.4875 41.8847 28.498 42.8362 33.5332 43.5623C32.7866 45.7885 31.2877 47.2689 30.0869 49.0419C29.7151 49.4423 30.8338 49.4872 32.11 49.2452C34.4057 48.6775 36.0602 48.2205 37.7928 47.212C39.9214 45.9729 40.2439 42.796 42.8556 42.1086C44.3107 44.3451 48.2683 44.8735 50.7241 43.0845C48.5692 42.4746 47.9737 37.8878 48.7011 35.8666C49.3901 33.9534 50.0709 30.893 50.7648 28.364C51.5098 25.6479 51.7846 22.2246 52.6862 20.8411C54.0426 18.7596 55.5415 18.0448 56.8427 16.871C58.144 15.6972 59.335 14.5547 59.2959 11.8689C59.2833 11.0038 58.8361 10.5216 58.0132 10.5479Z" fill="#002B64"/>
<path d="M10.6271 45.7899C7.97711 46.9392 5.97024 47.4119 2.67024 46.9392C2.48555 46.6905 2.93287 46.4098 3.47643 46.0688C4.16609 45.6362 5.01067 45.1063 4.91589 44.421C4.45147 44.3696 4.05709 44.3772 3.69023 44.3842C3.03689 44.3968 2.47083 44.4077 1.75187 44.081C1.87581 43.8526 2.05799 43.6623 2.28734 43.5039C3.29079 42.8093 5.19488 42.7122 7.06394 42.6169C9.02748 42.5167 10.9524 42.4186 11.7537 41.6317C12.6207 40.7811 13.2199 39.8947 13.808 39.0248C13.8749 38.9259 13.9415 38.8273 14.0085 38.7289C14.6445 37.7936 15.3019 36.8844 16.3036 36.0649C16.6734 35.7624 17.0755 35.4634 17.5023 35.1716C19.2093 34.0034 21.3209 32.9438 23.399 32.2135C24.7274 31.7465 26.0641 31.4806 27.4205 31.2108C28.9548 30.9056 30.5144 30.5954 32.1159 29.9835C33.9799 29.271 36.007 28.391 37.6592 27.1597C38.0516 26.8669 38.4227 26.555 38.766 26.2205C40.429 24.5993 41.6221 22.5415 42.7922 20.5233C44.9417 16.8158 47.0139 13.2417 51.7802 12.7521C52.407 12.6878 52.9537 12.6834 53.454 12.6794C53.6641 12.6777 53.8661 12.6761 54.0623 12.6702C54.8268 12.6474 55.5034 12.5586 56.2393 12.1438C56.4566 12.8845 56.7966 13.2245 58.2663 13.3605C58.0516 15.2239 56.8086 16.2431 55.415 17.221C55.2709 17.3221 55.1251 17.4227 54.9788 17.5238C53.8794 18.2829 52.7435 19.0673 51.9816 20.2529C51.4864 21.0235 51.0924 22.8391 50.6009 25.1045C50.2144 26.8854 49.7677 28.9444 49.164 30.9919C47.9786 35.0115 46.1884 38.9859 43.0621 40.7273C42.9296 40.3938 42.9114 39.9459 42.8933 39.498C42.8667 38.8418 42.8401 38.1857 42.4541 37.8893C42.0337 39.0881 41.5585 40.2319 41.0018 41.295C39.1674 44.8013 36.4513 47.4266 31.9125 48.2281C34.0661 45.314 36.1254 42.3045 36.1699 37.2816C35.3857 37.4513 35.0159 38.4916 34.6259 39.5888C34.2621 40.6121 33.8807 41.6848 33.1292 42.1467C32.1308 42.2553 31.1194 42.2547 30.1015 42.1935C28.9011 42.1216 27.6918 41.9667 26.4851 41.8122C23.4896 41.4286 20.5099 41.047 17.7223 41.9414C16.1912 42.4328 14.8205 43.3082 13.5033 44.1495C12.5297 44.7712 11.5854 45.3743 10.6271 45.7899Z" fill="white"/>
<path d="M48.8904 42.9837C48.1698 42.3058 47.3536 39.5162 47.2658 38.1102C47.0876 38.2987 46.874 38.5051 46.6446 38.7268C45.7749 39.5672 44.678 40.6272 44.4245 41.7644C45.0481 42.7599 47.4792 43.3269 48.8904 42.9837Z" fill="white"/>
<path d="M55.8371 12.86C55.3946 13.3275 53.9499 14.877 53.4945 16.2849C53.4138 16.5257 53.1786 16.633 53.2967 16.2589C53.756 14.8874 55.0212 13.4101 55.6614 12.7543C55.9441 12.4917 56.0098 12.6593 55.8371 12.86Z" fill="#002B64"/>
<path d="M54.2264 16.3822C54.4306 15.2071 55.2571 14.19 55.7653 13.5645C55.8878 13.4137 55.9918 13.2857 56.0641 13.1837C56.2069 12.9609 56.1181 12.8044 55.8754 13.104C55.7838 13.229 55.6779 13.3649 55.5637 13.5113C55.0029 14.2303 54.2449 15.2021 54.027 16.3842C53.9629 16.771 54.1809 16.6317 54.2264 16.3822Z" fill="#002B64"/>
<path d="M56.1423 13.7573C56.209 13.6523 56.269 13.5579 56.3185 13.4739C56.4428 13.24 56.341 13.0916 56.1243 13.4101C56.0825 13.4787 56.0396 13.5481 55.9959 13.6187C55.5404 14.355 55.0052 15.22 54.8758 16.5331C54.8445 16.9238 55.0501 16.7674 55.0742 16.5146C55.1846 15.2635 55.7683 14.3455 56.1423 13.7573Z" fill="#002B64"/>
<path d="M56.4544 13.9754C56.1696 14.5224 55.7899 15.2516 55.7899 16.5035C55.7876 16.7576 55.597 16.9316 55.5937 16.54C55.6068 15.2204 55.9267 14.5842 56.2915 13.8588C56.3265 13.7891 56.3619 13.7186 56.3976 13.6466C56.5866 13.3099 56.7005 13.4488 56.5977 13.6928C56.555 13.7823 56.5063 13.8759 56.4544 13.9754Z" fill="#002B64"/>
<path d="M49.333 15.7963C50.375 16.701 52.5615 15.9749 52.1708 14.1749C50.5517 14.0409 49.6138 14.5904 49.333 15.7963Z" fill="#002B64"/>
</svg>
