<svg width="60" height="60" viewBox="0 0 60 60" fill="none" xmlns="http://www.w3.org/2000/svg">
<path fill-rule="evenodd" clip-rule="evenodd" d="M31.307 56.3209L29.8932 55.8381C29.8932 55.8381 30.0658 48.6346 27.4796 48.1177C25.7555 46.1187 27.7555 -36.6699 33.9623 47.842C33.9623 47.842 31.8245 48.9104 31.4451 50.7372C31.0312 52.5295 31.307 56.3209 31.307 56.3209Z" fill="white"/>
<path fill-rule="evenodd" clip-rule="evenodd" d="M31.307 56.3209L29.8932 55.8381C29.8932 55.8381 30.0658 48.6346 27.4796 48.1177C25.7555 46.1187 27.7555 -36.6699 33.9623 47.842C33.9623 47.842 31.8245 48.9104 31.4451 50.7372C31.0312 52.5295 31.307 56.3209 31.307 56.3209Z" fill="#A6A385"/>
<path fill-rule="evenodd" clip-rule="evenodd" d="M31.9031 49.2453C31.9031 49.2453 44.3595 41.134 41.4449 24.2584C38.6345 11.9886 32.007 7.96735 31.2785 6.4206C30.4805 5.32083 29.717 3.39624 29.717 3.39624L30.2377 37.5251C30.2377 37.5595 29.1618 47.9735 31.9031 49.2453Z" fill="white"/>
<path fill-rule="evenodd" clip-rule="evenodd" d="M31.9031 49.2453C31.9031 49.2453 44.3595 41.134 41.4449 24.2584C38.6345 11.9886 32.007 7.96735 31.2785 6.4206C30.4805 5.32083 29.717 3.39624 29.717 3.39624L30.2377 37.5251C30.2377 37.5595 29.1618 47.9735 31.9031 49.2453Z" fill="#499D4A"/>
<path fill-rule="evenodd" clip-rule="evenodd" d="M29.1471 49.8113C29.1471 49.8113 17.4486 41.9093 18.143 27.9953C18.8023 14.081 27.0642 7.24424 28.6608 6.00732C29.7024 4.90799 29.7372 4.49558 29.8067 3.39624C30.5355 4.94238 30.3968 26.518 30.5008 29.0603C30.8132 38.8517 29.9454 47.9563 29.1471 49.8113Z" fill="white"/>
<path fill-rule="evenodd" clip-rule="evenodd" d="M29.1471 49.8113C29.1471 49.8113 17.4486 41.9093 18.143 27.9953C18.8023 14.081 27.0642 7.24424 28.6608 6.00732C29.7024 4.90799 29.7372 4.49558 29.8067 3.39624C30.5355 4.94238 30.3968 26.518 30.5008 29.0603C30.8132 38.8517 29.9454 47.9563 29.1471 49.8113Z" fill="#58AA50"/>
</svg>
