<svg width="60" height="60" viewBox="0 0 60 60" fill="none" xmlns="http://www.w3.org/2000/svg">
<path d="M36.3328 28.377L25.9813 31.7675L16.9656 35.7488L14.4483 36.4167C13.8062 37.0331 13.1383 37.6496 12.3934 38.2661C11.5972 38.9596 10.8523 39.5761 10.2872 40.0384C9.64504 40.5521 8.72035 41.4768 8.23231 42.0676C7.51311 42.9666 6.94801 43.917 6.71684 44.6362C6.28018 45.9462 6.48567 47.2819 7.3333 48.5148C8.38643 50.0816 10.5184 51.6742 12.9842 52.753C14.2428 53.3181 16.3748 54.0116 17.9673 54.4226C20.613 55.0904 25.7502 55.8353 28.5756 55.938C29.1407 55.9637 29.9113 55.9637 29.937 55.938C29.9884 55.8867 30.4507 55.0647 30.9387 54.0116C32.6854 50.4669 33.9183 47.1277 34.6118 44.3023C35.0228 42.5813 35.331 40.2953 35.5622 37.5725C35.6136 36.802 35.6393 34.259 35.5879 33.4114C35.5109 31.9987 35.3824 30.8685 35.2026 29.7383C35.1769 29.5842 35.1512 29.4301 35.1769 29.4301C35.2026 29.4044 35.3054 29.3787 36.5897 29.0191L36.3328 28.377ZM33.9697 29.764C34.0724 29.764 34.3036 32.1785 34.3807 33.694C34.4063 34.0022 34.3807 34.2334 34.3807 34.2334C34.3293 34.2334 33.0707 33.4885 32.146 32.9234C31.3754 32.4353 29.8856 31.4336 29.6544 31.2538C29.5774 31.2024 29.5774 31.2024 30.2195 30.9712C31.2983 30.586 33.8669 29.764 33.9697 29.764ZM28.6784 31.5106C28.7554 31.5106 28.9352 31.6134 29.3719 31.8703C30.9901 32.872 33.1734 34.1049 34.1238 34.5159C34.4063 34.6443 34.432 34.593 33.7899 35.0553C32.3772 36.0314 30.5791 36.9818 28.4215 37.9321C28.0362 38.112 27.728 38.2404 27.7023 38.2404C27.6766 38.2404 27.728 38.0349 27.805 37.8037C28.3188 35.8516 28.627 33.8738 28.6527 32.3069C28.6013 31.5106 28.6013 31.5106 28.6784 31.5106ZM27.5996 31.9216C27.6509 31.973 27.6252 33.7196 27.5482 34.2077C27.4198 35.3379 27.1886 36.4167 26.829 37.6239C26.7519 37.9065 26.6749 38.1633 26.6492 38.1633C26.6235 38.2147 25.5447 37.1616 25.1851 36.7506C24.5686 36.0571 24.1063 35.3379 23.7467 34.6443C23.5669 34.2847 23.2843 33.5912 23.31 33.5912C23.4384 33.4885 27.5739 31.8959 27.5996 31.9216ZM22.488 33.9251C22.5394 33.9508 22.5908 34.0792 22.6165 34.2077C22.8733 34.9012 23.4384 35.903 23.9265 36.5194C24.4659 37.2129 25.1594 37.9835 25.7245 38.4716C25.9043 38.6257 26.0841 38.7798 26.1098 38.8055C26.1611 38.8568 26.1611 38.8568 24.9025 39.3192C23.4127 39.8843 21.8202 40.4494 19.9708 41.0402C19.5342 41.1943 19.0975 41.3227 18.6608 41.4768C18.5838 41.5025 18.6095 41.4511 18.8149 41.1429C19.7396 39.7045 21.1267 36.9047 21.8973 34.9012C22.0257 34.5673 22.1541 34.2077 22.1798 34.1306C22.2055 34.0279 22.2569 33.9765 22.3596 33.9251C22.411 33.9508 22.4624 33.9251 22.488 33.9251ZM20.9212 34.5673C20.9469 34.593 20.5359 35.4149 20.1506 36.1855C19.38 37.6753 18.5581 39.1137 17.4536 40.886C17.2738 41.1943 17.094 41.4768 17.0683 41.5025C17.0169 41.5539 17.0169 41.5539 16.8885 41.297C16.6316 40.7833 16.4005 40.0898 16.2977 39.4733C16.1693 38.8568 16.195 37.8037 16.3491 37.1359C16.4518 36.6478 16.4518 36.6478 16.683 36.5451C17.6334 36.0571 20.8698 34.5416 20.9212 34.5673ZM34.4064 35.1324V35.4663C34.4064 37.2129 34.2266 39.6017 33.944 41.3484C33.8926 41.6566 33.8669 41.9135 33.8413 41.9135C33.8413 41.9135 33.6101 41.8621 33.3532 41.7851C32.1717 41.4254 30.9131 40.886 29.7572 40.2439C28.9866 39.8329 27.8821 39.1394 27.9335 39.1137C27.9335 39.1137 28.2674 38.9339 28.6527 38.7284C30.1938 37.9321 31.6579 37.0588 32.9422 36.2112C33.4303 35.903 34.1495 35.3635 34.3036 35.2351L34.4064 35.1324ZM15.0134 37.4441C15.0391 37.4441 15.0391 37.4955 14.9877 37.778C14.962 37.9835 14.9107 38.3688 14.9107 38.6257C14.8593 39.7559 15.0391 40.6035 15.6042 41.7594C15.7583 42.0676 15.8867 42.3501 15.8867 42.3501C15.8354 42.4015 10.6468 43.917 9.02858 44.3537C8.54054 44.4821 8.12957 44.6105 8.0782 44.6105C8.02682 44.6362 8.02683 44.6105 8.02683 44.4821C8.20663 43.3262 9.07995 41.8364 10.3129 40.5521C11.1348 39.7045 11.777 39.2165 12.8815 38.5743C13.6777 38.1633 14.885 37.4698 15.0134 37.4441C14.9877 37.4441 14.9877 37.4441 15.0134 37.4441ZM27.2143 39.6274C27.2143 39.6274 27.4198 39.7302 27.6252 39.8586C29.2948 40.8347 31.6323 41.7337 33.6101 42.196L33.7899 42.2474L33.533 42.3758C32.4799 42.9666 29.0637 44.3793 25.5704 45.6893C25.0566 45.8691 24.5686 46.0746 24.4659 46.1003C24.3631 46.1517 24.2861 46.1517 24.2861 46.1517C24.2861 46.1517 24.4145 45.8691 24.5943 45.5352C25.5704 43.7115 26.5464 41.4768 27.0602 39.9357C27.1629 39.7559 27.2143 39.6274 27.2143 39.6274ZM25.9813 40.0384C25.9813 40.0384 25.93 40.2182 25.8529 40.398C25.1594 42.0419 24.2861 43.8399 23.1302 45.8691C22.8477 46.3828 22.5908 46.7938 22.5908 46.7938C22.5908 46.7938 22.3596 46.6654 22.0771 46.4856C20.4075 45.4581 18.9434 44.2252 17.993 42.9923L17.8646 42.8125L18.5838 42.607C21.1267 41.9135 23.31 41.1686 25.4676 40.2439C25.6988 40.1411 25.9557 40.0384 25.9813 40.0384ZM33.7128 42.7354C33.7128 42.9152 33.3275 44.5334 32.9936 45.6893C32.7111 46.6654 32.4799 47.436 32.0432 48.7973C31.8634 49.3881 31.6836 49.8761 31.6836 49.8761C31.6836 49.8761 31.6323 49.8761 31.5809 49.8505C29.2691 49.4395 27.1629 48.8487 25.2108 48.0524C24.6714 47.8213 23.8751 47.4873 23.8237 47.436C23.798 47.4103 24.2861 47.2048 24.8768 46.9479C28.4472 45.3811 32.1203 43.6344 33.4046 42.8639C33.5587 42.7868 33.6871 42.7354 33.7128 42.7354ZM15.8611 43.3519C15.8867 43.3776 14.885 44.7903 13.4979 46.7424C13.0099 47.436 12.4448 48.2322 12.2393 48.5148C12.0338 48.823 11.6999 49.2854 11.5201 49.5679L11.1862 50.0816L10.8266 49.7734C10.4156 49.4395 9.69641 48.6946 9.3625 48.2836C8.69466 47.436 8.23231 46.5626 8.05251 45.7664C7.97545 45.3811 7.97545 45.2013 8.05251 45.1756C8.18094 45.1499 10.2615 44.6619 12.2136 44.1995C13.2925 43.9427 14.5511 43.6601 15.0134 43.5317C15.4758 43.429 15.8354 43.3519 15.8611 43.3519ZM16.8628 43.7372L17.1197 44.0197C18.2499 45.2783 19.4057 46.203 20.7928 47.025C21.0496 47.1534 21.2294 47.2819 21.2037 47.3075C21.1524 47.3589 16.3748 49.0542 14.1401 49.7991C12.9072 50.2357 11.8797 50.5953 11.854 50.5953L11.6999 50.4926L11.5715 50.3899L11.8027 50.0559C12.5476 49.0028 13.4723 47.8213 15.4758 45.4068L16.8628 43.7372ZM23.1045 48.2066C23.1045 48.2066 23.4641 48.335 23.8751 48.4891C24.9025 48.8744 25.6988 49.1056 26.7776 49.3881C28.1133 49.722 30.0397 50.0559 31.1699 50.1587C31.3497 50.1844 31.4268 50.1844 31.4011 50.2101C31.3497 50.2357 30.1938 50.621 29.3462 50.9036C28.0105 51.3146 23.9008 52.5475 20.5359 53.4979C19.9194 53.6777 19.38 53.8318 19.3544 53.8318C19.2773 53.8575 19.0204 53.7804 19.0204 53.7547C19.0204 53.729 19.2002 53.4979 19.4314 53.241C20.5616 51.9053 21.6661 50.3899 22.6165 48.9771C22.8733 48.5148 23.1045 48.2066 23.1045 48.2066ZM21.7175 48.2322C21.7175 48.2322 21.1781 49.1313 20.202 50.6724C19.791 51.3146 19.3287 52.0595 19.1489 52.3163C18.9948 52.5732 18.7636 52.9585 18.6351 53.1896L18.404 53.6006L18.2755 53.5749C17.993 53.4979 16.0152 52.8043 15.5015 52.5989C14.8593 52.342 14.1915 52.0338 13.6777 51.7512C13.0613 51.4173 12.265 50.9036 12.3421 50.9036C12.3678 50.9036 13.4209 50.5954 14.7309 50.2614C18.1471 49.3367 20.0479 48.7973 21.3065 48.3863C21.512 48.2836 21.7175 48.2322 21.7175 48.2322ZM31.4525 50.5183C31.5038 50.5954 30.2195 54.1143 29.7572 55.2188C29.6544 55.4757 29.6288 55.5271 29.5517 55.5271C29.4233 55.5271 27.5739 55.2702 26.4694 55.0904C24.5172 54.7822 21.2551 54.2171 20.4332 54.0373L20.2534 53.9859L21.4092 53.729C23.9265 53.1639 25.108 52.8557 26.3409 52.4961C27.8821 52.0338 29.3976 51.443 30.9387 50.7238C31.1956 50.621 31.4011 50.5183 31.4525 50.5183Z" fill="url(#paint0_linear_1347_124330)"/>
<path d="M25.6474 4.25781C25.4676 4.23212 22.6935 5.23388 20.8955 5.95308C18.481 6.92915 16.6059 7.87954 15.45 8.70149C15.0134 9.00972 14.474 9.54913 14.3969 9.75461C14.3712 9.83167 14.3456 9.93442 14.3456 10.0115L15.3987 11.0132L17.8902 11.8095L23.8237 12.8626L30.6048 14.0185L30.6819 13.4277H30.6305L29.7315 13.2993L29.5517 12.991C28.627 11.3728 27.5995 9.34364 27.0088 7.98228C26.5464 6.92915 26.1097 5.69622 25.8786 4.8229C25.7501 4.28349 25.7245 4.25781 25.6474 4.25781ZM25.519 4.6431C25.5446 4.6431 25.5703 4.87427 25.596 5.13113C25.7245 6.23563 25.9813 7.28876 26.3666 8.41894C26.6492 9.29226 26.6491 9.24089 26.3152 9.13815C25.519 8.90698 21.9486 8.29051 19.3543 7.93091C18.9433 7.87954 18.5837 7.82816 18.5837 7.80248C18.5581 7.77679 20.4588 6.77504 21.2808 6.38975C22.3596 5.90171 25.3135 4.69447 25.519 4.6431ZM17.9673 8.16208L18.2755 8.26482C19.9451 8.82992 24.1062 9.62618 26.418 9.80598C26.6748 9.83167 26.906 9.85736 26.906 9.85736C26.906 9.85736 26.7005 9.98579 26.418 10.1142C25.3135 10.6793 24.0805 11.3471 23.2329 11.8866C22.976 12.0407 22.7449 12.1691 22.7192 12.1691C22.6935 12.1691 22.5137 12.1434 22.3596 12.1177L22.0514 12.0664L21.2808 11.2958C19.8937 9.9601 18.8149 8.93266 18.4039 8.52168L17.9673 8.16208ZM17.659 8.39325L18.7635 9.7803C19.3543 10.5509 19.9708 11.2701 20.0992 11.4499C20.2276 11.604 20.3304 11.7581 20.3304 11.7581C20.3047 11.7838 18.7379 11.4756 17.9159 11.2958C17.0683 11.0903 16.7087 11.0132 16.1949 10.8334L15.7583 10.705V10.6023C15.7583 10.0885 16.4261 9.29226 17.5563 8.496L17.659 8.39325ZM27.0344 10.2683C27.0601 10.2683 27.1115 10.3454 27.1886 10.5509C27.4454 11.1417 28.2931 12.7085 28.4985 13.0167C28.5499 13.1195 28.6783 13.1195 27.5738 12.9397C24.9282 12.503 24.0805 12.3746 24.0805 12.3489C24.0805 12.3489 24.1576 12.2975 24.2604 12.2205C25.0823 11.7581 25.9043 11.193 26.6491 10.5766C26.8289 10.4224 26.9831 10.294 27.0344 10.2683C27.0344 10.2683 27.0087 10.2683 27.0344 10.2683Z" fill="url(#paint1_linear_1347_124330)"/>
<path d="M14.4483 9.62598C14.4483 9.62598 14.2685 9.90852 14.4483 10.3195C14.551 10.5764 14.8592 10.8846 15.1932 11.1928C15.1932 11.1928 18.6865 14.5834 19.0974 15.0714C21.0239 17.3061 21.8715 19.4894 21.9486 22.4947C22 24.4468 21.6404 26.1421 20.7157 28.1199C19.0974 31.6646 15.6555 35.5945 10.3642 39.9355L11.1348 39.6786C11.6228 39.2933 12.3163 38.908 13.9089 38.0347C17.6077 36.0055 21.7431 34.1561 26.8289 32.2553C34.1494 29.5069 46.1962 26.2705 53.0543 25.2174L53.7735 25.1146L53.6708 24.9348C53.0543 23.9588 52.6177 23.368 52.104 22.7258C50.6142 20.8508 48.7905 19.361 46.5558 18.1024C43.4991 16.3814 39.5178 15.0457 34.4834 14.044C33.533 13.8642 31.4524 13.5046 29.7571 13.2477C26.1611 12.6826 23.8494 12.2973 21.3064 11.8607C20.3817 11.7065 19.0204 11.4754 18.1214 11.2699C17.659 11.1671 16.76 10.9616 16.0408 10.7048C15.4243 10.525 14.6281 10.2938 14.4483 9.62598ZM16.4775 11.6038C16.4775 11.6038 16.6059 11.6552 16.7857 11.7065C17.0939 11.8093 17.4792 11.9377 17.9159 12.0405C18.2498 12.1432 18.6094 12.2203 18.9433 12.323C19.4057 12.4514 19.8166 12.5542 19.8166 12.5542C19.868 12.6056 20.6643 15.1485 20.9211 16.0989C21.0239 16.4585 21.1009 16.7924 21.1009 16.7924C21.1009 16.7924 20.9982 16.6639 20.8955 16.4841C19.9708 14.8659 18.5323 13.2477 16.8628 11.912C16.6316 11.7322 16.4775 11.6038 16.4775 11.6038ZM20.3304 12.6569C20.3817 12.6569 20.5359 12.6826 20.7413 12.734C22.077 13.0422 24.4658 13.4789 25.9813 13.7357C26.2382 13.7871 26.4436 13.8128 26.4436 13.8385C26.4436 13.8642 26.3409 13.9155 26.2382 13.9669C25.9813 14.0953 24.9282 14.7118 24.5942 14.943C23.7209 15.5338 22.9503 16.1502 22.3853 16.7153L21.9743 17.1263C21.9743 17.1263 21.9229 16.9979 21.8972 16.8181C21.6147 15.7392 21.0239 14.121 20.4845 12.9908C20.3817 12.8367 20.3047 12.6569 20.3304 12.6569C20.3047 12.6569 20.3047 12.6569 20.3304 12.6569ZM27.0858 13.9412C27.1372 13.9669 27.2142 14.2238 27.3683 14.8146C27.6509 15.9447 27.7793 17.229 27.7536 18.4106C27.7279 18.7445 27.7279 19.0527 27.7022 19.0784L27.6766 19.1555L27.2656 19.0271C26.418 18.7702 25.0566 18.3592 23.9007 18.0253C23.2329 17.8455 22.6935 17.6914 22.6935 17.6657C22.6935 17.6143 23.6695 16.6383 24.0805 16.2787C24.8768 15.5851 27.0344 13.9155 27.0858 13.9412ZM27.6252 14.0183C27.6509 13.9926 30.8616 14.5577 32.3257 14.8402C33.4045 15.0457 34.9971 15.3796 35.0998 15.431C35.1512 15.4567 34.9714 15.5338 34.4577 15.7649C32.4028 16.6896 30.8616 17.5373 29.3205 18.539C28.9095 18.7959 28.5756 19.0271 28.5756 19.0271C28.5756 19.0271 28.5499 18.7959 28.5499 18.539C28.5499 17.0492 28.2417 15.5594 27.7022 14.2751C27.6766 14.1467 27.6252 14.044 27.6252 14.0183ZM35.9475 15.6622C35.9731 15.6879 35.8704 16.33 35.7677 16.6896C35.4851 17.8455 34.7145 19.5921 33.7898 21.2104C33.6357 21.4929 33.4816 21.7241 33.4559 21.7498C33.4302 21.7498 33.2247 21.647 32.9936 21.4929C32.0946 20.9535 31.0414 20.4655 29.9369 20.0031C29.6287 19.8747 29.3462 19.7719 29.3462 19.7463C29.2948 19.6949 31.812 18.0253 33.1477 17.229C34.2008 16.5869 35.9218 15.6365 35.9475 15.6622ZM36.5382 15.7649C36.6153 15.7649 38.028 16.1502 38.7729 16.3814C40.6223 16.9208 42.7286 17.6914 44.0899 18.3335L44.655 18.5904L44.244 18.6931C40.8792 19.4637 38.0023 20.3627 35.2283 21.4929C34.9971 21.5957 34.7916 21.6727 34.7916 21.6727C34.7659 21.6727 34.843 21.4929 34.9457 21.2617C35.7933 19.4894 36.3327 17.64 36.4612 16.0475C36.5126 15.8934 36.5382 15.7649 36.5382 15.7649ZM22.3596 19.0271C22.3853 19.0014 23.4641 19.2582 24.0548 19.438C24.9539 19.6949 26.8289 20.3114 26.8289 20.3627C26.8289 20.3627 26.6234 20.5425 26.3666 20.7737C25.3391 21.6213 24.3631 22.5204 23.1815 23.6762C22.8219 24.0101 22.5394 24.2927 22.5137 24.2927C22.488 24.2927 22.488 24.2413 22.488 24.1899C22.6678 22.88 22.6164 21.1847 22.3853 19.4637C22.3853 19.2069 22.3596 19.0271 22.3596 19.0271ZM45.2201 19.0527C45.2458 19.0784 44.7064 19.8747 44.3982 20.337C43.9358 21.0049 43.2423 21.9039 41.6754 23.856C40.8535 24.8835 39.9288 26.065 39.6206 26.4503C39.3123 26.8356 39.0555 27.1695 39.0298 27.1695C39.0298 27.1695 38.927 27.0411 38.7986 26.8613C37.9253 25.5513 36.8722 24.3954 35.6392 23.368C35.4081 23.1625 35.1512 22.957 35.0484 22.9056C34.9714 22.8543 34.8943 22.7772 34.8943 22.7772C34.8943 22.7515 36.23 22.1864 37.2318 21.7755C39.0041 21.0562 41.4186 20.1829 43.2166 19.6435C44.1927 19.3096 45.2201 19.0271 45.2201 19.0527ZM45.8366 19.2069C45.8623 19.2069 46.0677 19.2839 46.2732 19.438C48.174 20.5168 50.0491 21.9296 51.5132 23.368C51.9242 23.779 52.9516 24.8321 52.9259 24.8578C52.9259 24.8578 52.5663 24.8835 52.1553 24.9091C48.8675 25.166 44.655 25.8595 40.5966 26.8356C40.3141 26.887 40.0829 26.964 40.0572 26.964C40.0315 26.964 40.3398 26.6558 40.7251 26.2962C43.1139 24.0101 44.1927 22.546 45.477 19.9774C45.6568 19.5408 45.8109 19.2325 45.8366 19.2069C45.8109 19.2069 45.8109 19.2069 45.8366 19.2069ZM28.3958 20.9792C28.4985 21.0049 29.526 21.4929 30.2965 21.8525C30.9901 22.2121 32.0689 22.7772 32.1202 22.8029C32.1202 22.8029 31.7606 23.0084 31.2983 23.2396C29.8342 23.9845 28.5756 24.678 27.2399 25.4742C26.8546 25.7054 26.5464 25.8852 26.5464 25.8852C26.5207 25.8852 26.5207 25.8595 26.7262 25.4742C27.4197 24.1899 27.9848 22.6488 28.3187 21.159C28.3444 21.0562 28.3701 20.9792 28.3958 20.9792ZM27.394 21.1847C27.4197 21.2104 27.1628 22.1607 26.983 22.7002C26.6748 23.7019 26.1097 24.9348 25.596 25.8852C25.4676 26.1164 25.2878 26.4246 25.185 26.6044L24.9795 26.9127L24.5429 26.5017C24.0292 26.0136 23.6182 25.7054 23.0788 25.4229C22.8733 25.3201 22.6935 25.2174 22.6935 25.1917C22.6935 25.1403 24.0292 23.9074 25.0566 23.0341C25.8015 22.3919 27.3683 21.159 27.394 21.1847ZM33.61 23.7276L33.9953 23.9845C34.8686 24.5495 35.8961 25.3201 36.6924 25.988C37.129 26.3476 38.0023 27.1181 38.1821 27.3236L38.2849 27.4264L37.6427 27.6062C34.0467 28.6079 31.2983 29.4813 28.0619 30.6628C27.7022 30.7912 27.394 30.894 27.3683 30.894C27.317 30.894 27.2913 30.9454 28.0875 30.2005C30.1424 28.2997 31.9918 26.1934 33.3532 24.1643L33.61 23.7276ZM31.9661 24.1386C31.9918 24.1643 30.913 25.654 30.2709 26.5274C29.5003 27.5548 28.1389 29.2501 27.2142 30.3546C26.8289 30.8169 26.495 31.2022 26.4693 31.2022C26.4436 31.2022 26.4436 31.0995 26.4436 30.9197C26.4436 29.9693 26.2125 28.9675 25.7758 28.0942C25.596 27.7346 25.5703 27.6576 25.596 27.6062C25.7501 27.4777 28.0105 26.1678 29.4746 25.3972C30.425 24.8835 31.9404 24.1129 31.9661 24.1386ZM22.077 26.5531C22.1027 26.5531 22.2825 26.6558 22.488 26.7585C22.976 27.0411 23.4384 27.3493 23.8237 27.6576C23.8493 27.6832 23.6439 27.8374 23.3613 28.0428C22.6164 28.5822 21.4862 29.4299 20.8441 29.9436C20.1506 30.483 20.1249 30.5087 20.2019 30.3803C20.7157 29.584 20.9725 29.1473 21.2551 28.5822C21.4862 28.0685 21.7431 27.4778 21.9229 26.9383C21.9743 26.7329 22.0513 26.5531 22.077 26.5531ZM24.7227 28.6336C24.774 28.6336 24.7997 28.685 25.0309 29.0189C25.4676 29.6867 25.8272 30.5858 25.9042 31.305L25.9299 31.4591L24.8511 31.8701C22.9247 32.615 21.1523 33.3598 19.9708 33.8993C19.6368 34.0534 19.0461 34.3359 18.6608 34.5157C18.2755 34.7212 17.9673 34.8496 17.9673 34.8496C17.9673 34.8496 18.1984 34.6698 18.5067 34.4387C20.8441 32.7434 22.8733 30.8683 24.3888 29.0189C24.5429 28.8134 24.697 28.6336 24.7227 28.6336ZM23.5154 28.9162C23.5411 28.9419 22.6421 29.9693 22.0513 30.5858C20.5359 32.1269 19.0461 33.3342 17.1967 34.5157C16.9655 34.6698 16.76 34.7983 16.7343 34.8239C16.683 34.8496 16.76 34.7726 17.5563 33.8993C18.07 33.3342 18.4553 32.8718 18.9176 32.3067C19.2259 31.9214 19.2772 31.8701 19.6882 31.5618C20.8184 30.6885 23.4641 28.8905 23.5154 28.9162Z" fill="url(#paint2_radial_1347_124330)"/>
<defs>
<linearGradient id="paint0_linear_1347_124330" x1="14.2922" y1="50.825" x2="18.0357" y2="48.613" gradientUnits="userSpaceOnUse">
<stop stop-color="#909CA9"/>
<stop offset="1" stop-color="#EDEDEE"/>
</linearGradient>
<linearGradient id="paint1_linear_1347_124330" x1="14.376" y1="9.14765" x2="17.3881" y2="9.14765" gradientUnits="userSpaceOnUse">
<stop stop-color="#939FAB"/>
<stop offset="1" stop-color="#DCDEE1"/>
</linearGradient>
<radialGradient id="paint2_radial_1347_124330" cx="0" cy="0" r="1" gradientUnits="userSpaceOnUse" gradientTransform="translate(29.5614 22.9432) rotate(-171.457) scale(3.88345 7.76882)">
<stop stop-color="#EE352C"/>
<stop offset="1" stop-color="#A91D22"/>
</radialGradient>
</defs>
</svg>
