<svg width="60" height="60" viewBox="0 0 60 60" fill="none" xmlns="http://www.w3.org/2000/svg">
<path d="M46.9134 46.7386C48.9841 45.8627 51.4531 45.544 54.6387 45.6234C54.5491 45.0273 53.4108 44.3194 52.5768 43.8007C52.2968 43.6266 52.0512 43.4738 51.891 43.3538C50.6167 42.438 49.2627 41.4819 47.9089 40.646C47.4728 40.3795 46.8449 40.1572 46.2406 39.9432C45.8519 39.8055 45.4729 39.6713 45.1612 39.5311C44.8426 39.4013 44.4087 39.2714 43.9403 39.1313C42.8276 38.7984 41.5199 38.4071 41.0994 37.8188C40.0166 36.4111 39.261 34.709 38.5064 33.0091C38.4284 32.8335 38.3505 32.658 38.2722 32.4827C37.8772 31.5798 37.4378 30.6591 36.9959 29.7332C36.5024 28.6991 36.0057 27.6585 35.5644 26.629C35.3721 26.2096 35.2259 25.8132 35.082 25.4229C34.898 24.9239 34.7177 24.435 34.4495 23.9212C31.5423 18.3066 27.242 13.6075 22.0253 10.3024C20.3128 9.2272 18.4017 8.23143 16.291 7.55467C15.6464 7.36139 14.9324 7.33028 14.2113 7.29886C13.5959 7.27204 12.9754 7.245 12.3886 7.11674H11.5522C11.0694 6.98262 10.6407 6.59545 10.242 6.2353C10.0488 6.06083 9.8627 5.89269 9.68081 5.76273C8.44621 4.92659 7.21186 4.36874 5.73844 3.77168C5.22083 3.53286 3.7474 2.97526 3.22978 3.41345C2.91101 3.49314 2.75188 3.61255 2.67219 3.93107C2.35367 4.40897 2.63272 5.1257 2.83157 5.56363C3.22628 6.40569 3.72537 7.02173 4.23681 7.65301C4.49935 7.97707 4.76514 8.30514 5.02173 8.66986C5.14429 8.84284 5.27206 9.01973 5.40197 9.1996C5.98972 10.0133 6.62139 10.8878 7.01278 11.7359C7.56506 12.9256 7.95873 14.1833 8.35095 15.4365C8.69394 16.5323 9.03583 17.6246 9.48172 18.6648C9.83996 19.5012 10.3975 20.4568 10.9152 21.2135C11.0775 21.4349 11.2892 21.6344 11.5034 21.8364C11.8671 22.1793 12.2383 22.5292 12.3886 23.0054C12.7759 23.6508 12.0649 25.4988 11.6329 26.6217C11.5318 26.8846 11.446 27.1077 11.3931 27.2663C10.3576 30.5314 10.5567 35.0711 11.7513 37.8983C11.794 37.9979 11.8364 38.0991 11.8791 38.2011C12.3142 39.2403 12.7812 40.3557 13.9415 40.646C13.9776 40.6099 13.981 40.5984 13.9888 40.5928C13.9981 40.5861 14.0138 40.5882 14.1009 40.5663C14.1591 40.1086 14.2087 39.6544 14.2576 39.2065C14.4426 37.5114 14.6176 35.9079 15.2158 34.5535C15.5008 33.8541 15.971 33.2895 16.4292 32.7392C16.6755 32.4435 16.9183 32.1519 17.1271 31.8457C17.3799 31.9973 17.4722 32.3412 17.567 32.6945C17.6216 32.8979 17.6771 33.1045 17.7644 33.2791C17.802 33.3688 17.8398 33.4591 17.8779 33.5499C18.3635 34.7095 18.8859 35.9572 19.4767 37.1019C20.7907 39.6505 22.2644 42.1192 23.9367 44.3493C24.494 45.1457 25.2907 46.0218 26.0074 46.7386C26.1164 46.834 26.23 46.9154 26.342 46.9955C26.5571 47.1496 26.766 47.2992 26.9232 47.535H27.0029V47.6546C26.2469 47.3773 25.6664 46.7811 25.0997 46.199C24.7709 45.8613 24.4468 45.5284 24.0958 45.2654C22.3039 43.9114 20.1537 41.8804 18.9191 39.9293C18.5302 39.0917 18.119 38.2766 17.702 37.4502C17.564 37.1765 17.4253 36.9016 17.2865 36.6242C17.2865 36.6242 17.2867 36.5842 17.2865 36.5445C17.1344 36.7475 17.1115 36.9503 17.084 37.1945C17.0683 37.3335 17.0511 37.486 17.0077 37.6594C16.8601 38.2272 16.787 38.8176 16.7163 39.3882C16.5391 40.8187 16.3774 42.1247 15.0964 42.6371C13.0656 43.4735 11.5522 41.2828 10.9152 40.2875C8.88441 36.9825 8.32682 31.4075 9.76027 26.9078C9.87117 26.5615 9.94832 26.191 10.0253 25.8216C10.1695 25.1293 10.3129 24.4406 10.6764 23.9212C10.5965 23.4427 10.3214 23.1948 10.0527 22.9525C9.91889 22.8319 9.78667 22.7127 9.68083 22.5672C9.12323 21.8108 8.64559 20.9347 8.2074 20.0985C7.57071 18.8556 7.07271 17.4279 6.59007 16.0443C6.43869 15.6103 6.28883 15.1807 6.13667 14.7624C6.00074 14.413 5.9122 14.0634 5.82484 13.7185C5.73302 13.356 5.6425 12.9986 5.49963 12.652C5.1232 11.8363 4.49986 11.0208 3.92116 10.2637C3.76516 10.0597 3.61241 9.85983 3.46861 9.66538C3.31349 9.44276 3.10809 9.18473 2.87912 8.89709C1.75633 7.48663 0.0668662 5.36428 0.959956 3.21435C2.63248 -0.887162 8.48646 2.21857 10.7558 3.65228C10.9827 3.79818 11.2229 4.01 11.4708 4.22871C11.8321 4.54738 12.2099 4.88068 12.5877 5.04601C13.0856 5.066 13.5835 5.09586 14.0814 5.12572C14.5791 5.15557 15.0768 5.18541 15.5743 5.20539C15.7373 5.24354 15.8994 5.28108 16.0605 5.31839C17.749 5.7094 19.3262 6.07464 20.6713 6.83795C27.5206 10.86 31.9806 14.9615 36.0821 21.7311C36.6389 22.6421 37.0188 23.6015 37.4057 24.5785C37.6276 25.1387 37.8517 25.7047 38.1128 26.2708C39.1083 28.5803 40.2238 31.0091 41.3782 33.1994C41.5233 33.4898 41.6591 33.7895 41.7951 34.0899C42.1442 34.8606 42.4951 35.6353 43.011 36.2657C43.1964 36.5308 43.6114 36.6722 44.009 36.8077C44.2088 36.8758 44.4041 36.9424 44.5639 37.0224C45.0789 37.2877 45.6368 37.5285 46.1991 37.7713C47.0715 38.1479 47.9546 38.5292 48.7053 39.0135C51.0149 40.4469 53.245 42.1589 55.2758 43.9114C55.6863 44.2787 56.0265 44.728 56.3663 45.1766C56.6529 45.555 56.9391 45.9329 57.2668 46.2609V46.6192C56.6298 46.8183 55.9925 47.0174 55.3555 47.1768C54.6623 47.3549 54.0086 47.4248 53.3599 47.4941C52.7043 47.5641 52.054 47.6336 51.3734 47.8138C51.2876 47.8383 51.1997 47.8637 51.1101 47.8895C50.3262 48.1157 49.4119 48.3796 48.6256 48.4511C48.6654 48.4908 48.7053 48.5305 48.7053 48.5305C49.0892 49.6231 50.7212 50.5623 52.0587 51.3321C52.5249 51.6005 52.9554 51.8482 53.2847 52.0747C54.8378 53.1896 56.2713 54.5436 57.4262 56.0965C57.6247 56.295 57.8233 56.4837 58.0219 56.6723C58.2216 56.862 58.4213 57.0517 58.6208 57.2514C58.7557 57.4442 58.8439 57.665 58.9307 57.8821C59.0232 58.1135 59.1141 58.3408 59.2579 58.5257V58.6451C58.9095 58.5207 58.67 58.2719 58.4325 58.025C58.2899 57.8768 58.1479 57.7293 57.9835 57.6099C57.6085 57.3542 57.2335 57.0765 56.8586 56.7988C56.3576 56.4278 55.8567 56.0569 55.3555 55.7383C54.585 55.2515 53.7524 54.8682 52.9158 54.4829C52.1094 54.1115 51.2992 53.7384 50.537 53.2693C49.6611 52.7117 48.8247 52.0747 47.9886 51.4376C47.2319 50.8801 46.396 49.8046 45.9179 49.0084C45.7973 48.8191 45.7215 48.615 45.6485 48.4184C45.5526 48.1602 45.4616 47.9151 45.2806 47.7341C45.3402 47.1684 45.8898 47.0256 46.4129 46.8897C46.5894 46.8439 46.7628 46.7988 46.9134 46.7386Z" fill="#00546B"/>
<path d="M12.3884 11.2182C12.8663 11.0988 13.344 11.0189 14.021 11.0189C14.1472 11.1452 14.3047 11.2527 14.4637 11.3612C14.7061 11.5266 14.952 11.6944 15.0962 11.935C15.1846 12.0588 15.2416 12.1827 15.2986 12.3066C15.3699 12.4615 15.4412 12.6164 15.5741 12.7714C15.5741 13.7269 15.2955 14.3639 14.7377 14.7624C14.7377 14.7624 14.698 14.8021 14.6583 14.8421C14.4991 14.5239 14.35 14.2057 14.2009 13.8876C14.0513 13.5685 13.9018 13.2495 13.7422 12.9305C13.5871 12.7135 13.408 12.5145 13.2282 12.3148C12.9462 12.0017 12.6627 11.6869 12.4681 11.2979H12.3884V11.2182Z" fill="#00546B"/>
</svg>
