<svg width="60" height="60" viewBox="0 0 60 60" fill="none" xmlns="http://www.w3.org/2000/svg">
<path d="M30 13.5769L3.96228 23.9181V14.6849L30 4.52832V13.5769Z" fill="#9C002F"/>
<path d="M30 24.1951L3.96228 34.5363V25.303L30 15.1465V24.1951Z" fill="#9C002F"/>
<path d="M30 34.5364L3.96228 44.8776V35.6444L30 25.4878V34.5364Z" fill="#9C002F"/>
<path d="M30 13.5769L56.0377 23.9181V14.6849L30 4.52832V13.5769Z" fill="#FF004E"/>
<path d="M30 24.1951L56.0377 34.5363V25.303L30 15.1465V24.1951Z" fill="#FF004E"/>
<path d="M30 34.5364L56.0377 44.8776V35.6444L30 25.4878V34.5364Z" fill="#FF004E"/>
<path d="M30 25.1184L3.96228 14.7772V24.0104L30 34.167V25.1184Z" fill="#00B4FF"/>
<path d="M30 35.8291L3.96228 25.4879V34.7211L30 44.8777V35.8291Z" fill="#00B4FF"/>
<path d="M30 46.355L3.96228 36.0138V45.247L30 55.4036V46.355Z" fill="#00B4FF"/>
<path d="M30 25.1184L56.0377 14.7772V24.0104L30 34.167V25.1184Z" fill="#016D9B"/>
<path d="M30 35.8291L56.0377 25.4879V34.7211L30 44.8777V35.8291Z" fill="#016D9B"/>
<path d="M30 46.355L56.0377 36.0138V45.247L30 55.4036V46.355Z" fill="#016D9B"/>
</svg>
