<svg width="60" height="60" viewBox="0 0 60 60" fill="none" xmlns="http://www.w3.org/2000/svg">
<path fill-rule="evenodd" clip-rule="evenodd" d="M58.2387 35.7895C57.898 34.7579 57.0056 34.0392 55.8514 33.8666C55.3072 33.7854 54.6839 33.8201 53.9465 33.9721C52.6611 34.2373 51.7073 34.3382 51.0114 34.3579C53.6384 29.9223 55.7746 24.864 57.0044 20.1026C58.9929 12.4037 57.9303 8.8963 56.6886 7.30972C53.4023 3.11068 48.6077 0.854753 42.8231 0.785601C39.7376 0.74794 37.0286 1.35719 35.6156 1.79521C34.2999 1.56321 32.885 1.43356 31.4006 1.40955C28.6183 1.3652 26.1598 1.9717 24.0591 3.21828C22.8958 2.82515 21.0295 2.27075 18.8739 1.91685C13.8041 1.08452 9.71818 1.73314 6.72952 3.84447C3.11048 6.40089 1.4327 10.8424 1.74304 17.0458C1.84145 19.0154 2.9433 25.0079 4.67803 30.6911C5.67504 33.9576 6.73818 36.6703 7.83793 38.7543C9.39748 41.7095 11.0662 43.4499 12.9396 44.0748C13.9898 44.4247 15.8976 44.6696 17.9043 42.9986C18.1586 43.3065 18.4978 43.6126 18.9483 43.8968C19.5202 44.2575 20.2196 44.5523 20.9179 44.7269C23.4351 45.3563 25.7929 45.1988 27.8043 44.3169C27.8167 44.6746 27.8263 45.0164 27.8344 45.3115C27.8478 45.7903 27.8609 46.2597 27.8785 46.6986C27.9976 49.6671 28.1996 51.9751 28.7979 53.5899C28.8307 53.6789 28.875 53.8142 28.9217 53.9576C29.2201 54.8717 29.7194 56.4017 30.9892 57.6001C32.3044 58.8413 33.895 59.2221 35.3518 59.222C36.0825 59.222 36.7796 59.1262 37.391 58.9951C39.5707 58.5281 42.046 57.8164 43.8366 55.2668C45.5295 52.8564 46.3525 49.2261 46.5015 43.5057C46.5208 43.344 46.5386 43.1895 46.5558 43.0423C46.5673 42.943 46.5791 42.8414 46.5911 42.7401L46.99 42.7752L47.0927 42.7821C49.3127 42.8833 52.0271 42.4125 53.6941 41.6381C55.0115 41.0268 59.2325 38.7984 58.2387 35.7895Z" fill="black"/>
<path fill-rule="evenodd" clip-rule="evenodd" d="M54.4429 36.3748C47.8423 37.7363 47.3885 35.5015 47.3885 35.5015C54.3577 25.1603 57.2711 12.0337 54.7569 8.82108C47.898 0.0575674 36.025 4.20215 35.8269 4.30975L35.7631 4.32116C34.459 4.05045 32.9996 3.88919 31.3594 3.86242C28.3727 3.81347 26.1072 4.64541 24.388 5.94907C24.388 5.94907 3.20772 -2.77639 4.19279 16.923C4.40235 21.1139 10.1995 48.6332 17.1141 40.3211C19.6414 37.2816 22.0833 34.7117 22.0833 34.7117C23.2962 35.5174 24.7481 35.9283 26.2703 35.7807L26.3885 35.6803C26.3518 36.0577 26.3685 36.4268 26.4359 36.8638C24.6546 38.854 25.178 39.2035 21.6171 39.9365C18.0139 40.679 20.1306 42.0011 21.5126 42.3466C23.188 42.7655 27.0641 43.3591 29.6832 39.6928L29.5787 40.1111C30.2767 40.6701 30.7668 43.7473 30.6846 46.5368C30.6025 49.3264 30.5476 51.2416 31.0976 52.7375C31.6475 54.2334 32.1956 57.5992 36.8768 56.5961C40.7883 55.7579 42.8152 53.5857 43.0972 49.9623C43.2973 47.3863 43.7502 47.7671 43.7788 45.4641L44.142 44.3738C44.5609 40.8819 44.2085 39.7554 46.6184 40.2793L47.204 40.3308C48.9777 40.4115 51.2991 40.0455 52.6616 39.4122C55.5954 38.0507 57.3354 35.7774 54.4426 36.3748H54.4429Z" fill="#336791"/>
<path fill-rule="evenodd" clip-rule="evenodd" d="M25.6278 18.7972C25.0331 18.7144 24.4943 18.791 24.2218 18.9973C24.0684 19.1134 24.021 19.2479 24.0083 19.3406C23.974 19.5858 24.1459 19.8569 24.2514 19.9968C24.5501 20.3927 24.9865 20.6648 25.4185 20.7248C25.4811 20.7335 25.5433 20.7377 25.6052 20.7377C26.3256 20.7377 26.9804 20.1768 27.0381 19.7628C27.1103 19.2444 26.3576 18.8988 25.6278 18.7972Z" fill="white"/>
<path fill-rule="evenodd" clip-rule="evenodd" d="M45.333 18.8135H45.3329C45.2762 18.4071 44.5529 18.2913 43.8667 18.3867C43.1814 18.4822 42.5168 18.7915 42.5723 19.1988C42.6169 19.5156 43.1886 20.0563 43.8657 20.0562C43.9228 20.0562 43.9806 20.0524 44.0387 20.0442C44.4906 19.9817 44.8222 19.6947 44.9797 19.5292C45.2197 19.2773 45.3584 18.9962 45.333 18.8135Z" fill="white"/>
<path fill-rule="evenodd" clip-rule="evenodd" d="M56.6394 36.2201C56.3877 35.4591 55.5777 35.2141 54.2318 35.4921C50.2356 36.3168 48.8045 35.7455 48.3345 35.3995C51.4407 30.6674 53.996 24.9477 55.3744 19.6109C56.0275 17.0829 56.3882 14.7352 56.4176 12.8218C56.4502 10.7212 56.0926 9.17796 55.3547 8.23514C52.3801 4.43423 48.0146 2.39547 42.7299 2.33944C39.097 2.29863 36.0275 3.22845 35.4324 3.48984C34.1793 3.17819 32.8131 2.98688 31.326 2.96247C28.5986 2.91838 26.2413 3.57133 24.2894 4.90216C23.4415 4.58671 21.2504 3.83456 18.5711 3.40297C13.9385 2.65699 10.2574 3.22215 7.63035 5.08324C4.49577 7.30401 3.04868 11.2737 3.32909 16.8817C3.42344 18.7687 4.49839 24.5729 6.19507 30.1317C8.4283 37.4478 10.8557 41.5896 13.4101 42.4415C13.709 42.5413 14.0538 42.6111 14.4338 42.6111C15.3656 42.6111 16.5079 42.191 17.6965 40.7622C19.6707 38.3871 21.5139 36.3969 22.1934 35.6737C23.1975 36.2128 24.3004 36.5137 25.4287 36.5439C25.4307 36.5734 25.4337 36.6029 25.4364 36.6323C25.21 36.9008 25.0243 37.136 24.8661 37.3369C24.0844 38.3292 23.9217 38.5358 21.4054 39.054C20.6897 39.2016 18.7885 39.5934 18.7608 40.9259C18.7305 42.3818 21.0078 42.9933 21.2674 43.0581C22.1716 43.2845 23.0426 43.3961 23.8734 43.3961C25.8939 43.396 27.6718 42.732 29.0928 41.4473C29.049 46.6377 29.2655 51.7522 29.8886 53.3106C30.399 54.5862 31.6459 57.704 35.5848 57.7037C36.1625 57.7037 36.7988 57.6365 37.4986 57.4865C41.6092 56.6051 43.3942 54.7884 44.0848 50.783C44.4543 48.6424 45.0885 43.5307 45.3866 40.7888C46.0161 40.9851 46.8265 41.075 47.7025 41.0749C49.5296 41.0749 51.6378 40.6867 52.96 40.073C54.4451 39.3833 57.1254 37.6906 56.6394 36.2201ZM46.8502 17.6919C46.8366 18.5014 46.7252 19.2362 46.6071 20.0033C46.4801 20.8283 46.3486 21.6812 46.3155 22.7167C46.2828 23.7243 46.4087 24.772 46.5305 25.785C46.7764 27.8312 47.0287 29.938 46.0518 32.0167C45.8999 31.7471 45.7534 31.4529 45.619 31.1271C45.4976 30.8328 45.234 30.36 44.8691 29.7056C43.4488 27.1586 40.1229 21.1941 41.8254 18.7603C42.3325 18.0357 43.6195 17.291 46.8502 17.6919ZM42.9343 3.97862C47.6692 4.0832 51.4146 5.85454 54.0666 9.24316C56.1005 11.8424 53.8608 23.6692 47.3771 33.8722C47.3131 33.7908 47.2479 33.7087 47.1804 33.6245C47.1535 33.5907 47.1261 33.5565 47.0984 33.5218C48.7738 30.7548 48.4462 28.0172 48.1546 25.5899C48.0348 24.5938 47.9217 23.6529 47.9504 22.7693C47.9802 21.8324 48.1041 21.0292 48.2237 20.2524C48.3711 19.295 48.5208 18.3045 48.4795 17.1368C48.5103 17.0144 48.5228 16.8697 48.5066 16.6979C48.4011 15.5781 47.1228 12.2271 44.517 9.19369C43.0919 7.53481 41.0132 5.67818 38.1752 4.42595C39.3959 4.17296 41.0653 3.93702 42.9343 3.97862ZM16.4387 39.7163C15.1293 41.2907 14.2249 40.989 13.9276 40.89C11.9899 40.2436 9.74168 36.1483 7.75947 29.6541C6.0443 24.0349 5.04191 18.3845 4.96266 16.8C4.71216 11.789 5.92686 8.29654 8.57317 6.41984C12.8798 3.36569 19.9604 5.19372 22.8055 6.12092C22.7646 6.1612 22.7221 6.19899 22.6815 6.23993C18.0129 10.9551 18.1236 19.0109 18.135 19.5032C18.1346 19.6932 18.1505 19.9622 18.1724 20.3323C18.2527 21.6871 18.4022 24.2089 18.0029 27.0648C17.6317 29.7186 18.4497 32.3161 20.2469 34.1912C20.4329 34.3853 20.6272 34.5675 20.8278 34.739C20.0277 35.5958 18.2892 37.4902 16.4387 39.7163ZM21.4279 33.0594C19.9793 31.5482 19.3215 29.4459 19.6228 27.2913C20.0445 24.2744 19.8888 21.647 19.8052 20.2354C19.7935 20.038 19.7831 19.8649 19.777 19.7283C20.4591 19.1236 23.6197 17.43 25.8737 17.9464C26.9025 18.1821 27.529 18.8824 27.7897 20.0873C29.1383 26.3246 27.9682 28.9243 27.0281 31.0133C26.8342 31.4437 26.6512 31.8505 26.4948 32.2714L26.3737 32.5967C26.0669 33.4194 25.7815 34.1841 25.6046 34.9104C24.0648 34.9057 22.5668 34.248 21.4279 33.0594ZM21.6642 41.4713C21.2146 41.3589 20.8102 41.1638 20.573 41.002C20.7711 40.9087 21.1238 40.782 21.7354 40.656C24.6956 40.0465 25.1527 39.6165 26.151 38.3489C26.38 38.0584 26.6394 37.7289 26.9987 37.3276C26.9988 37.3274 26.9989 37.3272 26.9991 37.3271C27.5343 36.7279 27.779 36.8295 28.2229 37.0136C28.5827 37.1625 28.9331 37.6134 29.0752 38.1097C29.1424 38.344 29.218 38.789 28.9709 39.135C26.8854 42.0549 23.8466 42.0174 21.6642 41.4713ZM37.1557 55.8872C33.5345 56.6631 32.2523 54.8154 31.4074 52.7032C30.862 51.3394 30.5941 45.19 30.7842 38.3993C30.7867 38.3089 30.7739 38.2216 30.7489 38.1396C30.7273 37.9812 30.6939 37.821 30.6478 37.6597C30.3648 36.6716 29.6758 35.8451 28.8491 35.5025C28.5207 35.3664 27.9177 35.1167 27.1933 35.302C27.3478 34.6654 27.6158 33.9467 27.9062 33.1683L28.0281 32.8408C28.1653 32.4717 28.3374 32.0893 28.5195 31.6846C29.5034 29.4988 30.8509 26.505 29.3884 19.7415C28.8406 17.2083 27.0114 15.9713 24.2383 16.2586C22.5758 16.4306 21.0549 17.1014 20.2963 17.486C20.1332 17.5687 19.984 17.6484 19.8447 17.7263C20.0563 15.1738 20.8564 10.4038 23.8487 7.38588C25.7326 5.48581 28.2418 4.54746 31.299 4.59798C37.3226 4.69666 41.1854 7.78793 43.3653 10.3639C45.2437 12.5838 46.2609 14.8197 46.6669 16.0257C43.6141 15.7153 41.5378 16.318 40.4852 17.8227C38.1954 21.0959 41.7379 27.449 43.4405 30.5022C43.7527 31.0619 44.0222 31.5454 44.107 31.7509C44.6614 33.0946 45.3791 33.9916 45.9032 34.6465C46.0639 34.8472 46.2197 35.0418 46.3382 35.2117C45.4137 35.4783 43.7528 36.0941 43.9041 39.1727C43.7821 40.7175 42.9139 47.9499 42.473 50.5051C41.8909 53.8809 40.6487 55.1383 37.1557 55.8872ZM52.2712 38.5894C51.3258 39.0284 49.7435 39.3576 48.2404 39.4282C46.5802 39.506 45.7352 39.2422 45.5364 39.0801C45.4429 37.1616 46.1572 36.9611 46.9129 36.7489C47.0316 36.7155 47.1475 36.6831 47.2593 36.644C47.3288 36.7005 47.4049 36.7567 47.4883 36.8117C48.8226 37.6924 51.2027 37.7874 54.5626 37.0939C54.5749 37.0913 54.5872 37.0889 54.5994 37.0864C54.1463 37.5101 53.3708 38.0789 52.2712 38.5894Z" fill="white"/>
</svg>
