<svg width="60" height="60" viewBox="0 0 60 60" fill="none" xmlns="http://www.w3.org/2000/svg">
<path fill-rule="evenodd" clip-rule="evenodd" d="M57.0011 44.0389C53.8743 45.6688 37.6758 52.329 34.2271 54.1267C30.7787 55.9248 28.8629 55.9074 26.1386 54.6051C23.4144 53.3027 6.17632 46.3397 3.07121 44.8555C1.51911 44.1137 0.703125 43.4877 0.703125 42.8963V36.9738C0.703125 36.9738 23.1448 32.0881 26.7679 30.7885C30.3907 29.4886 31.6478 29.4417 34.7309 30.571C37.8143 31.7006 56.2497 35.0268 59.2969 36.1429C59.2969 36.1429 59.2955 41.4325 59.2955 41.9816C59.296 42.5671 58.5928 43.2094 57.0011 44.0389Z" fill="#912626"/>
<path fill-rule="evenodd" clip-rule="evenodd" d="M57 38.1512C53.8733 39.7804 37.6753 46.4409 34.2268 48.2385C30.7784 50.0368 28.8627 50.0192 26.1385 48.7169C23.4142 47.4154 6.17686 40.4512 3.07186 38.9679C-0.0331514 37.4836 -0.0983825 36.4621 2.95192 35.2678C6.002 34.073 23.1448 27.3473 26.7682 26.0475C30.3909 24.7481 31.6477 24.7008 34.7308 25.8305C37.814 26.9598 53.9154 33.3687 56.9623 34.4845C60.0098 35.6017 60.1268 36.5214 57 38.1512Z" fill="#C6302B"/>
<path fill-rule="evenodd" clip-rule="evenodd" d="M57.0011 34.4558C53.8743 36.0857 37.6758 42.7459 34.2271 44.5443C30.7787 46.3418 28.8629 46.3244 26.1386 45.022C23.4142 43.7203 6.17632 36.7566 3.07121 35.2725C1.51911 34.5306 0.703125 33.9053 0.703125 33.3139V27.3907C0.703125 27.3907 23.1448 22.5053 26.7679 21.2054C30.3907 19.9058 31.6478 19.8586 34.7309 20.988C37.8143 22.1175 56.2497 25.443 59.2969 26.5593C59.2969 26.5593 59.2955 31.849 59.2955 32.3988C59.296 32.984 58.5928 33.6263 57.0011 34.4558Z" fill="#912626"/>
<path fill-rule="evenodd" clip-rule="evenodd" d="M57 28.5683C53.8733 30.198 37.6753 36.858 34.2268 38.6563C30.7784 40.4539 28.8627 40.4363 26.1385 39.134C23.4142 37.8326 6.17686 30.8686 3.07186 29.385C-0.0331514 27.9011 -0.0983825 26.8794 2.95192 25.6847C6.002 24.4906 23.1448 17.7644 26.7682 16.4649C30.3909 15.1653 31.6477 15.1181 34.7308 16.2476C37.814 17.3769 53.9154 23.7854 56.9623 24.9017C60.0098 26.0184 60.1268 26.9385 57 28.5681V28.5683Z" fill="#C6302B"/>
<path fill-rule="evenodd" clip-rule="evenodd" d="M57.0011 24.5174C53.8743 26.1473 37.6758 32.8078 34.2271 34.6062C30.7787 36.4039 28.8629 36.3862 26.1386 35.0839C23.4142 33.7822 6.17632 26.8182 3.07121 25.3346C1.51911 24.5925 0.703125 23.967 0.703125 23.376V17.4525C0.703125 17.4525 23.1448 12.5674 26.7679 11.2677C30.3907 9.96787 31.6478 9.92095 34.7309 11.0503C37.8143 12.1799 56.2497 15.5054 59.2969 16.6217C59.2969 16.6217 59.2955 21.9113 59.2955 22.4609C59.296 23.0457 58.5928 23.6879 57.0011 24.5174Z" fill="#912626"/>
<path fill-rule="evenodd" clip-rule="evenodd" d="M57 18.6298C53.8733 20.2595 37.6753 26.9199 34.2268 28.7178C30.7784 30.5154 28.8627 30.4978 26.1385 29.1959C23.4144 27.894 6.17687 20.9306 3.07186 19.4467C-0.0331514 17.9629 -0.0983826 16.9409 2.95192 15.7464C6.002 14.5521 23.1448 7.82662 26.7682 6.52657C30.3909 5.22676 31.6477 5.18006 34.7308 6.3096C37.814 7.43913 53.9154 13.8476 56.9623 14.9638C60.0098 16.0799 60.1268 17.0002 57 18.6298Z" fill="#C6302B"/>
<path fill-rule="evenodd" clip-rule="evenodd" d="M37.1601 12.8683L32.1227 13.3913L30.9949 16.1048L29.1732 13.0768L23.3563 12.554L27.6968 10.9887L26.3946 8.58594L30.4582 10.1752L34.2893 8.92092L33.2539 11.4055L37.1601 12.8683Z" fill="white"/>
<path fill-rule="evenodd" clip-rule="evenodd" d="M30.6939 26.0332L21.2921 22.1337L34.7643 20.0659L30.6939 26.0332Z" fill="white"/>
<path fill-rule="evenodd" clip-rule="evenodd" d="M17.6591 14.3765C21.636 14.3765 24.8598 15.6262 24.8598 17.1676C24.8598 18.7092 21.636 19.9588 17.6591 19.9588C13.6825 19.9588 10.4584 18.7092 10.4584 17.1676C10.4584 15.6262 13.6825 14.3765 17.6591 14.3765Z" fill="white"/>
<path fill-rule="evenodd" clip-rule="evenodd" d="M43.1137 13.6101L51.087 16.761L43.1205 19.9087L43.1137 13.6101Z" fill="#621B1C"/>
<path fill-rule="evenodd" clip-rule="evenodd" d="M34.2927 17.0994L43.1138 13.6101L43.1206 19.9087L42.2558 20.2471L34.2927 17.0994Z" fill="#9A2928"/>
</svg>
