<svg width="200" height="160" viewBox="0 0 200 160" fill="none" xmlns="http://www.w3.org/2000/svg"><g clip-path="url(#clip0_314_3301)"><path d="M62.2601 92.166V69.621h2.9l13.7833 18.155V69.621h2.7567v22.545h-2.9l-13.8-18.3333V92.166h-2.7567.0167zm41.8949-.895c-1.879.6945-3.868 1.0462-5.8716 1.0384-8.1633 0-12.2467-3.9034-12.2467-11.7451 0-7.4116 3.9384-11.1366 11.8334-11.1366 2.2569 0 4.3669.3216 6.2999.9333v2.5067c-1.933-.75-3.938-1.11-5.9799-1.11-6.1584 0-9.2384 2.9367-9.2384 8.7367 0 6.2666 3.0434 9.3833 9.095 9.3833.9667 0 2.0413-.1433 3.2233-.3933v-7.555h2.9v9.3449l-.015-.0033zm4.655-7.8067V69.6077h2.9v13.8566c0 4.3334 2.167 6.5 6.5 6.5 4.297 0 6.5-2.1666 6.5-6.5V69.6077h2.9v13.8566c0 5.9084-3.117 8.8801-9.383 8.8801-6.267 0-9.384-2.9717-9.384-8.8801h-.033zm26.857-13.8433v20.2117H147.5v2.3633h-14.717V69.621h2.9-.016zm16.006 22.5583h-3.043l11.203-25.5133 11.209 25.53h-3.224l-2.9-7.09h-7.45l.789-2.3633h5.693l-4.225-10.205-8.058 19.6583.006-.0167zm22.487 0V69.621h9.633c4.297 0 6.445 1.79 6.445 5.4067 0 2.9366-2.113 5.12-6.3 6.5l7.734 10.6333h-3.834l-7.161-10.1333V80.166c4.296-.68 6.5-2.3267 6.5-4.9767 0-2.0766-1.167-3.1166-3.58-3.1166h-6.445V92.166h-2.972l-.02.0133z" fill="#B52E31"/><path d="M8.33325 63.6064L31.4283 55.373l23.705 8.0917-3.8334 30.5433L31.4283 105l-19.55-10.8336-3.54505-30.56z" fill="#E23237"/><path d="M55.1332 63.4628l-23.705-8.0917v49.6279l19.8734-10.9929 3.8333-30.5433h-.0017z" fill="#B52E31"/><path d="M31.4665 61.171L17.0698 93.166l5.3717-.1067 2.9-7.2333h12.855l3.1667 7.305 5.12.1066-15.0034-32.0833-.0133.0167zm.0333 10.2766l4.87 10.17h-9.1333l4.2633-10.1666v-.0034z" fill="#fff"/></g><defs><clipPath id="clip0_314_3301"><path fill="#fff" d="M0 0h200v160H0z"/></clipPath></defs></svg>