<svg width="200" height="160" viewBox="0 0 200 160" fill="none" xmlns="http://www.w3.org/2000/svg">
<g clip-path="url(#clip0_317_4553)">
<path d="M119.686 24.5285C117.939 25.5552 115.011 28.5042 111.516 32.7638V33.0259L114.575 38.6836L114.727 38.7928C116.977 35.5817 119.249 32.6764 121.565 30.208C121.739 30.0114 121.827 29.924 121.827 29.924C121.739 30.0114 121.652 30.1206 121.565 30.208C120.822 31.0381 118.55 33.6594 115.143 38.902L115.536 38.9894C115.536 38.9894 123.509 38.203 127.353 37.5477L127.572 37.3511C128.795 30.492 126.37 27.3464 126.37 27.3464C126.37 27.3464 123.312 22.4096 119.686 24.5285Z" fill="url(#paint0_linear_317_4553)"/>
<path d="M105.291 54.4114C106.274 52.5983 107.257 50.8071 108.24 49.0814C109.267 47.2901 110.315 45.5426 111.385 43.8606C111.451 43.7732 111.516 43.664 111.56 43.5548C112.609 41.8946 113.657 40.3218 114.728 38.7927L111.516 32.7418C111.276 33.0258 111.036 33.3316 110.796 33.6374C109.878 34.7952 108.917 36.0185 107.934 37.3291C106.82 38.8145 105.684 40.3873 104.526 42.0475C103.456 43.5766 102.364 45.1931 101.293 46.8314C100.376 48.2513 99.4366 49.693 98.5191 51.2003C98.4754 51.2658 98.4536 51.3095 98.4099 51.375V51.6153L102.407 59.5448L102.582 59.6103C103.478 57.8628 104.373 56.1152 105.291 54.4114Z" fill="url(#paint1_linear_317_4553)"/>
<path d="M87.8812 93.2288C88.6021 91.3502 89.3666 89.4497 90.1312 87.5275C90.8739 85.6925 91.6166 83.8358 92.403 81.979C93.1675 80.1222 93.9758 78.2655 94.784 76.3869C95.6141 74.4864 96.4442 72.5859 97.2961 70.7073C98.148 68.8506 99 66.9938 99.8737 65.1589C100.18 64.5036 100.507 63.8264 100.835 63.171C101.381 62.0351 101.949 60.8992 102.495 59.7852C102.517 59.7196 102.561 59.676 102.582 59.6104L98.4102 51.3751C98.3446 51.4843 98.2791 51.5936 98.2136 51.7028C97.2524 53.2974 96.2694 54.9139 95.3301 56.5741C94.369 58.2561 93.4297 59.9599 92.5122 61.6856C91.7258 63.1492 90.9831 64.6128 90.2404 66.0982C90.0875 66.404 89.9564 66.688 89.8035 66.9938C88.8861 68.8724 88.0778 70.6636 87.3351 72.4112C86.505 74.3772 85.7623 76.2558 85.107 78.047C84.6701 79.2266 84.2988 80.3407 83.9274 81.4329C83.6434 82.3503 83.3595 83.2897 83.0973 84.2071C82.4638 86.3915 81.9396 88.5541 81.5027 90.7386L81.5682 91.0007L85.5657 98.952L85.6968 99.0176C86.2429 97.5321 86.8109 96.0467 87.4006 94.5176C87.5536 94.0807 87.7283 93.6657 87.8812 93.2288Z" fill="url(#paint2_linear_317_4553)"/>
<path d="M81.4588 91.0226C80.9346 93.6658 80.5632 96.3089 80.3666 98.9303C80.3666 99.0176 80.3448 99.105 80.3448 99.2142C79.0341 97.1172 75.539 95.0857 75.539 95.0857C78.0511 98.7118 79.9516 102.316 80.2355 105.855C78.903 106.139 77.0681 105.724 74.9274 104.959C77.1337 106.991 78.7938 107.559 79.4492 107.712C77.4176 107.843 75.2987 109.241 73.158 110.835C76.2817 109.568 78.7938 109.066 80.6069 109.459C77.7453 117.563 74.8837 126.52 72.0002 136C72.874 135.738 73.3983 135.148 73.7041 134.34C74.2065 132.614 77.6142 121.343 82.9224 106.51C83.0753 106.095 83.2282 105.658 83.3811 105.243C83.4248 105.134 83.4685 105.003 83.5122 104.894C84.0801 103.343 84.6481 101.748 85.2597 100.132C85.3908 99.7603 85.5437 99.389 85.6748 99.0176V98.9958L81.5025 90.7386C81.5025 90.8479 81.4807 90.9352 81.4588 91.0226Z" fill="url(#paint3_linear_317_4553)"/>
<path d="M115.143 38.924C114.203 40.3657 113.177 42.004 112.063 43.8608C111.997 43.9482 111.953 44.0574 111.888 44.1448C110.927 45.7613 109.922 47.5088 108.852 49.4529C107.934 51.1131 106.973 52.9043 105.968 54.8485C105.094 56.5305 104.199 58.2999 103.281 60.2003L103.478 60.2877L113.635 59.1955L113.876 59.0208C116.956 57.6009 118.332 56.3121 119.664 54.4553C120.014 53.9529 120.385 53.4068 120.735 52.8607C121.827 51.1568 122.897 49.3 123.837 47.4433C124.754 45.652 125.562 43.8608 126.196 42.2662C126.589 41.2395 126.917 40.3002 127.135 39.4701C127.332 38.7274 127.485 38.0284 127.594 37.373C123.487 38.0939 118.441 38.7711 115.143 38.924Z" fill="url(#paint4_linear_317_4553)"/>
<path d="M102.888 61.0521C102.538 61.7948 102.167 62.5593 101.795 63.3239C101.402 64.154 100.987 65.0278 100.594 65.9015C100.397 66.3384 100.179 66.7971 99.9823 67.234C99.3488 68.5884 98.7372 69.9864 98.0819 71.4281C97.2955 73.1975 96.4872 75.0543 95.679 76.9547C94.8926 78.7897 94.1062 80.6683 93.3198 82.6343C92.5552 84.491 91.7907 86.4133 91.0261 88.3793C90.3271 90.1487 89.6281 91.9399 88.9291 93.8185C88.8854 93.9059 88.8636 93.9933 88.8199 94.0807C88.1209 95.9374 87.4391 97.8263 86.7182 99.7705C86.6964 99.8141 86.6573 99.9278 86.6355 99.9715L86.7864 100.005L89.8247 99.6782L89.9962 99.6073C89.9307 99.5854 89.8902 99.4981 89.8247 99.4762C93.8441 98.9738 99.1959 95.9593 102.669 92.2458C104.264 90.5419 105.706 88.5104 107.06 86.1512C108.065 84.3818 108.982 82.4377 109.878 80.2751C110.664 78.3965 111.407 76.3431 112.128 74.1368C111.21 74.6174 110.14 74.9888 108.982 75.229C108.786 75.2727 108.567 75.3164 108.349 75.3601C108.13 75.4038 107.912 75.4256 107.715 75.4693C111.472 74.0276 113.832 71.2315 115.557 67.8238C114.574 68.501 112.958 69.3748 111.036 69.8117C110.773 69.8772 110.511 69.9209 110.227 69.9646C110.162 69.9646 110.096 69.9864 110.031 69.9864C111.341 69.4403 112.434 68.8287 113.395 68.1078C113.591 67.9549 113.788 67.802 113.985 67.6272C114.268 67.3651 114.552 67.103 114.815 66.8408C114.989 66.6661 115.142 66.4913 115.317 66.2947C115.688 65.8578 116.038 65.3773 116.366 64.853C116.475 64.7001 116.562 64.5253 116.671 64.3724C116.802 64.1321 116.912 63.8918 117.021 63.6516C117.545 62.603 117.96 61.6637 118.288 60.8336C118.463 60.4186 118.594 60.0472 118.725 59.6759C118.768 59.5448 118.812 59.3919 118.878 59.2609C119.009 58.8677 119.118 58.5181 119.205 58.1905C119.336 57.7318 119.402 57.3604 119.446 57.0983C119.315 57.2075 119.183 57.2949 119.009 57.4041C117.873 58.0813 115.929 58.6929 114.356 58.9769L117.458 58.6274L114.356 58.9769C114.137 59.0206 113.985 59.0424 113.81 59.0861C113.824 59.0715 110.321 59.442 103.3 60.1974C103.256 60.241 102.997 60.79 102.888 61.0521Z" fill="url(#paint5_linear_317_4553)"/>
<path d="M86.3084 100.787C85.7623 102.294 85.1943 103.845 84.6482 105.418C84.6482 105.44 84.6263 105.462 84.6263 105.483C84.539 105.702 84.4734 105.92 84.3861 106.161C84.0147 107.231 83.687 108.17 82.9443 110.355C84.1676 110.923 85.1506 112.386 86.0899 114.068C86.0025 112.342 85.2817 110.704 83.9055 109.459C89.9564 109.721 95.1771 108.192 97.864 103.78C98.1043 103.386 98.3227 102.971 98.5193 102.534C97.296 104.085 95.7669 104.741 92.9272 104.588H92.9053H92.9272C97.1431 102.709 99.2402 100.896 101.119 97.9034C101.556 97.1825 101.993 96.418 102.429 95.566C98.7378 99.3451 94.4781 100.415 90 99.6072L86.636 99.9786C86.5268 100.219 86.4176 100.503 86.3084 100.787Z" fill="url(#paint6_linear_317_4553)"/>
</g>
<defs>
<linearGradient id="paint0_linear_317_4553" x1="114.2" y1="33.579" x2="137.368" y2="25.8677" gradientUnits="userSpaceOnUse">
<stop stop-color="#F69923"/>
<stop offset="0.3123" stop-color="#F79A23"/>
<stop offset="0.8383" stop-color="#E97826"/>
</linearGradient>
<linearGradient id="paint1_linear_317_4553" x1="62.8943" y1="138.784" x2="142.03" y2="76.1886" gradientUnits="userSpaceOnUse">
<stop offset="0.3233" stop-color="#9E2064"/>
<stop offset="0.6302" stop-color="#C92037"/>
<stop offset="0.7514" stop-color="#CD2335"/>
<stop offset="1" stop-color="#E97826"/>
</linearGradient>
<linearGradient id="paint2_linear_317_4553" x1="64.6296" y1="132.567" x2="141.694" y2="100.212" gradientUnits="userSpaceOnUse">
<stop offset="0.3233" stop-color="#9E2064"/>
<stop offset="0.6302" stop-color="#C92037"/>
<stop offset="0.7514" stop-color="#CD2335"/>
<stop offset="1" stop-color="#E97826"/>
</linearGradient>
<linearGradient id="paint3_linear_317_4553" x1="69.4956" y1="125.753" x2="103.774" y2="119.043" gradientUnits="userSpaceOnUse">
<stop stop-color="#282662"/>
<stop offset="0.0954839" stop-color="#662E8D"/>
<stop offset="0.7882" stop-color="#9F2064"/>
<stop offset="0.9487" stop-color="#CD2032"/>
</linearGradient>
<linearGradient id="paint4_linear_317_4553" x1="71.7275" y1="143.632" x2="114.89" y2="39.4279" gradientUnits="userSpaceOnUse">
<stop offset="0.3233" stop-color="#9E2064"/>
<stop offset="0.6302" stop-color="#C92037"/>
<stop offset="0.7514" stop-color="#CD2335"/>
<stop offset="1" stop-color="#E97826"/>
</linearGradient>
<linearGradient id="paint5_linear_317_4553" x1="75.1912" y1="137.637" x2="143.659" y2="51.6926" gradientUnits="userSpaceOnUse">
<stop offset="0.3233" stop-color="#9E2064"/>
<stop offset="0.6302" stop-color="#C92037"/>
<stop offset="0.7514" stop-color="#CD2335"/>
<stop offset="1" stop-color="#E97826"/>
</linearGradient>
<linearGradient id="paint6_linear_317_4553" x1="78.9267" y1="131.194" x2="104.976" y2="69.2366" gradientUnits="userSpaceOnUse">
<stop stop-color="#282662"/>
<stop offset="0.0954839" stop-color="#662E8D"/>
<stop offset="0.7882" stop-color="#9F2064"/>
<stop offset="0.9487" stop-color="#CD2032"/>
</linearGradient>
<clipPath id="clip0_317_4553">
<rect width="112" height="112" fill="white" transform="translate(44.0002 24)"/>
</clipPath>
</defs>
</svg>
