<svg width="200" height="160" viewBox="0 0 200 160" fill="none" xmlns="http://www.w3.org/2000/svg">
<path d="M66.587 99.7207V61.2146H68.6756V67.2716C68.9222 67.003 69.15 66.7178 69.3574 66.4178C71.1018 62.7986 74.7811 60.5145 78.798 60.5596C83.5601 60.4175 87.4299 62.1804 89.704 66.4178C91.1512 69.0503 91.9475 71.9907 92.0266 74.9937C92.1056 77.9967 91.4651 80.975 90.1585 83.68C88.0398 88.4287 82.8065 90.7897 77.2039 89.9225C75.4604 89.7743 73.7817 89.1917 72.3212 88.2279C70.8606 87.2641 69.6647 85.9499 68.8427 84.4051V99.719L66.587 99.7207ZM68.6756 74.8358L69.1435 79.3573C69.9689 84.5037 73.0116 87.5448 77.7888 88.1162C80.0322 88.4851 82.334 88.0645 84.302 86.9262C86.27 85.7878 87.7823 84.0022 88.5812 81.8737C90.4392 77.4458 90.3022 72.4331 88.2136 68.1087C87.361 66.2007 85.9105 64.622 84.0813 63.6113C82.2521 62.6005 80.1436 62.2126 78.0745 62.5062C76.1323 62.6475 74.2823 63.3901 72.7815 64.631C71.2807 65.8719 70.2036 67.5494 69.6999 69.4304C69.2551 71.2105 68.9131 73.0148 68.6756 74.8342V74.8358ZM134.673 80.0691C134.356 82.7803 133.066 85.2842 131.041 87.1151C129.017 88.9459 126.396 89.9792 123.667 90.0227C114.908 90.4639 110.798 84.6474 110.144 77.9354C109.69 74.2904 110.282 70.5914 111.85 67.2699C112.942 64.9915 114.731 63.1197 116.958 61.9259C119.184 60.732 121.733 60.2781 124.235 60.6297C126.614 60.8319 128.868 61.777 130.68 63.3312C132.492 64.8854 133.769 66.97 134.331 69.2901C134.776 71.4035 135.103 73.54 135.312 75.6897H112.308C111.882 81.7751 115.152 86.6676 119.787 87.8472C125.56 89.2675 130.494 86.7661 132.286 81.2772C132.683 79.8686 133.408 79.6698 134.688 80.0691H134.673ZM112.291 73.7414H132.867C132.738 67.2583 128.701 62.5463 123.226 62.4928C117.043 62.3926 112.56 66.9157 112.291 73.7414ZM138.926 80.2112H140.943C141.017 81.697 141.499 83.1336 142.337 84.3629C143.175 85.5922 144.335 86.5666 145.691 87.1789C147.394 87.945 149.247 88.3173 151.113 88.2682C152.979 88.219 154.811 87.7495 156.47 86.8948C157.375 86.4874 158.133 85.8122 158.641 84.9602C159.15 84.1083 159.385 83.1207 159.314 82.131C159.366 81.1766 159.106 80.2311 158.572 79.4381C158.038 78.6451 157.26 78.0477 156.357 77.7365C154.138 76.9111 151.778 76.4566 149.518 75.7314C147.165 75.0617 144.865 74.2206 142.635 73.215C138.993 71.4372 138.767 64.5129 142.891 62.3207C145.002 61.1292 147.379 60.4854 149.803 60.448C152.227 60.4107 154.622 60.981 156.769 62.1068C159.433 63.5772 160.905 66.5464 160.467 69.5591H158.738C158.738 69.4756 158.581 69.402 158.581 69.3168C158.367 63.8028 153.732 62.0784 148.756 62.563C147.252 62.7301 145.827 63.1846 144.49 63.8563C143.686 64.2232 143.017 64.8309 142.574 65.5951C142.131 66.3594 141.936 67.2424 142.017 68.1221C142.019 69.0024 142.293 69.8606 142.802 70.5787C143.311 71.2968 144.031 71.8395 144.861 72.1323C147.033 72.9293 149.339 73.4406 151.586 74.0655L157.017 75.4858C158.251 75.891 159.333 76.6612 160.12 77.6947C160.907 78.7282 161.362 79.9763 161.425 81.2739C161.859 84.1896 160.372 87.0552 157.742 88.3836C152.993 91.0704 145.172 90.3603 141.688 86.9633C139.905 85.1704 138.911 82.7359 138.931 80.2095L138.926 80.2112ZM187.015 69.5608H185.123C185.123 69.3051 185.023 69.0595 184.994 68.864C184.964 67.4462 184.447 66.0819 183.531 64.9997C182.614 63.9176 181.353 63.1836 179.96 62.9206C177.331 62.1666 174.527 62.3017 171.983 63.3049C170.977 63.5928 170.091 64.1985 169.458 65.0316C168.825 65.8647 168.479 66.8803 168.471 67.9266C168.435 68.954 168.755 69.9623 169.376 70.781C169.998 71.5997 170.883 72.1785 171.883 72.4197L180.528 74.6387C181.463 74.8629 182.384 75.143 183.285 75.4775C186.042 76.48 187.913 79.0398 187.997 81.9656C188.038 83.3977 187.646 84.8088 186.87 86.0136C186.095 87.2184 184.973 88.1605 183.653 88.7161C181.646 89.6276 179.471 90.1098 177.268 90.132C175.064 90.1541 172.88 89.7157 170.855 88.8447C169.19 88.1268 167.785 86.9161 166.829 85.3755C165.873 83.8349 165.412 82.0384 165.508 80.2279H167.356C168.051 83.578 170.352 86.3685 173.509 87.6885C176.665 89.0085 180.269 88.6843 183.14 86.8263C184.001 86.3784 184.716 85.6931 185.2 84.8515C185.684 84.0099 185.916 83.0472 185.87 82.0776C185.913 81.1224 185.643 80.1794 185.101 79.3914C184.56 78.6035 183.776 78.0137 182.869 77.7115C180.65 76.886 178.291 76.4466 176.03 75.7064C173.664 75.0469 171.35 74.2154 169.106 73.2184C165.55 71.4689 165.266 64.6015 169.32 62.4109C171.457 61.1694 173.88 60.5025 176.352 60.4749C178.824 60.4474 181.261 61.0603 183.425 62.2539C184.664 62.9928 185.66 64.0759 186.294 65.3712C186.928 66.6664 187.171 68.118 186.994 69.5491L187.015 69.5608ZM63.1499 89.3276C62.4054 89.6092 61.5835 89.6084 60.8395 89.3255C60.0955 89.0426 59.4807 88.4972 59.1113 87.7921L51.7593 77.6246L50.6933 76.2043L42.1616 87.8071C41.8139 88.4819 41.2324 89.007 40.5258 89.2844C39.8192 89.5617 39.0357 89.5723 38.3219 89.3143L49.3131 74.5685L39.0871 61.2446C40.6043 60.6966 42.2953 61.2914 43.1391 62.6649L50.7584 72.9577L58.4229 62.705C58.7732 62.0418 59.3551 61.5305 60.0578 61.2683C60.7606 61.0061 61.5352 61.0114 62.2343 61.2831L58.2659 66.5481L52.8905 73.5442C52.7413 73.6774 52.622 73.8407 52.5402 74.0232C52.4585 74.2058 52.4163 74.4036 52.4163 74.6036C52.4163 74.8036 52.4585 75.0014 52.5402 75.1839C52.622 75.3665 52.7413 75.5297 52.8905 75.6629L63.1282 89.3276H63.1499ZM109.818 61.1026V63.1077C108.38 63.0134 106.938 63.2217 105.586 63.7191C104.233 64.2165 102.999 64.9921 101.965 65.9957C100.931 66.9993 100.118 68.2086 99.5798 69.5456C99.0417 70.8827 98.7898 72.3177 98.8406 73.7581C98.8406 78.4411 98.8406 83.1241 98.8406 87.8071V89.3995H96.8071V61.2279H98.8122V67.0009C101.272 62.7902 105.068 61.2279 109.832 61.1143L109.818 61.1026ZM12.0033 74.3847L12.899 69.9618C15.3585 61.2162 25.384 57.577 32.2815 62.9941C36.3201 66.1655 37.3277 70.6586 37.1305 75.7214H14.3777C14.0101 84.7644 20.535 90.2249 28.8812 87.4378C31.6315 86.4353 33.7018 84.1495 34.3835 81.3089C34.8246 79.8887 35.5532 79.6447 36.8865 80.0558C36.6642 81.787 36.0521 83.4454 35.0965 84.906C34.1409 86.3667 32.8665 87.5917 31.3692 88.4888C28.8955 89.8417 26.0574 90.3777 23.2607 90.0203C20.464 89.6628 17.8519 88.4303 15.798 86.4988C13.7662 84.2147 12.5397 81.3273 12.3008 78.2779C12.3008 77.7766 12.1337 77.3088 12.0167 76.8576C12.0056 76.0144 12 75.1901 12 74.3847H12.0033ZM14.4061 73.7731H34.9817C34.853 67.2182 30.7159 62.568 25.1985 62.5246C19.0563 62.441 14.6618 66.9892 14.3911 73.7447L14.4061 73.7731Z" fill="black"/>
</svg>
