<svg width="150" height="120" viewBox="0 0 150 120" fill="none" xmlns="http://www.w3.org/2000/svg"><path fill-rule="evenodd" clip-rule="evenodd" d="M131.404 56.3467c-.117.0235-.235.2821-.235.423-.023.94-.047 3.4314-.047 5.1234 0 .0471.071.141.141.141.353.0235 1.199.047 1.927.047 1.011 0 1.598-.1409 1.928-.2819.845-.423 1.245-1.3398 1.245-2.3504 0-2.2795-1.598-3.1492-3.972-3.1492-.164-.0233-.634-.0233-.987.0471zm6.063 10.5053c0-2.3266-1.716-3.6193-4.818-3.6193-.141 0-1.128-.0236-1.363.0235-.071.0235-.165.0706-.165.1412 0 1.6685-.023 4.3243.047 5.3582.047.4466.376 1.0812.776 1.2692.423.235 1.386.2819 2.044.2819 1.857 0 3.479-1.0339 3.479-3.4547zm-10.855-11.7988c.235 0 .94.0703 2.749.0703 1.716 0 3.079-.0468 4.748-.0468 2.044 0 4.865.7285 4.865 3.7836 0 1.5043-1.058 2.7029-2.445 3.2904-.07.0235-.07.0704 0 .0939 1.974.4936 3.714 1.7158 3.714 4.0189 0 2.2563-1.41 3.6897-3.455 4.5829-1.246.5405-2.797.7285-4.371.7285-1.199 0-4.419-.141-6.205-.0939-.188-.0706.165-.9167.329-1.0577.423-.0235.752-.047 1.199-.188.634-.1644.705-.3525.799-1.316.047-.8226.047-3.737.047-5.805 0-2.8439.023-4.771 0-5.711-.024-.7285-.282-.9635-.799-1.1047-.4-.0704-1.058-.1645-1.598-.2348-.118-.1177.282-.9168.423-1.0106zm-13.56 14.6174c.564.4464 1.668.6344 2.655.6344 1.27 0 2.539-.2349 3.761-1.3396 1.245-1.128 2.115-2.8671 2.115-5.6403 0-2.6558-1.011-4.818-3.079-6.087-1.175-.7287-2.679-1.0341-4.418-1.0341-.517 0-1.011.0235-1.316.1645-.071.047-.235.2586-.235.376-.047.4701-.047 4.0892-.047 6.2046 0 2.1857 0 5.2408.047 5.5933 0 .3527.164.8931.517 1.1282zm-5.337-14.6174c.446 0 2.162.0703 2.984.0703 1.481 0 2.539-.0703 5.335-.0703 2.351 0 4.325.6346 5.735 1.8329 1.715 1.4808 2.609 3.5255 2.609 6.0166 0 3.5488-1.622 5.5935-3.244 6.7686-1.621 1.1986-3.737 1.9036-6.745 1.9036-1.598 0-4.347-.0471-6.627-.0706h-.024c-.117-.2113.188-1.0339.376-1.0574.611-.0706.776-.0942 1.081-.2116.494-.188.588-.4466.659-1.316.07-1.6217.046-3.5723.046-5.7815 0-1.5746.024-4.6535-.023-5.6406-.071-.8224-.423-1.0339-1.128-1.1751-.353-.0703-.823-.1644-1.481-.2348-.094-.1647.329-.8932.447-1.0341z" fill="#8E714E"/><path fill-rule="evenodd" clip-rule="evenodd" d="M79.2849 70.5853c-.5875-.0706-1.0106-.1645-1.5278-.3995-.0703-.0471-.188-.2819-.188-.376-.047-.8226-.047-3.1728-.047-4.7474 0-1.2692-.2114-2.3737-.7521-3.1493-.6346-.8931-1.5511-1.4101-2.7261-1.4101-1.0342 0-2.4208.7052-3.5723 1.6923-.0236.0233-.2116.188-.188-.0706 0-.2586.047-.7756.0705-1.128.0236-.3292-.1644-.4937-.1644-.4937-.7523.376-2.8674.8697-3.6429.94-.564.1177-.705.6582-.1174.8462h.0235c.6344.188 1.0574.3995 1.3864.611.235.188.2115.4466.2115.6582.0235 1.7626.0235 4.4652-.0468 5.9459-.0235.5876-.188.7989-.6111.893l.0468-.0235c-.3289.0706-.5875.1409-.987.188-.141.1409-.141.8932 0 1.0576.2586 0 1.6216-.0705 2.7499-.0705 1.5511 0 2.3502.0705 2.7497.0705.1645-.188.2115-.8931.1174-1.0576-.4466-.0235-.7755-.0704-1.081-.1645-.423-.0941-.5407-.3054-.5642-.7991-.0468-1.2456-.0468-3.8777-.0468-5.6638 0-.4937.1409-.7287.2819-.8697.5405-.4699 1.4101-.7991 2.1857-.7991.752 0 1.2456.2351 1.6216.5407.517.4229.6815 1.0339.752 1.4805.1175 1.0106.0706 3.0083.0706 4.7474 0 .94-.0706 1.1751-.423 1.2925-.1645.0706-.5876.1647-1.0812.2116-.1645.1644-.1174.8931 0 1.0576.6816 0 1.4807-.0706 2.6558-.0706 1.457 0 2.3972.0706 2.7732.0706.1174-.1409.1645-.8226.0704-1.0106h.0002zm6.5087-8.9771c-1.2457 0-2.0212.9635-2.0212 2.4676 0 1.5275.6814 3.2902 2.6088 3.2902.3289 0 .94-.141 1.2219-.4699.4466-.4231.7522-1.2692.7522-2.1622 0-1.9506-.9638-3.1257-2.5617-3.1257zm-.1634 10.3864c-.4699 0-.7991.141-1.0104.2586-.9873.6344-1.4336 1.2455-1.4336 1.9742 0 .6814.2583 1.2219.8226 1.692.6814.5875 1.6214.8697 2.82.8697 2.3973 0 3.4549-1.2928 3.4549-2.5617 0-.8932-.4466-1.4808-1.3631-1.8097-.6581-.2821-1.8567-.4231-3.2904-.4231zm.1634 6.1114c-1.4336 0-2.4678-.3056-3.3607-.9871-.8697-.6581-1.2457-1.6452-1.2457-2.3266 0-.188.0471-.7052.4701-1.1751.2584-.2821.8224-.8226 2.1622-1.7391.0468-.0235.0704-.047.0704-.0941 0-.047-.0471-.0941-.0939-.1174-1.1048-.4231-1.4337-1.1047-1.5278-1.4807v-.0471c-.0233-.1409-.0704-.2819.1411-.4231.1645-.1174.3996-.2583.6579-.4228.3996-.2351.8227-.4936 1.0812-.7052.0471-.047.0471-.0939.0471-.1409 0-.0471-.0471-.0941-.0941-.1175-1.645-.5407-2.4676-1.7628-2.4676-3.5958 0-1.1986.5405-2.2798 1.504-2.9612.6582-.5172 2.3031-1.1516 3.3843-1.1516h.0706c1.1045.0233 1.7156.2584 2.585.564.4701.1645.9167.2349 1.5278.2349.9165 0 1.316-.2819 1.645-.6109.0235.0469.0706.1645.0941.4699.0235.3057-.0706.7521-.3056 1.0812-.1881.2584-.6109.4466-1.034.4466h-.1176c-.4231-.047-.6111-.0941-.6111-.0941l-.0939.0471c-.0235.047 0 .0939.0236.1644l.0235.0471c.0468.2115.1409.8459.1409 1.0106 0 1.9271-.7755 2.773-1.5981 3.4076-.7991.5875-1.7156.9636-2.7497 1.0577-.0235 0-.1174 0-.329.0235-.1176 0-.2821.0235-.3056.0235h-.0235c-.188.0469-.6579.2819-.6579.6815 0 .3524.2115.7755 1.2219.8461.2115.0235.423.0235.6581.047 1.3396.0939 3.0083.2116 3.7838.4699 1.081.3996 1.7627 1.3631 1.7627 2.5149 0 1.7391-1.2457 3.3608-3.3138 4.3712-1.0106.4466-2.0212.6816-3.1257.6816zm13.3972-16.3801c-.4937 0-.9403.1174-1.2692.3525-.9165.564-1.3866 1.6923-1.3866 3.3372 0 3.0789 1.5511 5.2411 3.76 5.2411.658 0 1.175-.188 1.622-.564.681-.5643 1.034-1.6923 1.034-3.2669 0-3.0551-1.528-5.0999-3.7602-5.0999zm.4235 10.0571c-3.9954 0-5.4291-2.9377-5.4291-5.6874 0-1.9271.7756-3.4078 2.3267-4.4655 1.1047-.6814 2.4207-1.0574 3.5961-1.0574 3.055 0 5.194 2.1857 5.194 5.3349 0 2.1386-.846 3.8307-2.468 4.8648-.776.517-2.115 1.0106-3.2199 1.0106h.0002zM57.7316 61.7259c-.4936 0-.94.1174-1.2692.3525-.9165.564-1.3866 1.6923-1.3866 3.3372 0 3.0789 1.5511 5.2411 3.7603 5.2411.6581 0 1.1751-.188 1.6217-.564.6814-.5643 1.0341-1.6923 1.0341-3.2669 0-3.0551-1.5042-5.0999-3.7603-5.0999zm.4235 10.0571c-3.9954 0-5.429-2.9377-5.429-5.6874 0-1.9271.7755-3.4078 2.3266-4.4655 1.1047-.6814 2.4207-1.0574 3.5958-1.0574 3.0554 0 5.194 2.1857 5.194 5.3349 0 2.1386-.8461 3.8307-2.4678 4.8648-.752.517-2.0916 1.0106-3.2196 1.0106zm-26.8628-.234c-.0471-.0704-.0941-.2819-.0706-.5405 0-.188.047-.3057.0706-.3525.4934-.0706.752-.1412 1.0339-.2115.4701-.1177.6581-.3761.6816-.9636.0706-1.4101.0706-4.0895.0471-5.946v-.047c0-.2116 0-.4702-.2586-.6582-.376-.2348-.8226-.4463-1.4101-.611-.2116-.0704-.3525-.188-.329-.329 0-.1409.141-.3054.4466-.3525.7756-.0706 2.7965-.564 3.5956-.9165.0471.0469.1177.188.1177.376l-.0236.2584c-.0235.2586-.047.5642-.047.8697 0 .0939.0941.1644.188.1644.047 0 .0941-.0235.1411-.047 1.5041-1.1751 2.8672-1.5982 3.5721-1.5982 1.1518 0 2.0448.5407 2.7264 1.6688.0469.0706.0939.0939.1645.0939.0471 0 .1174-.0233.1409-.0704 1.3867-1.0577 2.7733-1.6923 3.6898-1.6923 2.1857 0 3.4784 1.6217 3.4784 4.3714 0 .7756 0 1.7862-.0235 2.7029 0 .8224-.0236 1.5746-.0236 2.1151 0 .1174.1645.4934.4231.564.3289.1645.7755.2351 1.3631.329h.0235c.0471.1644-.0471.7755-.1409.8931-.1412 0-.3527 0-.5876-.0235-.4466-.0235-1.0812-.047-1.7861-.047-1.4572 0-2.2093.0235-2.938.0705-.0468-.188-.0703-.752 0-.8931.4231-.0704.6346-.141.8932-.2116.4701-.1409.5876-.3525.6111-.9635 0-.4464.0939-4.2538-.0471-5.1705-.1409-.94-.8461-2.0445-2.3972-2.0445-.5875 0-1.504.2351-2.3972.9165-.0468.047-.0939.1645-.0939.2351v.0235c.0939.4934.0939 1.0576.0939 1.9271v1.5275c0 1.0577-.0235 2.0448 0 2.7968 0 .5172.3056.6346.5642.7287.141.0233.2349.0468.3525.0704.2115.047.4231.0941.752.1645.0471.0941.0471.3995-.0235.6581-.0235.1409-.0706.2115-.0939.235-.7991-.0235-1.6217-.047-2.8203-.047-.3525 0-.9635.0235-1.4807.0235-.4231 0-.8226.0235-1.0574.0235-.0236-.047-.0706-.2115-.0706-.4701 0-.2115.047-.376.0941-.423.1174-.0236.2113-.0469.3289-.0469.2819-.047.517-.0941.7521-.1412.3995-.1174.5404-.3289.564-.8459.0705-1.175.1409-4.5358-.0236-5.3819-.2819-1.3631-1.0574-2.0448-2.3031-2.0448-.7285 0-1.6452.3525-2.3972.9167-.1174.0939-.2115.329-.2115.5405v1.3866c0 1.6921 0 3.8074.0235 4.7239.0235.2819.1174.6111.6581.7285.1174.0235.3055.0706.5405.0941l.4231.0704c.047.1411.0235.7051-.0706.8931-.2351 0-.517-.0235-.8461-.0235-.4935-.0235-1.1281-.047-1.833-.047-.8226 0-1.4102.0235-1.8803.047-.3289-.047-.5875-.047-.8694-.047z" fill="#442D22"/><path fill-rule="evenodd" clip-rule="evenodd" d="M18.9277 77.1926l-.9635-.3292s.1176-4.9119-1.645-5.2643c-1.1751-1.3631.188-57.8146 4.4182-.1881 0 0-1.457.7285-1.7155 1.9742-.2822 1.2221-.0942 3.8074-.0942 3.8074z" fill="#fff"/><path fill-rule="evenodd" clip-rule="evenodd" d="M18.9277 77.1926l-.9635-.3292s.1176-4.9119-1.645-5.2643c-1.1751-1.3631.188-57.8146 4.4182-.1881 0 0-1.457.7285-1.7155 1.9742-.2822 1.2221-.0942 3.8074-.0942 3.8074z" fill="#A6A385"/><path fill-rule="evenodd" clip-rule="evenodd" d="M19.4429 72.4451s8.4371-5.5464 6.463-17.0859c-1.9036-8.3901-6.3926-11.1398-6.886-12.1975-.5405-.752-1.0577-2.068-1.0577-2.068l.3527 23.3372c0 .0235-.7287 7.1446 1.128 8.0142z" fill="#fff"/><path fill-rule="evenodd" clip-rule="evenodd" d="M19.4429 72.4451s8.4371-5.5464 6.463-17.0859c-1.9036-8.3901-6.3926-11.1398-6.886-12.1975-.5405-.752-1.0577-2.068-1.0577-2.068l.3527 23.3372c0 .0235-.7287 7.1446 1.128 8.0142z" fill="#499D4A"/><path fill-rule="evenodd" clip-rule="evenodd" d="M17.4702 72.751s-7.92019-5.4056-7.4501-14.9236c.4464-9.5183 6.0399-14.1951 7.1209-15.0412.7052-.7521.7287-1.0342.7758-1.7862.4934 1.0577.3995 15.8168.4699 17.5559.2115 6.698-.3761 12.9261-.9165 14.1951z" fill="#fff"/><path fill-rule="evenodd" clip-rule="evenodd" d="M17.4702 72.751s-7.92019-5.4056-7.4501-14.9236c.4464-9.5183 6.0399-14.1951 7.1209-15.0412.7052-.7521.7287-1.0342.7758-1.7862.4934 1.0577.3995 15.8168.4699 17.5559.2115 6.698-.3761 12.9261-.9165 14.1951z" fill="#58AA50"/></svg>