<svg width="150" height="120" viewBox="0 0 150 120" fill="none" xmlns="http://www.w3.org/2000/svg"><path fill-rule="evenodd" clip-rule="evenodd" d="M8.00336 88.6737h4.44714V71.0751l6.9453 15.3437c.7867 1.8444 1.9161 2.5283 4.1052 2.5283 2.1898 0 3.2502-.6839 4.0714-2.5283l6.9108-15.3437v17.5986h4.4816V71.0751c0-1.708-.6847-2.5299-2.1216-2.9741-3.3867-1.0248-5.6448-.1363-6.6707 2.153l-6.8073 15.1737-6.5687-15.1737c-.9922-2.2886-3.2848-3.177-6.7053-2.153-1.40237.4442-2.08708 1.2653-2.08708 2.9741v17.5986h-.00076zM42.659 74.3555h4.4817v9.6713c-.0337.5461.171 1.777 2.6001 1.8099 1.2659.0345 9.6472 0 9.7155 0V74.2866h4.4817V90.109c0 3.8955-4.8237 4.7495-7.0818 4.784H42.761v-2.9726H56.89c2.8738-.3079 2.5318-1.7424 2.5318-2.2211v-1.1627h-9.4763c-4.4134-.0345-7.2527-1.9822-7.2865-4.2034 0-.2045.102-9.9103 0-9.9777zm96.131-11.2093c-2.736-.0681-4.858.2053-6.637.9574-.512.2061-1.334.2061-1.402.8548.274.2719.307.7169.547 1.0937.41.684 1.129 1.6054 1.779 2.0841.719.5477 1.437 1.0938 2.189 1.5725 1.334.8195 2.839 1.2982 4.139 2.1185.753.4787 1.505 1.0937 2.258 1.6069.376.2734.616.7184 1.095.8885v-.1034c-.239-.3064-.308-.7506-.547-1.0938-.343-.3408-.685-.6495-1.027-.9903-.992-1.3327-2.224-2.4954-3.559-3.4512-1.095-.7522-3.489-1.777-3.934-3.0415l-.068-.069c.752-.0689 1.642-.3423 2.361-.5476 1.163-.3064 2.223-.239 3.42-.5461.548-.1371 1.095-.3079 1.643-.4787v-.3071c-.616-.6151-1.06-1.4354-1.71-2.0159-1.744-1.5036-3.661-2.9734-5.645-4.2034-1.061-.6832-2.429-1.1282-3.557-1.708-.412-.2053-1.095-.3079-1.334-.6495-.618-.7514-.959-1.7425-1.404-2.6318-.991-1.8795-1.949-3.9636-2.804-5.9458-.616-1.3327-.993-2.6654-1.745-3.8955-3.524-5.8095-7.356-9.3297-13.24-12.781-1.265-.7177-2.77-1.0256-4.379-1.4009-.855-.0344-1.71-.1026-2.565-.1371-.549-.2389-1.095-.8884-1.575-1.1963-1.9494-1.2301-6.9786-3.8955-8.4162-.3761-.924 2.2212 1.3686 4.4079 2.1553 5.5361.5827.7858 1.3342 1.6743 1.7459 2.5628.2385.5805.3067 1.1963.5467 1.8114.5467 1.5035 1.0604 3.1778 1.7789 4.5794.3757.7177.7859 1.4699 1.2654 2.1194.273.376.753.5468.855 1.1619-.48.6839-.513 1.7087-.786 2.5635-1.2325 3.8618-.7532 8.6458.991 11.482.548.854 1.848 2.7336 3.593 2.0159 1.54-.6151 1.197-2.5628 1.642-4.2716.103-.4097.034-.6832.239-.9566v.0682c.479.9566.958 1.8795 1.403 2.8362 1.061 1.6743 2.908 3.4175 4.448 4.5794.82.6151 1.471 1.6751 2.497 2.0504v-.1034h-.068c-.205-.3064-.514-.4435-.787-.6832-.616-.615-1.3-1.3672-1.779-2.0504-1.436-1.9133-2.701-4.0326-3.831-6.2193-.548-1.0593-1.027-2.2212-1.471-3.2804-.207-.4106-.207-1.0256-.548-1.2301-.513.7514-1.265 1.4016-1.643 2.3238-.65 1.4691-.718 3.2805-.957 5.16-.138.0345-.069 0-.138.0682-1.093-.2727-1.47-1.4009-1.881-2.3575-1.026-2.4265-1.197-6.3219-.308-9.1245.239-.7176 1.267-2.9733.857-3.6565-.207-.6495-.89-1.0248-1.267-1.5379-.445-.6496-.923-1.4691-1.2307-2.1868-.8205-1.914-1.2307-4.0326-2.1209-5.9466-.4117-.8885-1.1294-1.8114-1.7114-2.6309-.6502-.923-1.3671-1.5725-1.8808-2.6655-.171-.376-.4102-.9911-.1365-1.4008.0675-.2735.2055-.3761.4777-.4443.4447-.376 1.7114.1027 2.1561.3072 1.2651.5124 2.3255.9911 3.3855 1.708.48.3416.993.9911 1.609 1.1627h.719c1.095.2389 2.326.0681 3.352.3753 1.813.5813 3.455 1.4353 4.927 2.3582 4.481 2.8362 8.177 6.8688 10.673 11.6873.41.7858.581 1.5035.959 2.3238.719 1.6751 1.608 3.3831 2.325 5.0237.719 1.6061 1.403 3.2467 2.429 4.5794.514.7177 2.566 1.093 3.49 1.4691.684.3071 1.744.5813 2.361.9566 1.163.7177 2.326 1.538 3.421 2.3238.547.409 2.258 1.263 2.36 1.9462z" fill="#00678C"/><path fill-rule="evenodd" clip-rule="evenodd" d="M103.893 33.4505c-.581 0-.991.0682-1.402.1708v.0682h.068c.274.5468.753.9229 1.095 1.4009.273.5468.513 1.0937.787 1.6406l.068-.0682c.479-.3416.719-.8885.719-1.7088-.206-.239-.239-.4787-.41-.7177-.206-.3416-.651-.5124-.925-.7858z" fill="#00678C"/><path fill-rule="evenodd" clip-rule="evenodd" d="M67.3605 88.6745h12.863c1.5051 0 2.9428-.3063 4.1052-.854 1.9499-.8884 2.8738-2.084 2.8738-3.6557v-3.2805c0-1.2637-1.0604-2.4609-3.1805-3.2804-1.0949-.4098-2.4636-.6495-3.7977-.6495h-5.4049c-1.8133 0-2.6683-.5476-2.9083-1.7425-.0337-.1363-.0337-.2734-.0337-.4098v-2.0166c0-.1034 0-.239.0337-.3753.2393-.923.7185-1.1627 2.2926-1.3327h13.1705v-2.9741H74.8524c-1.8134 0-2.771.1034-3.626.3768-2.6345.8196-3.7977 2.1186-3.7977 4.4071v2.5988c0 2.0152 2.2581 3.7247 6.0896 4.1345.4102.0344.8549.0344 1.2996.0344h4.6189c.171 0 .3412 0 .4777.0345 1.4032.1363 2.0189.3753 2.4291.8869.2737.2735.3427.5132.3427.8211v2.5973c0 .3063-.2055.7184-.6157 1.0592-.4117.3409-1.0619.5806-1.9169.6151-.171 0-.2722.0344-.4447.0344H67.3605v2.971zm47.6885-5.1592c0 3.0415 2.292 4.7495 6.877 5.0918.444.0345.855.0674 1.299.0674h11.632V85.702h-11.734c-2.601 0-3.593-.6495-3.593-2.2212V68.1026h-4.482v15.4127h.001zm-25.008.1355V73.0581c0-2.6998 1.9154-4.3412 5.6456-4.8529.4102-.0344.8204-.0689 1.1969-.0689h8.4835c.445 0 .822.0345 1.267.0689 3.728.5117 5.609 2.1531 5.609 4.8529v10.5927c0 2.1868-.786 3.3494-2.634 4.136l4.378 3.9629h-5.164l-3.559-3.2115-3.593.2053h-4.789c-.786 0-1.6761-.1019-2.6001-.3409-2.8377-.7873-4.2409-2.2908-4.2409-4.7518zm4.8236-.2374c0 .1363.0691.2719.1036.4443.2392 1.2293 1.4016 1.9132 3.1804 1.9132h4.0374l-3.6939-3.3494h5.1649l3.249 2.9397c.618-.3424.993-.8211 1.13-1.4361.034-.1364.034-.3064.034-.4443v-10.15c0-.1363 0-.2719-.034-.4098-.239-1.1611-1.402-1.8098-3.147-1.8098h-6.7404c-1.9843 0-3.284.854-3.284 2.2196v10.0826zM136.91 88.709h.65v-2.4938h.855v-.5132h-2.394v.5132h.889v2.4938zm4.96 0h.616v-3.007h-.922l-.753 2.0511-.821-2.0511h-.889v3.007h.581v-2.2886h.035l.855 2.2886h.444l.855-2.2886v2.2886h-.001z" fill="#CE8B2C"/></svg>