<svg width="200" height="160" viewBox="0 0 200 160" fill="none" xmlns="http://www.w3.org/2000/svg"><path d="M55.8772 55.3768h31.8745v2.513H58.799v18.9136h27.2261v2.513H58.799v20.7656h29.2847v2.513H55.8772V55.3768zm34.7299 0h3.3866l15.0073 20.7653 15.34-20.7653L145.205 29l-34.278 49.3244 17.664 24.2706h-3.52l-16.07-22.0882-16.1361 22.0882h-3.4531l17.7962-24.2706-16.6009-22.9476zm39.2459 2.513v-2.513h36.323v2.513h-16.734v44.7052h-2.922V57.8898h-16.667zM16 55.375h3.6523l50.3628 74.756-20.8125-27.538-30.148-43.6469-.1328 43.6469H16V55.375zM165.88 99.32c.604 0 1.045-.4588 1.045-1.0517 0-.593-.441-1.0518-1.045-1.0518-.597 0-1.045.4588-1.045 1.0518 0 .5929.448 1.0517 1.045 1.0517zm2.871-2.767c0 1.7505 1.272 2.894 3.127 2.894 1.975 0 3.169-1.1788 3.169-3.2257v-7.2067h-1.592v7.1996c0 1.1365-.575 1.7435-1.591 1.7435-.91 0-1.528-.5647-1.55-1.4047h-1.563zm8.379-.0917c.113 1.8211 1.641 2.9857 3.915 2.9857 2.431 0 3.951-1.2211 3.951-3.1692 0-1.5317-.867-2.3787-2.97-2.8658l-1.13-.2752c-1.336-.3106-1.876-.7271-1.876-1.4541 0-.9176.838-1.5176 2.096-1.5176 1.194 0 2.019.5859 2.168 1.5247h1.549c-.092-1.7152-1.613-2.9222-3.695-2.9222-2.239 0-3.731 1.207-3.731 3.021 0 1.4964.845 2.3857 2.7 2.8163l1.322.3176c1.357.3177 1.954.7835 1.954 1.56 0 .9034-.938 1.5599-2.217 1.5599-1.372 0-2.324-.6141-2.459-1.5811h-1.577z" fill="#000"/></svg>