<svg width="200" height="160" viewBox="0 0 200 160" fill="none" xmlns="http://www.w3.org/2000/svg"><path d="M99.0705 131.83c-.5347 0-1.0657-.141-1.5344-.413l-4.8842-2.909c-.7295-.411-.3735-.556-.1329-.639.9726-.343 1.17-.42 2.2082-1.014.1092-.062.252-.04.3637.026l3.7522 2.24c.1355.074.3277.074.4533 0l14.6296-8.496c.136-.078.224-.236.224-.398V103.24c0-.169-.088-.32-.226-.405l-14.6246-8.4897c-.1355-.0811-.315-.0811-.4505 0l-14.6213 8.4897c-.1417.081-.2318.239-.2318.401v16.987c0 .162.0879.317.2271.394l4.0063 2.329c2.1753 1.094 3.5046-.195 3.5046-1.492v-16.766c0-.239.1868-.424.4248-.424h1.8531c.2307 0 .4211.185.4211.424v16.773c0 2.918-1.582 4.595-4.3323 4.595-.8459 0-1.5124 0-3.3727-.921l-3.8379-2.226c-.9485-.553-1.5344-1.584-1.5344-2.686v-16.987c0-1.105.5859-2.137 1.5344-2.682l14.6447-8.5006c.9265-.5269 2.157-.5269 3.0764 0l14.626 8.5046c.945.549 1.535 1.577 1.535 2.682v16.987c0 1.101-.59 2.129-1.535 2.682l-14.626 8.501c-.469.272-1 .412-1.542.412" fill="#689F63"/><path d="M103.59 120.124c-6.4016 0-7.7438-2.957-7.7438-5.437 0-.236.189-.423.4237-.423h1.8896c.2088 0 .3846.152.4175.36.2857 1.937 1.1353 2.915 5.006 2.915 3.084 0 4.395-.701 4.395-2.347 0-.946-.374-1.65-5.164-2.122-4.0063-.398-6.4818-1.286-6.4818-4.51 0-2.97 2.4902-4.739 6.6608-4.739 4.684 0 7.006 1.636 7.299 5.152.011.121-.033.239-.113.328-.081.084-.195.136-.312.136h-1.9c-.198 0-.37-.14-.411-.332-.457-2.037-1.563-2.689-4.57-2.689-3.3653 0-3.7571 1.179-3.7571 2.063 0 1.072.4614 1.385 5.0021 1.99 4.497.6 6.632 1.448 6.632 4.628 0 3.205-2.658 5.044-7.295 5.044m17.82-18.014h.491c.403 0 .48-.284.48-.45 0-.435-.297-.435-.462-.435h-.505l-.004.885zm-.597-1.393h1.088c.373 0 1.106 0 1.106.84 0 .586-.374.707-.597.781.436.029.465.317.524.722.029.254.077.693.164.84h-.67c-.018-.147-.121-.958-.121-1.002-.044-.18-.106-.269-.329-.269h-.553v1.275h-.612v-3.187zm-1.307 1.584c0 1.319 1.058 2.388 2.358 2.388 1.311 0 2.37-1.091 2.37-2.388 0-1.323-1.073-2.3728-2.373-2.3728-1.282 0-2.359 1.0358-2.359 2.3688m5.186.011c0 1.563-1.271 2.838-2.82 2.838-1.538 0-2.82-1.26-2.82-2.838 0-1.606 1.311-2.8367 2.82-2.8367 1.52 0 2.816 1.2347 2.816 2.8367" fill="#689F63"/><path fill-rule="evenodd" clip-rule="evenodd" d="M53.7664 65.3649c0-.678-.3552-1.3007-.9367-1.6379l-15.5112-8.9796c-.2618-.1548-.5552-.2358-.8525-.2469h-.1604c-.2974.0111-.5907.0921-.8569.2469L19.9382 63.727c-.5779.339-.9382.9617-.9382 1.6397l.0341 24.1864c0 .3353.1721.6485.465.8143.2857.1769.6446.1769.9302 0l9.2212-5.3133c.5822-.3486.9375-.9647.9375-1.6361V72.1189c0-.6743.3552-1.297.9356-1.6323l3.9258-2.2749c.2915-.1695.6116-.2535.9375-.2535.3208 0 .6482.0832.9316.2531l3.924 2.2742c.5808.3353.9375.958.9375 1.6323v11.2984c0 .6706.3599 1.2896.9393 1.636l9.2153 5.3097c.2893.1731.6493.1731.9375 0 .2841-.1658.4643-.4791.4643-.8144l.03-24.1826zM126.96 77.9577c0 .1684-.089.3242-.234.4075l-5.328 3.09c-.145.0837-.323.0837-.468 0l-5.328-3.09c-.146-.0836-.234-.2395-.234-.4075v-6.1888c0-.1688.087-.3243.23-.409l5.325-3.0952c.146-.0847.326-.0847.472 0l5.329 3.0952c.146.0847.234.2402.234.409l.002 6.1888zm1.439-45.8384c-.291-.1629-.644-.1584-.931.01-.286.1694-.463.479-.463.8143v23.9505c0 .2358-.124.4532-.327.5711-.201.118-.452.118-.656 0l-3.885-2.2517c-.579-.3368-1.291-.3368-1.872 0l-15.516 9.0102c-.58.3353-.938.958-.938 1.6287v18.0255c0 .6743.358 1.2933.938 1.6323l15.516 9.0165c.579.3353 1.293.3353 1.874 0l15.516-9.0202c.579-.339.938-.958.938-1.6323V38.9504c0-.6839-.37-1.3129-.964-1.6471l-9.23-5.184zm51.67 39.4867c.576-.3368.931-.9587.931-1.6294v-4.3685c0-.6721-.355-1.2923-.933-1.6305l-15.417-9.0054c-.582-.339-1.297-.339-1.879 0l-15.512 9.0091c-.583.339-.938.958-.938 1.6323v18.0182c0 .6779.363 1.3043.945 1.6397l15.414 8.8395c.567.328 1.263.3317 1.838.0111l9.324-5.2138c.293-.1659.479-.4791.479-.8181 0-.3389-.179-.6558-.472-.8216l-15.608-9.0128c-.293-.1658-.472-.479-.472-.8143v-5.6524c0-.3375.176-.6485.469-.8165l4.855-2.8188c.29-.1695.645-.1695.934 0l4.86 2.8188c.289.1658.469.479.469.8143v4.4438c0 .3353.179.6485.468.818.29.1658.649.1658.938-.0037l9.307-5.439z" fill="#333"/><path fill-rule="evenodd" clip-rule="evenodd" d="M163.484 70.7638c.11-.0653.247-.0653.359 0l2.977 1.7281c.111.0648.179.1842.179.3132v3.4599c0 .129-.068.2484-.179.3132l-2.977 1.7281c-.112.0653-.249.0653-.359 0l-2.976-1.7281c-.113-.0648-.183-.1842-.183-.3132v-3.4599c0-.129.066-.2484.18-.3132l2.979-1.7281z" fill="#689F63"/><mask id="a" style="mask-type:luminance" maskUnits="userSpaceOnUse" x="61" y="54" width="36" height="41"><path d="M77.8588 55.0631l-15.4284 8.96c-.5779.3353-.9324.9544-.9324 1.6235v17.9327c0 .6695.3545 1.2882.9324 1.6235l15.4295 8.9671c.5768.3342 1.288.3342 1.864 0l15.4269-8.9671c.575-.3353.9302-.9543.9302-1.6235V65.6466c0-.6691-.3552-1.2882-.9338-1.6235l-15.4247-8.96c-.2894-.167-.6116-.2506-.9339-.2506-.3222 0-.6445.0836-.9338.2506" fill="#fff"/></mask><g mask="url(#a)"><path d="M111.672 62.5018L68.1974 41.0605 45.9062 86.8149l43.4735 21.4421 22.2923-45.7552z" fill="url(#paint0_linear_314_3434)"/></g><mask id="b" style="mask-type:luminance" maskUnits="userSpaceOnUse" x="61" y="54" width="35" height="41"><path d="M61.8804 84.7176c.1476.1927.3321.3596.5493.4849l13.2348 7.6918 2.2046 1.2749c.3296.1916.7053.2726 1.0744.245.1231-.0099.2461-.0332.3662-.0674l16.2722-29.9787c-.1245-.1364-.2703-.2506-.4336-.3464L85.046 58.152l-5.34-3.0915c-.1516-.0884-.3161-.151-.4834-.1953L61.8804 84.7176z" fill="#fff"/></mask><g mask="url(#b)"><path d="M43.0835 68.8428L73.781 110.647l40.598-30.18-30.6994-41.8029-40.5961 30.1787z" fill="url(#paint1_linear_314_3434)"/></g><mask id="c" style="mask-type:luminance" maskUnits="userSpaceOnUse" x="62" y="54" width="35" height="41"><path d="M78.6043 54.8215c-.2589.0257-.512.1068-.7452.2402L62.4746 63.996l16.5893 30.4024c.2307-.0331.4578-.1105.6628-.2299l15.4284-8.9671c.4761-.2778.802-.748.9009-1.2808L79.1445 54.852c-.1246-.0247-.2491-.0375-.3772-.0375-.0513 0-.1026.0025-.1538.0073" fill="#fff"/></mask><g mask="url(#c)"><path d="M62.4741 54.8145v39.5847h33.5752V54.8145H62.4741z" fill="url(#paint2_linear_314_3434)"/></g><defs><linearGradient id="paint0_linear_314_3434" x1="89.9216" y1="51.7475" x2="67.41" y2="97.3893" gradientUnits="userSpaceOnUse"><stop offset=".3" stop-color="#3E863D"/><stop offset=".5" stop-color="#55934F"/><stop offset=".8" stop-color="#5AAD45"/></linearGradient><linearGradient id="paint1_linear_314_3434" x1="58.6162" y1="89.9845" x2="99.3919" y2="60.0409" gradientUnits="userSpaceOnUse"><stop offset=".57" stop-color="#3E863D"/><stop offset=".72" stop-color="#619857"/><stop offset="1" stop-color="#76AC64"/></linearGradient><linearGradient id="paint2_linear_314_3434" x1="62.4854" y1="74.6079" x2="96.0556" y2="74.6079" gradientUnits="userSpaceOnUse"><stop offset=".16" stop-color="#6BBF47"/><stop offset=".38" stop-color="#79B461"/><stop offset=".47" stop-color="#75AC64"/><stop offset=".7" stop-color="#659E5A"/><stop offset=".9" stop-color="#3E863D"/></linearGradient></defs></svg>