<svg width="200" height="160" viewBox="0 0 200 160" fill="none" xmlns="http://www.w3.org/2000/svg"><path d="M81.0174 73.5893c.1257.1339.2239.2921.2889.4654.0649.1732.0953.358.0892.5434v19.394c.0053.2056-.0294.4102-.1019.6021-.0726.1918-.1816.3671-.3208.5158-.1389.1489-.307.2663-.4932.3445-.1863.0783-.3865.1158-.5879.1099-.2281.0004-.4549-.0365-.6717-.1091-.1987-.0625-.3771-.1787-.5163-.3363L66.4025 78.7604v15.3998c.0107.3614-.1195.7124-.3621.9757-.2425.2633-.5776.4175-.9314.4285-.0271.0008-.0542.0008-.0813 0-.1802.0071-.3597-.0249-.5269-.0939-.1672-.0689-.3181-.1732-.443-.306-.1244-.1337-.2215-.2914-.2856-.4638-.0642-.1724-.0941-.3561-.0881-.5405V74.7253c-.0046-.2048.0326-.4083.1092-.5976.0766-.1893.1909-.3603.3357-.502.1355-.142.2984-.2537.4784-.328.1799-.0743.3731-.1096.5671-.1037.2469-.0012.4917.0466.7207.1409.2084.0823.3913.2204.5295.3998l12.2481 16.395V74.5981c-.0054-.1789.0238-.3572.086-.5246.0621-.1674.1559-.3207.276-.4511.1201-.1304.2642-.2354.424-.3089.1599-.0735.3323-.1141.5075-.1195.0271-.0008.0543-.0008.0814 0 .1797-.0068.3588.0249.5258.0929.167.0681.3183.1711.444.3024h-.0001zm25.2706 0c.266.3021.406.6981.391 1.1042v12.269c.026 1.5858-.351 3.1513-1.094 4.5441-.704 1.3139-1.749 2.4038-3.021 3.149-1.318.7723-2.8143 1.1708-4.3337 1.1542-1.533.0247-3.0449-.3657-4.3822-1.1315-1.2777-.7421-2.3282-1.8324-3.0343-3.149-.7428-1.3928-1.1199-2.9583-1.0944-4.5441v-12.269c-.0058-.2056.0309-.4102.1075-.6004.0767-.1902.1916-.3619.3374-.5038.1486-.1484.3247-.2651.518-.3431.1933-.078.3999-.1158.6077-.1113.1958.0002.3896.0405.5699.1186.1802.078.3434.1922.4796.3358.1442.1394.2583.308.3349.495.0767.187.1141.3884.1101.5911V86.967c-.0161 1.0474.2436 2.0801.7518 2.99.4709.8478 1.1533 1.5531 1.9778 2.044.8245.4908 1.7616.7498 2.7159.7506.9754.0071 1.936-.2467 2.785-.7361.857-.4838 1.57-1.195 2.064-2.0585.517-.9071.781-1.9408.766-2.99V74.6981c-.015-.4028.118-.7966.373-1.1042.13-.1485.29-.2661.469-.3446.179-.0785.373-.116.568-.1098.193-.0046.386.0331.564.1107.178.0775.337.193.468.3388l.001.0003zm24.082 19.6755c.188.2638.286.5828.28.9088.008.2033-.027.4059-.104.5935-.077.1877-.193.3558-.341.4926-.275.2658-.64.4138-1.018.4135-.24.0092-.478-.0444-.691-.1558-.213-.1114-.395-.2768-.528-.4804l-6.082-8.2929-5.944 8.2792c-.132.2071-.312.3769-.525.4937-.213.1168-.452.1767-.694.1743-.177.004-.354-.0294-.519-.0982-.164-.0688-.313-.1715-.437-.3016-.123-.1158-.221-.2563-.289-.4127-.067-.1564-.102-.3253-.103-.4961.007-.3848.14-.7561.379-1.0543l6.415-8.9199-6.446-8.8518c-.202-.2587-.313-.5785-.316-.9089-.004-.2027.033-.404.11-.591.076-.1871.19-.3557.335-.495.136-.1436.299-.2577.479-.3358.181-.078.374-.1184.57-.1186.233.0012.463.0572.672.1636.221.1068.409.2714.547.4771l6.011 8.2471 5.953-8.1657c.129-.2048.304-.3754.511-.4978.206-.1224.438-.1931.677-.2065.186.0011.37.042.54.1203.171.0782.323.1921.447.3341.135.1234.245.2737.321.4416.077.168.119.3501.124.5353-.01.3282-.119.6454-.311.9087l-6.532 8.8799 6.509 8.9197zm22.579-19.6755c.145.1354.26.3014.337.4865.077.1851.113.385.107.586.006.1981-.031.3951-.108.5772-.077.1821-.192.3448-.336.4769-.302.2604-.687.3965-1.082.3818h-5.57v17.9356c.004.2027-.034.4039-.11.5909-.077.187-.191.3556-.335.4951-.314.2868-.721.4453-1.143.4453-.422 0-.829-.1585-1.143-.4453-.144-.14-.257-.3087-.334-.4956-.076-.1868-.114-.3878-.111-.5904V76.0977h-5.557c-.395.0153-.781-.1264-1.077-.3954-.141-.1374-.252-.3042-.325-.4891-.073-.1849-.106-.3837-.097-.5828-.007-.1942.028-.3876.101-.567.073-.1795.182-.341.321-.4737.296-.2689.682-.4106 1.077-.3953h14.303c.397-.0147.784.1266 1.082.3949z" fill="#2C4A5D"/><path d="M159.796 94.9928c-1.013-.5859-1.856-1.4357-2.443-2.4627-.174-.254-.273-.5536-.285-.8633 0-.1981.042-.3938.124-.5735.081-.1797.2-.3391.348-.4672.255-.2722.602-.4348.97-.4544.276.0264.544.1111.787.2488.243.1376.455.3253.623.551.342.5743.825 1.0476 1.401 1.3728.575.3251 1.225.491 1.883.4811.537.0129 1.072-.0851 1.572-.2881s.955-.5068 1.337-.8933c.386-.3734.691-.8249.897-1.3256.205-.5008.306-1.0398.295-1.5826V74.7263c-.002-.2046.039-.4073.119-.5946.081-.1873.199-.3548.349-.4914.291-.2933.685-.4567 1.094-.4545.205-.0101.409.023.6.0973.192.0743.366.1881.512.3345.14.1443.25.3163.322.5053.073.1891.107.3913.101.5943v14.0412c.012 1.2585-.313 2.4965-.939 3.5807-.62 1.0804-1.511 1.9728-2.58 2.5855-1.121.6485-2.391.9809-3.679.9634-1.194.0129-2.369-.2959-3.408-.8952zm21.515.2363c-1.24-.4808-2.378-1.2013-3.35-2.1221-.198-.1552-.36-.3537-.473-.5809-.113-.2273-.175-.4775-.181-.7323.002-.1944.043-.3862.119-.5642.077-.178.187-.3384.326-.4718.131-.1449.291-.2601.469-.3384.178-.0782.369-.1178.563-.1161.329-.0046.648.1208.89.3499.751.7328 1.625 1.3223 2.58 1.7404.961.3901 1.987.5816 3.021.5635 1.177.038 2.338-.2866 3.332-.9316.407-.2332.746-.5712.985-.9802.239-.4089.369-.8747.377-1.3508.007-.5119-.114-1.0173-.352-1.4676-.239-.4503-.586-.8306-1.01-1.1044-1.249-.7495-2.621-1.2635-4.048-1.5177-1.811-.2963-3.519-1.0561-4.965-2.2084-.583-.5298-1.042-1.1868-1.342-1.9223-.3-.7355-.435-1.5307-.393-2.3265-.025-1.1877.318-2.3531.979-3.3307.672-.9705 1.596-1.7292 2.669-2.1903 1.227-.5286 2.548-.7901 3.88-.7679 1.247-.0081 2.487.2088 3.661.6407 1.035.3568 1.985.9346 2.785 1.695.211.1589.385.3635.509.5992.125.2357.197.4965.211.764 0 .1906-.037.3793-.11.5549-.072.1756-.179.3345-.312.4675-.128.1461-.285.2623-.461.3407-.176.0784-.366.1172-.558.1137-.263.0101-.519-.0826-.716-.2594-.649-.6218-1.417-1.0998-2.256-1.4041-.869-.3577-1.795-.5457-2.732-.5544-1.173-.0615-2.336.2463-3.332.8818-.381.2578-.693.6078-.909 1.019-.217.4111-.33.8705-.33 1.3371 0 .4666.113.926.33 1.3372.216.4111.528.7611.909 1.0189 1.14.6789 2.384 1.1554 3.679 1.4091 1.376.2766 2.719.7048 4.004 1.2769.971.4382 1.8 1.1469 2.394 2.0449.602 1.0321.894 2.2216.841 3.4216.017 1.1795-.339 2.3333-1.015 3.2899-.711.9864-1.668 1.76-2.771 2.2402-1.213.5421-2.525.8147-3.849.7997-1.377.0261-2.748-.1987-4.048-.6637z" fill="#00C391"/><path d="M19.9803 95.2995c-.0317-.0573-.06-.1165-.0846-.1772-.1707-.4033-.2232-.8484-.1513-1.2814H9.64976L24.6517 66.8764l4.9251 8.8427 1.4281-2.581-4.2932-7.7249c-.2058-.3957-.5054-.7324-.8715-.9793-.3661-.2469-.7869-.396-1.224-.4339-.4361.0204-.8578.1654-1.2173.4184-.3594.253-.6421.604-.8159 1.013L7.38524 92.723c-.22721.3854-.35821.8218-.38148 1.2711-.02328.4492.06189.8973.24801 1.305.23378.3764.56601.6785.95913.8721.39311.1936.83142.271 1.26535.2234H22.2048c-.434.0484-.8725-.0286-1.2658-.2222-.3932-.1936-.7254-.4961-.9587-.8729z" fill="#00C492"/><path d="M49.244 92.722L36.7558 70.2516c-.2049-.3999-.505-.7406-.8728-.9908s-.7914-.4016-1.2316-.4405c-.4358.0192-.8576.1632-1.2171.4155-.3595.2523-.6423.6027-.8161 1.0113l-1.615 2.8901 1.437 2.581 2.2241-4.0215 12.3552 22.1432h-4.6981c.0601.366.0264.7417-.0979 1.0905-.0261.0771-.0589.1516-.0979.2227l-.04.0818c-.2553.3682-.5955.6665-.9904.8685-.395.202-.8326.3016-1.2741.2899h7.3497c.4416.0121.8794-.0872 1.2744-.2893s.7351-.5006.9901-.8691c.2013-.3953.2901-.8402.2562-1.2844-.0338-.4442-.1888-.8698-.4475-1.2285z" fill="#008776"/><path d="M42.0847 95.2364l.04-.0818c.039-.0711.0718-.1456.0979-.2227.1243-.3488.158-.7245.0979-1.0905-.0692-.3948-.2079-.7736-.4093-1.1179l-9.4627-17.0038-1.4459-2.581-1.437 2.581L20.107 92.724c-.1836.3484-.307.7266-.3648 1.1178-.0761.4318-.0282.8769.138 1.2814.0246.0608.0529.12.0846.1772.2339.3764.5661.6784.9593.8719.3931.1936.8314.2709 1.2653.2233h17.6175c.4437.0133.8839-.0856 1.2812-.2878.3974-.2022.7397-.5016.9966-.8714zM31.0023 78.3006l8.6488 15.5408H22.3579l8.6444-15.5408z" fill="#2D4A5D"/></svg>