<svg width="200" height="160" viewBox="0 0 200 160" fill="none" xmlns="http://www.w3.org/2000/svg"><ellipse cx="100" cy="80.0102" rx="76" ry="39.9594" fill="url(#paint0_radial_314_3282)"/><ellipse cx="100" cy="80.0102" rx="73.0312" ry="36.9906" fill="#6181B6"/><path fill-rule="evenodd" clip-rule="evenodd" d="M114.772 92.009l3.622-18.6438c.831-4.2156.119-7.3625-2.019-9.3218-2.078-1.9-5.64-2.85-10.865-2.85h-6.2942l1.7812-9.2625c.059-.3563 0-.7125-.237-1.0094-.238-.2969-.535-.4156-.891-.4156h-8.6688c-.5937 0-1.0687.4156-1.1875.95l-3.8593 19.7718c-.3563-2.2562-1.1876-4.1562-2.6126-5.7-2.5531-2.9093-6.5312-4.3937-11.9343-4.3937H54.9221c-.5938 0-1.0688.4156-1.1875.95l-7.7781 40.137c-.0594.357 0 .713.2375 1.01.2375.297.5343.415.8906.415h8.7281c.5938 0 1.0688-.415 1.1875-.95l1.9-9.6776h6.4719c3.3844 0 6.2937-.3563 8.4906-1.0688 2.3156-.7719 4.3938-2.0187 6.2344-3.7406 1.4844-1.3656 2.7312-2.9094 3.6812-4.5719l-1.5437 8.0156c-.0594.3563 0 .7125.2375 1.0094.2375.2969.5344.4156.8906.4156h8.6688c.5937 0 1.0687-.4156 1.1875-.95l4.275-21.9687h5.937c2.554 0 3.266.475 3.504.7125.178.1781.534.8906.118 3.0875l-3.443 17.7531c-.06.3563 0 .7125.237 1.0094.238.2969.534.4156.891.4156h8.906c.534-.1781 1.009-.5937 1.128-1.1281zM74.6378 76.5683c-.5344 2.7906-1.5438 4.8094-3.0282 5.9375-1.4843 1.1281-3.9187 1.7219-7.125 1.7219h-3.8593l2.7906-14.3688h4.9875c3.6812 0 5.1656.7719 5.7594 1.425.7718.95.95 2.7907.475 5.2844zM151.83 65.5227c-2.553-2.9094-6.531-4.3938-11.934-4.3938h-16.803c-.594 0-1.069.4156-1.188.95l-7.778 40.0781c-.059.356 0 .713.238 1.009.237.297.534.416.89.416h8.729c.593 0 1.068-.416 1.187-.95l1.9-9.6781h6.472c3.384 0 6.294-.3562 8.491-1.0687 2.315-.7719 4.393-2.0188 6.234-3.7407 1.544-1.425 2.85-3.0281 3.8-4.75.95-1.7218 1.662-3.6218 2.078-5.7 1.009-5.1656.238-9.2031-2.316-12.1718zm-9.083 11.0428c-.534 2.7906-1.544 4.8093-3.028 5.9375-1.484 1.1281-3.919 1.7218-7.125 1.7218h-3.859l2.79-14.3687h4.988c3.681 0 5.165.7719 5.759 1.425.831.95 1.01 2.7906.475 5.2844z" fill="#fff"/><path fill-rule="evenodd" clip-rule="evenodd" d="M68.4172 68.6686c3.325 0 5.5219.5937 6.65 1.8406 1.1281 1.2469 1.3656 3.325.7719 6.2938-.5938 3.0875-1.7813 5.3437-3.5032 6.65-1.7218 1.3062-4.3343 1.9593-7.8375 1.9593h-5.2843l3.2656-16.7437h5.9375zM47.165 102.395h8.7282l2.0781-10.6286h7.4812c3.325 0 5.9969-.3562 8.1344-1.0687 2.1375-.7125 4.0375-1.8407 5.8188-3.5032 1.4843-1.3656 2.6718-2.85 3.5625-4.4531.8906-1.6031 1.5437-3.3844 1.9-5.3437.95-4.75.2375-8.4313-2.0782-11.1032-2.3156-2.6718-5.9968-3.9781-11.0437-3.9781H54.9432L47.165 102.395zM91.2806 51.6914h8.6687l-2.0781 10.6281h7.7188c4.869 0 8.194.8313 10.034 2.5532 1.841 1.7218 2.375 4.4531 1.663 8.2531l-3.622 18.6437h-8.788l3.444-17.7531c.416-2.0187.238-3.3844-.415-4.0969-.654-.7125-2.138-1.1281-4.335-1.1281h-6.9467l-4.4531 22.9781h-8.6688l7.7782-40.0781zM136.514 68.6686c3.325 0 5.522.5937 6.65 1.8406 1.129 1.2469 1.366 3.325.772 6.2938-.593 3.0875-1.781 5.3437-3.503 6.65-1.722 1.3062-4.334 1.9593-7.837 1.9593h-5.285l3.266-16.7437h5.937zm-21.252 33.7264h8.728l2.078-10.6286h7.482c3.325 0 5.997-.3562 8.134-1.0687 2.138-.7125 4.038-1.8407 5.819-3.5032 1.484-1.3656 2.672-2.85 3.562-4.4531.891-1.6031 1.544-3.3844 1.9-5.3437.95-4.75.238-8.4313-2.078-11.1032-2.315-2.6718-5.997-3.9781-11.044-3.9781H123.04l-7.778 40.0786z" fill="#000004"/><defs><radialGradient id="paint0_radial_314_3282" cx="0" cy="0" r="1" gradientUnits="userSpaceOnUse" gradientTransform="matrix(215.565 0 0 113.34 69.6307 54.1035)"><stop stop-color="#fff"/><stop offset=".5" stop-color="#4C6B97"/><stop offset="1" stop-color="#231F20"/></radialGradient></defs></svg>