<svg width="200" height="160" viewBox="0 0 200 160" fill="none" xmlns="http://www.w3.org/2000/svg"><path d="M46.7225 85.6218c3.1654 0 5.7315-2.5661 5.7315-5.7315 0-3.1654-2.5661-5.7315-5.7315-5.7315-3.1655 0-5.7315 2.5661-5.7315 5.7315 0 3.1654 2.566 5.7315 5.7315 5.7315z" fill="#00D8FF"/><path clip-rule="evenodd" d="M46.7226 68.2372c7.6953 0 14.844 1.1042 20.2341 2.9598 6.4944 2.2359 10.4874 5.6248 10.4874 8.6935 0 3.1978-4.2318 6.7981-11.2059 9.1088-5.2725 1.7469-12.2108 2.6588-19.5156 2.6588-7.4895 0-14.5816-.8559-19.9136-2.678C20.0631 86.6744 16 83.0274 16 79.8905c0-3.0438 3.8125-6.4066 10.2155-8.639 5.4103-1.8862 12.7355-3.0143 20.506-3.0143h.0011z" stroke="#00D8FF" stroke-width="2.05647"/><path clip-rule="evenodd" d="M36.578 74.0972c3.8444-6.6662 8.3721-12.3073 12.6724-16.0496 5.1812-4.509 10.1118-6.2748 12.77-4.7419 2.7703 1.5975 3.775 7.0622 2.2926 14.2577-1.1196 5.4403-3.7969 11.9061-7.4462 18.2341-3.7417 6.4879-8.026 12.204-12.2677 15.9115-5.3674 4.692-10.5565 6.39-13.2739 4.823-2.6369-1.52-3.6453-6.503-2.3803-13.1653 1.0688-5.629 3.751-12.5382 7.6318-19.2696l.0013.0001z" stroke="#00D8FF" stroke-width="2.05647"/><path clip-rule="evenodd" d="M36.5876 85.8146c-3.8553-6.6587-6.4802-13.3999-7.5758-18.9944-1.3189-6.7407-.3864-11.8944 2.2694-13.4317 2.7676-1.6023 8.0037.2563 13.4973 5.1343 4.1537 3.6879 8.4188 9.2355 12.0787 15.5575 3.7524 6.4817 6.5648 13.0484 7.6588 18.5748 1.3843 6.9935.2639 12.3369-2.451 13.9089-2.6342 1.525-7.4547-.09-12.5947-4.513-4.343-3.7372-8.9893-9.5116-12.8827-16.2365v.0001z" stroke="#00D8FF" stroke-width="2.05647"/><path fill-rule="evenodd" clip-rule="evenodd" d="M110.344 94.531l-7.025-10.6135c3.55-.3134 6.749-2.8859 6.749-7.5858 0-4.7824-3.394-7.8431-8.154-7.8431H91.4584v26.0226h3.2388V84.1714h5.1896l6.6322 10.3398 3.825.0198zm-8.818-13.1878h-6.8272v-9.9489h6.8272c3.084 0 5.19 2.0284 5.19 4.9555s-2.108 4.9967-5.19 4.9967v-.0033zM122.4 94.9977c3.084 0 5.619-1.0142 7.492-2.8859l-1.405-1.913c-1.484 1.5221-3.668 2.3797-5.813 2.3797-4.057 0-6.555-2.9651-6.789-6.5139h15.254v-.7421c0-5.6564-3.356-10.1056-9.054-10.1056-5.384 0-9.284 4.4097-9.284 9.8714 0 5.8922 4.019 9.8945 9.597 9.8945l.002.0149zm5.854-11.0819h-12.368c.157-2.8859 2.144-6.283 6.165-6.283 4.292 0 6.164 3.473 6.203 6.283zm22.319 10.6135V81.5758c0-4.5647-3.315-6.3605-7.295-6.3605-3.084 0-5.502 1.0141-7.53 3.1217l1.365 2.0283c1.677-1.7942 3.513-2.6138 5.775-2.6138 2.731 0 4.761 1.443 4.761 3.9793v3.3938c-1.522-1.7563-3.667-2.5759-6.243-2.5759-3.199 0-6.597 1.9905-6.597 6.2039 0 4.0963 3.394 6.2434 6.597 6.2434 2.536 0 4.683-.8971 6.243-2.6138v2.1438l2.924.0033zm-8.113-1.6392c-2.731 0-4.644-1.715-4.644-4.0963 0-2.4192 1.913-4.1359 4.644-4.1359 2.068 0 4.056.78 5.189 2.3417v3.5505c-1.131 1.56-3.121 2.3417-5.189 2.3417v-.0017zm22.262 2.1076c3.434 0 5.462-1.4051 6.907-3.2768l-1.951-1.7942c-1.249 1.6771-2.848 2.4572-4.783 2.4572-4.018 0-6.514-3.1218-6.514-7.2956s2.497-7.2559 6.514-7.2559c1.951 0 3.551.742 4.783 2.4571l1.951-1.7942c-1.443-1.8734-3.473-3.2767-6.907-3.2767-5.618 0-9.403 4.2925-9.403 9.8714 0 5.6184 3.785 9.8945 9.403 9.8945v.0132zm15.765 0c1.715 0 2.771-.508 3.513-1.2088l-.858-2.1851c-.39.4288-1.154.7801-1.99.7801-1.286 0-1.913-1.0142-1.913-2.4192V78.2595h3.826v-2.5743h-3.826v-5.15h-2.927v5.15h-3.122v2.5759h3.122v12.3302c0 2.81 1.405 4.4097 4.175 4.4097v-.0033z" fill="#00D8FF"/></svg>