<svg width="200" height="160" viewBox="0 0 200 160" fill="none" xmlns="http://www.w3.org/2000/svg">
<path d="M44.7414 66.5681H37.2214V89.8561H34.1547V66.5681H26.6667V63.8041H44.7414V66.5681ZM56.6054 71.2547L48.0481 92.8321C46.5241 96.6814 44.3814 98.6094 41.6147 98.6094C40.8414 98.6094 40.1934 98.5321 39.6721 98.3721V95.7001C40.3121 95.9174 40.9014 96.0254 41.4321 96.0254C42.9361 96.0254 44.0627 95.1321 44.8107 93.3387L46.2987 89.8147L39.0321 71.2547H42.3387L47.3721 85.5681C47.4347 85.7494 47.5587 86.2241 47.7547 86.9841H47.8614L48.2214 85.6041L53.5067 71.2547H56.6054ZM61.4774 87.1694H61.4054V98.4134H58.4241V71.2534H61.4054V74.5241H61.4774C62.9441 72.0547 65.0841 70.8174 67.9107 70.8174C70.3081 70.8174 72.1774 71.6494 73.5241 73.3134C74.8708 74.9774 75.5374 77.2094 75.5374 80.0094C75.5374 83.1201 74.7827 85.6161 73.2707 87.4867C71.7587 89.3574 69.6841 90.2921 67.0601 90.2921C64.6601 90.2867 62.7868 89.2481 61.4801 87.1654L61.4774 87.1694ZM61.4054 79.6654V82.2654C61.4054 83.8054 61.9067 85.1054 62.9041 86.1827C63.9014 87.2601 65.1707 87.7894 66.7121 87.7894C68.5148 87.7894 69.9307 87.0961 70.9548 85.7174C71.9787 84.3387 72.4881 82.4161 72.4881 79.9614C72.4881 77.8894 72.0081 76.2681 71.0521 75.0947C70.0961 73.9214 68.7854 73.3347 67.1667 73.3347C65.4361 73.3347 64.0401 73.9387 62.9868 75.1427C61.9334 76.3467 61.4054 77.8481 61.4054 79.6654ZM93.6121 81.2987H80.4788C80.5254 83.3707 81.0827 84.9654 82.1481 86.0934C83.2134 87.2214 84.6814 87.7827 86.5454 87.7827C88.6388 87.7827 90.5654 87.0894 92.3228 85.7107V88.5067C90.6894 89.6934 88.5254 90.2894 85.8374 90.2894C83.2067 90.2894 81.1441 89.4467 79.6414 87.7561C78.1387 86.0654 77.3747 83.6894 77.3747 80.6254C77.3747 77.7321 78.1961 75.3721 79.8347 73.5521C81.4734 71.7321 83.5147 70.8187 85.9481 70.8187C88.3814 70.8187 90.2627 71.6054 91.5961 73.1787C92.9294 74.7521 93.5961 76.9387 93.5961 79.7361V81.2961L93.6121 81.2987ZM90.5454 78.7721C90.5348 77.0387 90.1161 75.7134 89.3001 74.7587C88.4841 73.8041 87.3468 73.3227 85.8948 73.3227C84.4894 73.3227 83.2948 73.8241 82.3134 74.8321C81.3321 75.8401 80.7134 77.1521 80.4947 78.7747L90.5454 78.7721ZM96.2041 88.8014V85.2054C96.5814 85.5654 97.0307 85.8987 97.5574 86.1867C98.0841 86.4747 98.6241 86.7241 99.2214 86.9201C99.8187 87.1161 100.389 87.2761 100.973 87.3867C101.557 87.4974 102.107 87.5521 102.6 87.5521C104.316 87.5521 105.603 87.2054 106.449 86.5081C107.296 85.8107 107.72 84.8081 107.72 83.5014C107.72 82.7987 107.58 82.1894 107.296 81.6667C106.996 81.1231 106.598 80.6395 106.123 80.2401C105.621 79.8107 105.032 79.3974 104.349 79.0054L102.149 77.7601L99.8241 76.3601C99.1378 75.9181 98.5079 75.3942 97.9481 74.8001C97.4147 74.2321 96.9974 73.5867 96.6921 72.8667C96.3867 72.1467 96.2388 71.3014 96.2388 70.3334C96.2388 69.1467 96.4761 68.1161 96.9521 67.2401C97.4281 66.3641 98.0521 65.6401 98.8321 65.0694C99.6121 64.4987 100.491 64.0774 101.483 63.7987C102.47 63.5205 103.491 63.3796 104.516 63.3801C106.867 63.3801 108.577 63.6907 109.652 64.3054V67.7361C108.247 66.6721 106.452 66.1401 104.232 66.1401C103.623 66.1401 103.012 66.2121 102.403 66.3467C101.793 66.4814 101.251 66.7134 100.776 67.0294C100.301 67.3454 99.9134 67.7494 99.6134 68.2494C99.3134 68.7494 99.1641 69.3494 99.1641 70.0681C99.1641 70.7347 99.2774 71.3081 99.5054 71.7934C99.7334 72.2787 100.068 72.7187 100.513 73.1214C100.959 73.5241 101.495 73.9081 102.136 74.2841L104.336 75.5187L106.763 76.9721C107.528 77.4787 108.199 78.0414 108.773 78.6614C109.348 79.2814 109.807 79.9641 110.143 80.7147C110.479 81.4654 110.649 82.3281 110.649 83.2934C110.649 84.5734 110.417 85.6667 109.963 86.5534C109.526 87.4157 108.888 88.1602 108.103 88.7241C107.323 89.2841 106.423 89.6841 105.4 89.9334C104.377 90.1827 103.307 90.3067 102.176 90.3067C101.799 90.3067 101.333 90.2761 100.781 90.2081L99.0881 89.9187C98.5094 89.7894 97.9681 89.6347 97.4508 89.4481C96.9308 89.2481 96.5201 89.0481 96.2054 88.8081L96.2041 88.8014ZM126.511 89.0014C125.08 89.8587 123.384 90.2947 121.427 90.2947C118.776 90.2947 116.632 89.4321 115.004 87.7054C113.376 85.9787 112.56 83.7427 112.56 80.9934C112.56 77.9294 113.44 75.4694 115.195 73.6094C116.949 71.7494 119.292 70.8187 122.227 70.8187C123.86 70.8187 125.301 71.1254 126.552 71.7281V74.7947C125.172 73.8214 123.695 73.3414 122.119 73.3414C120.217 73.3414 118.657 74.0241 117.443 75.3881C116.228 76.7521 115.619 78.5401 115.619 80.7561C115.619 82.9361 116.192 84.6574 117.335 85.9134C118.477 87.1694 120.015 87.8041 121.939 87.8041C123.561 87.8041 125.085 87.2667 126.517 86.1867V89.0134L126.511 89.0014ZM138.039 74.2654C137.519 73.8681 136.768 73.6654 135.772 73.6654C134.501 73.6654 133.436 74.2654 132.585 75.4654C131.735 76.6654 131.305 78.2974 131.305 80.3694V89.8494H128.324V71.2494H131.305V75.0841H131.377C131.801 73.7774 132.447 72.7534 133.32 72.0254C134.193 71.2974 135.164 70.9254 136.244 70.9254C137.017 70.9254 137.613 71.0081 138.027 71.1921L138.039 74.2654ZM141.459 66.5321C140.925 66.5321 140.472 66.3507 140.095 65.9894C139.717 65.6281 139.532 65.1681 139.532 64.6094C139.532 64.0507 139.719 63.5921 140.095 63.2201C140.471 62.8481 140.927 62.6667 141.459 62.6667C142.001 62.6667 142.467 62.8534 142.848 63.2201C143.035 63.3988 143.183 63.6147 143.282 63.854C143.381 64.0933 143.428 64.3506 143.421 64.6094C143.421 65.1427 143.231 65.5961 142.848 65.9734C142.465 66.3401 142 66.5334 141.459 66.5334V66.5321ZM142.912 89.8561H139.931V71.2561H142.912V89.8561ZM147.717 87.1694H147.645V98.4134H144.664V71.2534H147.645V74.5241H147.717C149.184 72.0547 151.324 70.8174 154.151 70.8174C156.548 70.8174 158.417 71.6494 159.764 73.3134C161.111 74.9774 161.777 77.2094 161.777 80.0094C161.777 83.1201 161.023 85.6161 159.511 87.4867C157.999 89.3574 155.911 90.2921 153.3 90.2921C150.9 90.2867 149.027 89.2481 147.72 87.1654L147.717 87.1694ZM147.645 79.6667V82.2667C147.645 83.8067 148.147 85.1067 149.144 86.1841C150.141 87.2614 151.411 87.7907 152.952 87.7907C154.755 87.7907 156.171 87.0974 157.195 85.7187C158.219 84.3401 158.728 82.4174 158.728 79.9627C158.728 77.8907 158.248 76.2694 157.292 75.0961C156.336 73.9227 155.025 73.3361 153.407 73.3361C151.676 73.3361 150.28 73.9401 149.227 75.1441C148.173 76.3481 147.645 77.8507 147.645 79.6707V79.6667ZM172.933 89.6761C172.231 90.0627 171.307 90.2547 170.153 90.2547C166.9 90.2547 165.265 88.4361 165.265 84.8041V73.7987H162.065V71.2561H165.265V66.7147L168.247 65.7547V71.2574H172.933V73.8001H168.247V84.2801C168.247 85.5254 168.46 86.4187 168.883 86.9521C169.305 87.4854 170.009 87.7521 170.989 87.7521C171.739 87.7521 172.389 87.5454 172.932 87.1321L172.933 89.6761Z" fill="#007ACC"/>
</svg>
