<svg width="200" height="160" viewBox="0 0 200 160" fill="none" xmlns="http://www.w3.org/2000/svg"><path fill-rule="evenodd" clip-rule="evenodd" d="M70.277 49.0137h14.0843L48.7977 110.743 13 49.0137h14.4047l21.393 37.1619L70.277 49.0137z" fill="#41B883"/><path fill-rule="evenodd" clip-rule="evenodd" d="M56.9577 49H70.353L48.7701 86.2394 27.3604 49h13.186l8.2237 14.3366L56.9577 49z" fill="#35495E"/><path fill-rule="evenodd" clip-rule="evenodd" d="M92.7549 61.1837c0-.4554.2509-.8348.7529-1.1385.5019-.3036 1.0267-.4554 1.5743-.4554.7605 0 1.232.2885 1.4145.8653l8.0314 27.0497 7.985-27.0497c.213-.5768.669-.8653 1.369-.8653.578 0 1.118.167 1.62.501.502.3339.753.7134.753 1.1384 0 .0304-.008.0759-.023.1367-.015.0607-.023.1214-.023.1821l-9.263 30.2831c-.334.8804-1.141 1.3206-2.418 1.3206-1.278 0-2.054-.4402-2.327-1.3206L92.8466 61.548c-.0609-.1821-.0913-.3036-.0913-.3643h-.0004zM116.614 84.499V72.6594c0-.3644.191-.6831.571-.9563.38-.2733.829-.4099 1.346-.4099.487 0 .92.1442 1.3.4326.381.2884.571.5996.571.9335V84.499c0 1.3662.517 2.5957 1.551 3.6886 1.035 1.0929 2.267 1.6394 3.696 1.6394 1.4 0 2.617-.5389 3.651-1.6166 1.034-1.0777 1.551-2.3149 1.551-3.7114V72.6131c0-.3339.19-.6375.571-.9107.38-.2733.829-.4099 1.346-.4099.547 0 .996.129 1.346.3871.35.2581.525.5692.525.9335V84.499c0 2.3377-.89 4.3793-2.67 6.1249-1.779 1.7457-3.886 2.6185-6.319 2.6185-2.465 0-4.586-.8728-6.366-2.6185-1.78-1.7456-2.669-3.7872-2.669-6.1249h-.001zm21.121-.091v-4.7816c0-2.3376.89-4.3564 2.67-6.0566 1.779-1.7001 3.917-2.5501 6.411-2.5501 2.373 0 4.426.7969 6.16 2.3908 1.734 1.5938 2.601 3.5899 2.601 5.9883 0 .8804-.106 1.5862-.319 2.1175-.213.5314-.54.9108-.981 1.1385-.441.2277-.852.3719-1.232.4326-.381.0607-.89.0911-1.529.0911h-9.993v1.3662c0 1.6697.6 3.0055 1.802 4.0074 1.202 1.0018 2.761 1.5027 4.677 1.5027 1.004 0 1.879-.1518 2.624-.4554.745-.3035 1.346-.5995 1.802-.8879.457-.2884.822-.4326 1.096-.4326.426 0 .791.1897 1.095.5692.304.3795.456.7666.456 1.1612 0 .6982-.692 1.4117-2.076 2.1403-1.384.7286-3.095 1.0929-5.134 1.0929-2.981 0-5.414-.8121-7.301-2.4363-1.886-1.6242-2.829-3.7569-2.829-6.3981v-.0001zm3.788-3.7797h8.442c.791 0 1.323-.0987 1.597-.296.274-.1973.41-.5844.41-1.1612 0-1.3661-.502-2.5653-1.505-3.5975-1.004-1.0323-2.236-1.5484-3.697-1.5484-1.429 0-2.661.4782-3.696 1.4345-1.034.9563-1.551 2.1327-1.551 3.5292v1.6394zm15.965 10.1549c0-.6679.228-1.2371.685-1.7077.456-.4705 1.019-.7058 1.688-.7058.639 0 1.186.2353 1.643.7058.456.4706.684 1.0398.684 1.7077 0 .6375-.228 1.1916-.684 1.6622-.457.4705-1.004.7058-1.643.7058-.669 0-1.232-.2353-1.688-.7058-.457-.4706-.685-1.0246-.685-1.6622zm3.371 10.8838c0-.486.152-.888.457-1.207.304-.319.669-.4779 1.095-.4779 1.186 0 1.962-.4402 2.327-1.3206.365-.8804.547-2.201.547-3.9618V72.6135c0-.3947.175-.7135.525-.9563.35-.2429.799-.3643 1.346-.3643.548 0 1.004.1214 1.369.3643.365.2428.548.5616.548.9563v22.0862c0 2.6412-.517 4.7359-1.552 6.2843-1.034 1.548-2.601 2.322-4.7 2.322-1.308 0-1.962-.546-1.962-1.639zm3.924-38.48c0-.5768.229-1.0777.685-1.5028.456-.425 1.019-.6375 1.688-.6375.639 0 1.187.2125 1.643.6375.456.4251.684.926.684 1.5028 0 .5768-.228 1.0854-.684 1.5255-.456.4402-1.004.6604-1.643.6604s-1.194-.2201-1.665-.6604c-.472-.4402-.708-.9487-.708-1.5255zm7.113 26.5941c0-.3947.129-.7818.388-1.1612.259-.3795.57-.5692.935-.5692.244 0 .594.1821 1.05.5464.456.3643 1.11.721 1.962 1.0702.852.3491 1.856.5237 3.012.5237 1.521 0 2.623-.2733 3.308-.8197.684-.5465 1.027-1.2296 1.027-2.0493 0-1.0018-.381-1.7987-1.141-2.3908-.761-.592-1.689-1.0397-2.784-1.3433-1.095-.3036-2.19-.6376-3.285-1.0019-1.095-.3643-2.023-.9715-2.784-1.8216-.76-.85-1.14-1.9733-1.14-3.3698 0-1.7304.616-3.2256 1.848-4.4855 1.232-1.2598 3.11-1.8898 5.635-1.8898 1.612 0 3.088.2505 4.426.7514 1.339.5009 2.008 1.0701 2.008 1.7076 0 .3643-.145.7742-.434 1.2296-.289.4554-.646.683-1.072.683-.122 0-.707-.2201-1.757-.6603-1.049-.4402-2.091-.6603-3.125-.6603-1.4 0-2.442.3264-3.126.9791-.685.6527-1.027 1.3889-1.027 2.2086 0 .8501.38 1.518 1.141 2.0037.76.4857 1.696.8652 2.806 1.1385 1.111.2732 2.213.6071 3.309 1.0018 1.095.3947 2.022 1.0702 2.783 2.0265.761.9563 1.141 2.1934 1.141 3.7114 0 1.8822-.669 3.3698-2.008 4.4627-1.338 1.0929-3.209 1.6394-5.613 1.6394-2.068 0-3.833-.3719-5.293-1.1157-1.46-.7438-2.19-1.5256-2.19-2.3453v.0001z" fill="#010101"/></svg>