<svg width="60" height="60" viewBox="0 0 60 60" fill="none" xmlns="http://www.w3.org/2000/svg">
<path d="M12.4622 6.09375C9.03864 6.09375 6.50542 9.09019 6.61881 12.3399C6.72763 15.4619 6.58627 19.5053 5.56831 22.8027C4.54729 26.1099 2.82051 28.2048 0 28.4737V31.5104C2.82051 31.7793 4.54729 33.8743 5.56831 37.1814C6.58627 40.4788 6.72763 44.5222 6.61881 47.6443C6.50542 50.8934 9.03864 53.8904 12.4627 53.8904H47.5424C50.9659 53.8904 53.4986 50.8939 53.3853 47.6443C53.2764 44.5222 53.4178 40.4788 54.4358 37.1814C55.4573 33.8743 57.1795 31.7793 60 31.5104V28.4737C57.1795 28.2048 55.4573 26.1099 54.4358 22.8027C53.4178 19.5058 53.2764 15.4619 53.3853 12.3399C53.4986 9.0907 50.9659 6.09375 47.5424 6.09375H12.4617H12.4622ZM40.678 35.5156C40.678 39.9902 37.3403 42.7039 31.8015 42.7039H22.3729C21.8112 42.7039 21.3559 42.2486 21.3559 41.687V18.2971C21.3559 17.7355 21.8112 17.2802 22.3729 17.2802H31.7476C36.3661 17.2802 39.3971 19.7819 39.3971 23.6229C39.3971 26.3188 37.3581 28.7326 34.7603 29.1551V29.296C38.2968 29.6839 40.678 32.1327 40.678 35.5156ZM30.7734 20.5039H25.3973V28.0975H29.9253C33.4256 28.0975 35.3558 26.688 35.3558 24.1685C35.3558 21.8076 33.6961 20.5039 30.7734 20.5039ZM25.3973 31.1107V39.4792H30.9712C34.6154 39.4792 36.5461 38.0168 36.5461 35.2685C36.5461 32.5197 34.5615 31.1102 30.7368 31.1102H25.3973V31.1107Z" fill="#7E13F8"/>
</svg>
