<svg width="60" height="60" viewBox="0 0 60 60" fill="none" xmlns="http://www.w3.org/2000/svg">
<path fill-rule="evenodd" clip-rule="evenodd" d="M8.33044 54.0019L3.51562 0H56.4228L51.6028 53.9931L29.9372 60L8.33044 54.0019Z" fill="#0071BC"/>
<path fill-rule="evenodd" clip-rule="evenodd" d="M30.0136 55.4058L47.4988 50.5956L51.5955 4.49731H30.0136V55.4058Z" fill="#29ABE2"/>
<path fill-rule="evenodd" clip-rule="evenodd" d="M14.5367 24.3372L15.1167 30.9506L30.0136 24.3372V17.7131L14.5367 24.3372Z" fill="#B3B3B3"/>
<path fill-rule="evenodd" clip-rule="evenodd" d="M46.5125 10.6423L30.0136 17.7132V24.3373L45.9436 17.2557L46.5125 10.6423Z" fill="#E6E6E6"/>
<path fill-rule="evenodd" clip-rule="evenodd" d="M30.0136 41.6411L29.9624 41.6488L22.5746 39.6648L22.092 34.3896H15.443L16.3709 44.7819L29.961 48.5448L30.0136 48.5324V41.6411Z" fill="#E6E6E6"/>
<path fill-rule="evenodd" clip-rule="evenodd" d="M30.0136 24.3374V30.9508H38.1021L37.3669 39.5973L30.0136 41.6469V48.5377L43.5586 44.7748L45.3423 24.3374H30.0136Z" fill="white"/>
<path fill-rule="evenodd" clip-rule="evenodd" d="M30.0136 24.3374H14.5367L15.1167 30.9508H30.0136V24.3374Z" fill="#E6E6E6"/>
<path fill-rule="evenodd" clip-rule="evenodd" d="M30.0136 17.2557V10.6423H29.9464H13.3609L13.9477 17.2557H30.0136Z" fill="#E6E6E6"/>
<path fill-rule="evenodd" clip-rule="evenodd" d="M30.0136 10.6423V17.1728V17.2557H45.9436L46.5125 10.6423H30.0136Z" fill="white"/>
</svg>
