<svg width="60" height="60" viewBox="0 0 60 60" fill="none" xmlns="http://www.w3.org/2000/svg">
<path fill-rule="evenodd" clip-rule="evenodd" d="M8.3303 54.0022L3.51562 0H56.4206L51.6008 53.9937L29.9357 60L8.3303 54.0022Z" fill="#E44D26"/>
<path fill-rule="evenodd" clip-rule="evenodd" d="M29.9681 55.4091L47.4745 50.5556L51.5934 4.41553H29.9681V55.4091Z" fill="#F16529"/>
<path d="M21.2039 24.4442H29.9681V31.0673H15.1468L13.3604 11.0388H29.9681V17.662H20.5987L21.2039 24.4442Z" fill="#EBEBEB"/>
<path d="M29.9391 41.653L29.9681 41.6453V48.5361L29.9376 48.5446L16.3706 44.7783L15.4427 34.379H22.0913L22.5628 39.6613L29.9391 41.653Z" fill="#EBEBEB"/>
<path d="M29.9452 11.0388H46.5363L45.9433 17.662H29.9452V11.0388Z" fill="white"/>
<path d="M29.9452 31.0673V24.4442H45.3406L45.179 26.2227L43.523 44.7783L29.9452 48.5414V41.6508L37.3321 39.657L38.1009 31.0673H29.9452Z" fill="white"/>
</svg>
