<svg width="60" height="60" viewBox="0 0 60 60" fill="none" xmlns="http://www.w3.org/2000/svg">
<g clip-path="url(#clip0_1347_124225)">
<path fill-rule="evenodd" clip-rule="evenodd" d="M0.703125 0.703125H59.2969V59.2969H0.703125V0.703125Z" fill="#F7DF1E"/>
<path fill-rule="evenodd" clip-rule="evenodd" d="M16.1096 49.6683L20.5936 46.9546C21.4586 48.4884 22.2455 49.7861 24.1331 49.7861C25.9424 49.7861 27.0831 49.0783 27.0831 46.3254V27.6033H32.5895V46.4032C32.5895 52.1063 29.2465 54.7022 24.3691 54.7022C19.9643 54.7022 17.4074 52.4209 16.1095 49.6678" fill="black"/>
<path fill-rule="evenodd" clip-rule="evenodd" d="M35.5804 49.0784L40.0638 46.4825C41.244 48.4099 42.778 49.8258 45.4917 49.8258C47.7732 49.8258 49.2281 48.6851 49.2281 47.1118C49.2281 45.2238 47.7336 44.5551 45.2163 43.4542L43.8401 42.8638C39.8674 41.1729 37.232 39.049 37.232 34.5651C37.232 30.4352 40.3785 27.2886 45.2952 27.2886C48.7958 27.2886 51.313 28.508 53.122 31.6939L48.8348 34.447C47.8908 32.7558 46.8685 32.0873 45.2953 32.0873C43.6827 32.0873 42.66 33.1099 42.66 34.447C42.66 36.0989 43.6827 36.7677 46.0423 37.7904L47.4188 38.3804C52.0993 40.3864 54.7346 42.4314 54.7346 47.0331C54.7346 51.9892 50.8409 54.7028 45.6098 54.7028C40.4967 54.7028 37.1928 52.2644 35.5804 49.0784" fill="black"/>
</g>
<defs>
<clipPath id="clip0_1347_124225">
<rect width="60" height="60" fill="white"/>
</clipPath>
</defs>
</svg>
