<svg width="100" height="100" viewBox="0 0 100 100" fill="none" xmlns="http://www.w3.org/2000/svg">
<path d="M26 27H30.6V55.4H26V27Z" fill="#17313B"/>
<path d="M46.6 46.4C46.6 50.8 43 51.2 41.8 51.2C39 51.2 38.6 48.6 38.6 47.2V36.2H34V47C34 49.6 34.8 52 36.4 53.4C37.8 54.8 39.6 55.4 41.8 55.4C43.4 55.4 45.4 55 46.6 53.8V55.4H51.2V36.2H46.6V46.4Z" fill="#17313B"/>
<path d="M60.2 29.2H55.6V36.2H52.2V40.6H55.6V55.4H60.2V40.6H63.6V36.2H60.2V29.2Z" fill="#17313B"/>
<path d="M78 49.6C77 50.4 75.6 51 74.2 51C71 51 68.8 48.6 68.8 45.4C68.8 42.2 71 40 74.2 40C75.6 40 77 40.4 78 41.4L78.6 42L81.8 39L81 38.4C79.2 36.8 76.8 35.8 74.2 35.8C68.6 35.8 64.4 40 64.4 45.6C64.4 51.2 68.6 55.4 74.2 55.4C76.8 55.4 79.2 54.4 81 52.8L81.8 52.2L78.6 49L78 49.6Z" fill="#17313B"/>
<path d="M98 37.8C96.6 36.4 95.2 35.8 93 35.8C91.4 35.8 89.8 36.2 88.6 37.4V27H84V55.4H88.6V44.8C88.6 40.4 91.6 40 92.8 40C95.6 40 95.4 42.6 95.4 44V55.2H100V44.2C100 41.6 99.4 39.2 98 37.8Z" fill="#17313B"/>
<path d="M74 48.8C75.7673 48.8 77.2 47.3673 77.2 45.6C77.2 43.8327 75.7673 42.4 74 42.4C72.2327 42.4 70.8 43.8327 70.8 45.6C70.8 47.3673 72.2327 48.8 74 48.8Z" fill="#FE0002"/>
<path d="M19.6 48.4C18 50 15.6 51 13 51C8 51 4.4 47 4.4 41.6C4.4 36.2 8 32.2 13.2 32.2C15.6 32.2 18 33.2 19.8 35L20.4 35.6L23.4 32.6L22.8 32C20.2 29.4 16.8 28 13.2 28C5.6 27.8 0 33.8 0 41.6C0 49.4 5.6 55.4 13 55.4C16.6 55.4 20.2 54 22.6 51.4L23.2 50.8L20.2 47.8L19.6 48.4Z" fill="#17313B"/>
<path d="M14.0063 69.5L15.0758 69.4094C15.155 69.93 15.3379 70.3224 15.6246 70.5864C15.9151 70.8467 16.2641 70.9769 16.6715 70.9769C17.1619 70.9769 17.5769 70.792 17.9164 70.4223C18.2559 70.0526 18.4256 69.5622 18.4256 68.9511C18.4256 68.3702 18.2615 67.9118 17.9333 67.5761C17.6089 67.2403 17.1826 67.0725 16.6545 67.0725C16.3263 67.0725 16.0302 67.1479 15.7661 67.2988C15.502 67.4459 15.2946 67.6383 15.1437 67.876L14.1874 67.7515L14.9909 63.4906H19.116V64.4638H15.8057L15.3587 66.6933C15.8566 66.3463 16.3791 66.1727 16.9261 66.1727C17.6504 66.1727 18.2615 66.4236 18.7595 66.9253C19.2575 67.4271 19.5064 68.0721 19.5064 68.8606C19.5064 69.6113 19.2876 70.2601 18.85 70.8071C18.3181 71.4786 17.5919 71.8143 16.6715 71.8143C15.917 71.8143 15.3002 71.6031 14.8211 71.1806C14.3458 70.7581 14.0742 70.1979 14.0063 69.5Z" fill="#17313B"/>
<path d="M21.0286 71.6729V70.5129H22.1886V71.6729H21.0286Z" fill="#17313B"/>
<path d="M23.6825 67.5817C23.6825 66.6009 23.7824 65.8125 23.9824 65.2164C24.1861 64.6166 24.486 64.1545 24.8821 63.8301C25.282 63.5057 25.7837 63.3434 26.3873 63.3434C26.8324 63.3434 27.2229 63.434 27.5586 63.6151C27.8943 63.7924 28.1716 64.0508 28.3904 64.3903C28.6092 64.726 28.7809 65.1372 28.9053 65.6239C29.0298 66.1067 29.0921 66.7593 29.0921 67.5817C29.0921 68.555 28.9921 69.3415 28.7922 69.9414C28.5922 70.5374 28.2923 70.9995 27.8925 71.3277C27.4964 71.6521 26.9946 71.8143 26.3873 71.8143C25.5875 71.8143 24.9594 71.5276 24.503 70.9542C23.956 70.2639 23.6825 69.1397 23.6825 67.5817ZM24.7293 67.5817C24.7293 68.9436 24.8877 69.8508 25.2046 70.3035C25.5253 70.7524 25.9195 70.9769 26.3873 70.9769C26.8551 70.9769 27.2474 70.7505 27.5643 70.2978C27.8849 69.8452 28.0452 68.9398 28.0452 67.5817C28.0452 66.2161 27.8849 65.3089 27.5643 64.8599C27.2474 64.411 26.8513 64.1866 26.376 64.1866C25.9082 64.1866 25.5347 64.3846 25.2556 64.7807C24.9047 65.2862 24.7293 66.2199 24.7293 67.5817Z" fill="#17313B"/>
<path d="M39.6776 64.5507C40.0536 63.8428 41.0679 63.8428 41.4439 64.5507L41.8802 65.3721C42.0247 65.6442 42.2866 65.8345 42.5901 65.8879L43.5061 66.049C44.2956 66.1878 44.609 67.1525 44.0519 67.7289L43.4056 68.3976C43.1914 68.6191 43.0914 68.9271 43.1344 69.2322L43.2642 70.1531C43.3762 70.9468 42.5555 71.5431 41.8353 71.1913L40.9995 70.7833C40.7226 70.648 40.3989 70.648 40.122 70.7833L39.2862 71.1913C38.566 71.5431 37.7453 70.9468 37.8573 70.1531L37.9871 69.2322C38.0301 68.9271 37.9301 68.6191 37.7159 68.3976L37.0696 67.7289C36.5125 67.1525 36.8259 66.1878 37.6154 66.049L38.5314 65.8879C38.8349 65.8345 39.0968 65.6442 39.2413 65.3721L39.6776 64.5507Z" fill="#FA0102"/>
<path d="M49.958 64.5507C50.3339 63.8428 51.3483 63.8428 51.7243 64.5507L52.1605 65.3721C52.3051 65.6442 52.567 65.8345 52.8705 65.8879L53.7865 66.049C54.5759 66.1878 54.8894 67.1525 54.3323 67.7289L53.6859 68.3976C53.4718 68.6191 53.3717 68.9271 53.4148 69.2322L53.5446 70.1531C53.6565 70.9468 52.8359 71.5431 52.1156 71.1913L51.2799 70.7833C51.003 70.648 50.6792 70.648 50.4023 70.7833L49.5666 71.1913C48.8463 71.5431 48.0257 70.9468 48.1376 70.1531L48.2675 69.2322C48.3105 68.9271 48.2105 68.6191 47.9963 68.3976L47.3499 67.7289C46.7929 67.1525 47.1063 66.1878 47.8958 66.049L48.8117 65.8879C49.1152 65.8345 49.3772 65.6442 49.5217 65.3721L49.958 64.5507Z" fill="#FA0102"/>
<path d="M60.0514 64.5507C60.4274 63.8428 61.4418 63.8428 61.8177 64.5507L62.254 65.3721C62.3985 65.6442 62.6605 65.8345 62.964 65.8879L63.8799 66.049C64.6694 66.1878 64.9828 67.1525 64.4258 67.7289L63.7794 68.3976C63.5652 68.6191 63.4652 68.9271 63.5082 69.2322L63.6381 70.1531C63.75 70.9468 62.9294 71.5431 62.2091 71.1913L61.3734 70.7833C61.0965 70.648 60.7727 70.648 60.4958 70.7833L59.6601 71.1913C58.9398 71.5431 58.1192 70.9468 58.2311 70.1531L58.3609 69.2322C58.404 68.9271 58.3039 68.6191 58.0898 68.3976L57.4434 67.7289C56.8863 67.1525 57.1998 66.1878 57.9892 66.049L58.9052 65.8879C59.2087 65.8345 59.4706 65.6442 59.6152 65.3721L60.0514 64.5507Z" fill="#FA0102"/>
<path d="M70.1449 64.5507C70.5209 63.8428 71.5352 63.8428 71.9112 64.5507L72.3474 65.3721C72.492 65.6442 72.7539 65.8345 73.0574 65.8879L73.9734 66.049C74.7629 66.1878 75.0763 67.1525 74.5192 67.7289L73.8729 68.3976C73.6587 68.6191 73.5586 68.9271 73.6017 69.2322L73.7315 70.1531C73.8435 70.9468 73.0228 71.5431 72.3025 71.1913L71.4668 70.7833C71.1899 70.648 70.8662 70.648 70.5893 70.7833L69.7535 71.1913C69.0332 71.5431 68.2126 70.9468 68.3245 70.1531L68.4544 69.2322C68.4974 68.9271 68.3974 68.6191 68.1832 68.3976L67.5369 67.7289C66.9798 67.1525 67.2932 66.1878 68.0827 66.049L68.9987 65.8879C69.3021 65.8345 69.5641 65.6442 69.7086 65.3721L70.1449 64.5507Z" fill="#FA0102"/>
<path d="M80.2383 64.5507C80.6143 63.8428 81.6287 63.8428 82.0047 64.5507L82.4409 65.3721C82.5854 65.6442 82.8474 65.8345 83.1509 65.8879L84.0669 66.049C84.8563 66.1878 85.1698 67.1525 84.6127 67.7289L83.9663 68.3976C83.7522 68.6191 83.6521 68.9271 83.6951 69.2322L83.825 70.1531C83.9369 70.9468 83.1163 71.5431 82.396 71.1913L81.5603 70.7833C81.2834 70.648 80.9596 70.648 80.6827 70.7833L79.847 71.1913C79.1267 71.5431 78.3061 70.9468 78.418 70.1531L78.5479 69.2322C78.5909 68.9271 78.4908 68.6191 78.2767 68.3976L77.6303 67.7289C77.0732 67.1525 77.3867 66.1878 78.1761 66.049L79.0921 65.8879C79.3956 65.8345 79.6575 65.6442 79.8021 65.3721L80.2383 64.5507Z" fill="#FA0102"/>
</svg>
