<svg width="100" height="100" viewBox="0 0 100 100" fill="none" xmlns="http://www.w3.org/2000/svg">
<g clip-path="url(#clip0_1347_124042)">
<path d="M26.2397 42.9415H24.6047V33.4041C24.6047 32.6524 24.6517 31.7362 24.7409 30.651H24.7034C24.5483 31.2899 24.4074 31.7503 24.2852 32.0275L19.5306 42.9415H18.7319L13.9726 32.1074C13.841 31.8161 13.7048 31.3322 13.5544 30.651H13.5169C13.5685 31.2194 13.5967 32.145 13.5967 33.4229V42.9415H12.0181V28.7388H14.1746L18.4547 38.6426C18.7789 39.3944 18.9903 39.9628 19.089 40.3481H19.1547C19.4789 39.4366 19.7044 38.8541 19.8266 38.6051L24.1913 28.7435H26.2444V42.9462" fill="#080808"/>
<path d="M30.7781 42.9416H29.1854V32.8028H30.7781V42.9416ZM31.0506 29.1664C31.0506 29.4717 30.9473 29.7208 30.7406 29.9228C30.5338 30.1248 30.2848 30.2235 30.0029 30.2235C29.721 30.2235 29.4626 30.1248 29.2653 29.9322C29.0633 29.7395 28.9646 29.4811 28.9646 29.1664C28.9646 28.8845 29.0633 28.6355 29.2606 28.4287C29.4579 28.222 29.707 28.1187 30.0029 28.1187C30.2989 28.1187 30.5526 28.222 30.75 28.424C30.952 28.6308 31.0506 28.8751 31.0506 29.1664Z" fill="#080808"/>
<path d="M40.2216 42.4765C39.4511 42.951 38.5397 43.1906 37.4873 43.1906C36.5805 43.1906 35.763 42.9792 35.0395 42.5517C34.3159 42.1241 33.7522 41.5228 33.3528 40.7429C32.9488 39.9629 32.7514 39.0891 32.7514 38.1165C32.7514 36.4393 33.2213 35.0909 34.1656 34.0761C35.1099 33.0612 36.3644 32.5491 37.9336 32.5491C38.8028 32.5491 39.5686 32.723 40.2357 33.0659V34.7291C39.4887 34.2029 38.6994 33.9351 37.8631 33.9351C36.8342 33.9351 35.9932 34.311 35.3496 35.058C34.7059 35.8097 34.3817 36.7775 34.3817 37.9662C34.3817 39.1549 34.6871 40.0804 35.3026 40.7663C35.9133 41.4523 36.7355 41.7953 37.7691 41.7953C38.6383 41.7953 39.4558 41.504 40.2216 40.9261V42.4718" fill="#080808"/>
<path d="M47.3253 34.4425C47.0387 34.2264 46.6347 34.1137 46.1085 34.1137C45.4038 34.1137 44.8259 34.4519 44.3889 35.1285C43.9473 35.805 43.7265 36.6836 43.7265 37.7689V42.937H42.1338V32.7982H43.7265V34.8889H43.7641C43.9849 34.1888 44.3232 33.6344 44.7836 33.2304C45.244 32.8264 45.7702 32.6196 46.3669 32.6196C46.7803 32.6196 47.0998 32.6666 47.3206 32.7606V34.4425" fill="#080808"/>
<path d="M55.7164 37.8908C55.7164 36.6176 55.4392 35.6403 54.8848 34.9591C54.3304 34.2778 53.5364 33.9396 52.5075 33.9396C51.4786 33.9396 50.6752 34.2872 50.0785 34.9826C49.4818 35.6779 49.1858 36.6598 49.1858 37.9284C49.1858 39.1969 49.4865 40.0943 50.0832 40.7755C50.6846 41.4567 51.4927 41.7997 52.5075 41.7997C53.5223 41.7997 54.3398 41.4614 54.8895 40.7896C55.4392 40.1177 55.7164 39.1499 55.7164 37.8861M57.3514 37.825C57.3514 39.4365 56.9003 40.7332 56.003 41.7104C55.1056 42.6924 53.9029 43.181 52.39 43.181C50.8772 43.181 49.7449 42.7065 48.8663 41.748C47.9878 40.7943 47.5508 39.5399 47.5508 37.98C47.5508 36.3028 48.0019 34.9779 48.9039 34.0053C49.806 33.0328 51.0463 32.5442 52.6296 32.5442C54.1096 32.5442 55.2653 33.014 56.1016 33.9537C56.9379 34.8933 57.3561 36.1853 57.3561 37.8203" fill="#080808"/>
<path d="M64.7558 40.2259C64.7558 41.1045 64.4222 41.8186 63.7597 42.3636C63.0973 42.9133 62.214 43.1858 61.1099 43.1858C60.1703 43.1858 59.3481 42.9791 58.6387 42.5703V40.8273C59.4233 41.4757 60.2831 41.7998 61.2274 41.7998C62.4912 41.7998 63.1255 41.33 63.1255 40.3857C63.1255 40.0051 63.0033 39.6903 62.7543 39.4507C62.51 39.2111 61.9462 38.8869 61.0724 38.4735C60.1891 38.0929 59.5689 37.6795 59.2072 37.2425C58.8454 36.8056 58.6622 36.223 58.6622 35.4948C58.6622 34.6585 58.991 33.9585 59.6535 33.3947C60.3159 32.8356 61.1522 32.5537 62.1717 32.5537C62.9563 32.5537 63.6658 32.7135 64.3 33.0282V34.6632C63.6517 34.1793 62.9 33.9397 62.0449 33.9397C61.5187 33.9397 61.0958 34.0712 60.7764 34.3343C60.4569 34.5974 60.2971 34.9404 60.2971 35.3539C60.2971 35.8049 60.4193 36.1479 60.6683 36.3875C60.9126 36.6271 61.4247 36.9137 62.1952 37.2425C63.1396 37.6513 63.8067 38.0788 64.1873 38.5299C64.5678 38.9809 64.7605 39.5447 64.7605 40.2212" fill="#080808"/>
<path d="M74.0019 37.8908C74.0019 36.6176 73.7247 35.6403 73.1703 34.9591C72.6159 34.2778 71.8219 33.9396 70.793 33.9396C69.7641 33.9396 68.9607 34.2872 68.364 34.9826C67.7673 35.6779 67.4714 36.6598 67.4714 37.9284C67.4714 39.1969 67.772 40.0943 68.3687 40.7755C68.9701 41.4567 69.7782 41.7997 70.793 41.7997C71.8078 41.7997 72.6253 41.4614 73.175 40.7896C73.7247 40.1177 74.0019 39.1499 74.0019 37.8861M75.6369 37.825C75.6369 39.4365 75.1859 40.7332 74.2885 41.7104C73.3911 42.6924 72.1884 43.181 70.6755 43.181C69.1627 43.181 68.0304 42.7065 67.1519 41.748C66.2733 40.7943 65.8364 39.5399 65.8364 37.98C65.8364 36.3028 66.2874 34.9779 67.1895 34.0053C68.0915 33.0328 69.3318 32.5442 70.9152 32.5442C72.3951 32.5442 73.5509 33.014 74.3872 33.9537C75.2234 34.8933 75.6416 36.1853 75.6416 37.8203" fill="#080808"/>
<path d="M82.1675 29.3542C81.8574 29.1756 81.5051 29.0864 81.1057 29.0864C79.9922 29.0864 79.4331 29.8052 79.4331 31.2335V32.798H81.7682V34.1745H79.4331V42.9368H77.8404V34.1745H76.1491V32.798H77.8404V31.1536C77.8404 30.1247 78.1364 29.2931 78.7331 28.6588C79.3298 28.0246 80.0862 27.7098 81.0071 27.7098C81.491 27.7098 81.8809 27.7709 82.1628 27.8883V29.3542" fill="#080808"/>
<path d="M87.9604 42.8427C87.5751 43.0588 87.0771 43.1716 86.4617 43.1716C84.7233 43.1716 83.8541 42.1756 83.8541 40.1788V34.1792H82.144V32.8026H83.8541V30.3266L85.4468 29.8004V32.8026H87.9557V34.1792H85.4468V39.9016C85.4468 40.5829 85.5596 41.0668 85.7898 41.3534C86.0153 41.64 86.3959 41.7856 86.9268 41.7856C87.3214 41.7856 87.6644 41.6776 87.9557 41.4567V42.8427" fill="#080808"/>
<path d="M35.2321 52.6247C35.2321 50.7454 34.1421 49.801 31.9668 49.801H30.0499V55.6222H31.7601C32.883 55.6222 33.738 55.3637 34.3347 54.8469C34.9314 54.3301 35.2274 53.5878 35.2274 52.6247M36.9375 52.5354C36.9375 53.9073 36.4724 55.0161 35.5422 55.8571C34.6119 56.698 33.3904 57.1209 31.8822 57.1209H30.0452V62.5004H28.4102V48.2976H32.2393C33.7286 48.2976 34.8844 48.6688 35.7066 49.4111C36.5288 50.1534 36.9375 51.1964 36.9375 52.5354Z" fill="#080808"/>
<path d="M43.6702 57.3652L41.26 57.7128C40.4378 57.8303 39.8599 58.0323 39.531 58.3142C39.2022 58.5961 39.033 59.0471 39.033 59.6767C39.033 60.1841 39.2116 60.5929 39.5686 60.8982C39.9257 61.2036 40.3814 61.3587 40.9405 61.3587C41.7298 61.3587 42.3829 61.0768 42.8997 60.5083C43.4165 59.9398 43.6749 59.2304 43.6749 58.38V57.3699M45.2676 62.5003H43.6749V60.917H43.6373C42.942 62.1386 41.9224 62.7494 40.574 62.7494C39.6156 62.7494 38.8451 62.4816 38.2672 61.9507C37.6893 61.4198 37.4027 60.7056 37.4027 59.8083C37.4027 57.9196 38.4974 56.8155 40.6915 56.5007L43.6749 56.0732C43.6749 54.3583 42.9889 53.4985 41.6218 53.4985C40.4237 53.4985 39.3384 53.912 38.3753 54.7342V53.071C38.6666 52.8455 39.1646 52.6294 39.874 52.4226C40.5787 52.2159 41.2083 52.1125 41.758 52.1125C44.0977 52.1125 45.2676 53.3764 45.2676 55.904V62.5003Z" fill="#080808"/>
<path d="M52.9632 54.001C52.6767 53.7849 52.2726 53.6721 51.7464 53.6721C51.0417 53.6721 50.4638 54.0104 50.0268 54.687C49.5852 55.3635 49.3644 56.2421 49.3644 57.3274V62.4954H47.7717V52.3566H49.3644V54.4473H49.402C49.6228 53.7473 49.9611 53.1929 50.4215 52.7889C50.8819 52.3848 51.4081 52.1781 52.0048 52.1781C52.4182 52.1781 52.7377 52.2251 52.9585 52.319V54.001" fill="#080808"/>
<path d="M60.3958 62.3969C60.0153 62.613 59.5126 62.7258 58.8971 62.7258C57.1587 62.7258 56.2896 61.7298 56.2896 59.733V53.7334H54.5794V52.3568H56.2896V49.8808L57.8823 49.3546V52.3568H60.3911V53.7334H57.8823V59.4558C57.8823 60.1371 57.995 60.621 58.2205 60.9076C58.4461 61.1942 58.8266 61.3398 59.3575 61.3398C59.7522 61.3398 60.0951 61.2317 60.3864 61.0109V62.3969" fill="#080808"/>
<path d="M70.8917 62.4954H69.299V56.7119C69.299 54.5648 68.5285 53.4936 66.9828 53.4936C66.1982 53.4936 65.5404 53.7943 65.0142 54.4003C64.4833 55.0064 64.2202 55.7769 64.2202 56.7119V62.4954H62.6275V52.3566H64.2202V54.0386H64.2578C65.0048 52.7513 66.0901 52.1076 67.5231 52.1076C68.6178 52.1076 69.4541 52.4694 70.0273 53.1976C70.6004 53.9258 70.887 54.9547 70.887 56.289V62.5001" fill="#080808"/>
<path d="M79.6868 56.4535C79.6727 55.5185 79.4518 54.7903 79.0196 54.2688C78.5874 53.752 77.9813 53.4936 77.1967 53.4936C76.4591 53.4936 75.8248 53.7661 75.2986 54.3064C74.7724 54.8467 74.4435 55.5655 74.3073 56.4535H79.6821M81.317 57.8301H74.2885C74.312 58.9717 74.6127 59.8456 75.1764 60.447C75.7449 61.053 76.5295 61.3537 77.535 61.3537C78.6625 61.3537 79.6915 60.9826 80.617 60.2449V61.7578C79.7478 62.4108 78.5968 62.7397 77.1544 62.7397C75.712 62.7397 74.6268 62.2746 73.8281 61.3396C73.0294 60.4047 72.63 59.1127 72.63 57.4636C72.63 56.4582 72.8273 55.542 73.2267 54.7151C73.626 53.8882 74.1757 53.2446 74.8758 52.7888C75.5758 52.3331 76.3557 52.1076 77.2108 52.1076C78.5028 52.1076 79.5082 52.5351 80.2318 53.3902C80.9553 54.2453 81.317 55.4433 81.317 56.9797V57.8301Z" fill="#080808"/>
<path d="M88.3503 54.001C88.0637 53.7849 87.6597 53.6721 87.1335 53.6721C86.4287 53.6721 85.8556 54.0104 85.4139 54.687C84.9723 55.3635 84.7515 56.2421 84.7515 57.3274V62.4954H83.1588V52.3566H84.7515V54.4473H84.7891C85.0099 53.7473 85.3482 53.1929 85.8086 52.7889C86.269 52.3848 86.7952 52.1781 87.3919 52.1781C87.8053 52.1781 88.1248 52.2251 88.3456 52.319V54.001" fill="#080808"/>
<path d="M55.3453 79.9963L55.0399 80.8702H55.0211C54.9647 80.6635 54.8755 80.3722 54.7298 80.0057L53.0854 75.8102H51.4786V82.4817H52.5357V78.3801C52.5357 78.1264 52.531 77.821 52.5216 77.4687C52.5169 77.2901 52.4982 77.1492 52.4935 77.0411H52.5169C52.5686 77.2948 52.625 77.4828 52.6673 77.6143L54.6359 82.4817H55.3782L57.3326 77.572C57.3749 77.4593 57.4219 77.2431 57.4689 77.0458H57.4924C57.4689 77.5297 57.4454 77.9761 57.4407 78.2439V82.4817H58.5683V75.8102H57.0273L55.3453 79.9963Z" fill="#777471"/>
<path d="M59.6348 82.482H60.7388V78.8738V77.6992H59.6348V80.6309V82.482Z" fill="#777471"/>
<path d="M60.1985 75.6695C60.0153 75.6695 59.8602 75.7306 59.7287 75.8574C59.5971 75.9843 59.5314 76.1393 59.5314 76.3272C59.5314 76.5152 59.5971 76.6655 59.724 76.7877C59.8509 76.9098 60.0106 76.9709 60.1985 76.9709C60.3864 76.9709 60.5415 76.9098 60.673 76.7877C60.8046 76.6655 60.8704 76.5105 60.8704 76.3272C60.8704 76.144 60.8046 75.9937 60.6777 75.8621C60.5509 75.7353 60.3911 75.6695 60.1985 75.6695Z" fill="#777471"/>
<path d="M64.6477 77.652C64.4363 77.605 64.2296 77.5862 64.0323 77.5862C63.5249 77.5862 63.0738 77.6989 62.6886 77.9151C62.3033 78.1312 62.0073 78.446 61.8053 78.8406C61.6033 79.2353 61.4999 79.7004 61.4999 80.2125C61.4999 80.6635 61.5986 81.077 61.7959 81.4434C61.9932 81.8099 62.2704 82.0965 62.6228 82.2938C62.9752 82.4911 63.3792 82.5945 63.8302 82.5945C64.3564 82.5945 64.8028 82.4864 65.1645 82.275L65.1786 82.2656V81.2367L65.1316 81.2696C64.9672 81.3917 64.7887 81.4857 64.5913 81.5562C64.394 81.6267 64.2202 81.6595 64.0604 81.6595C63.6282 81.6595 63.2805 81.5233 63.0268 81.2508C62.7731 80.9783 62.6463 80.5977 62.6463 80.1138C62.6463 79.6299 62.7778 79.2353 63.0456 78.9487C63.3087 78.6621 63.6564 78.5117 64.0792 78.5117C64.441 78.5117 64.7981 78.6386 65.1316 78.8829L65.1786 78.9158V77.8305L65.1645 77.8211C65.0377 77.7506 64.8685 77.6895 64.6524 77.6473" fill="#777471"/>
<path d="M68.2889 77.6191C68.0117 77.6191 67.7627 77.7084 67.5513 77.8869C67.3633 78.042 67.2318 78.2581 67.1284 78.5259H67.119V77.699H66.015V82.4818H67.119V80.034C67.119 79.6159 67.213 79.2776 67.3962 79.0192C67.5748 78.7655 67.8191 78.634 68.1104 78.634C68.209 78.634 68.3218 78.6528 68.4439 78.6856C68.5614 78.7185 68.6507 78.7561 68.7023 78.7937L68.7493 78.8266V77.6943L68.7305 77.6849C68.6272 77.6426 68.4815 77.6191 68.2983 77.6191" fill="#777471"/>
<path d="M72.1649 81.2651C71.9582 81.5282 71.6434 81.6644 71.2346 81.6644C70.8259 81.6644 70.5111 81.5282 70.2856 81.2557C70.0601 80.9832 69.9426 80.5979 69.9426 80.1046C69.9426 79.6113 70.0554 79.2026 70.2856 78.9254C70.5111 78.6529 70.8259 78.5119 71.2299 78.5119C71.634 78.5119 71.9253 78.6435 72.1461 78.9066C72.3669 79.1697 72.4797 79.5643 72.4797 80.0764C72.4797 80.5885 72.3716 80.9926 72.1649 81.2604M71.2863 77.577C70.5111 77.577 69.8956 77.8072 69.4587 78.2629C69.0218 78.7186 68.7963 79.3482 68.7963 80.1375C68.7963 80.9268 69.0124 81.4859 69.4399 81.9275C69.8675 82.3645 70.45 82.59 71.1689 82.59C71.8877 82.59 72.522 82.3551 72.9589 81.8946C73.3958 81.4342 73.6213 80.8094 73.6213 80.0388C73.6213 79.2683 73.4146 78.6717 73.0012 78.2347C72.5877 77.7978 72.0099 77.577 71.2816 77.577" fill="#777471"/>
<path d="M76.0739 79.6771C75.7262 79.5362 75.5007 79.4187 75.4114 79.3248C75.3221 79.2355 75.2799 79.1134 75.2799 78.9583C75.2799 78.8174 75.3362 78.7093 75.449 78.6153C75.5618 78.5261 75.7215 78.4791 75.9235 78.4791C76.1114 78.4791 76.2994 78.5073 76.492 78.5684C76.6799 78.6294 76.8491 78.7046 76.9853 78.8033L77.0323 78.8362V77.7978L77.0135 77.7885C76.8867 77.7321 76.7175 77.6851 76.5108 77.6475C76.3041 77.6099 76.1208 77.5911 75.9611 77.5911C75.4349 77.5911 74.998 77.7274 74.6644 77.9999C74.3308 78.2724 74.1617 78.6294 74.1617 79.0617C74.1617 79.2872 74.1993 79.4845 74.2697 79.6536C74.3402 79.8228 74.453 79.9731 74.6033 80.1C74.749 80.2221 74.9792 80.3537 75.2846 80.4852C75.5383 80.5933 75.7309 80.6826 75.8484 80.753C75.9658 80.8235 76.0504 80.894 76.0974 80.9598C76.1443 81.0255 76.1678 81.1195 76.1678 81.2323C76.1678 81.5517 75.9329 81.7115 75.4443 81.7115C75.2658 81.7115 75.059 81.6739 74.8335 81.5987C74.608 81.5235 74.3966 81.4155 74.2087 81.2745L74.1617 81.2417V82.3363L74.1805 82.3457C74.3402 82.4209 74.5375 82.482 74.7725 82.5337C75.0074 82.5854 75.2188 82.6088 75.4067 82.6088C75.9799 82.6088 76.4403 82.4726 76.7739 82.2001C77.1122 81.9276 77.2813 81.5611 77.2813 81.1148C77.2813 80.7906 77.1874 80.5181 77.0088 80.2926C76.8303 80.0718 76.5155 79.8698 76.0786 79.6912" fill="#777471"/>
<path d="M81.1245 81.2651C80.9178 81.5282 80.603 81.6644 80.1942 81.6644C79.7855 81.6644 79.4707 81.5282 79.2452 81.2557C79.0197 80.9832 78.9022 80.5979 78.9022 80.1046C78.9022 79.6113 79.015 79.2026 79.2452 78.9254C79.4707 78.6529 79.7855 78.5119 80.1895 78.5119C80.5936 78.5119 80.8849 78.6435 81.1057 78.9066C81.3265 79.1697 81.4393 79.5643 81.4393 80.0764C81.4393 80.5885 81.3312 80.9926 81.1245 81.2604M80.2459 77.577C79.4707 77.577 78.8552 77.8072 78.4183 78.2629C77.9814 78.7186 77.7559 79.3482 77.7559 80.1375C77.7559 80.9268 77.972 81.4859 78.3995 81.9275C78.8271 82.3645 79.4096 82.59 80.1285 82.59C80.8473 82.59 81.4816 82.3551 81.9185 81.8946C82.3554 81.4342 82.5809 80.8094 82.5809 80.0388C82.5809 79.2683 82.3742 78.6717 81.9608 78.2347C81.5473 77.7978 80.9694 77.577 80.2412 77.577" fill="#777471"/>
<path d="M88.4772 78.6198V77.7037H87.359V76.2754L87.3215 76.2848L86.269 76.6137H86.2503V77.699H84.5918V77.0976C84.5918 76.8157 84.6529 76.6043 84.775 76.4586C84.8972 76.3177 85.0663 76.2472 85.2871 76.2472C85.4469 76.2472 85.6066 76.2848 85.771 76.36L85.8133 76.3788V75.4109H85.7945C85.6395 75.3498 85.4328 75.317 85.1744 75.317C84.8502 75.317 84.5495 75.3874 84.2911 75.5331C84.0327 75.6787 83.8307 75.8807 83.685 76.1438C83.5441 76.4022 83.4689 76.7029 83.4689 77.0365V77.699H82.689V78.6151H83.4689V82.4818H84.5871V78.6151H86.2456V81.0723C86.2456 82.0824 86.7154 82.5945 87.6362 82.5945C87.7866 82.5945 87.9463 82.5757 88.1108 82.5428C88.2752 82.5052 88.388 82.4677 88.4584 82.4301L88.4725 82.4207V81.4951L88.4255 81.528C88.3645 81.5703 88.2893 81.6032 88.2 81.6267C88.1108 81.6502 88.0356 81.6643 87.9792 81.6643C87.7631 81.6643 87.6033 81.6032 87.5047 81.4857C87.406 81.3683 87.3543 81.1616 87.3543 80.8703V78.6151H88.4725" fill="#777471"/>
<path d="M42.4627 78.8736H37.2712V73.5834H42.4627V78.8736Z" fill="#E34C22"/>
<path d="M48.1992 78.8734H43.003V73.5785H48.1992V78.8734Z" fill="#6DBB29"/>
<path d="M42.4627 84.7181H37.2712V79.4232H42.4627V84.7181Z" fill="#599DD5"/>
<path d="M48.1992 84.7181H43.003V79.4232H48.1992V84.7181Z" fill="#F3BF00"/>
<path d="M17.6795 22.9458C16.9795 23.3498 16.1996 23.5565 15.3445 23.5565C14.6914 23.5565 14.1135 23.4062 13.6014 23.1055C13.0893 22.8048 12.6994 22.382 12.4222 21.8323C12.145 21.2826 12.0087 20.6671 12.0087 19.9765C12.0087 18.8865 12.347 17.9891 13.0235 17.2797C13.7001 16.5703 14.5693 16.2132 15.6264 16.2132C16.3828 16.2132 17.0217 16.34 17.5385 16.5891V17.5099C16.9748 17.1434 16.3076 16.9602 15.5371 16.9602C15.0297 16.9602 14.5693 17.0824 14.1652 17.3361C13.7565 17.5851 13.4417 17.9374 13.2115 18.3932C12.9813 18.8489 12.8685 19.3563 12.8685 19.9154C12.8685 20.8081 13.0987 21.5175 13.5591 22.0343C14.0196 22.5511 14.6491 22.8095 15.4478 22.8095C15.9881 22.8095 16.4627 22.6968 16.862 22.4712V20.4839H15.3351V19.7322H17.6795V22.9505" fill="#7F6D1F"/>
<path d="M23.1435 20.9067C23.1435 20.2677 23.0026 19.7791 22.7301 19.4408C22.4529 19.1026 22.0582 18.9287 21.5414 18.9287C21.0246 18.9287 20.6253 19.1026 20.3246 19.4502C20.0286 19.7979 19.8783 20.2912 19.8783 20.9255C19.8783 21.5598 20.0286 22.0061 20.3293 22.3491C20.63 22.692 21.034 22.8612 21.5414 22.8612C22.0488 22.8612 22.4576 22.692 22.7348 22.3585C23.012 22.0202 23.1482 21.5363 23.1482 20.9067M23.9657 20.8785C23.9657 21.6819 23.7402 22.3303 23.2939 22.8236C22.8428 23.3122 22.2415 23.5612 21.4898 23.5612C20.738 23.5612 20.1648 23.3216 19.7279 22.8471C19.291 22.3678 19.0702 21.743 19.0702 20.9631C19.0702 20.1268 19.2957 19.4643 19.7467 18.9757C20.1977 18.4871 20.8179 18.2475 21.6072 18.2475C22.3448 18.2475 22.9227 18.4824 23.3409 18.9522C23.759 19.4221 23.9657 20.0657 23.9657 20.8879" fill="#7F6D1F"/>
<path d="M26.2397 23.4346H25.4457V15.9268H26.2397V23.4346Z" fill="#7F6D1F"/>
<path d="M31.5158 21.1419V20.3948C31.5158 19.9767 31.3795 19.629 31.107 19.3518C30.8345 19.0746 30.501 18.9337 30.1063 18.9337C29.6271 18.9337 29.2465 19.1122 28.9646 19.474C28.6827 19.8357 28.5418 20.3385 28.5418 20.9774C28.5418 21.56 28.6733 22.0157 28.9411 22.3587C29.2089 22.697 29.566 22.8661 30.017 22.8661C30.4681 22.8661 30.8157 22.7064 31.0976 22.3822C31.3795 22.058 31.5205 21.6446 31.5205 21.1466M32.3192 23.4393H31.5205V22.5795H31.5017C31.1305 23.2373 30.562 23.5661 29.7915 23.5661C29.162 23.5661 28.664 23.3359 28.2881 22.8755C27.9169 22.4151 27.729 21.7996 27.729 21.0291C27.729 20.1928 27.9357 19.5163 28.3492 19.0089C28.7626 18.5015 29.317 18.2477 30.0076 18.2477C30.6983 18.2477 31.1869 18.5202 31.5017 19.0699H31.5205V15.9268H32.3192V23.4346" fill="#7F6D1F"/>
</g>
<defs>
<clipPath id="clip0_1347_124042">
<rect width="100" height="100" fill="white"/>
</clipPath>
</defs>
</svg>
