<svg width="100" height="100" viewBox="0 0 100 100" fill="none" xmlns="http://www.w3.org/2000/svg">
<g clip-path="url(#clip0_1347_124026)">
<path d="M31.7304 39.493C31.7036 39.332 31.5695 39.2247 31.4353 39.2247C31.3012 39.2247 28.7523 39.0369 28.7523 39.0369C28.7523 39.0369 26.9814 37.266 26.7668 37.0782C26.579 36.8904 26.1765 36.9441 26.0424 36.9977C26.0155 36.9977 25.6399 37.1051 25.0497 37.2929C24.4594 35.5757 23.413 33.9927 21.5617 33.9927C21.508 33.9927 21.4544 33.9927 21.4007 33.9927C20.8641 33.2951 20.2202 33 19.6567 33C15.337 33 13.2711 38.3929 12.6271 41.1296C10.9636 41.6394 9.75627 42.015 9.62212 42.0687C8.68305 42.3638 8.65622 42.3907 8.5489 43.2761C8.44157 43.92 6 62.8355 6 62.8355L25.0497 66.404L35.3794 64.177C35.3794 64.177 31.7573 39.6808 31.7304 39.493ZM23.9764 37.6148C23.4935 37.7758 22.9569 37.9368 22.3666 38.1246C22.3666 38.0173 22.3666 37.91 22.3666 37.7758C22.3666 36.7026 22.2056 35.844 21.991 35.1733C22.9569 35.2806 23.574 36.3538 23.9764 37.6148ZM20.8104 35.3611C21.0787 36.0318 21.2397 36.9709 21.2397 38.2588C21.2397 38.3124 21.2397 38.3929 21.2397 38.4466C20.1933 38.7686 19.0396 39.1174 17.9127 39.4661C18.5567 37.0246 19.764 35.8172 20.8104 35.3611ZM19.5226 34.1537C19.7104 34.1537 19.8982 34.2074 20.086 34.3415C18.7177 34.9855 17.2151 36.6221 16.598 39.8954C15.6858 40.1906 14.8004 40.4589 13.9687 40.7004C14.6931 38.2051 16.4371 34.1537 19.5226 34.1537Z" fill="#95BF47"/>
<path d="M31.4357 39.2244C31.3015 39.2244 28.7526 39.0366 28.7526 39.0366C28.7526 39.0366 26.9818 37.2658 26.7672 37.078C26.6867 36.9975 26.6062 36.9706 26.4989 36.9438L25.05 66.4037L35.3798 64.1768C35.3798 64.1768 31.7576 39.6805 31.7308 39.5195C31.704 39.3317 31.543 39.2512 31.4357 39.2244Z" fill="#5E8E3E"/>
<path d="M21.5349 44.9395L20.2739 48.7226C20.2739 48.7226 19.147 48.1323 17.7786 48.1323C15.7663 48.1323 15.6858 49.3934 15.6858 49.7153C15.6858 51.4325 20.1934 52.1032 20.1934 56.1546C20.1934 59.3475 18.1811 61.3866 15.4444 61.3866C12.171 61.3866 10.5076 59.3475 10.5076 59.3475L11.393 56.4498C11.393 56.4498 13.1101 57.9255 14.559 57.9255C15.498 57.9255 15.9005 57.1742 15.9005 56.6376C15.9005 54.3838 12.1979 54.2765 12.1979 50.5739C12.1979 47.4616 14.4248 44.4297 18.9592 44.4297C20.6763 44.4297 21.5349 44.9395 21.5349 44.9395Z" fill="white"/>
<path d="M44.2942 44.9975C43.637 44.6343 43.2911 44.3403 43.2911 43.9252C43.2911 43.389 43.758 43.0604 44.5017 43.0604C45.3665 43.0604 46.1274 43.4236 46.1274 43.4236L46.7327 41.5731C46.7327 41.5731 46.1793 41.1407 44.5363 41.1407C42.2534 41.1407 40.6623 42.4551 40.6623 44.2884C40.6623 45.3261 41.4059 46.1216 42.3917 46.6924C43.1873 47.142 43.464 47.4706 43.464 47.9376C43.464 48.4391 43.0662 48.8369 42.3226 48.8369C41.2157 48.8369 40.178 48.2662 40.178 48.2662L39.5381 50.1167C39.5381 50.1167 40.5066 50.7566 42.115 50.7566C44.4671 50.7566 46.1447 49.5979 46.1447 47.5225C46.1793 46.381 45.3146 45.5855 44.2942 44.9975Z" fill="#222222"/>
<path d="M53.6681 41.1061C52.5093 41.1061 51.61 41.6595 50.9009 42.4897L50.8663 42.4724L51.8694 37.2148H49.2579L46.7155 50.5837H49.327L50.1918 46.0178C50.5377 44.2883 51.4197 43.2334 52.2499 43.2334C52.8379 43.2334 53.0627 43.6311 53.0627 44.2019C53.0627 44.5651 53.0281 44.9974 52.9417 45.3606L51.9559 50.6009H54.5674L55.5878 45.205C55.7088 44.6342 55.778 43.9597 55.778 43.4928C55.7953 41.9881 55.017 41.1061 53.6681 41.1061Z" fill="#222222"/>
<path d="M61.7106 41.106C58.5629 41.106 56.4702 43.9423 56.4702 47.1073C56.4702 49.1308 57.7155 50.7738 60.0676 50.7738C63.1633 50.7738 65.2387 48.0066 65.2387 44.7725C65.256 42.8874 64.1664 41.106 61.7106 41.106ZM60.4308 48.7503C59.5314 48.7503 59.1682 47.9893 59.1682 47.0381C59.1682 45.5335 59.9465 43.0949 61.3647 43.0949C62.2986 43.0949 62.5926 43.8905 62.5926 44.6687C62.5926 46.2944 61.8143 48.7503 60.4308 48.7503Z" fill="#222222"/>
<path d="M71.9489 41.106C70.1849 41.106 69.1818 42.6625 69.1818 42.6625H69.1472L69.3028 41.2616H66.9853C66.8643 42.2129 66.6567 43.6483 66.4492 44.7379L64.6332 54.3192H67.2447L67.9711 50.4452H68.023C68.023 50.4452 68.5592 50.7911 69.5623 50.7911C72.6407 50.7911 74.6469 47.6434 74.6469 44.4612C74.6469 42.6798 73.8687 41.106 71.9489 41.106ZM69.4585 48.8022C68.784 48.8022 68.3862 48.4217 68.3862 48.4217L68.8186 45.9831C69.1299 44.3574 69.9773 43.2678 70.8767 43.2678C71.6722 43.2678 71.9143 44.0115 71.9143 44.7033C71.9143 46.3809 70.9112 48.8022 69.4585 48.8022Z" fill="#222222"/>
<path d="M78.3824 37.3356C77.5523 37.3356 76.8778 37.9928 76.8778 38.8575C76.8778 39.6358 77.362 40.172 78.1057 40.172H78.1403C78.9532 40.172 79.6623 39.6185 79.6796 38.65C79.6968 37.889 79.178 37.3356 78.3824 37.3356Z" fill="#222222"/>
<path d="M74.7157 50.5834H77.3445L79.1258 41.3134H76.4797L74.7157 50.5834Z" fill="#222222"/>
<path d="M85.7672 41.279H83.9513L84.0377 40.8466C84.1934 39.9473 84.7122 39.1517 85.5943 39.1517C86.0612 39.1517 86.4244 39.2901 86.4244 39.2901L86.9433 37.2493C86.9433 37.2493 86.4936 37.0245 85.5251 37.0245C84.5912 37.0245 83.6745 37.2839 82.9655 37.8892C82.0661 38.6502 81.6511 39.7398 81.4435 40.8466L81.3743 41.279H80.1637L79.7832 43.2506H80.9938L79.6103 50.5663H82.2218L83.6054 43.2506H85.404L85.7672 41.279Z" fill="#222222"/>
<path d="M92.0625 41.3134C92.0625 41.3134 90.4195 45.4296 89.6931 47.6779H89.6585C89.6067 46.9515 89.0186 41.3134 89.0186 41.3134H86.2688L87.8426 49.8224C87.8772 50.0127 87.8599 50.1337 87.7907 50.2548C87.4794 50.8428 86.9778 51.4136 86.3725 51.8286C85.8883 52.1918 85.3348 52.4167 84.9025 52.5723L85.6288 54.7861C86.165 54.665 87.2546 54.2326 88.1885 53.3679C89.3818 52.2437 90.4887 50.5315 91.6129 48.1794L94.8124 41.3134H92.0625V41.3134Z" fill="#222222"/>
<path d="M44.4362 56.7433L43.168 64.0844H42.4938L43.9735 55.5265H44.6019L44.4362 56.7433ZM48.2867 58.5429L48.2696 58.6629C48.2124 59.0285 48.1153 59.3979 47.9782 59.7712C47.8449 60.1444 47.6659 60.4872 47.4412 60.7995C47.2165 61.1118 46.9423 61.3631 46.6185 61.5536C46.2986 61.7402 45.9235 61.8297 45.4931 61.8221C45.1732 61.8221 44.8818 61.7611 44.619 61.6393C44.3562 61.5136 44.1334 61.3441 43.9506 61.1308C43.7678 60.9137 43.6307 60.6643 43.5393 60.3824C43.4479 60.1006 43.4117 59.8016 43.4308 59.4855L43.6821 57.9088C43.7583 57.5774 43.8783 57.2613 44.042 56.9604C44.2058 56.6595 44.4077 56.391 44.6476 56.1549C44.8913 55.9188 45.1656 55.7359 45.4703 55.6065C45.7788 55.4732 46.1101 55.4084 46.4643 55.4122C46.8909 55.416 47.2355 55.5151 47.4983 55.7093C47.7611 55.9035 47.9573 56.1568 48.0868 56.4691C48.2163 56.7814 48.2924 57.1204 48.3153 57.486C48.3419 57.8478 48.3324 58.2001 48.2867 58.5429ZM47.5955 58.6629L47.6126 58.5372C47.6507 58.2782 47.6659 58.004 47.6583 57.7145C47.6507 57.4213 47.6031 57.147 47.5155 56.8919C47.4317 56.6367 47.2927 56.4272 47.0984 56.2634C46.9042 56.0959 46.6357 56.0102 46.2929 56.0064C46.0339 56.0026 45.7845 56.0483 45.5445 56.1435C45.3084 56.2349 45.0913 56.3625 44.8933 56.5262C44.6952 56.69 44.5238 56.8804 44.3791 57.0975C44.2382 57.3146 44.1353 57.5469 44.0706 57.7945L43.7507 59.6283C43.7392 59.9368 43.8078 60.213 43.9563 60.4567C44.1049 60.6966 44.3029 60.8871 44.5505 61.028C44.8018 61.1651 45.0742 61.2356 45.3674 61.2394C45.7178 61.2432 46.0206 61.1689 46.2758 61.0166C46.5348 60.8604 46.7518 60.6547 46.927 60.3996C47.106 60.1406 47.2489 59.8607 47.3555 59.5598C47.466 59.2551 47.5459 58.9561 47.5955 58.6629ZM53.0627 60.5995L53.594 57.406C53.6359 57.1128 53.6092 56.8614 53.514 56.6519C53.4226 56.4386 53.2741 56.2768 53.0684 56.1663C52.8665 56.0521 52.6171 55.993 52.32 55.9892C52.0572 55.9854 51.7982 56.0311 51.5431 56.1263C51.2879 56.2215 51.0651 56.3606 50.8746 56.5434C50.688 56.7262 50.5642 56.9547 50.5033 57.2289L49.8349 57.2232C49.8768 56.9299 49.9796 56.671 50.1434 56.4463C50.3072 56.2177 50.509 56.0273 50.749 55.875C50.9927 55.7188 51.2555 55.6026 51.5373 55.5265C51.8192 55.4465 52.0972 55.4084 52.3714 55.4122C52.7789 55.4122 53.1331 55.4941 53.434 55.6579C53.7349 55.8178 53.9596 56.0483 54.1081 56.3491C54.2605 56.6462 54.31 57.0042 54.2567 57.4232L53.7539 60.411C53.7197 60.6129 53.6968 60.8185 53.6854 61.028C53.674 61.2337 53.6892 61.4355 53.7311 61.6336L53.7254 61.7078H53.0284C53.0017 61.525 52.9922 61.3403 52.9998 61.1537C53.0113 60.9671 53.0322 60.7823 53.0627 60.5995ZM53.6397 58.1087L53.5654 58.6343H52.3029C52.0667 58.6343 51.8173 58.6552 51.5545 58.6971C51.2917 58.739 51.0403 58.8114 50.8004 58.9142C50.5604 59.0171 50.3567 59.1599 50.1891 59.3427C50.0215 59.5217 49.9149 59.7502 49.8692 60.0282C49.8311 60.2682 49.8578 60.4776 49.9492 60.6567C50.0444 60.8318 50.1834 60.969 50.3662 61.068C50.549 61.1632 50.7547 61.2127 50.9832 61.2165C51.3183 61.2203 51.6364 61.1594 51.9372 61.0337C52.2381 60.9042 52.5066 60.7252 52.7428 60.4967C52.9789 60.2682 53.1636 60.0016 53.2969 59.6969L53.5311 60.0968C53.4283 60.3558 53.2836 60.5938 53.097 60.8109C52.9142 61.0242 52.7047 61.207 52.4685 61.3593C52.2324 61.5079 51.9791 61.624 51.7087 61.7078C51.4383 61.7878 51.1641 61.8278 50.8861 61.8278C50.5471 61.8202 50.2424 61.7459 49.972 61.605C49.7054 61.4641 49.4978 61.2641 49.3493 61.0051C49.2008 60.7462 49.1455 60.4415 49.1836 60.0911C49.2255 59.7178 49.3436 59.4055 49.5378 59.1542C49.7359 58.899 49.9815 58.6952 50.2748 58.5429C50.5681 58.3905 50.8842 58.2801 51.2231 58.2115C51.5621 58.143 51.8915 58.1087 52.2115 58.1087H53.6397ZM56.856 56.5719L55.9705 61.7078H55.3021L56.3704 55.5265H57.0217L56.856 56.5719ZM59.1469 55.4808L59.0612 56.1035C58.9927 56.0921 58.9222 56.0825 58.8498 56.0749C58.7775 56.0673 58.7051 56.0635 58.6328 56.0635C58.3243 56.0597 58.05 56.1168 57.8101 56.2349C57.574 56.3529 57.3664 56.5129 57.1874 56.7148C57.0122 56.9166 56.8656 57.1451 56.7475 57.4003C56.6294 57.6517 56.538 57.9107 56.4733 58.1773L56.2048 58.2744C56.2619 57.943 56.3476 57.6079 56.4619 57.2689C56.5799 56.9299 56.7361 56.6195 56.9303 56.3377C57.1284 56.0521 57.3702 55.8235 57.6559 55.6522C57.9453 55.4808 58.2881 55.3989 58.6842 55.4065C58.7642 55.4065 58.8422 55.4141 58.9184 55.4294C58.9946 55.4408 59.0707 55.4579 59.1469 55.4808ZM62.746 55.5265L62.6546 56.0863H59.6382L59.7353 55.5265H62.746ZM61.1121 53.9383H61.7806L60.7065 60.211C60.6837 60.3748 60.678 60.5329 60.6894 60.6852C60.7046 60.8376 60.756 60.9632 60.8436 61.0623C60.9312 61.1575 61.0741 61.207 61.2721 61.2108C61.3673 61.2108 61.4606 61.2051 61.552 61.1937C61.6473 61.1784 61.7406 61.1651 61.832 61.1537L61.8034 61.7364C61.6892 61.7669 61.5749 61.7878 61.4606 61.7992C61.3464 61.8145 61.2302 61.8202 61.1121 61.8164C60.7922 61.8126 60.5504 61.7345 60.3866 61.5821C60.2228 61.4298 60.1162 61.2318 60.0667 60.988C60.0172 60.7404 60.0115 60.4776 60.0496 60.1996L61.1121 53.9383ZM64.5627 56.8747L63.7287 61.7078H63.0602L64.1286 55.5265H64.7684L64.5627 56.8747ZM64.1914 58.2344L63.9229 58.063C63.9991 57.7278 64.1152 57.4022 64.2714 57.0861C64.4275 56.7662 64.6218 56.4805 64.8541 56.2292C65.0902 55.974 65.3606 55.774 65.6653 55.6293C65.9738 55.4808 66.3166 55.4084 66.6936 55.4122C67.0326 55.416 67.3125 55.4789 67.5334 55.6007C67.7581 55.7188 67.9314 55.8845 68.0533 56.0978C68.1752 56.3072 68.2514 56.5491 68.2818 56.8233C68.3161 57.0937 68.3123 57.3813 68.2704 57.6859L67.5906 61.7078H66.9164L67.6077 57.6745C67.6496 57.3775 67.6477 57.1032 67.602 56.8519C67.5601 56.5967 67.4535 56.3929 67.2821 56.2406C67.1107 56.0844 66.8536 56.0064 66.5108 56.0064C66.2061 56.0026 65.9262 56.0654 65.671 56.1949C65.4159 56.3206 65.1873 56.492 64.9855 56.709C64.7874 56.9223 64.6199 57.1623 64.4828 57.4289C64.3495 57.6917 64.2523 57.9602 64.1914 58.2344ZM71.7153 61.8221C71.2963 61.8183 70.9345 61.7307 70.6298 61.5593C70.3251 61.3879 70.0776 61.1594 69.8871 60.8737C69.7005 60.5843 69.5691 60.2606 69.493 59.9026C69.4206 59.5445 69.4054 59.177 69.4473 58.8L69.4815 58.5486C69.531 58.1677 69.6358 57.7907 69.7957 57.4174C69.9557 57.0442 70.1633 56.7071 70.4184 56.4063C70.6774 56.1016 70.9802 55.8597 71.3268 55.6807C71.6734 55.4979 72.058 55.4084 72.4808 55.4122C72.8807 55.416 73.2159 55.4998 73.4863 55.6636C73.7605 55.8235 73.9776 56.0387 74.1375 56.3091C74.2975 56.5796 74.4022 56.8823 74.4517 57.2175C74.5051 57.5526 74.5108 57.8954 74.4689 58.2458L74.4118 58.6629H69.8643L69.95 58.0801H73.8119L73.829 58.0002C73.8786 57.6764 73.8614 57.3622 73.7776 57.0575C73.6976 56.7528 73.5491 56.5015 73.332 56.3034C73.1149 56.1054 72.8236 56.0045 72.4579 56.0006C72.1152 55.993 71.8105 56.0654 71.5439 56.2177C71.2773 56.3663 71.0469 56.5681 70.8526 56.8233C70.6622 57.0747 70.5079 57.3527 70.3899 57.6574C70.2718 57.9583 70.1899 58.2553 70.1442 58.5486L70.1157 58.7943C70.0776 59.0799 70.0795 59.3655 70.1214 59.6512C70.1671 59.9368 70.2547 60.1996 70.3842 60.4396C70.5175 60.6757 70.6965 60.868 70.9212 61.0166C71.1497 61.1613 71.4277 61.2356 71.7553 61.2394C72.1209 61.247 72.4503 61.1746 72.7436 61.0223C73.0407 60.8661 73.313 60.6605 73.5605 60.4053L73.9604 60.7366C73.7776 60.9728 73.5682 61.1727 73.332 61.3365C73.0997 61.5003 72.8464 61.6221 72.5722 61.7021C72.298 61.7821 72.0123 61.8221 71.7153 61.8221ZM76.7255 56.5719L75.84 61.7078H75.1716L76.2399 55.5265H76.8912L76.7255 56.5719ZM79.0163 55.4808L78.9307 56.1035C78.8621 56.0921 78.7916 56.0825 78.7193 56.0749C78.6469 56.0673 78.5746 56.0635 78.5022 56.0635C78.1937 56.0597 77.9195 56.1168 77.6795 56.2349C77.4434 56.3529 77.2358 56.5129 77.0568 56.7148C76.8816 56.9166 76.735 57.1451 76.6169 57.4003C76.4989 57.6517 76.4075 57.9107 76.3427 58.1773L76.0742 58.2744C76.1313 57.943 76.217 57.6079 76.3313 57.2689C76.4494 56.9299 76.6055 56.6195 76.7997 56.3377C76.9978 56.0521 77.2396 55.8235 77.5253 55.6522C77.8147 55.4808 78.1575 55.3989 78.5536 55.4065C78.6336 55.4065 78.7117 55.4141 78.7878 55.4294C78.864 55.4408 78.9402 55.4579 79.0163 55.4808ZM82.8897 60.1139C82.9354 59.8397 82.8878 59.6188 82.7469 59.4512C82.6059 59.2798 82.4212 59.1484 82.1927 59.057C81.9642 58.9618 81.7414 58.8876 81.5243 58.8342C81.2958 58.7771 81.0654 58.7086 80.833 58.6286C80.6045 58.5448 80.397 58.4401 80.2103 58.3144C80.0237 58.1849 79.879 58.023 79.7762 57.8288C79.6733 57.6345 79.6352 57.3965 79.6619 57.1147C79.6886 56.829 79.7743 56.5796 79.919 56.3663C80.0675 56.153 80.2522 55.9759 80.4731 55.835C80.6978 55.6902 80.9397 55.5836 81.1987 55.5151C81.4615 55.4465 81.7224 55.4122 81.9813 55.4122C82.3584 55.416 82.7012 55.4884 83.0097 55.6293C83.322 55.7702 83.5657 55.9778 83.7409 56.252C83.9199 56.5224 83.9961 56.8595 83.9694 57.2632L83.3067 57.2575C83.3296 56.9871 83.2801 56.7605 83.1582 56.5776C83.0401 56.391 82.8745 56.2501 82.6612 56.1549C82.4517 56.0559 82.2194 56.0045 81.9642 56.0006C81.7281 56.0006 81.4919 56.0387 81.2558 56.1149C81.0235 56.1911 80.8216 56.3091 80.6502 56.4691C80.4788 56.6291 80.3722 56.8366 80.3303 57.0918C80.296 57.2937 80.317 57.4631 80.3932 57.6003C80.4731 57.7336 80.5855 57.8421 80.7302 57.9259C80.8787 58.0097 81.0387 58.0782 81.2101 58.1316C81.3815 58.1849 81.5433 58.2325 81.6957 58.2744C82.008 58.3582 82.3146 58.4667 82.6155 58.6C82.9163 58.7333 83.1563 58.918 83.3353 59.1542C83.5181 59.3865 83.5905 59.6931 83.5524 60.0739C83.5257 60.3786 83.4362 60.6414 83.2839 60.8623C83.1315 61.0832 82.9392 61.266 82.7069 61.4108C82.4745 61.5517 82.2213 61.6545 81.9471 61.7193C81.6728 61.7878 81.4005 61.8221 81.1301 61.8221C80.7569 61.8183 80.4027 61.7478 80.0675 61.6107C79.7362 61.4736 79.4696 61.2679 79.2677 60.9937C79.0659 60.7195 78.9783 60.3767 79.0049 59.9654L79.6733 59.9711C79.6657 60.2606 79.7286 60.4986 79.8619 60.6852C79.9952 60.8718 80.1742 61.0089 80.3989 61.0965C80.6274 61.1841 80.8749 61.2298 81.1415 61.2337C81.3815 61.2337 81.6271 61.1956 81.8785 61.1194C82.1299 61.0432 82.3489 60.9233 82.5355 60.7595C82.7259 60.5957 82.844 60.3805 82.8897 60.1139Z" fill="#222222"/>
</g>
<defs>
<clipPath id="clip0_1347_124026">
<rect width="100" height="100" fill="white"/>
</clipPath>
</defs>
</svg>
