<svg width="60" height="60" viewBox="0 0 60 60" fill="none" xmlns="http://www.w3.org/2000/svg">
<mask id="mask0_125_2" style="mask-type:luminance" maskUnits="userSpaceOnUse" x="1" y="1" width="59" height="59">
<path d="M1 1H59.7755V59.7755H1V1Z" fill="white"/>
</mask>
<g mask="url(#mask0_125_2)">
<path d="M17.5632 25.9137C17.5632 26.6369 17.6413 27.2234 17.7782 27.6535C17.9346 28.0835 18.13 28.5526 18.4037 29.0609C18.5014 29.2172 18.5406 29.3736 18.5406 29.5105C18.5406 29.7059 18.4233 29.9015 18.1692 30.0969L16.9376 30.9179C16.7617 31.0352 16.5857 31.0939 16.4293 31.0939C16.2339 31.0939 16.0383 30.9962 15.8429 30.8202C15.5692 30.527 15.3346 30.2142 15.1392 29.9015C14.9437 29.5692 14.7482 29.1978 14.5332 28.7481C13.0084 30.5466 11.0927 31.4457 8.78605 31.4457C7.14401 31.4457 5.83428 30.9766 4.87642 30.0383C3.91856 29.0999 3.42987 27.8489 3.42987 26.2851C3.42987 24.6235 4.0163 23.2747 5.20875 22.2581C6.40118 21.2417 7.98458 20.7334 9.99803 20.7334C10.6627 20.7334 11.3468 20.792 12.0701 20.8897C12.7934 20.9875 13.5362 21.1439 14.3182 21.3198V19.8928C14.3182 18.4072 14.0054 17.3712 13.3994 16.7652C12.7739 16.1592 11.7183 15.8659 10.2131 15.8659C9.52887 15.8659 8.82514 15.9441 8.10186 16.12C7.37858 16.2959 6.67485 16.511 5.99067 16.7846C5.6779 16.9215 5.44332 16.9997 5.30649 17.0388C5.16965 17.0779 5.07191 17.0975 4.99372 17.0975C4.72004 17.0975 4.58321 16.9019 4.58321 16.4915V15.5336C4.58321 15.2208 4.6223 14.9862 4.72004 14.8495C4.81778 14.7126 4.99372 14.5758 5.26739 14.4389C5.95157 14.0871 6.77259 13.7938 7.73045 13.5592C8.68831 13.3051 9.70481 13.1878 10.78 13.1878C13.1062 13.1878 14.8069 13.7156 15.9016 14.7712C16.9767 15.8268 17.524 17.4297 17.524 19.58V25.9137H17.5632ZM9.62662 28.8849C10.2717 28.8849 10.9363 28.7676 11.6401 28.5331C12.3438 28.2985 12.9693 27.8685 13.4972 27.2821C13.8099 26.9106 14.0445 26.5001 14.1618 26.0309C14.2791 25.5618 14.3572 24.9948 14.3572 24.3302V23.5092C13.7904 23.3724 13.1844 23.2551 12.5588 23.1768C11.9333 23.0987 11.3273 23.0597 10.7213 23.0597C9.41159 23.0597 8.45373 23.3137 7.80865 23.8415C7.16356 24.3694 6.85079 25.1121 6.85079 26.0895C6.85079 27.0084 7.08536 27.6925 7.57406 28.1616C8.04322 28.6504 8.72741 28.8849 9.62662 28.8849ZM25.3238 30.9962C24.9719 30.9962 24.7374 30.9375 24.5809 30.8006C24.4245 30.6833 24.2877 30.4097 24.1704 30.0383L19.5766 14.9276C19.4593 14.5366 19.4007 14.2825 19.4007 14.1456C19.4007 13.8329 19.557 13.6569 19.8698 13.6569H21.7855C22.157 13.6569 22.4111 13.7156 22.548 13.8525C22.7043 13.9698 22.8217 14.2435 22.9388 14.6148L26.2229 27.5557L29.2725 14.6148C29.3702 14.2239 29.4875 13.9698 29.6439 13.8525C29.8003 13.7352 30.0739 13.6569 30.4259 13.6569H31.9897C32.361 13.6569 32.6152 13.7156 32.7716 13.8525C32.928 13.9698 33.0648 14.2435 33.143 14.6148L36.2316 27.7121L39.6134 14.6148C39.7308 14.2239 39.8675 13.9698 40.0044 13.8525C40.1608 13.7352 40.4149 13.6569 40.7668 13.6569H42.5848C42.8975 13.6569 43.0735 13.8134 43.0735 14.1456C43.0735 14.2435 43.0539 14.3412 43.0343 14.4585C43.0148 14.5758 42.9757 14.7321 42.8975 14.9472L38.1864 30.0579C38.0691 30.4488 37.9323 30.7029 37.7759 30.8202C37.6195 30.9375 37.3654 31.0157 37.0331 31.0157H35.352C34.9805 31.0157 34.7264 30.957 34.57 30.8202C34.4137 30.6833 34.2768 30.4292 34.1986 30.0383L31.1686 17.4297L28.1582 30.0188C28.0605 30.4097 27.9432 30.6639 27.7868 30.8006C27.6305 30.9375 27.3568 30.9962 27.0049 30.9962H25.3238ZM50.4431 31.5239C49.4266 31.5239 48.4101 31.4066 47.4327 31.172C46.4553 30.9375 45.6929 30.6833 45.1846 30.3902C44.8719 30.2142 44.6569 30.0188 44.5786 29.8428C44.5005 29.6669 44.4613 29.4715 44.4613 29.2955V28.2985C44.4613 27.8879 44.6177 27.6925 44.911 27.6925C45.0283 27.6925 45.1456 27.7121 45.2629 27.7512C45.3801 27.7902 45.556 27.8685 45.7516 27.9466C46.4162 28.2399 47.1394 28.4745 47.9018 28.6308C48.6837 28.7872 49.4461 28.8655 50.2281 28.8655C51.4595 28.8655 52.4174 28.6504 53.0821 28.2203C53.7468 27.7902 54.0986 27.1648 54.0986 26.3632C54.0986 25.8159 53.9226 25.3662 53.5708 24.9948C53.2189 24.6235 52.5542 24.2911 51.5964 23.9784L48.762 23.0987C47.335 22.6491 46.2793 21.9844 45.6343 21.1048C44.9892 20.2447 44.6569 19.2869 44.6569 18.2703C44.6569 17.4493 44.8327 16.726 45.1846 16.1005C45.5365 15.4749 46.0057 14.9276 46.5921 14.4975C47.1786 14.0479 47.8431 13.7156 48.6251 13.4811C49.407 13.2465 50.2281 13.1488 51.0881 13.1488C51.5182 13.1488 51.9678 13.1682 52.3979 13.2269C52.8475 13.2855 53.2581 13.3638 53.6685 13.4419C54.0595 13.5397 54.4309 13.6375 54.7828 13.7548C55.1346 13.8719 55.4083 13.9892 55.6038 14.1066C55.8775 14.2629 56.0729 14.4193 56.1902 14.5952C56.3075 14.7516 56.3662 14.9666 56.3662 15.2403V16.1592C56.3662 16.5696 56.2098 16.7846 55.9165 16.7846C55.7602 16.7846 55.506 16.7065 55.1738 16.5501C54.0595 16.0419 52.8084 15.7877 51.4205 15.7877C50.3063 15.7877 49.4266 15.9636 48.8206 16.335C48.2146 16.7065 47.9018 17.2733 47.9018 18.0749C47.9018 18.6222 48.0973 19.0913 48.4883 19.4627C48.8793 19.8342 49.6025 20.2056 50.6385 20.5379L53.4144 21.4176C54.8219 21.8671 55.8383 22.4927 56.4443 23.2941C57.0503 24.0957 57.3436 25.0144 57.3436 26.0309C57.3436 26.8715 57.1676 27.6339 56.8353 28.2985C56.4835 28.9632 56.0143 29.5496 55.4083 30.0188C54.8023 30.5075 54.0791 30.8593 53.2385 31.1135C52.3588 31.3872 51.4401 31.5239 50.4431 31.5239Z" fill="#252F3E"/>
<path fill-rule="evenodd" clip-rule="evenodd" d="M54.1381 41.0243C47.7067 45.7745 38.3627 48.2963 30.3285 48.2963C19.0687 48.2963 8.92325 44.1325 1.26038 37.2124C0.654393 36.6651 1.20174 35.9223 1.92502 36.3523C10.2134 41.1612 20.4371 44.0739 31.0126 44.0739C38.1477 44.0739 45.9865 42.5882 53.1998 39.5387C54.2749 39.05 55.1936 40.2424 54.1381 41.0243Z" fill="#FF9900"/>
<path fill-rule="evenodd" clip-rule="evenodd" d="M56.8163 37.9747C55.9953 36.9192 51.382 37.4665 49.2903 37.7206C48.6647 37.7988 48.567 37.2515 49.134 36.8409C52.8089 34.2606 58.8493 35.0035 59.553 35.8635C60.2567 36.7432 59.3576 42.7836 55.9171 45.6767C55.3893 46.1262 54.8811 45.8917 55.1156 45.3052C55.8976 43.37 57.6373 39.0107 56.8163 37.9747Z" fill="#FF9900"/>
</g>
</svg>
