<svg width="60" height="60" viewBox="0 0 60 60" fill="none" xmlns="http://www.w3.org/2000/svg">
<path d="M20.0023 1.75849H37.7569L19.3259 56.3674C18.9375 57.518 17.8585 58.293 16.6441 58.293H2.8267C1.91632 58.293 1.06163 57.8547 0.530623 57.1152C-0.000388026 56.3758 -0.142698 55.4258 0.148315 54.5632L17.3198 3.6841C17.7081 2.53298 18.7875 1.75781 20.0023 1.75781V1.75849Z" fill="url(#paint0_linear_1347_124524)"/>
<path d="M45.8022 38.3865H17.6478C17.1122 38.3859 16.6307 38.7132 16.4342 39.2115C16.2377 39.7098 16.3661 40.2776 16.758 40.6428L34.8494 57.5286C35.3761 58.02 36.0696 58.293 36.79 58.293H52.7321L45.8022 38.3865Z" fill="#0078D4"/>
<path d="M20.0023 1.75857C18.773 1.75387 17.6836 2.54934 17.3137 3.72169L0.169441 54.5169C-0.141254 55.383 -0.0104075 56.3461 0.520078 57.0978C1.05056 57.8495 1.91412 58.2956 2.83419 58.2931H17.0082C18.083 58.1011 18.9713 57.3456 19.3334 56.3157L22.7523 46.2397L34.9646 57.6303C35.4764 58.0536 36.1183 58.2877 36.7825 58.2931H52.6653L45.6993 38.3866L25.3925 38.3914L37.8209 1.75857H20.0023Z" fill="url(#paint1_linear_1347_124524)"/>
<path d="M42.6793 3.68142C42.2915 2.53216 41.2138 1.75854 40.0009 1.75854H20.2137C21.4265 1.75854 22.5042 2.53229 22.8921 3.68142L40.0643 54.5626C40.3555 55.4253 40.2133 56.3756 39.6823 57.1153C39.1513 57.855 38.2965 58.2938 37.3859 58.2938H57.1738C58.0842 58.2938 58.9389 57.8547 59.4697 57.115C60.0006 56.3753 60.1427 55.4252 59.8515 54.5626L42.6793 3.68142Z" fill="url(#paint2_linear_1347_124524)"/>
<defs>
<linearGradient id="paint0_linear_1347_124524" x1="22.2659" y1="5.9479" x2="4.87748" y2="57.3176" gradientUnits="userSpaceOnUse">
<stop stop-color="#114A8B"/>
<stop offset="1" stop-color="#0669BC"/>
</linearGradient>
<linearGradient id="paint1_linear_1347_124524" x1="31.4525" y1="31.3333" x2="27.6939" y2="32.6042" gradientUnits="userSpaceOnUse">
<stop stop-opacity="0.3"/>
<stop offset="0.071" stop-opacity="0.2"/>
<stop offset="0.321" stop-opacity="0.1"/>
<stop offset="0.623" stop-opacity="0.05"/>
<stop offset="1" stop-opacity="0"/>
</linearGradient>
<linearGradient id="paint2_linear_1347_124524" x1="35.0456" y1="4.3592" x2="54.024" y2="54.9211" gradientUnits="userSpaceOnUse">
<stop stop-color="#3CCBF4"/>
<stop offset="1" stop-color="#2892DF"/>
</linearGradient>
</defs>
</svg>
