<svg width="60" height="60" viewBox="0 0 60 60" fill="none" xmlns="http://www.w3.org/2000/svg">
<path fill-rule="evenodd" clip-rule="evenodd" d="M56.0651 17.9297C56.0647 16.9444 55.8541 16.0738 55.4285 15.3267C55.0104 14.5919 54.384 13.9762 53.5441 13.4892C46.6103 9.48731 39.6698 5.49764 32.7384 1.4917C30.8698 0.411988 29.0578 0.451254 27.203 1.54663C24.4432 3.17586 10.6256 11.0999 6.50818 13.4869C4.81262 14.4696 3.98743 15.9733 3.98702 17.9279C3.98438 25.976 3.98702 34.0236 3.98438 42.0719C3.98478 43.0355 4.1864 43.8892 4.5933 44.6252C5.0116 45.3821 5.64657 46.0148 6.50594 46.5129C10.6236 48.8999 24.443 56.8233 27.2021 58.453C29.0578 59.549 30.8698 59.588 32.7391 58.5079C39.6706 54.5018 46.6115 50.5123 53.5463 46.5104C54.4057 46.0126 55.0407 45.3794 55.459 44.6232C55.8653 43.8871 56.0673 43.0335 56.0677 42.0697C56.0677 42.0697 56.0677 25.978 56.0651 17.9297Z" fill="#A9B9CB"/>
<path fill-rule="evenodd" clip-rule="evenodd" d="M32.6914 1.54418C30.8258 0.467118 29.0169 0.506383 27.1651 1.59891C24.4098 3.22387 10.6148 11.1273 6.50411 13.5083C4.8112 14.4883 3.98743 15.9882 3.98702 17.9376C3.98438 25.9648 3.98702 33.9917 3.98438 42.019C3.98478 42.9801 4.18599 43.8316 4.59229 44.5656C5.00997 45.3206 5.64392 45.9517 6.50187 46.4484C7.44364 46.9938 8.89425 47.8294 10.6032 48.8125L48.6672 10.7485C43.3413 7.68168 38.0139 4.6173 32.6914 1.54418Z" fill="#7F8B99"/>
<path fill-rule="evenodd" clip-rule="evenodd" d="M35.4086 26.3314L43.5138 26.3886C43.5138 23.0115 40.0954 14.7412 30.295 14.7412C24.0509 14.7412 15.6566 18.7109 15.6566 30.1241C15.6566 41.5371 23.8855 45.2588 30.295 45.2588C40.6745 45.2588 43.1551 38.0766 43.1551 34.0177L35.4226 33.5756C35.4226 33.5756 35.6295 38.2703 30.2537 38.2703C25.2916 38.2703 24.4635 32.1916 24.4635 30.1241C24.4635 26.9814 25.5811 21.9364 30.2537 21.9364C34.9266 21.9364 35.4086 26.3314 35.4086 26.3314Z" fill="white"/>
</svg>
