<svg width="60" height="60" viewBox="0 0 60 60" fill="none" xmlns="http://www.w3.org/2000/svg">
<path d="M21.9163 57.4491C18.5946 56.0187 15.4863 52.3833 15.4789 48.6636C15.4699 44.6081 18.0497 41.1649 21.2585 38.9022C20.8727 40.3541 20.6623 41.6821 21.618 42.9808C22.5064 44.1882 24.0624 44.7749 25.5316 44.4565C28.9647 43.7078 29.1222 39.9481 27.0869 37.7576C25.0747 35.5884 23.1281 33.1383 23.894 29.9925C24.2774 28.4156 25.2493 26.9385 26.4806 25.8827C25.5342 28.3604 28.2235 30.8039 29.9955 32.021C33.0692 34.1326 36.4417 35.7285 39.2679 38.2038C42.2407 40.8054 44.436 44.3229 43.9927 48.4027C43.5123 52.8247 39.9851 55.9002 36.0288 57.4528C44.3891 55.6146 53.0276 49.1505 53.2046 39.9136C53.3512 32.3144 48.1184 26.4662 41.6362 23.118L41.2976 22.9339C41.4755 23.3639 41.5337 23.7297 41.527 24.0572C41.5849 23.8157 41.6244 23.5675 41.6355 23.3114C41.6339 23.6156 41.594 23.9184 41.5168 24.2127L41.527 24.0572C41.4307 24.4606 41.2686 24.8456 41.047 25.1966L41.1421 25.0947C39.849 27.2315 36.348 27.6956 34.6185 25.4829C31.8382 21.9238 34.6767 18.0864 35.0738 14.3175C35.5709 9.59389 32.5974 5.00827 28.9106 2.26416C30.9412 5.53653 28.266 9.86587 26.1257 12.2862C24.0503 14.6324 21.5264 16.5913 19.2353 18.7231C16.7742 21.0126 14.4082 23.4244 12.3853 26.1117C8.33939 31.4904 5.86252 38.2551 7.68271 44.9653C9.50175 51.6709 15.3321 55.9397 21.9163 57.4491Z" fill="#EE4323"/>
</svg>
