<svg width="60" height="60" viewBox="0 0 60 60" fill="none" xmlns="http://www.w3.org/2000/svg">
<path d="M36.9548 49.3437C36.6502 49.3437 36.3583 49.1863 36.1944 48.9133L29.4892 37.7385L16.9623 41.1426C16.5627 41.2515 16.1414 41.0689 15.9469 40.7035L1.30371 13.175C1.16751 12.9189 1.1654 12.6124 1.29784 12.3545C1.43029 12.0966 1.68085 11.9199 1.96829 11.8812L14.4118 10.2079C14.7627 10.1607 15.1081 10.3269 15.2903 10.6303L30.3191 35.6766L47.774 30.9333L41.9445 22.7215C41.7738 22.4812 41.7341 22.1717 41.8381 21.8962C41.9422 21.6206 42.1768 21.4144 42.4637 21.3468L50.6307 19.4191C50.964 19.3403 51.3122 19.4606 51.5264 19.7275L58.5934 28.5454C58.7801 28.7784 58.8367 29.0898 58.7442 29.3736C58.6517 29.6575 58.4222 29.8755 58.1339 29.9539L50.689 31.9771L57.1797 41.1203C57.3408 41.3472 57.3859 41.6368 57.3016 41.9018C57.2171 42.167 57.0128 42.377 56.75 42.469L37.2476 49.2938C37.1511 49.3275 37.0522 49.3437 36.9548 49.3437ZM31.2664 37.2553L37.3434 47.383L55.0526 41.1858L48.8667 32.4723L31.2664 37.2553ZM3.46722 13.4674L17.1803 39.2471L28.5417 36.1596L14.0699 12.0417L3.46722 13.4674ZM44.1517 22.7687L49.5963 30.4381L56.3644 28.5986L50.4924 21.2719L44.1517 22.7687Z" fill="#F0543F"/>
</svg>
