<svg width="60" height="60" viewBox="0 0 60 60" fill="none" xmlns="http://www.w3.org/2000/svg"><path fill-rule="evenodd" clip-rule="evenodd" d="M15.3194 29.2383l-.6719-.2296s.082-3.4252-1.1471-3.671c-.8195-.9505.1311-40.3164 3.081-.1311 0 0-1.016.508-1.1964 1.3767-.1967.8522-.0656 2.655-.0656 2.655z" fill="#fff"/><path fill-rule="evenodd" clip-rule="evenodd" d="M15.3194 29.2383l-.6719-.2296s.082-3.4252-1.1471-3.671c-.8195-.9505.1311-40.3164 3.081-.1311 0 0-1.016.508-1.1964 1.3767-.1967.8522-.0656 2.655-.0656 2.655z" fill="#A6A385"/><path fill-rule="evenodd" clip-rule="evenodd" d="M15.6787 25.928s5.8835-3.8677 4.5069-11.9147c-1.3275-5.85071-4.4578-7.76819-4.8019-8.50574-.3769-.52441-.7376-1.44213-.7376-1.44213l.246 16.27397c0 .0164-.5082 4.9822.7866 5.5886z" fill="#fff"/><path fill-rule="evenodd" clip-rule="evenodd" d="M15.6787 25.928s5.8835-3.8677 4.5069-11.9147c-1.3275-5.85071-4.4578-7.76819-4.8019-8.50574-.3769-.52441-.7376-1.44213-.7376-1.44213l.246 16.27397c0 .0164-.5082 4.9822.7866 5.5886z" fill="#499D4A"/><path fill-rule="evenodd" clip-rule="evenodd" d="M14.3029 26.1412s-5.52301-3.7695-5.19517-10.4068C9.419 9.09692 13.3196 5.8356 14.0734 5.24556c.4917-.52442.5081-.72115.541-1.24556.344.73755.2786 11.0297.3276 12.2424.1476 4.6708-.2622 9.0139-.6391 9.8988z" fill="#fff"/><path fill-rule="evenodd" clip-rule="evenodd" d="M14.3029 26.1412s-5.52301-3.7695-5.19517-10.4068C9.419 9.09692 13.3196 5.8356 14.0734 5.24556c.4917-.52442.5081-.72115.541-1.24556.344.73755.2786 11.0297.3276 12.2424.1476 4.6708-.2622 9.0139-.6391 9.8988z" fill="#58AA50"/><path d="M52.4982 23.2296c-.9671.2459-1.5652.0108-2.1019-.795l-3.8166-5.2805-.5516-.731-4.4572 6.0289c-.5092.7253-1.0434 1.041-1.9939.7843l5.7075-7.6615-5.3137-6.92037c.9139-.17779 1.5453-.08723 2.1061.73109l3.9586 5.34608 3.9878-5.31701c.5109-.72527 1.0601-1.00109 1.9772-.73357l-2.0603 2.73158-2.7914 3.6347c-.3323.4154-.2866.6995.0191 1.1008l5.3303 7.0815zm-26.5783-7.7827l.4669-2.2963c1.271-4.54435 6.48-6.43272 10.0723-3.62468 2.0994 1.65158 2.6211 3.98778 2.5173 6.60468H27.1428c-.1778 4.7105 3.2126 7.5535 7.5351 6.1029 1.5162-.5092 2.4093-1.6964 2.8563-3.1819.2268-.7443.6023-.8606 1.3018-.648-.3572 1.8577-1.1631 3.4096-2.8662 4.3807-2.5447 1.4539-6.1768.9837-8.0876-1.0368-1.1382-1.1722-1.6084-2.6576-1.8195-4.2461-.0332-.2625-.0996-.5126-.1495-.7643.0044-.4298.0067-.8596.0067-1.2894v-.0008zm1.2445-.3157h10.6938c-.0698-3.4062-2.1908-5.82544-5.0894-5.84621-3.1819-.02492-5.4665 2.33701-5.6044 5.84621z" fill="#000"/><path d="M7.12756 38.458l9.78754-3.4892 10.046 3.4291-1.6246 12.9441-8.4214 4.6582-8.28519-4.5911L7.12756 38.458z" fill="#E23237"/><path d="M26.9614 38.397l-10.0461-3.4292v21.0321l8.4222-4.6589 1.6246-12.944h-.0007z" fill="#B52E31"/><path d="M16.9314 37.426l-6.1012 13.5593 2.2765-.0452 1.229-3.0655h5.4478l1.342 3.0958 2.1699.0452-6.3583-13.5967-.0057.0071zm.0141 4.3552l2.0639 4.31h-3.8706l1.8067-4.3086v-.0014z" fill="#fff"/><path d="M40.5685 54.6702c-.2441 0-.4866-.064-.7006-.1872l-2.2298-1.3202c-.3331-.1862-.1706-.2521-.0607-.29.4441-.1555.5342-.1906 1.0082-.4598.0498-.0284.115-.0184.166.0117l1.713 1.0165c.0619.0334.1497.0334.207 0l6.6793-3.8554c.0619-.0351.102-.107.102-.1806v-7.7076c0-.0769-.0401-.1454-.1033-.1839l-6.6766-3.8521c-.0619-.0368-.1438-.0368-.2057 0l-6.6753 3.8521c-.0647.0368-.1058.1087-.1058.1823v7.7075c0 .0736.0401.1438.1036.1789l1.8291 1.0567c.9931.4965 1.6-.0886 1.6-.6772v-7.6072c0-.1087.0853-.1923.194-.1923h.846c.1053 0 .1922.0836.1922.1923v7.6106c0 1.3241-.7222 2.0849-1.9778 2.0849-.3863 0-.6905 0-1.5399-.418l-1.7522-1.0098c-.433-.2508-.7005-.719-.7005-1.2189V41.696c0-.5016.2675-.9697.7005-1.2172l6.6861-3.8571c.423-.2391.9847-.2391 1.4044 0l6.6776 3.8588c.4314.2491.7005.7156.7005 1.2171v7.7076c0 .4999-.2691.9664-.7005 1.2172l-6.6776 3.8571c-.214.1237-.4565.1872-.7039.1872" fill="#539E43"/><path d="M42.6315 49.359c-2.9225 0-3.5353-1.3416-3.5353-2.4668 0-.107.0863-.1922.1934-.1922h.8627c.0953 0 .1756.0694.1906.1635.1305.8791.5183 1.3225 2.2856 1.3225 1.4077 0 2.0063-.318 2.0063-1.0645 0-.4297-.1706-.7491-2.3574-.9631-1.8291-.1805-2.9593-.5835-2.9593-2.0464 0-1.3476 1.1369-2.1501 3.0412-2.1501 2.1384 0 3.1984.7423 3.3321 2.3374.005.0551-.015.1086-.0518.1488-.0368.0384-.0886.0618-.1421.0618h-.8678c-.0902 0-.1688-.0635-.1872-.1505-.209-.9245-.7139-1.2205-2.0866-1.2205-1.5365 0-1.7154.5351-1.7154.9363 0 .4865.2107.6287 2.2839.9029 2.0531.2725 3.0278.657 3.0278 2.0999 0 1.4546-1.2138 2.2888-3.3304 2.2888" fill="#539E43"/></svg>