<svg width="60" height="60" viewBox="0 0 60 60" fill="none" xmlns="http://www.w3.org/2000/svg">
<path fill-rule="evenodd" clip-rule="evenodd" d="M14.6809 30.7716L13.9681 30.5282C13.9681 30.5282 14.0551 26.8948 12.7513 26.6341C11.8821 25.6258 12.8904 -16.132 16.0195 26.495C16.0195 26.495 14.9418 27.0339 14.7505 27.9553C14.5418 28.8593 14.6809 30.7716 14.6809 30.7716Z" fill="white"/>
<path fill-rule="evenodd" clip-rule="evenodd" d="M14.6809 30.7716L13.9681 30.5282C13.9681 30.5282 14.0551 26.8948 12.7513 26.6341C11.8821 25.6258 12.8904 -16.132 16.0195 26.495C16.0195 26.495 14.9418 27.0339 14.7505 27.9553C14.5418 28.8593 14.6809 30.7716 14.6809 30.7716Z" fill="#A6A385"/>
<path fill-rule="evenodd" clip-rule="evenodd" d="M15.0619 27.2603C15.0619 27.2603 21.3029 23.1575 19.8426 14.6216C18.4345 8.41544 15.1139 6.38146 14.7489 5.59909C14.3491 5.04282 13.9666 4.06934 13.9666 4.06934L14.2274 21.3321C14.2274 21.3495 13.6884 26.617 15.0619 27.2603Z" fill="white"/>
<path fill-rule="evenodd" clip-rule="evenodd" d="M15.0619 27.2603C15.0619 27.2603 21.3029 23.1575 19.8426 14.6216C18.4345 8.41544 15.1139 6.38146 14.7489 5.59909C14.3491 5.04282 13.9666 4.06934 13.9666 4.06934L14.2274 21.3321C14.2274 21.3495 13.6884 26.617 15.0619 27.2603Z" fill="#499D4A"/>
<path fill-rule="evenodd" clip-rule="evenodd" d="M13.6025 27.4865C13.6025 27.4865 7.74392 23.488 8.09167 16.4474C8.42186 9.4066 12.5594 5.94713 13.359 5.32123C13.8807 4.76496 13.8981 4.55628 13.9329 4C14.2979 4.78236 14.2284 15.6998 14.2805 16.9863C14.437 21.9408 14.0023 26.5478 13.6025 27.4865Z" fill="white"/>
<path fill-rule="evenodd" clip-rule="evenodd" d="M13.6025 27.4865C13.6025 27.4865 7.74392 23.488 8.09167 16.4474C8.42186 9.4066 12.5594 5.94713 13.359 5.32123C13.8807 4.76496 13.8981 4.55628 13.9329 4C14.2979 4.78236 14.2284 15.6998 14.2805 16.9863C14.437 21.9408 14.0023 26.5478 13.6025 27.4865Z" fill="#58AA50"/>
<path d="M53.4354 24.9833C52.4096 25.2441 51.7751 24.9947 51.2058 24.1399L47.1573 18.5386L46.5722 17.7631L41.8442 24.1584C41.304 24.9278 40.7374 25.2626 39.7292 24.9903L45.7835 16.8634L40.1469 9.52249C41.1163 9.33391 41.7861 9.42996 42.3809 10.298L46.5801 15.9689L50.8102 10.3288C51.3521 9.55951 51.9346 9.26693 52.9076 9.55069L50.722 12.4483L47.761 16.3038C47.4085 16.7444 47.457 17.0458 47.7813 17.4714L53.4354 24.9833ZM25.2422 16.7277L25.7375 14.2919C27.0858 9.47138 32.6113 7.46828 36.4219 10.4469C38.6488 12.1989 39.2022 14.677 39.0921 17.4529H26.5394C26.3508 22.4497 29.9473 25.4653 34.5324 23.9267C36.1407 23.3864 37.0881 22.1271 37.5622 20.5514C37.8028 19.7618 38.2011 19.6385 38.9431 19.8641C38.5642 21.8346 37.7094 23.4807 35.9028 24.5109C33.2035 26.0531 29.3506 25.5543 27.3238 23.4111C26.1164 22.1677 25.6176 20.592 25.3938 18.907C25.3585 18.6285 25.288 18.3633 25.2352 18.0963C25.2399 17.6404 25.2422 17.1844 25.2422 16.7285V16.7277ZM26.5623 16.3928H37.9059C37.8319 12.7796 35.582 10.2134 32.5073 10.1914C29.1321 10.1649 26.7086 12.6703 26.5623 16.3928Z" fill="black"/>
<path d="M40.8795 56.0004C40.6206 56.0004 40.3634 55.9325 40.1364 55.8018L37.7711 54.4014C37.4178 54.2038 37.5902 54.134 37.7067 54.0937C38.1778 53.9288 38.2733 53.8915 38.7761 53.606C38.829 53.5758 38.8981 53.5865 38.9522 53.6184L40.7694 54.6967C40.835 54.7322 40.9281 54.7322 40.9889 54.6967L48.0741 50.607C48.1397 50.5698 48.1823 50.4935 48.1823 50.4155V42.2396C48.1823 42.158 48.1397 42.0853 48.0727 42.0445L40.9904 37.9584C40.9247 37.9194 40.8378 37.9194 40.7722 37.9584L33.6913 42.0445C33.6227 42.0835 33.5791 42.1598 33.5791 42.2378V50.4137C33.5791 50.4917 33.6216 50.5662 33.689 50.6035L35.6292 51.7243C36.6827 52.251 37.3265 51.6303 37.3265 51.006V42.9366C37.3265 42.8213 37.4169 42.7326 37.5322 42.7326H38.4296C38.5413 42.7326 38.6335 42.8213 38.6335 42.9366V51.0096C38.6335 52.4142 37.8674 53.2211 36.5355 53.2211C36.1258 53.2211 35.803 53.2211 34.9021 52.7778L33.0435 51.7066C32.5841 51.4405 32.3004 50.944 32.3004 50.4137V42.2378C32.3004 41.7058 32.5841 41.2092 33.0435 40.9467L40.1357 36.8552C40.5844 36.6016 41.1803 36.6016 41.6254 36.8552L48.7088 40.9485C49.1664 41.2127 49.4519 41.7076 49.4519 42.2396V50.4155C49.4519 50.9457 49.1664 51.4405 48.7088 51.7066L41.6254 55.798C41.3984 55.9293 41.1413 55.9967 40.8788 55.9967" fill="#539E43"/>
<path d="M43.068 50.366C39.9679 50.366 39.3179 48.943 39.3179 47.7494C39.3179 47.6359 39.4094 47.5455 39.5231 47.5455H40.4383C40.5393 47.5455 40.6245 47.6191 40.6404 47.7189C40.7788 48.6514 41.1902 49.1218 43.0648 49.1218C44.5581 49.1218 45.193 48.7844 45.193 47.9926C45.193 47.5368 45.0121 47.198 42.6924 46.971C40.7522 46.7795 39.5533 46.3521 39.5533 44.8003C39.5533 43.3708 40.7593 42.5195 42.7793 42.5195C45.0476 42.5195 46.172 43.307 46.3139 44.9989C46.3192 45.0574 46.2979 45.1142 46.2589 45.1567C46.2199 45.1975 46.1649 45.2224 46.1082 45.2224H45.1877C45.0919 45.2224 45.0086 45.155 44.9891 45.0627C44.7674 44.082 44.2318 43.7681 42.7757 43.7681C41.1459 43.7681 40.9561 44.3356 40.9561 44.7612C40.9561 45.2773 41.1796 45.4281 43.3787 45.7189C45.5566 46.008 46.5905 46.4159 46.5905 47.9465C46.5905 49.4894 45.303 50.3744 43.0577 50.3744" fill="#539E43"/>
<path d="M15.5944 48.2452C16.5642 48.2452 17.3503 47.459 17.3503 46.4893C17.3503 45.5195 16.5642 44.7334 15.5944 44.7334C14.6247 44.7334 13.8386 45.5195 13.8386 46.4893C13.8386 47.459 14.6247 48.2452 15.5944 48.2452Z" fill="#00D8FF"/>
<path fill-rule="evenodd" clip-rule="evenodd" d="M15.5946 42.9189C17.9521 42.9189 20.1421 43.2572 21.7934 43.8257C23.783 44.5107 25.0063 45.5489 25.0063 46.489C25.0063 47.4687 23.7099 48.5717 21.5733 49.2796C19.958 49.8147 17.8324 50.0941 15.5946 50.0941C13.3001 50.0941 11.1274 49.8319 9.49392 49.2737C7.42726 48.5673 6.1825 47.45 6.1825 46.489C6.1825 45.5565 7.35047 44.5263 9.31209 43.8424C10.9696 43.2645 13.2137 42.9189 15.5942 42.9189H15.5946Z" stroke="#00D8FF" stroke-width="0.840019"/>
<path fill-rule="evenodd" clip-rule="evenodd" d="M12.4868 44.7142C13.6646 42.672 15.0517 40.9438 16.3691 39.7973C17.9564 38.4159 19.4669 37.875 20.2813 38.3446C21.13 38.834 21.4378 40.5081 20.9836 42.7125C20.6406 44.3792 19.8204 46.36 18.7024 48.2987C17.5562 50.2863 16.2436 52.0374 14.9441 53.1733C13.2998 54.6107 11.7101 55.1309 10.8776 54.6508C10.0698 54.1853 9.76084 52.6585 10.1484 50.6175C10.4758 48.893 11.2975 46.7764 12.4864 44.7142L12.4868 44.7142Z" stroke="#00D8FF" stroke-width="0.840019"/>
<path fill-rule="evenodd" clip-rule="evenodd" d="M12.4897 48.3044C11.3086 46.2644 10.5045 44.1992 10.1688 42.4853C9.76476 40.4202 10.0504 38.8414 10.8641 38.3704C11.7119 37.8795 13.316 38.4489 14.9991 39.9433C16.2716 41.0732 17.5782 42.7727 18.6995 44.7095C19.849 46.6952 20.7106 48.7069 21.0458 50.4C21.4699 52.5425 21.1266 54.1795 20.2949 54.661C19.4879 55.1282 18.0111 54.6335 16.4364 53.2785C15.1059 52.1336 13.6825 50.3645 12.4897 48.3043V48.3044Z" stroke="#00D8FF" stroke-width="0.840019"/>
</svg>
