<svg width="60" height="60" viewBox="0 0 60 60" fill="none" xmlns="http://www.w3.org/2000/svg">
<path d="M30.2702 56.6242C45.1666 56.6242 57.2425 44.5186 57.2425 29.5857C57.2425 14.6527 45.1666 2.54712 30.2702 2.54712C15.3738 2.54712 3.29794 14.6527 3.29794 29.5857C3.29794 44.5186 15.3738 56.6242 30.2702 56.6242Z" fill="#5C2D91"/>
<path opacity="0.1" d="M11.5751 10.1519C8.83315 12.6012 6.61909 15.5861 5.06862 18.9236C3.51815 22.2611 2.66394 25.8808 2.55833 29.561C2.45273 33.2411 3.09796 36.9041 4.45448 40.3254C5.81101 43.7467 7.85023 46.8542 10.4472 49.4576C13.0441 52.0609 16.1441 54.1051 19.557 55.465C22.9699 56.8248 26.6239 57.4716 30.295 57.3658C33.9661 57.2599 37.577 56.4036 40.9063 54.8493C44.2356 53.295 47.2132 51.0755 49.6565 48.3269L11.5751 10.1519Z" fill="white"/>
<path d="M9.53555 34.022C9.37822 34.0245 9.22208 33.9942 9.077 33.9331C8.93192 33.872 8.80105 33.7815 8.69267 33.6671C8.58132 33.5568 8.49331 33.4251 8.43393 33.2799C8.37455 33.1347 8.34501 32.979 8.34709 32.8221C8.34596 32.6654 8.37594 32.5099 8.43526 32.3649C8.49459 32.2198 8.58209 32.088 8.69267 31.9772C8.79999 31.8609 8.93046 31.7684 9.07565 31.7059C9.22084 31.6433 9.37752 31.6119 9.53555 31.6139C9.69336 31.6135 9.84957 31.6455 9.99454 31.708C10.1395 31.7705 10.2702 31.8621 10.3784 31.9772C10.4909 32.087 10.5802 32.2185 10.641 32.3636C10.7019 32.5088 10.7329 32.6647 10.7324 32.8221C10.7339 32.9797 10.7033 33.1359 10.6424 33.2812C10.5815 33.4265 10.4917 33.5578 10.3784 33.6671C10.2691 33.7802 10.1381 33.87 9.99323 33.931C9.84837 33.992 9.69267 34.023 9.53555 34.022Z" fill="white"/>
<path d="M26.2832 33.81H24.0748L16.177 21.5244C15.9803 21.2217 15.8164 20.8988 15.6881 20.5611H15.6207C15.6957 21.2626 15.7239 21.9683 15.705 22.6735V33.81H13.9096V18.4065H16.2444L23.9315 30.4724C24.2518 30.9738 24.4597 31.3174 24.5553 31.5033H24.5974C24.5085 30.7519 24.4718 29.9953 24.4878 29.2388V18.4065H26.2832V33.81Z" fill="white"/>
<path d="M38.4377 33.81H30.2701V18.4065H38.0584V20.0373H32.1076V25.1577H37.6538V26.78H32.1076V32.1201H38.4461L38.4377 33.81Z" fill="white"/>
<path d="M50.4994 20.0373H46.0321V33.81H44.2368V20.0373H39.8201V18.4065H50.4994V20.0373Z" fill="white"/>
<path d="M25.3141 44.2871C24.7056 44.5826 24.0344 44.7247 23.3587 44.7012C22.9096 44.7215 22.4615 44.6452 22.0443 44.4777C21.627 44.3101 21.2504 44.055 20.9396 43.7295C20.3203 43.0345 19.9939 42.1258 20.0293 41.1946C20.0066 40.6904 20.0852 40.1868 20.2604 39.7136C20.4356 39.2404 20.7038 38.8073 21.0492 38.4401C21.3857 38.0944 21.7903 37.8228 22.2372 37.6424C22.6842 37.4621 23.1637 37.3769 23.6452 37.3923C24.2215 37.3726 24.7956 37.4733 25.331 37.6881V38.533C24.8156 38.247 24.2343 38.1013 23.6452 38.1105C23.2738 38.1 22.9046 38.1701 22.5627 38.316C22.2208 38.4618 21.9144 38.6799 21.6645 38.9555C21.1388 39.5558 20.8667 40.3376 20.9059 41.1355C20.8665 41.8913 21.1202 42.633 21.6139 43.2056C21.8507 43.4609 22.1398 43.6618 22.4613 43.7945C22.7828 43.9272 23.1292 43.9886 23.4767 43.9745C24.1238 43.9915 24.763 43.8277 25.3226 43.5013L25.3141 44.2871Z" fill="#F2F2F2"/>
<path d="M28.7612 44.7024C28.4257 44.7132 28.0918 44.6517 27.782 44.522C27.4723 44.3922 27.194 44.1973 26.9659 43.9503C26.505 43.4347 26.2657 42.7576 26.3 42.0661C26.279 41.7038 26.33 41.341 26.4501 40.9986C26.5702 40.6563 26.757 40.3413 26.9996 40.072C27.2472 39.8298 27.5418 39.641 27.8651 39.5175C28.1884 39.3939 28.5336 39.3382 28.8793 39.3538C29.206 39.3364 29.5326 39.39 29.8367 39.5111C30.1408 39.6321 30.4151 39.8177 30.6409 40.0551C31.0889 40.5963 31.3149 41.288 31.273 41.9901C31.3084 42.7025 31.0632 43.4004 30.5903 43.9334C30.358 44.1852 30.0745 44.3841 29.759 44.5167C29.4434 44.6494 29.1032 44.7127 28.7612 44.7024ZM28.8203 40.0805C28.5884 40.0707 28.3573 40.1135 28.1443 40.2056C27.9312 40.2978 27.7416 40.437 27.5896 40.6128C27.2653 41.0314 27.1036 41.5538 27.1345 42.083C27.105 42.5964 27.2673 43.1024 27.5896 43.5025C27.7432 43.6758 27.9333 43.8128 28.1461 43.9034C28.3589 43.994 28.5892 44.036 28.8203 44.0264C29.0464 44.0398 29.2727 44.001 29.4816 43.9132C29.6905 43.8253 29.8766 43.6906 30.0256 43.5194C30.332 43.0997 30.4812 42.5851 30.447 42.0661C30.4803 41.5445 30.3313 41.0277 30.0256 40.6043C29.8787 40.4296 29.6934 40.2913 29.4843 40.2005C29.2752 40.1096 29.0479 40.0685 28.8203 40.0805Z" fill="#F2F2F2"/>
<path d="M35.2091 40.3337C35.0271 40.2141 34.8109 40.1577 34.5938 40.1731C34.424 40.1793 34.2584 40.2272 34.1114 40.3127C33.9644 40.3982 33.8406 40.5185 33.751 40.6632C33.5001 41.0614 33.3793 41.528 33.4054 41.9982V44.5838H32.5625V39.5141H33.4054V40.5702C33.498 40.2434 33.6823 39.9502 33.9364 39.7253C34.1562 39.5341 34.4376 39.429 34.7287 39.4296C34.8916 39.4222 35.0545 39.4451 35.2091 39.4972V40.3337Z" fill="#F2F2F2"/>
<path d="M40.1489 42.2591H36.5835C36.5595 42.7315 36.7129 43.1957 37.0133 43.5604C37.1696 43.7166 37.3569 43.838 37.5632 43.9166C37.7694 43.9952 37.9899 44.0293 38.2102 44.0166C38.7816 44.0109 39.3342 43.8114 39.778 43.4505V44.211C39.2569 44.5553 38.6397 44.724 38.0164 44.6926C37.7018 44.7085 37.3877 44.6547 37.0963 44.5349C36.8049 44.4151 36.5435 44.2324 36.3306 43.9997C35.8918 43.4511 35.6725 42.7583 35.7153 42.0563C35.685 41.3527 35.9231 40.6639 36.3812 40.1299C36.5896 39.8884 36.849 39.6965 37.1406 39.5679C37.4321 39.4393 37.7485 39.3773 38.0669 39.3863C38.3544 39.3701 38.6418 39.4195 38.9075 39.5308C39.1732 39.642 39.4103 39.8122 39.601 40.0285C39.9891 40.5415 40.1805 41.1772 40.1404 41.8198L40.1489 42.2591ZM39.306 41.5747C39.3231 41.1832 39.2039 40.7979 38.9688 40.4847C38.8535 40.3541 38.7102 40.2513 38.5496 40.184C38.3891 40.1167 38.2154 40.0866 38.0417 40.0961C37.8603 40.0938 37.6804 40.1295 37.5135 40.2008C37.3466 40.2721 37.1964 40.3774 37.0723 40.5101C36.7949 40.8043 36.6204 41.1809 36.575 41.5832L39.306 41.5747Z" fill="#F2F2F2"/>
</svg>
