<svg width="60" height="60" viewBox="0 0 60 60" fill="none" xmlns="http://www.w3.org/2000/svg">
<path d="M3.60074 47.5596C3.60074 47.7862 3.5197 47.9824 3.35594 48.148C3.19274 48.313 2.99463 48.3961 2.7622 48.3961C2.53509 48.3961 2.34183 48.313 2.18349 48.148C2.0251 47.9824 1.9462 47.7862 1.9462 47.5596C1.9462 47.3265 2.0251 47.1299 2.18349 46.967C2.34183 46.8035 2.53509 46.7227 2.7622 46.7227C2.99463 46.7227 3.19274 46.8047 3.35594 46.9702C3.5197 47.1358 3.60074 47.3324 3.60074 47.5596Z" fill="black"/>
<path d="M13.9864 48.2258H12.4736L6.98227 39.7613C6.85395 39.5577 6.74336 39.3364 6.64943 39.0947H6.60429C6.64337 39.3214 6.66339 39.8079 6.66339 40.5533V48.2258H5.41629V37.6062H7.03488L12.3619 45.9373C12.574 46.2679 12.7189 46.5047 12.7925 46.6473H12.8221C12.7727 46.3419 12.747 45.821 12.747 45.0859V37.6062H13.9865V48.2258H13.9864Z" fill="black"/>
<path d="M21.981 48.2258H16.3421V37.6062H21.7362V38.7314H17.5881V42.2642H21.4319V43.39H17.5881V47.1001H21.981V48.2258Z" fill="black"/>
<path d="M30.5345 38.7317H27.4697V48.2261H26.2231V38.7317H23.1524V37.606H30.5345V38.7317Z" fill="black"/>
<path d="M27.762 12.1042C27.4315 12.0204 27.0832 11.9768 26.7152 11.9768L29.033 11.9853C28.6114 11.9853 28.1863 12.0245 27.762 12.1039" fill="#3092C4"/>
<path d="M48.0679 31.5006H47.5731V33.0357H47.3712V31.5006H46.8746V31.3179H48.0679V31.5006Z" fill="black"/>
<path d="M50.0941 33.0355H49.8932V31.8819C49.8932 31.791 49.9003 31.6796 49.9096 31.5485C49.8889 31.6269 49.8717 31.6813 49.856 31.7161L49.2701 33.0355H49.1719L48.5841 31.7259C48.567 31.6896 48.5498 31.6305 48.5313 31.5485H48.5242C48.5313 31.6177 48.5336 31.7295 48.5336 31.8846V33.0355H48.3406V31.3176H48.6068L49.1346 32.5166C49.1746 32.6067 49.1997 32.6763 49.2124 32.7226H49.2202C49.2552 32.6281 49.2838 32.5577 49.3033 32.5113L49.8418 31.3176H50.0955V33.0355H50.0941Z" fill="black"/>
<path d="M21.2362 16.0191C23.2378 22.1285 23.9961 33.0273 29.8491 33.0273C30.2948 33.0273 30.745 32.9838 31.197 32.898C25.8763 31.6597 25.2457 20.8795 21.9989 15.2969C21.7444 15.5278 21.4916 15.7685 21.2362 16.0191Z" fill="url(#paint0_linear_1347_124530)"/>
<path d="M21.9988 15.2971C25.2456 20.8797 25.8761 31.6599 31.1968 32.8982C31.6148 32.8215 32.0338 32.7056 32.4536 32.5594C27.6777 30.2236 26.3576 19.7555 22.6705 14.7158C22.4472 14.9013 22.223 15.0957 21.9988 15.2971Z" fill="url(#paint1_linear_1347_124530)"/>
<path d="M26.6769 11.9768C26.2321 11.9768 25.781 12.0203 25.3282 12.1061C24.1438 12.329 22.9407 12.838 21.7278 13.6083C22.0591 13.9346 22.3744 14.3081 22.6709 14.7155C23.9044 13.6939 25.1299 12.9388 26.3509 12.485C26.8091 12.3156 27.2656 12.1881 27.7237 12.1043C27.3932 12.0205 27.0449 11.9768 26.6769 11.9768Z" fill="#14559A"/>
<path d="M36.1819 30.4062C36.6704 30.0184 37.1599 29.5896 37.6502 29.1216C35.6165 23.0405 34.8885 11.9858 28.9944 11.9858C28.5728 11.9858 28.1476 12.0251 27.7234 12.1035C33.0923 13.4364 33.7801 25.0955 36.1819 30.4062Z" fill="url(#paint2_linear_1347_124530)"/>
<path d="M36.0788 31.698C35.8483 31.4787 35.6295 31.238 35.4142 30.9812C34.4228 31.6819 33.4349 32.2133 32.4533 32.5592C32.8025 32.7295 33.1687 32.8561 33.5573 32.9345C33.8583 32.9959 34.1701 33.0272 34.4978 33.0272C35.5991 33.0272 36.47 32.8971 37.2113 32.5423C36.8032 32.322 36.4289 32.0367 36.0788 31.698Z" fill="#1969BC"/>
<path d="M26.3505 12.4863C31.1594 14.9967 31.5774 26.3652 35.4145 30.9815C35.6718 30.8005 35.9263 30.6088 36.1809 30.4064C33.7791 25.0957 33.0922 13.4357 27.7242 12.1038C27.266 12.1893 26.8087 12.316 26.3505 12.4863Z" fill="url(#paint3_linear_1347_124530)"/>
<path d="M22.6704 14.7157C26.3575 19.7554 27.6776 30.2235 32.4535 32.5593C33.4351 32.2134 34.423 31.682 35.4144 30.9813C31.5773 26.3651 31.1593 14.9966 26.3504 12.4861C25.1294 12.939 23.9039 13.694 22.6704 14.7157Z" fill="url(#paint4_linear_1347_124530)"/>
<path d="M18.8771 15.8721C18.2992 17.1764 17.7088 18.8907 16.9951 21.1284C18.4144 19.1323 19.8292 17.4126 21.236 16.0192C21.0422 15.4246 20.8341 14.8763 20.6099 14.3877C20.0347 14.8272 19.455 15.3221 18.8771 15.8721Z" fill="url(#paint5_linear_1347_124530)"/>
<path d="M21.1223 14.0117C20.9526 14.133 20.782 14.2569 20.6105 14.3879C20.8347 14.8765 21.0419 15.4248 21.2358 16.0194C21.4911 15.7698 21.7448 15.5282 21.9985 15.2973C21.7261 14.8301 21.4367 14.3986 21.1223 14.0117Z" fill="#2B74B1"/>
<path d="M21.7279 13.6086C21.526 13.7362 21.3251 13.8707 21.1223 14.0116C21.4367 14.3985 21.7261 14.83 21.9994 15.2981C22.2237 15.0957 22.4478 14.9005 22.6711 14.7159C22.3746 14.3085 22.0593 13.9349 21.7279 13.6086Z" fill="#125A9E"/>
<path d="M54.5288 11.5117C51.809 21.9807 46.1284 30.3894 41.3659 32.5094H41.3569C41.2702 32.5486 41.1845 32.5843 41.0996 32.619C41.088 32.6261 41.0773 32.627 41.0683 32.6312C41.0433 32.6413 41.0201 32.6491 40.9951 32.659C40.9834 32.6661 40.9728 32.6684 40.9621 32.6726C40.9219 32.6869 40.8826 32.699 40.8433 32.7147C40.8263 32.7218 40.8103 32.7262 40.7941 32.7318C40.7762 32.7389 40.7557 32.7454 40.7352 32.7511C40.7173 32.7582 40.6986 32.7633 40.678 32.7711C40.661 32.7781 40.6432 32.7811 40.6271 32.7882C40.5923 32.7983 40.5602 32.8067 40.5253 32.8188C40.511 32.8188 40.4976 32.8266 40.4824 32.8303C40.461 32.8374 40.4369 32.8425 40.4136 32.8489C40.3975 32.8559 40.3842 32.8582 40.3672 32.8618C40.343 32.8688 40.3162 32.8754 40.2922 32.881C40.26 32.8881 40.2314 32.8946 40.201 32.901C40.4163 32.9804 40.6405 33.0204 40.8826 33.0204C45.3985 33.0204 49.9519 24.9425 57.4859 11.5093H54.5277L54.5288 11.5117Z" fill="url(#paint6_linear_1347_124530)"/>
<path d="M16.0145 12.402C16.0173 12.402 16.0208 12.3949 16.0226 12.3949C16.0261 12.3949 16.0316 12.3949 16.0334 12.3878C16.0334 12.3878 16.0369 12.3878 16.039 12.3878C16.064 12.3794 16.0873 12.3693 16.1123 12.36C16.1186 12.36 16.122 12.36 16.1266 12.353C16.133 12.353 16.1392 12.3459 16.1454 12.345C16.1722 12.3365 16.199 12.3265 16.224 12.3172C16.224 12.3172 16.2268 12.3172 16.2283 12.3172C16.2881 12.2994 16.3435 12.2773 16.4015 12.2566C16.4097 12.2566 16.4176 12.2495 16.4274 12.2495C16.4515 12.2418 16.4766 12.2331 16.5015 12.2274C16.5132 12.2204 16.5248 12.2204 16.5355 12.2166C16.5613 12.2089 16.5864 12.2002 16.6105 12.1945C16.6213 12.1945 16.6311 12.1875 16.6391 12.1868C16.7222 12.164 16.8043 12.1425 16.8874 12.1226C16.8991 12.1226 16.9088 12.1155 16.9213 12.1148C16.9454 12.1077 16.9678 12.104 16.9937 12.1005C17.0045 12.0934 17.0169 12.0934 17.0294 12.0897C17.0535 12.0827 17.0767 12.082 17.1026 12.0761C17.109 12.0761 17.1124 12.0761 17.1196 12.0761C17.1697 12.0661 17.2206 12.0576 17.2706 12.0483C17.2796 12.0483 17.2911 12.0483 17.301 12.0483C17.325 12.0413 17.3465 12.0405 17.3706 12.0361C17.3839 12.0361 17.3974 12.0291 17.4099 12.0291C17.4322 12.0291 17.4546 12.022 17.4769 12.019C17.4886 12.019 17.5001 12.019 17.5135 12.0119C17.5662 12.0049 17.6207 12.002 17.6761 11.9976C17.5198 11.9826 17.359 11.9727 17.1956 11.9727C12.1098 11.9727 5.10272 21.3914 1.9462 33.589C1.9462 33.589 2.17664 33.589 2.55446 33.589C3.56465 31.7909 4.47213 30.0899 5.3019 28.4932C7.51253 19.8536 12.0151 13.9616 16.0148 12.4006" fill="url(#paint7_linear_1347_124530)"/>
<path d="M18.8771 15.8723C19.455 15.3222 20.0347 14.8274 20.6099 14.3879C20.4786 14.1009 20.3429 13.8352 20.1972 13.5918C19.7319 14.1552 19.3068 14.8987 18.8771 15.8723Z" fill="#0D82CA"/>
<path d="M19.2949 12.4731C19.6271 12.7513 19.9245 13.1338 20.197 13.592C20.2827 13.4868 20.3694 13.3896 20.4596 13.2987C20.0818 12.9466 19.6736 12.6577 19.2305 12.4402C19.2484 12.4501 19.2663 12.458 19.2848 12.4659C19.2848 12.4659 19.2919 12.4729 19.2949 12.4729" fill="#0D82CA"/>
<path d="M5.30176 28.4938C9.93918 19.5742 12.1364 13.9292 16.0146 12.4011C12.0158 13.9631 7.51239 19.855 5.30176 28.4938Z" fill="url(#paint8_linear_1347_124530)"/>
<path d="M20.4595 13.2983C20.3693 13.3902 20.2835 13.4865 20.1969 13.5917C20.3425 13.835 20.4782 14.0998 20.6104 14.3878C20.7819 14.2567 20.9525 14.1328 21.1222 14.0116C20.9124 13.753 20.6908 13.5132 20.4595 13.2983Z" fill="#127BCA"/>
<path d="M7.40687 33.5499C7.37829 33.557 7.34971 33.557 7.32291 33.56C7.31397 33.56 7.31219 33.56 7.30683 33.56C7.28268 33.56 7.25767 33.567 7.23537 33.567C7.23537 33.567 7.22644 33.567 7.22373 33.567C7.16571 33.5741 7.10851 33.5741 7.05314 33.5785H7.03526C11.729 33.4474 13.8744 31.1018 14.9391 27.6998C15.7483 25.1207 16.4128 22.9481 16.9952 21.125C15.0293 23.8869 13.0544 27.1792 11.0689 30.8674C10.1114 32.6451 8.6555 33.3876 7.40683 33.5464" fill="url(#paint9_linear_1347_124530)"/>
<path d="M7.40686 33.5479C8.65553 33.3891 10.1114 32.6474 11.0689 30.8688C13.0545 27.1816 15.0302 23.8883 16.9943 21.1264C17.7089 18.8878 18.2984 17.1744 18.8772 15.8701C14.9623 19.5895 11.0323 25.7739 7.40686 33.5461" fill="url(#paint10_linear_1347_124530)"/>
<path d="M5.30138 28.4944C4.47165 30.0911 3.56417 31.7921 2.55394 33.5902C2.99074 33.5902 3.62312 33.5902 4.32338 33.5902C4.5574 31.8045 4.88966 30.1018 5.30138 28.4952" fill="#05A1E6"/>
<path d="M17.5133 12.0162C17.499 12.0162 17.4883 12.0233 17.4758 12.0233C17.4543 12.0304 17.432 12.0303 17.4097 12.0326C17.3964 12.0326 17.3838 12.0327 17.3704 12.0397C17.3462 12.0468 17.3239 12.0475 17.3007 12.0519C17.2899 12.0519 17.2793 12.0519 17.2703 12.059C17.2194 12.0674 17.1694 12.0768 17.1194 12.0854C17.1105 12.0854 17.1077 12.0854 17.1024 12.0854C17.0765 12.0924 17.0532 12.0961 17.0292 12.0996C17.0166 12.1067 17.0041 12.1067 16.9925 12.1095C16.9684 12.1166 16.9443 12.1196 16.9211 12.1239C16.9085 12.1309 16.8988 12.1309 16.8871 12.1316C16.804 12.1516 16.7219 12.173 16.6388 12.1958C16.6299 12.1958 16.6209 12.2029 16.6102 12.2043C16.5852 12.2114 16.5611 12.2186 16.5352 12.2264C16.5244 12.2335 16.512 12.2335 16.5012 12.2363C16.4762 12.2433 16.4512 12.2506 16.4271 12.2584C16.4174 12.2584 16.4093 12.2655 16.4003 12.2655C16.3432 12.2869 16.2869 12.3083 16.2279 12.3261C16.2029 12.3339 16.1761 12.3439 16.1493 12.3532C16.1385 12.3603 16.1288 12.3618 16.1163 12.3668C16.0913 12.3745 16.0663 12.3846 16.0431 12.3939C16.0342 12.401 16.0252 12.4016 16.019 12.4054C12.1408 13.9334 9.94355 19.5785 5.30613 28.498C4.89437 30.1045 4.56121 31.8073 4.32809 33.593H4.5764C5.27576 33.593 5.47317 33.5859 6.27793 33.5859H6.31901H6.43869H6.47978H6.49142H6.5325H6.55573H6.57181H6.60396H6.70401H6.80404H6.888H6.91029C6.95852 33.5859 7.00765 33.5859 7.05767 33.5859C7.11304 33.5788 7.17022 33.5788 7.22827 33.5744C7.22827 33.5744 7.23721 33.5744 7.239 33.5744C7.26315 33.5744 7.28722 33.5674 7.31044 33.5674C7.31938 33.5674 7.32023 33.5674 7.32738 33.5674C7.35324 33.5674 7.38276 33.5603 7.41134 33.5573C11.0368 25.7851 14.9668 19.6007 18.8816 15.8813C19.3121 14.9078 19.7364 14.1643 20.2009 13.6018C19.9293 13.1435 19.6319 12.7602 19.2996 12.482C19.2996 12.482 19.2906 12.482 19.2899 12.4749C19.2711 12.4671 19.2533 12.4578 19.2345 12.4485C19.2157 12.4385 19.1997 12.4307 19.1801 12.4207C19.1631 12.4136 19.1434 12.4043 19.1265 12.395C19.1033 12.388 19.0845 12.3779 19.064 12.3686C19.047 12.3616 19.0318 12.3543 19.0148 12.3472C18.9799 12.3336 18.9452 12.3194 18.9121 12.3044C18.8969 12.2974 18.8826 12.2937 18.8683 12.288C18.8442 12.2794 18.8165 12.2681 18.7915 12.2574C18.7789 12.2503 18.7647 12.2489 18.7504 12.2438C18.7138 12.2316 18.678 12.2188 18.6441 12.2074C18.6352 12.2074 18.6353 12.2074 18.6353 12.2074C18.5942 12.1938 18.554 12.1839 18.512 12.1724C18.5022 12.1654 18.4941 12.1654 18.4843 12.164C18.4477 12.1539 18.4155 12.144 18.3807 12.1347C18.3719 12.1347 18.3637 12.1276 18.3566 12.1276C18.2727 12.1055 18.186 12.0877 18.0985 12.0713C18.0895 12.0713 18.0807 12.0642 18.0717 12.0642C18.0342 12.0572 17.9976 12.0506 17.9601 12.0464C17.951 12.0393 17.9457 12.0393 17.9378 12.0393C17.8931 12.0323 17.8494 12.0272 17.8056 12.0222C17.7967 12.0222 17.7904 12.0222 17.7824 12.0222C17.7466 12.0151 17.7136 12.0145 17.6805 12.0107C17.6242 12.0178 17.5707 12.0208 17.518 12.0257" fill="url(#paint11_linear_1347_124530)"/>
<path d="M43.905 17.3074C43.0128 20.1602 42.2902 22.5138 41.6614 24.4502C44.1096 21.0874 46.5212 16.8572 48.8176 11.9753C46.1389 12.8151 44.7098 14.7372 43.905 17.3074Z" fill="url(#paint12_linear_1347_124530)"/>
<path d="M41.739 32.3311C41.614 32.3946 41.489 32.455 41.3657 32.5094C46.1282 30.3894 51.8088 21.9807 54.5286 11.5117H53.9775C47.7288 22.6529 45.7191 30.1112 41.739 32.3311Z" fill="url(#paint13_linear_1347_124530)"/>
<path d="M38.6293 31.395C39.6654 30.1327 40.5094 27.9868 41.6617 24.4502C40.3326 26.2724 38.9946 27.8389 37.6557 29.1163C37.6557 29.1234 37.6557 29.1234 37.6486 29.1278C37.9407 30.0015 38.2614 30.7726 38.6267 31.3949" fill="#079AE1"/>
<path d="M38.6293 31.3953C38.2765 31.825 37.9032 32.1522 37.4878 32.3947C37.3967 32.4475 37.3048 32.4972 37.211 32.5427C37.6495 32.7789 38.1282 32.9367 38.6641 33C38.7427 33.0078 38.8204 33.015 38.9017 33.0207H38.9161C38.9525 33.0207 38.9911 33.0207 39.0304 33.0277H39.0461C39.0855 33.0277 39.1248 33.0277 39.1632 33.0277C39.2053 33.0277 39.2471 33.0277 39.2891 33.0277C39.3028 33.0277 39.3156 33.0277 39.3285 33.0277C39.357 33.0277 39.3878 33.0277 39.4178 33.0277C39.4321 33.0277 39.4471 33.0277 39.4614 33.0207C39.4892 33.0207 39.5185 33.0207 39.5471 33.0136C39.5542 33.0136 39.5542 33.0136 39.5572 33.0136C39.5687 33.0136 39.5786 33.0136 39.5893 33.0136C39.6186 33.0136 39.6508 33.0065 39.6822 33.0035H39.6893C39.6987 33.0035 39.7086 32.9965 39.7179 32.9965C39.7507 32.9894 39.7851 32.9864 39.8171 32.9815C39.8279 32.9815 39.8356 32.9815 39.8464 32.9815C39.8828 32.9744 39.9205 32.97 39.958 32.9629H39.9651C39.9721 32.9629 39.9728 32.9629 39.9758 32.9629C40.0509 32.9486 40.1241 32.9344 40.1982 32.9159C39.5837 32.6912 39.0692 32.1616 38.6262 31.4074" fill="#1969BC"/>
<path d="M29.8493 33.0274C30.295 33.0274 30.7452 32.9839 31.1971 32.8973C31.6152 32.8215 32.034 32.7055 32.4538 32.5593C32.8031 32.7296 33.1693 32.8562 33.5569 32.9347C33.8579 32.996 34.1705 33.0274 34.4983 33.0274H29.8493Z" fill="#1E5CB3"/>
<path d="M34.4984 33.0277C35.5988 33.0277 36.4706 32.8975 37.2111 32.5427C37.6496 32.7789 38.1283 32.9368 38.6642 33.0001C38.7428 33.0079 38.8206 33.0151 38.9018 33.0208H38.9162C38.9526 33.0208 38.9912 33.0208 39.0305 33.0278H39.047C39.0863 33.0278 39.1256 33.0278 39.164 33.0278H34.4953L34.4984 33.0277Z" fill="#1E5CB3"/>
<path d="M39.1666 33.0275C39.2095 33.0275 39.2515 33.0275 39.2935 33.0275C39.3057 33.0275 39.3199 33.0275 39.3328 33.0275C39.3613 33.0275 39.3906 33.0275 39.4212 33.0275C39.4363 33.0275 39.4505 33.0275 39.4648 33.0204C39.4927 33.0204 39.522 33.0204 39.5515 33.0134C39.5586 33.0134 39.5586 33.0134 39.5609 33.0134C39.5724 33.0134 39.583 33.0134 39.5937 33.0134C39.623 33.0134 39.6552 33.0063 39.6858 33.0035C39.6858 33.0035 39.6928 33.0035 39.6936 33.0035C39.7029 33.0035 39.7121 32.9964 39.7214 32.9964C39.7543 32.9893 39.7886 32.9865 39.8205 32.9814C39.8313 32.9814 39.8398 32.9814 39.8512 32.9743C39.8877 32.9673 39.9254 32.9636 39.963 32.9565H39.97C39.9771 32.9565 39.9778 32.9565 39.9808 32.9565C40.0559 32.9422 40.1291 32.928 40.2032 32.9094C40.4184 32.9887 40.6426 33.0289 40.8846 33.0289L39.1679 33.036L39.1666 33.0275Z" fill="#1D60B5"/>
<path d="M37.6515 29.1282V29.1211C37.1612 29.5891 36.6717 30.018 36.1831 30.4057C35.9276 30.6081 35.6731 30.7998 35.4159 30.9808C35.6311 31.2375 35.85 31.4782 36.0804 31.6976C36.4305 32.0363 36.8047 32.3216 37.213 32.5418C37.3058 32.4961 37.3987 32.4463 37.4889 32.3938C37.9051 32.1513 38.2785 31.8241 38.6313 31.3944C38.266 30.7722 37.9454 30.001 37.6533 29.1273" fill="#175FAB"/>
<path d="M52.2324 11.5117H49.9155C49.8378 11.5117 49.761 11.5117 49.6851 11.5117C49.6109 11.5117 49.5395 11.5117 49.4672 11.5117H49.4586C49.3086 11.5188 49.163 11.5239 49.0192 11.5331C48.9513 11.6785 48.8816 11.8238 48.8146 11.97C46.5183 16.8519 44.1067 21.0821 41.6585 24.4449C40.5072 27.9815 39.6622 30.1274 38.6261 31.3897C39.0691 32.144 39.5845 32.6744 40.1972 32.899C40.2151 32.892 40.2294 32.892 40.2455 32.8883C40.2455 32.8883 40.2543 32.8883 40.2554 32.8883C40.2662 32.8883 40.2777 32.8812 40.2893 32.8812C40.3143 32.8741 40.3411 32.8697 40.3661 32.8619C40.3822 32.8549 40.3956 32.8542 40.4117 32.8491C40.4349 32.842 40.459 32.8369 40.4804 32.8312C40.4948 32.8242 40.509 32.8219 40.5233 32.819C40.559 32.8075 40.5912 32.7991 40.6252 32.7884C40.6413 32.7813 40.6582 32.7755 40.6761 32.7712C40.6957 32.7642 40.7154 32.759 40.7333 32.7505C40.7538 32.7435 40.7743 32.7398 40.7922 32.732C40.8083 32.7249 40.8252 32.7205 40.8404 32.7142C40.8806 32.6999 40.9199 32.6878 40.9601 32.6721C40.9709 32.6721 40.9816 32.6622 40.9932 32.6599C41.0173 32.6498 41.0423 32.6421 41.0664 32.6314C41.0753 32.6243 41.0861 32.6236 41.0977 32.6199C41.1816 32.5849 41.2683 32.5493 41.3549 32.5103H41.3639C41.4872 32.4561 41.6123 32.3952 41.7364 32.332C45.7173 30.1121 47.727 22.6537 53.9757 11.5126H52.2305L52.2324 11.5117Z" fill="url(#paint14_linear_1347_124530)"/>
<path d="M17.676 12.0012C17.6859 12.0012 17.6948 12.0012 17.7046 12.0083C17.7286 12.0083 17.7528 12.0083 17.7769 12.016C17.7859 12.016 17.7939 12.016 17.8011 12.016C17.8448 12.0231 17.8886 12.0268 17.9332 12.0332C17.9414 12.0332 17.9484 12.0332 17.9555 12.0402C17.9921 12.0473 18.0297 12.0531 18.0672 12.0588C18.0753 12.0588 18.086 12.0658 18.0949 12.0658C18.1807 12.083 18.2682 12.1008 18.3521 12.1229C18.3601 12.1229 18.3682 12.13 18.3754 12.13C18.4111 12.1384 18.4432 12.1492 18.479 12.1592C18.4898 12.1592 18.4977 12.1662 18.5076 12.1678C18.5496 12.1786 18.5888 12.1893 18.6299 12.2028C18.6317 12.2028 18.6342 12.2028 18.6389 12.2098C18.6737 12.2204 18.7095 12.2341 18.7461 12.2462C18.7604 12.2533 18.7738 12.2563 18.7872 12.2598C18.8122 12.2706 18.84 12.2812 18.864 12.2912C18.8784 12.2912 18.8926 12.3011 18.9078 12.3062C18.9408 12.3212 18.9756 12.3347 19.0096 12.349C19.0274 12.3561 19.0426 12.364 19.0596 12.3704C19.0792 12.3805 19.0998 12.3896 19.1212 12.3968C19.1391 12.4053 19.1587 12.4146 19.1756 12.4224C19.1944 12.4325 19.2122 12.4403 19.2302 12.4503C19.6732 12.6678 20.0814 12.9576 20.4592 13.3088C20.5985 13.1626 20.7441 13.0315 20.8951 12.9139C20.0688 12.329 19.1328 11.9956 18.053 11.9956C17.9279 11.9956 17.8028 12.0027 17.676 12.012" fill="#7DCBEC"/>
<path d="M20.4595 13.2985C20.6908 13.5134 20.9123 13.7532 21.1222 14.0118C21.325 13.8709 21.526 13.7354 21.7278 13.6088C21.4634 13.3449 21.1848 13.1078 20.8945 12.9036C20.7435 13.0204 20.5988 13.1523 20.4595 13.2985Z" fill="#5EC5ED"/>
<path d="M17.6759 12.0014C17.8028 11.9907 17.9278 11.9862 18.0529 11.9862C19.1327 11.9862 20.0688 12.3196 20.895 12.9036C21.7667 12.2171 22.8207 11.9773 24.2847 11.9773H17.1954C17.3589 11.9773 17.5187 11.9871 17.6759 12.0014Z" fill="url(#paint15_linear_1347_124530)"/>
<path d="M24.2846 11.9772C22.8207 11.9772 21.7667 12.217 20.895 12.9035C21.1844 13.1076 21.463 13.3448 21.7274 13.6086C22.9413 12.8384 24.1435 12.3284 25.3287 12.1056C25.7807 12.0209 26.2318 11.9772 26.6766 11.9772H24.2846Z" fill="url(#paint16_linear_1347_124530)"/>
<path d="M41.6615 24.4519C42.2912 22.5137 43.012 20.1611 43.906 17.3073C44.7117 14.7362 46.1381 12.8141 48.8167 11.9752C48.8875 11.8317 48.9543 11.6837 49.0231 11.5383C44.6563 11.7996 42.6154 14.0167 41.5882 17.3002C39.792 23.0326 38.7041 26.7484 37.6564 29.1162C38.9944 27.8396 40.3324 26.2723 41.6615 24.4519Z" fill="url(#paint17_linear_1347_124530)"/>
<path d="M33.5205 37.8657H35.0641L37.2855 43.7223C37.4106 44.0589 37.526 44.3715 37.6317 44.66C37.7375 44.9389 37.8289 45.1889 37.9058 45.4101C38.002 45.6601 38.0837 45.8909 38.1511 46.1025H38.1799C38.2376 45.8909 38.3097 45.6601 38.3963 45.4101C38.4732 45.1889 38.5598 44.9389 38.6559 44.66C38.7521 44.3715 38.8675 44.0589 39.0022 43.7223L41.2669 37.8657H42.8104L43.3153 47.7037H42.0892L41.8439 42.2942C41.8247 41.823 41.8103 41.4239 41.8007 41.0969C41.791 40.77 41.7862 40.5007 41.7862 40.2891V39.6833H41.7574C41.6997 39.8275 41.6276 40.0247 41.541 40.2747C41.4641 40.4863 41.3631 40.7603 41.2381 41.0969C41.1227 41.4239 40.9784 41.823 40.8053 42.2942L38.7713 47.7037H37.5452L35.4968 42.2942C35.3141 41.8326 35.165 41.4383 35.0496 41.1114C34.9342 40.7748 34.8381 40.5007 34.7611 40.2891C34.6746 40.0391 34.6072 39.8371 34.5592 39.6833H34.5303C34.5399 39.8371 34.5495 40.0391 34.5592 40.2891C34.5688 40.693 34.5544 41.3614 34.5159 42.2942L34.2274 47.7037H33.0012L33.5205 37.8657Z" fill="black"/>
<path d="M43.1047 37.8657H44.3308L47.1582 46.5497H47.1726L49.9567 37.8657H51.1828L47.9083 47.7037H46.3792L43.1047 37.8657Z" fill="black"/>
<path d="M57.7736 39.2505C57.5332 39.1736 57.2783 39.1062 57.0091 39.0485C56.7398 38.9812 56.4417 38.9283 56.1147 38.8899C55.7973 38.8418 55.4607 38.8177 55.1049 38.8177C54.5279 38.8177 54.0375 38.9428 53.6335 39.1928C53.2296 39.4428 52.8979 39.765 52.6382 40.1593C52.3882 40.544 52.2054 40.9767 52.09 41.4576C51.9746 41.9384 51.9169 42.4144 51.9169 42.8857C51.9169 43.4819 51.9987 44.0253 52.1622 44.5157C52.3353 44.9966 52.5661 45.4101 52.8546 45.7563C53.1527 46.0929 53.4941 46.3525 53.8788 46.5353C54.2731 46.718 54.6866 46.8093 55.1193 46.8093C55.5233 46.8093 55.8935 46.7901 56.2301 46.7516C56.5667 46.7036 56.8552 46.6555 57.0956 46.6074C57.3745 46.5497 57.6245 46.4824 57.8457 46.4054L58.091 47.4296C57.8313 47.5162 57.5428 47.5931 57.2254 47.6604C56.9562 47.7181 56.6436 47.771 56.2878 47.8191C55.932 47.8672 55.5425 47.8912 55.1193 47.8912C54.3596 47.8912 53.6912 47.7662 53.1142 47.5162C52.5468 47.2661 52.0708 46.9199 51.6861 46.4776C51.3111 46.0256 51.0274 45.4966 50.835 44.8908C50.6427 44.2753 50.5465 43.6021 50.5465 42.8712C50.5465 42.0346 50.6619 41.2989 50.8927 40.6642C51.1235 40.0198 51.4409 39.4813 51.8448 39.0485C52.2487 38.6158 52.7296 38.2888 53.2873 38.0676C53.8451 37.8464 54.4558 37.7358 55.1193 37.7358C55.5233 37.7358 55.8983 37.7599 56.2445 37.808C56.6003 37.8464 56.9225 37.8993 57.211 37.9666C57.5091 38.034 57.7832 38.1061 58.0333 38.183L57.7736 39.2505Z" fill="black"/>
<defs>
<linearGradient id="paint0_linear_1347_124530" x1="26.2163" y1="11.8366" x2="26.2163" y2="38.2799" gradientUnits="userSpaceOnUse">
<stop stop-color="#0994DC"/>
<stop offset="0.350006" stop-color="#66CEF5"/>
<stop offset="0.846161" stop-color="#127BCA"/>
<stop offset="1" stop-color="#127BCA"/>
</linearGradient>
<linearGradient id="paint1_linear_1347_124530" x1="27.2263" y1="11.1673" x2="27.2263" y2="38.2845" gradientUnits="userSpaceOnUse">
<stop stop-color="#0E76BC"/>
<stop offset="0.360001" stop-color="#36AEE8"/>
<stop offset="0.846161" stop-color="#00ADEF"/>
<stop offset="1" stop-color="#00ADEF"/>
</linearGradient>
<linearGradient id="paint2_linear_1347_124530" x1="32.6867" y1="32.418" x2="32.6867" y2="10.8412" gradientUnits="userSpaceOnUse">
<stop stop-color="#1C63B7"/>
<stop offset="0.5" stop-color="#33BDF2"/>
<stop offset="1" stop-color="#33BDF2" stop-opacity="0.419608"/>
</linearGradient>
<linearGradient id="paint3_linear_1347_124530" x1="31.2658" y1="8.41977" x2="31.2658" y2="36.5744" gradientUnits="userSpaceOnUse">
<stop stop-color="#166AB8"/>
<stop offset="0.399994" stop-color="#36AEE8"/>
<stop offset="0.846161" stop-color="#0798DD"/>
<stop offset="1" stop-color="#0798DD"/>
</linearGradient>
<linearGradient id="paint4_linear_1347_124530" x1="29.0422" y1="8.56757" x2="29.0422" y2="38.5063" gradientUnits="userSpaceOnUse">
<stop stop-color="#124379"/>
<stop offset="0.389999" stop-color="#1487CB"/>
<stop offset="0.780228" stop-color="#165197"/>
<stop offset="1" stop-color="#165197"/>
</linearGradient>
<linearGradient id="paint5_linear_1347_124530" x1="16.9952" y1="17.7581" x2="21.236" y2="17.7581" gradientUnits="userSpaceOnUse">
<stop stop-color="#33BDF2" stop-opacity="0.698039"/>
<stop offset="1" stop-color="#1DACD8"/>
</linearGradient>
<linearGradient id="paint6_linear_1347_124530" x1="48.8451" y1="31.8774" x2="48.8451" y2="10.8587" gradientUnits="userSpaceOnUse">
<stop stop-color="#136AB4"/>
<stop offset="0.6" stop-color="#59CAF5" stop-opacity="0.54902"/>
<stop offset="1" stop-color="#59CAF5" stop-opacity="0.235294"/>
</linearGradient>
<linearGradient id="paint7_linear_1347_124530" x1="1.94608" y1="22.7808" x2="17.676" y2="22.7808" gradientUnits="userSpaceOnUse">
<stop stop-color="#05A1E6" stop-opacity="0.247059"/>
<stop offset="1" stop-color="#05A1E6"/>
</linearGradient>
<linearGradient id="paint8_linear_1347_124530" x1="10.658" y1="32.4065" x2="10.658" y2="10.885" gradientUnits="userSpaceOnUse">
<stop stop-color="#318ED5"/>
<stop offset="1" stop-color="#38A7E4"/>
</linearGradient>
<linearGradient id="paint9_linear_1347_124530" x1="12.0151" y1="32.4826" x2="12.0151" y2="11.5625" gradientUnits="userSpaceOnUse">
<stop stop-color="#05A1E6"/>
<stop offset="1" stop-color="#05A1E6" stop-opacity="0.54902"/>
</linearGradient>
<linearGradient id="paint10_linear_1347_124530" x1="13.142" y1="33.5497" x2="13.142" y2="15.8719" gradientUnits="userSpaceOnUse">
<stop stop-color="#1959A6"/>
<stop offset="0.5" stop-color="#05A1E6"/>
<stop offset="0.917587" stop-color="#7EC5EA"/>
<stop offset="1" stop-color="#7EC5EA"/>
</linearGradient>
<linearGradient id="paint11_linear_1347_124530" x1="13.8207" y1="32.4206" x2="10.4469" y2="13.2507" gradientUnits="userSpaceOnUse">
<stop stop-color="#165096"/>
<stop offset="1" stop-color="#0D82CA"/>
</linearGradient>
<linearGradient id="paint12_linear_1347_124530" x1="45.2391" y1="21.5807" x2="45.2391" y2="11.5638" gradientUnits="userSpaceOnUse">
<stop stop-color="#05A1E6"/>
<stop offset="0.873627" stop-color="#0495D6"/>
<stop offset="1" stop-color="#0495D6"/>
</linearGradient>
<linearGradient id="paint13_linear_1347_124530" x1="49.9562" y1="10.6379" x2="45.8905" y2="33.739" gradientUnits="userSpaceOnUse">
<stop stop-color="#38A7E4" stop-opacity="0.329412"/>
<stop offset="0.961533" stop-color="#0E88D3"/>
<stop offset="1" stop-color="#0E88D3"/>
</linearGradient>
<linearGradient id="paint14_linear_1347_124530" x1="46.3035" y1="11.4485" x2="46.3035" y2="33.3015" gradientUnits="userSpaceOnUse">
<stop stop-color="#168CD4"/>
<stop offset="0.5" stop-color="#1C87CC"/>
<stop offset="1" stop-color="#154B8D"/>
</linearGradient>
<linearGradient id="paint15_linear_1347_124530" x1="18.3775" y1="10.9995" x2="23.4179" y2="13.094" gradientUnits="userSpaceOnUse">
<stop stop-color="#97D6EE"/>
<stop offset="0.703293" stop-color="#55C1EA"/>
<stop offset="1" stop-color="#55C1EA"/>
</linearGradient>
<linearGradient id="paint16_linear_1347_124530" x1="21.2933" y1="13.5059" x2="25.2739" y2="11.6979" gradientUnits="userSpaceOnUse">
<stop stop-color="#7ACCEC"/>
<stop offset="1" stop-color="#3FB7ED"/>
</linearGradient>
<linearGradient id="paint17_linear_1347_124530" x1="43.3394" y1="12.6568" x2="43.3394" y2="34.0313" gradientUnits="userSpaceOnUse">
<stop stop-color="#1DA7E7"/>
<stop offset="1" stop-color="#37ABE7" stop-opacity="0"/>
</linearGradient>
</defs>
</svg>
