<svg width="60" height="60" viewBox="0 0 60 60" fill="none" xmlns="http://www.w3.org/2000/svg">
<path fill-rule="evenodd" clip-rule="evenodd" d="M12.8843 30.686C12.8843 30.4418 12.7486 30.2113 12.5316 30.0892L6.78119 26.78C6.68626 26.7257 6.57776 26.6986 6.46926 26.6851H6.41501C6.30651 26.6851 6.19801 26.7257 6.10308 26.78L0.352622 30.0892C0.135624 30.2113 0 30.4418 0 30.686L0.0135624 39.5829C0.0135624 39.705 0.0813743 39.827 0.189873 39.8813C0.298373 39.9491 0.433996 39.9491 0.528933 39.8813L3.94666 37.9283C4.16365 37.8062 4.29928 37.5757 4.29928 37.3315V33.1679C4.29928 32.9238 4.4349 32.6932 4.6519 32.5711L6.10308 31.7303C6.21157 31.6625 6.33364 31.6353 6.4557 31.6353C6.57776 31.6353 6.69982 31.6625 6.79476 31.7303L8.24593 32.5711C8.46293 32.6932 8.59856 32.9238 8.59856 33.1679V37.3315C8.59856 37.5757 8.73418 37.8062 8.95118 37.9283L12.3689 39.8813C12.4774 39.9491 12.613 39.9491 12.7215 39.8813C12.83 39.827 12.8978 39.705 12.8978 39.5829L12.8843 30.686Z" fill="#333333"/>
<path fill-rule="evenodd" clip-rule="evenodd" d="M40.5244 18.4391C40.4159 18.3849 40.2802 18.3849 40.1853 18.4391C40.0768 18.5069 40.009 18.6154 40.009 18.7375V27.5531C40.009 27.6344 39.9683 27.7158 39.8869 27.77C39.8056 27.8107 39.7242 27.8107 39.6428 27.77L38.2052 26.9427C37.9882 26.8207 37.7305 26.8207 37.5135 26.9427L31.7631 30.2655C31.5461 30.3876 31.4104 30.6182 31.4104 30.8623V37.4943C31.4104 37.7384 31.5461 37.969 31.7631 38.091L37.5135 41.4138C37.7305 41.5359 37.9882 41.5359 38.2052 41.4138L43.9556 38.091C44.1726 37.969 44.3083 37.7384 44.3083 37.4943V20.9617C44.3083 20.704 44.1726 20.4735 43.9556 20.3514L40.5244 18.4391ZM39.9954 35.3107C39.9954 35.3785 39.9682 35.4328 39.914 35.4599L37.9475 36.5992C37.8932 36.6263 37.8254 36.6263 37.7711 36.5992L35.8046 35.4599C35.7503 35.4328 35.7232 35.365 35.7232 35.3107V33.0323C35.7232 32.9644 35.7503 32.9102 35.8046 32.8831L37.7711 31.7438C37.8254 31.7167 37.8932 31.7167 37.9475 31.7438L39.914 32.8831C39.9682 32.9102 39.9954 32.978 39.9954 33.0323V35.3107Z" fill="#333333"/>
<path fill-rule="evenodd" clip-rule="evenodd" d="M59.6609 32.978C59.8779 32.8559 60 32.6253 60 32.3812V30.7673C60 30.5232 59.8644 30.2926 59.6609 30.1705L53.9512 26.8613C53.7342 26.7393 53.4765 26.7393 53.2595 26.8613L47.509 30.1841C47.292 30.3062 47.1564 30.5367 47.1564 30.7809V37.4129C47.1564 37.657 47.292 37.8875 47.509 38.0096L53.2188 41.2646C53.4358 41.3866 53.6935 41.3866 53.8969 41.2646L57.3553 39.3387C57.4638 39.2845 57.5316 39.1624 57.5316 39.0403C57.5316 38.9183 57.4638 38.7962 57.3553 38.742L51.5777 35.4192C51.4692 35.3514 51.4014 35.2429 51.4014 35.1208V33.0458C51.4014 32.9237 51.4692 32.8016 51.5777 32.7474L53.3815 31.7167C53.49 31.6488 53.6257 31.6488 53.7342 31.7167L55.538 32.7474C55.6465 32.8152 55.7143 32.9237 55.7143 33.0458V34.6733C55.7143 34.7953 55.7821 34.9174 55.8906 34.9716C55.9991 35.0394 56.1347 35.0394 56.2432 34.9716L59.6609 32.978Z" fill="#333333"/>
<path fill-rule="evenodd" clip-rule="evenodd" d="M53.5172 32.6661C53.5579 32.639 53.6121 32.639 53.6528 32.6661L54.7513 33.3035C54.792 33.3307 54.8192 33.3713 54.8192 33.4256V34.7005C54.8192 34.7547 54.792 34.7954 54.7513 34.8225L53.6528 35.4599C53.6121 35.4871 53.5579 35.4871 53.5172 35.4599L52.4186 34.8225C52.3779 34.7954 52.3508 34.7547 52.3508 34.7005V33.4256C52.3508 33.3713 52.3779 33.3307 52.4186 33.3035L53.5172 32.6661Z" fill="#539E43"/>
<path fill-rule="evenodd" clip-rule="evenodd" d="M22.5 26.8884C22.283 26.7664 22.0253 26.7664 21.8083 26.8884L16.0986 30.1841C15.8816 30.3061 15.7595 30.5367 15.7595 30.7808V37.3857C15.7595 37.6298 15.8951 37.8604 16.0986 37.9825L21.8083 41.2781C22.0253 41.4002 22.283 41.4002 22.5 41.2781L28.2098 37.9825C28.4268 37.8604 28.5488 37.6298 28.5488 37.3857V30.7808C28.5488 30.5367 28.4132 30.3061 28.2098 30.1841L22.5 26.8884Z" fill="white"/>
<path fill-rule="evenodd" clip-rule="evenodd" d="M22.5 26.8884C22.283 26.7664 22.0253 26.7664 21.8083 26.8884L16.0986 30.1841C15.8816 30.3061 15.7595 30.5367 15.7595 30.7808V37.3857C15.7595 37.6298 15.8951 37.8604 16.0986 37.9825L21.8083 41.2781C22.0253 41.4002 22.283 41.4002 22.5 41.2781L28.2098 37.9825C28.4268 37.8604 28.5488 37.6298 28.5488 37.3857V30.7808C28.5488 30.5367 28.4132 30.3061 28.2098 30.1841L22.5 26.8884Z" fill="url(#paint0_linear_1347_124403)"/>
<mask id="mask0_1347_124403" style="mask-type:luminance" maskUnits="userSpaceOnUse" x="15" y="26" width="14" height="16">
<path fill-rule="evenodd" clip-rule="evenodd" d="M22.5 26.8884C22.283 26.7664 22.0253 26.7664 21.8083 26.8884L16.0986 30.1841C15.8816 30.3061 15.7595 30.5367 15.7595 30.7808V37.3857C15.7595 37.6298 15.8951 37.8604 16.0986 37.9825L21.8083 41.2781C22.0253 41.4002 22.283 41.4002 22.5 41.2781L28.2098 37.9825C28.4268 37.8604 28.5488 37.6298 28.5488 37.3857V30.7808C28.5488 30.5367 28.4132 30.3061 28.2098 30.1841L22.5 26.8884Z" fill="white"/>
</mask>
<g mask="url(#mask0_1347_124403)">
<path fill-rule="evenodd" clip-rule="evenodd" d="M28.2234 30.184L22.4865 26.8884C22.4323 26.8612 22.3645 26.8341 22.3102 26.8206L15.8817 37.8332C15.9359 37.901 16.0037 37.9553 16.0715 37.996L21.8084 41.2916C21.9712 41.3866 22.161 41.4137 22.3374 41.3594L28.3726 30.3197C28.3319 30.2654 28.2777 30.2247 28.2234 30.184Z" fill="url(#paint1_linear_1347_124403)"/>
</g>
<mask id="mask1_1347_124403" style="mask-type:luminance" maskUnits="userSpaceOnUse" x="15" y="26" width="14" height="16">
<path fill-rule="evenodd" clip-rule="evenodd" d="M22.5 26.8884C22.283 26.7664 22.0253 26.7664 21.8083 26.8884L16.0986 30.1841C15.8816 30.3061 15.7595 30.5367 15.7595 30.7808V37.3857C15.7595 37.6298 15.8951 37.8604 16.0986 37.9825L21.8083 41.2781C22.0253 41.4002 22.283 41.4002 22.5 41.2781L28.2098 37.9825C28.4268 37.8604 28.5488 37.6298 28.5488 37.3857V30.7808C28.5488 30.5367 28.4132 30.3061 28.2098 30.1841L22.5 26.8884Z" fill="white"/>
</mask>
<g mask="url(#mask1_1347_124403)">
<path fill-rule="evenodd" clip-rule="evenodd" d="M28.2369 37.9824C28.3997 37.8875 28.5217 37.7247 28.576 37.5484L22.283 26.807C22.1203 26.7799 21.944 26.7935 21.7948 26.8884L16.0986 30.1705L22.2423 41.373C22.3237 41.3595 22.4186 41.3323 22.5 41.2916L28.2369 37.9824Z" fill="url(#paint2_linear_1347_124403)"/>
<path fill-rule="evenodd" clip-rule="evenodd" d="M28.2369 37.9825L22.5136 41.2781C22.4322 41.3188 22.3508 41.3459 22.2559 41.3595L22.3644 41.5629L28.7116 37.8875V37.8062L28.5488 37.5349C28.5217 37.7248 28.3997 37.8875 28.2369 37.9825Z" fill="url(#paint3_linear_1347_124403)"/>
<path fill-rule="evenodd" clip-rule="evenodd" d="M28.2369 37.9825L22.5136 41.2781C22.4322 41.3188 22.3508 41.3459 22.2559 41.3595L22.3644 41.5629L28.7116 37.8875V37.8062L28.5488 37.5349C28.5217 37.7248 28.3997 37.8875 28.2369 37.9825Z" fill="url(#paint4_linear_1347_124403)"/>
</g>
<defs>
<linearGradient id="paint0_linear_1347_124403" x1="20.9209" y1="27.4927" x2="14.8432" y2="34.8479" gradientUnits="userSpaceOnUse">
<stop stop-color="#41873F"/>
<stop offset="0.3288" stop-color="#418B3D"/>
<stop offset="0.6352" stop-color="#419637"/>
<stop offset="0.9319" stop-color="#3FA92D"/>
<stop offset="1" stop-color="#3FAE2A"/>
</linearGradient>
<linearGradient id="paint1_linear_1347_124403" x1="24.6616" y1="43.1038" x2="39.8648" y2="37.0301" gradientUnits="userSpaceOnUse">
<stop offset="0.1376" stop-color="#41873F"/>
<stop offset="0.4032" stop-color="#54A044"/>
<stop offset="0.7136" stop-color="#66B848"/>
<stop offset="0.9081" stop-color="#6CC04A"/>
</linearGradient>
<linearGradient id="paint2_linear_1347_124403" x1="15.551" y1="41.8018" x2="28.763" y2="41.8018" gradientUnits="userSpaceOnUse">
<stop offset="0.0919165" stop-color="#6CC04A"/>
<stop offset="0.2864" stop-color="#66B848"/>
<stop offset="0.5968" stop-color="#54A044"/>
<stop offset="0.8624" stop-color="#41873F"/>
</linearGradient>
<linearGradient id="paint3_linear_1347_124403" x1="15.551" y1="43.6819" x2="28.763" y2="43.6819" gradientUnits="userSpaceOnUse">
<stop offset="0.0919165" stop-color="#6CC04A"/>
<stop offset="0.2864" stop-color="#66B848"/>
<stop offset="0.5968" stop-color="#54A044"/>
<stop offset="0.8624" stop-color="#41873F"/>
</linearGradient>
<linearGradient id="paint4_linear_1347_124403" x1="14.1893" y1="28.0433" x2="12.9436" y2="44.8091" gradientUnits="userSpaceOnUse">
<stop stop-color="#41873F"/>
<stop offset="0.3288" stop-color="#418B3D"/>
<stop offset="0.6352" stop-color="#419637"/>
<stop offset="0.9319" stop-color="#3FA92D"/>
<stop offset="1" stop-color="#3FAE2A"/>
</linearGradient>
</defs>
</svg>
