<svg width="60" height="60" viewBox="0 0 60 60" fill="none" xmlns="http://www.w3.org/2000/svg">
<ellipse cx="30" cy="29.935" rx="29.2969" ry="15.4037" fill="url(#paint0_radial_1347_124459)"/>
<ellipse cx="30" cy="29.9351" rx="28.1525" ry="14.2593" fill="#6181B6"/>
<path fill-rule="evenodd" clip-rule="evenodd" d="M35.6992 34.5584L37.0954 27.3715C37.4158 25.7465 37.1411 24.5334 36.3172 23.7781C35.5161 23.0457 34.1428 22.6794 32.1286 22.6794H29.7025L30.3891 19.1089C30.412 18.9716 30.3891 18.8342 30.2976 18.7198C30.206 18.6053 30.0916 18.5596 29.9542 18.5596H26.6126C26.3837 18.5596 26.2006 18.7198 26.1548 18.9258L24.6671 26.5475C24.5297 25.6778 24.2093 24.9454 23.66 24.3503C22.6758 23.2288 21.1423 22.6566 19.0595 22.6566H12.6279C12.399 22.6566 12.2159 22.8168 12.1701 23.0228L9.17177 38.4952C9.14888 38.6325 9.17177 38.7698 9.26332 38.8843C9.35487 38.9987 9.46931 39.0445 9.60664 39.0445H12.9712C13.2001 39.0445 13.3832 38.8843 13.429 38.6783L14.1614 34.9475H16.6562C17.9608 34.9475 19.0824 34.8102 19.9292 34.5355C20.8219 34.238 21.6229 33.7573 22.3325 33.0936C22.9047 32.5671 23.3853 31.972 23.7515 31.3312L23.1564 34.4211C23.1336 34.5584 23.1564 34.6957 23.248 34.8102C23.3396 34.9246 23.454 34.9704 23.5913 34.9704H26.933C27.1619 34.9704 27.345 34.8102 27.3908 34.6042L29.0387 26.1356H31.3275C32.3117 26.1356 32.5864 26.3187 32.6779 26.4102C32.7466 26.4789 32.8839 26.7535 32.7237 27.6004L31.3962 34.444C31.3733 34.5813 31.3962 34.7186 31.4877 34.8331C31.5793 34.9475 31.6937 34.9933 31.8311 34.9933H35.2643C35.4703 34.9246 35.6534 34.7644 35.6992 34.5584ZM20.2268 28.6075C20.0208 29.6832 19.6317 30.4614 19.0595 30.8963C18.4873 31.3312 17.5488 31.5601 16.3129 31.5601H14.8251L15.9009 26.0211H17.8235C19.2426 26.0211 19.8148 26.3187 20.0437 26.5704C20.3412 26.9366 20.4099 27.6462 20.2268 28.6075Z" fill="white"/>
<path fill-rule="evenodd" clip-rule="evenodd" d="M49.9814 24.3502C48.9972 23.2287 47.4637 22.6565 45.3809 22.6565H38.9035C38.6746 22.6565 38.4915 22.8167 38.4458 23.0227L35.4474 38.4722C35.4245 38.6096 35.4474 38.7469 35.539 38.8613C35.6305 38.9758 35.7449 39.0215 35.8823 39.0215H39.2468C39.4757 39.0215 39.6588 38.8613 39.7046 38.6553L40.437 34.9246H42.9318C44.2365 34.9246 45.358 34.7872 46.2049 34.5126C47.0975 34.215 47.8986 33.7344 48.6081 33.0706C49.2032 32.5213 49.7067 31.9033 50.073 31.2396C50.4392 30.5758 50.7138 29.8434 50.874 29.0423C51.2631 27.051 50.9656 25.4946 49.9814 24.3502ZM46.4795 28.6074C46.2735 29.6832 45.8844 30.4614 45.3122 30.8962C44.74 31.3311 43.8016 31.56 42.5656 31.56H41.0779L42.1536 26.0211H44.0762C45.4953 26.0211 46.0675 26.3186 46.2964 26.5704C46.6168 26.9366 46.6855 27.6461 46.4795 28.6074Z" fill="white"/>
<path fill-rule="evenodd" clip-rule="evenodd" d="M17.8235 25.5633C19.1052 25.5633 19.9521 25.7922 20.387 26.2728C20.8218 26.7535 20.9134 27.5546 20.6845 28.699C20.4556 29.8892 19.9979 30.7589 19.3341 31.2625C18.6703 31.766 17.6633 32.0178 16.3129 32.0178H14.2758L15.5347 25.5633H17.8235ZM9.62952 38.5638H12.9941L13.7952 34.4668H16.6791C17.9608 34.4668 18.9908 34.3295 19.8148 34.0548C20.6387 33.7802 21.3712 33.3453 22.0578 32.7044C22.63 32.178 23.0878 31.6058 23.4311 30.9878C23.7744 30.3698 24.0262 29.6832 24.1635 28.9279C24.5297 27.0968 24.2551 25.6777 23.3624 24.6478C22.4698 23.6178 21.0507 23.1143 19.1052 23.1143H12.6279L9.62952 38.5638Z" fill="#000004"/>
<path fill-rule="evenodd" clip-rule="evenodd" d="M26.6354 19.0173H29.9771L29.176 23.1143H32.1515C34.0283 23.1143 35.3101 23.4348 36.0196 24.0985C36.7291 24.7623 36.9351 25.8151 36.6605 27.28L35.2643 34.4669H31.8768L33.2043 27.6233C33.3646 26.8451 33.2959 26.3187 33.0441 26.044C32.7924 25.7693 32.2202 25.6091 31.3733 25.6091H28.6954L26.9788 34.4669H23.6371L26.6354 19.0173Z" fill="#000004"/>
<path fill-rule="evenodd" clip-rule="evenodd" d="M44.0762 25.5633C45.358 25.5633 46.2048 25.7922 46.6397 26.2728C47.0746 26.7535 47.1661 27.5546 46.9373 28.699C46.7084 29.8892 46.2506 30.7589 45.5869 31.2625C44.9231 31.766 43.916 32.0178 42.5656 32.0178H40.5286L41.7874 25.5633H44.0762ZM35.8823 38.5638H39.2468L40.0479 34.4668H42.9318C44.2136 34.4668 45.2435 34.3295 46.0675 34.0548C46.8915 33.7802 47.6239 33.3453 48.3105 32.7044C48.8828 32.178 49.3405 31.6058 49.6838 30.9878C50.0272 30.3698 50.2789 29.6832 50.4163 28.9279C50.7825 27.0968 50.5078 25.6777 49.6152 24.6478C48.7225 23.6178 47.3035 23.1143 45.358 23.1143H38.8806L35.8823 38.5638Z" fill="#000004"/>
<defs>
<radialGradient id="paint0_radial_1347_124459" cx="0" cy="0" r="1" gradientUnits="userSpaceOnUse" gradientTransform="translate(18.2931 19.9484) scale(83.097 43.6909)">
<stop stop-color="white"/>
<stop offset="0.5" stop-color="#4C6B97"/>
<stop offset="1" stop-color="#231F20"/>
</radialGradient>
</defs>
</svg>
