<svg width="60" height="60" viewBox="0 0 60 60" fill="none" xmlns="http://www.w3.org/2000/svg">
<path fill-rule="evenodd" clip-rule="evenodd" d="M7.99294 58.4913C7.99294 58.4913 8.08112 44.6448 8.08112 30.5689C8.08112 3.30486 5.78381 1.27417 18.0168 1.27417H52.0666V40.6C52.0666 53.5458 54.4865 58.6171 40.8817 58.6171C27.2769 58.6171 7.99294 58.4913 7.99294 58.4913Z" fill="#A62C39"/>
<path fill-rule="evenodd" clip-rule="evenodd" d="M36.0662 6.41748C36.0662 6.41748 38.2481 6.85385 40.139 10.0539C42.03 13.254 52.0666 38.1272 52.0666 38.1272V17.9086L42.7573 2.78104L45.3755 5.98111L50.3211 1.9083L43.9209 1.47192L36.0662 6.41748Z" fill="url(#paint0_linear_1347_124483)"/>
<path opacity="0.668224" fill-rule="evenodd" clip-rule="evenodd" d="M16.7203 1.61738C16.7203 1.61738 31.1206 11.2176 38.1026 13.1085C45.0845 14.9995 52.212 17.0415 52.212 17.0415L35.7753 57.764L42.9027 58.0549L52.212 35.2205L51.9211 1.47192L16.7203 1.61738Z" fill="url(#paint1_radial_1347_124483)"/>
<path fill-rule="evenodd" clip-rule="evenodd" d="M30.1024 44.5273L44.7364 58.5933L17.1567 58.3458C17.1567 58.3458 16.284 49.4729 16.5749 44.8182C16.8658 40.1636 18.3204 40.1636 18.3204 40.1636L30.1024 44.5273Z" fill="white" fill-opacity="0.439614"/>
<path fill-rule="evenodd" clip-rule="evenodd" d="M43.9209 58.6368L30.3934 44.6729L18.0295 40.0182L8.42929 18.636L18.6113 1.61743L12.0886 1.61743L9.01112 3.94475L7.99292 5.98116L7.99292 58.6368H43.9209Z" fill="black" fill-opacity="0.362319"/>
<path opacity="0.5" fill-rule="evenodd" clip-rule="evenodd" d="M52.212 36.3818C52.212 36.3818 38.539 40.7456 30.3934 44.8184C22.2478 48.8912 17.884 58.7823 17.884 58.7823C17.884 58.7823 35.3389 57.9095 41.8845 58.2005C48.4301 58.4914 51.4847 58.4914 52.0665 49.3276C52.6484 40.1637 52.212 36.3818 52.212 36.3818Z" fill="#83222D"/>
<path fill-rule="evenodd" clip-rule="evenodd" d="M12.2076 45.0688V53.6598H14.3988V51.4222L16.3929 53.4163H19.7551L17.0885 50.7498C17.0885 50.7498 19.0069 50.7188 19.1522 47.9441C19.1522 45.3986 17.2315 45.0688 15.0133 45.0688H12.2076ZM14.5031 47.3992H16.3929V48.9295H14.5031V47.3992Z" fill="white"/>
<path fill-rule="evenodd" clip-rule="evenodd" d="M23.9868 45.1035C22.7871 45.0968 21.1231 45.208 21.1231 47.4686V53.4394H23.3723V51.9786H25.5519V53.4046H27.8127V47.144C27.8127 45.1803 25.631 45.1035 24.4621 45.1035C24.316 45.1035 24.1581 45.1046 23.9868 45.1035ZM23.4071 47.26H25.5171V49.6135H23.4071V47.26Z" fill="white"/>
<rect x="30.0661" y="45.1091" width="2.32732" height="8.21835" fill="white"/>
<path fill-rule="evenodd" clip-rule="evenodd" d="M34.8298 45.2183V53.4366H40.4299V51.2547H37.1208V45.1819L34.8298 45.2183Z" fill="white"/>
<path fill-rule="evenodd" clip-rule="evenodd" d="M47.8483 45.1455V47.3637H44.1028V48.1637H45.7028C46.5392 48.1637 48.2847 48.1274 48.2847 50.7456C48.2847 53.3638 47.0846 53.5093 44.6482 53.5093H41.7027V51.5093H45.0846C46.1028 51.5093 46.159 51.1778 46.159 50.889C46.159 50.6002 45.6384 50.4658 44.5797 50.4658C43.5209 50.4658 41.5573 49.9456 41.5573 47.9092C41.5573 45.8728 42.5755 45.1091 44.6119 45.1091C46.6483 45.1091 47.8483 45.1455 47.8483 45.1455V45.1455Z" fill="white"/>
<path fill-rule="evenodd" clip-rule="evenodd" d="M14.2476 42.6364H33.5934C33.5934 42.6364 29.3024 32.8907 30.3934 23.9451C31.4843 14.9994 38.539 10.9266 42.5391 10.4903C46.5391 10.0539 48.721 12.5267 48.721 12.5267L49.5937 11.2175C49.5937 11.2175 43.8482 5.39924 36.5753 6.0538C29.3024 6.70836 24.2841 11.5085 21.1568 17.3268C18.0295 23.1451 16.2112 27.2179 14.9749 33.3271C13.7385 39.4363 14.2476 42.6364 14.2476 42.6364Z" fill="white"/>
<path fill-rule="evenodd" clip-rule="evenodd" d="M10.393 32.8909L14.1749 33.1818L13.5203 36.9637L9.9566 36.5273L10.393 32.8909Z" fill="white"/>
<path fill-rule="evenodd" clip-rule="evenodd" d="M16.3567 24.8907L17.3749 22.0542L14.0294 20.7451L12.9385 23.7997L16.3567 24.8907Z" fill="white"/>
<path fill-rule="evenodd" clip-rule="evenodd" d="M21.0841 15.1449L23.0478 12.8175L20.5023 11.1448L18.4659 13.3994L21.0841 15.1449Z" fill="white"/>
<path fill-rule="evenodd" clip-rule="evenodd" d="M26.2479 6.12653L27.9934 8.23566L30.3934 6.85381L28.6479 4.89014L26.2479 6.12653Z" fill="white"/>
<path fill-rule="evenodd" clip-rule="evenodd" d="M34.7571 3.72656L35.1935 5.8357L38.1753 5.76296L37.8844 3.87202L34.7571 3.72656Z" fill="white"/>
<path fill-rule="evenodd" clip-rule="evenodd" d="M44.8664 5.9812L44.7937 7.29032L46.8301 8.38125L47.2665 7.72669L44.8664 5.9812Z" fill="white"/>
<path fill-rule="evenodd" clip-rule="evenodd" d="M44.4301 11.5813V12.6722L46.3937 12.8904V12.0177L44.4301 11.5813Z" fill="white"/>
<path fill-rule="evenodd" clip-rule="evenodd" d="M38.1754 12.5267L39.1208 14.2722L40.5027 13.1812L40.2118 12.0176L38.1754 12.5267Z" fill="white"/>
<path fill-rule="evenodd" clip-rule="evenodd" d="M35.1935 14.7812L36.6481 16.9631L35.7753 18.4904L33.6662 16.1631L35.1935 14.7812Z" fill="white"/>
<path fill-rule="evenodd" clip-rule="evenodd" d="M32.2843 20.8179L31.3389 22.7088L33.8116 24.818L34.3935 22.4179L32.2843 20.8179Z" fill="white"/>
<path fill-rule="evenodd" clip-rule="evenodd" d="M31.2661 27.436L31.1207 29.9815L34.1753 31.2907L34.0298 28.8906L31.2661 27.436Z" fill="white"/>
<path fill-rule="evenodd" clip-rule="evenodd" d="M32.1389 36.4546L32.8661 39.0728L36.7208 39.291L35.3389 36.4546H32.1389Z" fill="white"/>
<path fill-rule="evenodd" clip-rule="evenodd" d="M8.54938 58.4947C8.54955 58.4676 8.54955 58.4676 8.55037 58.3357C8.55149 58.1529 8.55149 58.1529 8.55317 57.872C8.55619 57.3643 8.55954 56.775 8.56316 56.1108C8.5735 54.213 8.58383 52.0953 8.59348 49.8108C8.62104 43.2837 8.63757 36.7278 8.63757 30.5688C8.63757 27.3951 8.61033 24.6237 8.55188 20.7459C8.37328 8.89734 8.45918 6.64068 9.44816 4.51125C10.4417 2.37208 12.3069 1.83052 18.0167 1.83052H52.0665L51.51 1.27403V40.5999C51.51 41.8068 51.5231 42.8482 51.5546 44.6023C51.6763 51.363 51.5266 53.2853 50.4354 55.0671C49.159 57.151 46.4114 58.0605 40.8816 58.0605C37.7595 58.0605 34.0867 58.0533 29.9756 58.0399C26.6687 58.0292 23.1633 58.0148 19.5563 57.9976C16.6715 57.9838 13.8858 57.9691 11.3036 57.9543C10.3998 57.9492 9.58604 57.9444 8.8753 57.9401C8.62655 57.9386 8.48114 57.9377 8.22262 57.9361C8.03518 57.9349 8.03518 57.9349 7.99642 57.9347L8.54938 58.4947ZM7.43286 59.0441L7.98937 59.0477C8.02821 59.0479 8.02821 59.0479 8.21573 59.0491C8.47433 59.0507 8.61976 59.0516 8.86857 59.0531C9.57943 59.0574 10.3933 59.0622 11.2972 59.0673C13.8798 59.0821 16.6658 59.0968 19.551 59.1106C23.1586 59.1278 26.6645 59.1422 29.9719 59.1529C34.0842 59.1663 37.7581 59.1735 40.8816 59.1735C46.7601 59.1735 49.8524 58.15 51.3845 55.6484C52.6397 53.5989 52.794 51.6172 52.6675 44.5822C52.636 42.8344 52.623 41.7984 52.623 40.5999V1.27403V0.717529H52.0665H18.0167C11.8943 0.717529 9.68501 1.35897 8.43872 4.04243C7.81575 5.38377 7.51472 7.24083 7.40551 10.1098C7.32135 12.321 7.33013 13.5396 7.43901 20.7627C7.49738 24.6354 7.52458 27.4018 7.52458 30.5688C7.52458 36.7261 7.50805 43.2804 7.48049 49.8061C7.47085 52.0901 7.46051 54.2074 7.45018 56.1047C7.44657 56.7687 7.44321 57.3579 7.44019 57.8654C7.43852 58.1462 7.43852 58.1462 7.4374 58.3288C7.43658 58.4606 7.43286 59.0441 7.43286 59.0441Z" fill="#5E000E"/>
<defs>
<linearGradient id="paint0_linear_1347_124483" x1="41.9289" y1="32.9408" x2="52.4981" y2="32.7398" gradientUnits="userSpaceOnUse">
<stop stop-color="white"/>
<stop offset="1" stop-color="#C0815E"/>
</linearGradient>
<radialGradient id="paint1_radial_1347_124483" cx="0" cy="0" r="1" gradientUnits="userSpaceOnUse" gradientTransform="translate(34.4662 29.7634) scale(17.9306 28.586)">
<stop stop-color="white"/>
<stop offset="1" stop-color="#A94436"/>
</radialGradient>
</defs>
</svg>
