<svg width="60" height="60" viewBox="0 0 60 60" fill="none" xmlns="http://www.w3.org/2000/svg">
<path d="M54.2448 43.2017C46.8898 53.0534 31.1785 49.728 21.1055 50.2063C21.1055 50.2063 19.3223 50.3061 17.5262 50.6033C17.5262 50.6033 18.2053 50.312 19.0715 50.0118C26.1462 47.5522 29.4896 47.058 33.7884 44.8381C41.8655 40.6786 49.904 31.6182 51.5396 22.2062C48.4653 31.2585 39.1148 39.0496 30.6009 42.2133C24.7735 44.3751 14.2351 46.479 14.2336 46.4799C14.2386 46.4874 13.8136 46.2581 13.8077 46.2532C6.6408 42.7477 6.434 27.1427 19.4505 22.1124C25.1575 19.9054 30.6164 21.1176 36.7858 19.6413C43.3659 18.0685 50.9868 13.1101 54.0844 6.62743C57.557 16.9824 61.7286 33.1828 54.2448 43.2017ZM54.3726 3.4187C53.497 5.51001 52.4285 7.39453 51.1966 9.08012C45.7744 3.48565 38.2062 0 29.8409 0C13.3857 0 0 13.4585 0 29.9983C0 38.669 3.68144 46.4889 9.55081 51.9703L10.2043 52.5523C9.11303 51.6577 8.94522 50.0465 9.82967 48.9485C10.7195 47.8499 12.3236 47.6798 13.4154 48.5694C14.5101 49.461 14.6769 51.0761 13.7905 52.1762C12.9075 53.2767 11.3005 53.4429 10.2072 52.5548L10.6519 52.9507C15.8437 57.3454 22.5362 60 29.8409 60C45.5696 60 58.485 47.6946 59.5905 32.1631C60.4093 24.5585 58.175 14.9024 54.3726 3.4187Z" fill="#5FB832"/>
</svg>
