<svg width="60" height="60" viewBox="0 0 60 60" fill="none" xmlns="http://www.w3.org/2000/svg">
<g clip-path="url(#clip0_1347_124271)">
<path d="M22.2202 46.4014C22.2202 46.4014 19.9274 47.7347 23.852 48.1859C28.6065 48.7283 31.0365 48.6506 36.2761 47.6589C36.2761 47.6589 37.6536 48.5226 39.5774 49.2708C27.8317 54.3047 12.9946 48.9792 22.2202 46.4014Z" fill="#5382A1"/>
<path d="M20.7853 39.8323C20.7853 39.8323 18.2136 41.7359 22.1412 42.1421C27.2201 42.6661 31.2311 42.7089 38.1716 41.3725C38.1716 41.3725 39.1315 42.3457 40.641 42.8779C26.4398 47.0306 10.6222 43.2054 20.7853 39.8323Z" fill="#5382A1"/>
<path d="M32.8848 28.6891C35.7789 32.0212 32.1244 35.0196 32.1244 35.0196C32.1244 35.0196 39.4731 31.226 36.0982 26.4755C32.9461 22.0454 30.5289 19.8442 43.6147 12.2549C43.6147 12.2549 23.0743 17.3849 32.8848 28.6891Z" fill="#E76F00"/>
<path d="M48.4194 51.2602C48.4194 51.2602 50.1161 52.6582 46.5507 53.7398C39.771 55.7936 18.3327 56.4138 12.3772 53.8216C10.2363 52.8903 14.251 51.5978 15.5139 51.3266C16.8309 51.041 17.5836 51.0942 17.5836 51.0942C15.2027 49.417 2.19485 54.3875 10.9762 55.8109C34.9242 59.6946 54.6312 54.0621 48.4194 51.2602Z" fill="#5382A1"/>
<path d="M23.3232 33.0259C23.3232 33.0259 12.4183 35.616 19.4615 36.5565C22.4354 36.9547 28.3637 36.8646 33.8857 36.4019C38.3987 36.0212 42.9302 35.2118 42.9302 35.2118C42.9302 35.2118 41.3389 35.8933 40.1876 36.6794C29.1139 39.5918 7.7215 38.237 13.8801 35.2579C19.0884 32.7403 23.3232 33.0259 23.3232 33.0259Z" fill="#5382A1"/>
<path d="M42.8851 43.9604C54.142 38.1109 48.9373 32.4895 45.3044 33.2469C44.414 33.4322 44.0169 33.5928 44.0169 33.5928C44.0169 33.5928 44.3475 33.075 44.9789 32.8508C52.1658 30.3241 57.6931 40.303 42.6588 44.2553C42.6588 44.2554 42.833 44.0997 42.8851 43.9604Z" fill="#5382A1"/>
<path d="M36.0984 0C36.0984 0 42.3327 6.23638 30.1855 15.8262C20.4446 23.5188 27.9643 27.905 30.1814 32.9163C24.4956 27.7863 20.3229 23.2703 23.1222 19.0672C27.231 12.8974 38.6138 9.90611 36.0984 0Z" fill="#E76F00"/>
<path d="M24.429 59.8115C35.2343 60.5031 51.827 59.4277 52.22 54.3149C52.22 54.3149 51.4646 56.2531 43.29 57.7924C34.0675 59.528 22.6928 59.3253 15.9464 58.213C15.9465 58.2129 17.3275 59.3561 24.429 59.8115Z" fill="#5382A1"/>
</g>
<defs>
<clipPath id="clip0_1347_124271">
<rect width="60" height="60" fill="white"/>
</clipPath>
</defs>
</svg>
