<svg width="60" height="60" viewBox="0 0 60 60" fill="none" xmlns="http://www.w3.org/2000/svg">
<path fill-rule="evenodd" clip-rule="evenodd" d="M49.382 20.6982C48.7464 20.4801 48.1054 20.2781 47.4595 20.0924C47.5666 19.6572 47.6657 19.2201 47.7566 18.7812C49.2118 11.717 48.2604 6.02613 45.0111 4.15278C41.8958 2.35607 36.8006 4.22942 31.6547 8.70744C31.1476 9.14971 30.6518 9.60471 30.1678 10.072C29.8436 9.76129 29.5137 9.45659 29.1782 9.15807C23.7852 4.3695 18.3795 2.35184 15.1336 4.23075C12.0213 6.03247 11.0994 11.3827 12.4095 18.0774C12.5399 18.7403 12.687 19.3999 12.8509 20.0554C12.086 20.2726 11.3473 20.5042 10.6406 20.7505C4.31799 22.9548 0.280029 26.4097 0.280029 29.993C0.280029 33.6943 4.61453 37.4066 11.2003 39.6574C11.7343 39.8391 12.2728 40.0074 12.8152 40.1622C12.639 40.8684 12.4826 41.5794 12.3461 42.2943C11.097 48.8727 12.0725 54.0961 15.1767 55.8867C18.3829 57.7354 23.7641 55.8351 29.004 51.2548C29.4182 50.8927 29.834 50.5087 30.2502 50.1062C30.7745 50.6121 31.3129 51.1032 31.8646 51.5791C36.9402 55.9467 41.9529 57.7103 45.0544 55.915C48.2577 54.0606 49.2985 48.4493 47.9469 41.6222C47.8438 41.1007 47.7236 40.5682 47.5888 40.0258C47.9667 39.9143 48.3375 39.7991 48.6994 39.6791C55.5458 37.4109 60 33.7437 60 29.993C60 26.3967 55.832 22.9185 49.382 20.6982ZM47.8971 37.2577C47.5707 37.3658 47.2355 37.4702 46.894 37.5714C46.1381 35.1787 45.118 32.6343 43.8699 30.0058C45.0611 27.4395 46.0417 24.9279 46.7764 22.5505C47.3872 22.7276 47.9803 22.9139 48.5517 23.1108C54.0782 25.013 57.4491 27.8259 57.4491 29.9932C57.4491 32.3018 53.8084 35.299 47.8973 37.2577H47.8971ZM45.4444 42.1179C46.0419 45.1367 46.1273 47.8661 45.7314 49.9998C45.3757 51.917 44.6605 53.1952 43.7761 53.7071C41.894 54.7966 37.869 53.3805 33.5287 49.6454C33.031 49.2172 32.5297 48.76 32.027 48.2763C33.7098 46.4357 35.3915 44.296 37.0328 41.9199C39.92 41.6638 42.6476 41.2449 45.1211 40.6732C45.2427 41.1648 45.3511 41.6466 45.4444 42.1179ZM20.6399 53.5189C18.8012 54.1683 17.3367 54.1868 16.4516 53.6765C14.5676 52.5902 13.7848 48.3958 14.8528 42.7702C14.9798 42.1053 15.1252 41.4442 15.2889 40.7874C17.735 41.3284 20.4427 41.7177 23.3368 41.9524C24.9889 44.2775 26.7193 46.4146 28.4632 48.2861C28.0925 48.6446 27.7132 48.9939 27.3253 49.3338C25.0082 51.3594 22.6864 52.7961 20.6402 53.5189H20.6399ZM12.0256 37.2434C9.11356 36.2481 6.7087 34.9546 5.06027 33.5432C3.57913 32.2746 2.83117 31.0152 2.83117 29.9932C2.83117 27.8188 6.07332 25.045 11.4806 23.1597C12.1593 22.9241 12.8448 22.7084 13.5361 22.513C14.2835 24.9437 15.2638 27.4852 16.4468 30.0553C15.2485 32.6636 14.2542 35.2456 13.4999 37.7049C13.0047 37.5632 12.5132 37.4093 12.0256 37.2434ZM14.9133 17.5875C13.7909 11.8514 14.5362 7.52457 16.4119 6.43883C18.41 5.28226 22.8278 6.93148 27.4842 11.0659C27.7818 11.3302 28.0807 11.6069 28.3802 11.8932C26.6453 13.7562 24.9308 15.8772 23.2929 18.1888C20.4842 18.4491 17.7955 18.8672 15.3238 19.4273C15.1715 18.8175 15.0347 18.2039 14.9133 17.5872V17.5875ZM40.6738 23.9484C40.09 22.9399 39.4845 21.9442 38.8578 20.9618C40.7634 21.2023 42.5889 21.5221 44.3031 21.9135C43.7885 23.563 43.1471 25.2878 42.3917 27.056C41.8398 26.0088 41.267 24.9727 40.6738 23.9484ZM30.1687 13.7163C31.3453 14.991 32.5238 16.4145 33.6831 17.9588C31.3316 17.8477 28.9762 17.8472 26.6247 17.9572C27.785 16.4272 28.9735 15.0058 30.1687 13.7163ZM19.5962 23.9658C19.0103 24.982 18.4483 26.0117 17.9105 27.0542C17.1675 25.2921 16.5319 23.5596 16.0128 21.8866C17.7168 21.5052 19.5338 21.1936 21.427 20.957C20.7933 21.9455 20.1828 22.9487 19.5962 23.9658ZM21.4814 39.2114C19.5256 38.9931 17.6811 38.6973 15.9777 38.3265C16.5049 36.6239 17.1546 34.8541 17.9134 33.0543C18.4535 34.0975 19.018 35.1278 19.6065 36.1445C20.207 37.1815 20.8322 38.2041 21.4814 39.2114ZM30.2392 46.4503C29.0301 45.1454 27.8241 43.7024 26.6461 42.1501C27.7895 42.1951 28.9553 42.2178 30.1401 42.2178C31.3575 42.2178 32.5608 42.1906 33.7452 42.1377C32.5823 43.7182 31.408 45.1634 30.2392 46.4503ZM42.416 32.9626C43.2142 34.782 43.8871 36.5422 44.4215 38.216C42.6898 38.6112 40.8205 38.9294 38.8506 39.1657C39.4819 38.1649 40.0931 37.1518 40.6841 36.1267C41.2848 35.085 41.8623 34.03 42.416 32.9626ZM38.474 34.8523C37.5694 36.4238 36.6139 37.9655 35.609 39.4749C33.8371 39.6015 32.0061 39.6668 30.1401 39.6668C28.2818 39.6668 26.474 39.6089 24.7331 39.496C23.7022 37.9901 22.7286 36.4458 21.8144 34.8663C20.9046 33.2952 20.0547 31.6901 19.2666 30.0545C20.0527 28.4184 20.9 26.8124 21.8068 25.24V25.2405C22.7133 23.6678 23.6792 22.1301 24.7024 20.6306C26.4785 20.4964 28.2996 20.4261 30.1404 20.4261C31.9894 20.4261 33.8128 20.4969 35.5884 20.6322C36.6013 22.1293 37.561 23.6617 38.4658 25.2265C39.3757 26.7954 40.2344 28.3935 41.0404 30.0183C40.2426 31.6596 39.3867 33.2719 38.4743 34.8523H38.474ZM43.737 6.36298C45.7367 7.51638 46.5145 12.1672 45.258 18.2665C45.1757 18.6638 45.0862 19.0596 44.9895 19.4537C42.512 18.882 39.8214 18.4565 37.0045 18.1922C35.3635 15.8555 33.6632 13.7308 31.9564 11.8918C32.4037 11.4607 32.8616 11.0406 33.3297 10.6322C37.7387 6.79511 41.8594 5.28014 43.737 6.36298ZM35.4731 29.9934C35.4731 27.0484 33.0857 24.6607 30.1404 24.6607C27.1953 24.6607 24.8076 27.0484 24.8076 29.9934C24.8076 32.9388 27.1953 35.3265 30.1404 35.3265C33.0857 35.3265 35.4731 32.9388 35.4731 29.9934Z" fill="#00D8FF"/>
</svg>
