<svg width="60" height="60" viewBox="0 0 60 60" fill="none" xmlns="http://www.w3.org/2000/svg">
<path d="M32.3435 7.1503C35.9931 2.38845 41.067 2.36523 41.067 2.36523C41.067 2.36523 41.8217 6.84218 38.196 11.1549C34.3246 15.7599 29.9243 15.0064 29.9243 15.0064C29.9243 15.0064 29.098 11.3847 32.3435 7.1503ZM30.3885 18.1425C32.266 18.1425 35.7507 15.5876 40.2864 15.5876C48.0939 15.5876 51.1654 21.0872 51.1654 21.0872C51.1654 21.0872 45.1581 24.1276 45.1581 31.505C45.1581 39.8274 52.6415 42.6956 52.6415 42.6956C52.6415 42.6956 47.4104 57.271 40.3445 57.271C37.0993 57.271 34.5762 55.1061 31.1568 55.1061C27.6722 55.1061 24.2142 57.3518 21.962 57.3518C15.5098 57.3519 7.35849 43.5256 7.35849 32.4116C7.35849 21.4769 14.258 15.7408 20.7296 15.7408C24.9366 15.7408 28.2013 18.1425 30.3885 18.1425Z" fill="#070707"/>
</svg>
