<svg width="60" height="60" viewBox="0 0 60 60" fill="none" xmlns="http://www.w3.org/2000/svg">
<g clip-path="url(#clip0_1347_124265)">
<path d="M13.3359 0C13.6875 0 45.9844 0 46.5703 0C48.1875 0 49.7578 0.257813 51.2813 0.796875C53.4844 1.59375 55.4766 3 56.9766 4.82812C58.5 6.65625 59.5078 8.90625 59.8594 11.25C60 12.1172 60.0234 12.9844 60.0234 13.8516C60.0234 14.6484 60.0234 42.7266 60.0234 43.9922C60.0234 44.7422 60.0234 45.5156 60.0234 46.2656C60.0234 47.2969 59.9766 48.3516 59.7656 49.3594C59.2969 51.6797 58.1953 53.8594 56.6016 55.6172C55.0313 57.375 52.9688 58.6875 50.7422 59.3906C49.3828 59.8125 47.9766 60 46.5469 60C45.9141 60 13.2422 60 12.75 59.9766C10.3594 59.8594 7.9922 59.0859 6.00001 57.75C4.0547 56.4375 2.46095 54.6094 1.4297 52.5C0.539072 50.6953 0.093759 48.6797 0.093759 46.6641C0.093759 46.1953 0.093759 13.8047 0.093759 13.3359C0.046884 11.3438 0.468759 9.375 1.33595 7.59375C2.34376 5.48438 3.91407 3.63281 5.85938 2.32031C7.85157 0.960937 10.1953 0.164062 12.5859 0.046875C12.8203 0 13.0781 0 13.3359 0Z" fill="url(#paint0_linear_1347_124265)"/>
<path d="M50.625 49.0781C50.4141 48.75 50.1797 48.4219 49.9219 48.1172C49.3359 47.4141 48.6562 46.8047 47.9062 46.2891C46.9688 45.6563 45.8672 45.2578 44.7422 45.2109C43.9453 45.1641 43.1484 45.3047 42.3984 45.5859C41.6484 45.8438 40.9219 46.2188 40.2188 46.5938C39.3984 47.0156 38.5781 47.4375 37.7109 47.7891C36.6797 48.2109 35.6016 48.5391 34.5 48.7734C33.1172 49.0313 31.7109 49.125 30.3281 49.1016C27.8203 49.0547 25.3125 48.6797 22.9219 47.9766C20.8125 47.3438 18.7969 46.4766 16.8984 45.375C15.2344 44.4141 13.6875 43.3125 12.2344 42.0703C11.0391 41.0391 9.9375 39.9375 8.90625 38.7656C8.20312 37.9453 7.52344 37.0781 6.89062 36.1875C6.63281 35.8359 6.39844 35.4609 6.1875 35.0859L0 28.4063V13.2891C0 5.95313 5.92969 0 13.2656 0H25.1016L33.8672 8.90625C53.6484 22.3594 47.25 37.1953 47.25 37.1953C47.25 37.1953 52.875 43.5234 50.625 49.0781Z" fill="url(#paint1_linear_1347_124265)"/>
<path d="M33.9141 8.90625C53.6953 22.3594 47.2969 37.1953 47.2969 37.1953C47.2969 37.1953 52.9219 43.5469 50.6484 49.1016C50.6484 49.1016 48.3281 45.2109 44.4375 45.2109C40.6875 45.2109 38.4844 49.1016 30.9375 49.1016C14.1328 49.1016 6.1875 35.0625 6.1875 35.0625C21.3281 45.0234 31.6641 37.9688 31.6641 37.9688C24.8438 34.0078 10.3359 15.0703 10.3359 15.0703C22.9688 25.8281 28.4297 28.6641 28.4297 28.6641C25.1719 25.9688 16.0312 12.7969 16.0312 12.7969C23.3438 20.2031 37.875 30.5391 37.875 30.5391C42 19.1016 33.9141 8.90625 33.9141 8.90625Z" fill="white"/>
</g>
<defs>
<linearGradient id="paint0_linear_1347_124265" x1="35.693" y1="-2.14097" x2="24.357" y2="62.1484" gradientUnits="userSpaceOnUse">
<stop stop-color="#FAAE42"/>
<stop offset="1" stop-color="#EF3E31"/>
</linearGradient>
<linearGradient id="paint1_linear_1347_124265" x1="30.6121" y1="0.969445" x2="22.3155" y2="48.0217" gradientUnits="userSpaceOnUse">
<stop stop-color="#E39F3A"/>
<stop offset="1" stop-color="#D33929"/>
</linearGradient>
<clipPath id="clip0_1347_124265">
<rect width="60" height="60" fill="white"/>
</clipPath>
</defs>
</svg>
